<svg id="my-svg" width="100%" xmlns="http://www.w3.org/2000/svg" xmlns:xlink="http://www.w3.org/1999/xlink" class="classDiagram" style="max-width: 3852.58px; background-color: white;" viewBox="0 0 3852.58203125 476" role="graphics-document document" aria-roledescription="class"><style>#my-svg{font-family:"trebuchet ms",verdana,arial,sans-serif;font-size:16px;fill:#333;}@keyframes edge-animation-frame{from{stroke-dashoffset:0;}}@keyframes dash{to{stroke-dashoffset:0;}}#my-svg .edge-animation-slow{stroke-dasharray:9,5!important;stroke-dashoffset:900;animation:dash 50s linear infinite;stroke-linecap:round;}#my-svg .edge-animation-fast{stroke-dasharray:9,5!important;stroke-dashoffset:900;animation:dash 20s linear infinite;stroke-linecap:round;}#my-svg .error-icon{fill:#552222;}#my-svg .error-text{fill:#552222;stroke:#552222;}#my-svg .edge-thickness-normal{stroke-width:1px;}#my-svg .edge-thickness-thick{stroke-width:3.5px;}#my-svg .edge-pattern-solid{stroke-dasharray:0;}#my-svg .edge-thickness-invisible{stroke-width:0;fill:none;}#my-svg .edge-pattern-dashed{stroke-dasharray:3;}#my-svg .edge-pattern-dotted{stroke-dasharray:2;}#my-svg .marker{fill:#333333;stroke:#333333;}#my-svg .marker.cross{stroke:#333333;}#my-svg svg{font-family:"trebuchet ms",verdana,arial,sans-serif;font-size:16px;}#my-svg p{margin:0;}#my-svg g.classGroup text{fill:#9370DB;stroke:none;font-family:"trebuchet ms",verdana,arial,sans-serif;font-size:10px;}#my-svg g.classGroup text .title{font-weight:bolder;}#my-svg .cluster-label text{fill:#333;}#my-svg .cluster-label span{color:#333;}#my-svg .cluster-label span p{background-color:transparent;}#my-svg .cluster rect{fill:#ffffde;stroke:#aaaa33;stroke-width:1px;}#my-svg .cluster text{fill:#333;}#my-svg .cluster span{color:#333;}#my-svg .nodeLabel,#my-svg .edgeLabel{color:#131300;}#my-svg .noteLabel .nodeLabel,#my-svg .noteLabel .edgeLabel{color:black;}#my-svg .edgeLabel .label rect{fill:#ECECFF;}#my-svg .label text{fill:#131300;}#my-svg .labelBkg{background:#ECECFF;}#my-svg .edgeLabel .label span{background:#ECECFF;}#my-svg .classTitle{font-weight:bolder;}#my-svg .node rect,#my-svg .node circle,#my-svg .node ellipse,#my-svg .node polygon,#my-svg .node path{fill:#ECECFF;stroke:#9370DB;stroke-width:1;}#my-svg .divider{stroke:#9370DB;stroke-width:1;}#my-svg g.clickable{cursor:pointer;}#my-svg g.classGroup rect{fill:#ECECFF;stroke:#9370DB;}#my-svg g.classGroup line{stroke:#9370DB;stroke-width:1;}#my-svg .classLabel .box{stroke:none;stroke-width:0;fill:#ECECFF;opacity:0.5;}#my-svg .classLabel .label{fill:#9370DB;font-size:10px;}#my-svg .relation{stroke:#333333;stroke-width:1;fill:none;}#my-svg .dashed-line{stroke-dasharray:3;}#my-svg .dotted-line{stroke-dasharray:1 2;}#my-svg [id$="-compositionStart"],#my-svg .composition{fill:#333333!important;stroke:#333333!important;stroke-width:1;}#my-svg [id$="-compositionEnd"],#my-svg .composition{fill:#333333!important;stroke:#333333!important;stroke-width:1;}#my-svg [id$="-dependencyStart"],#my-svg .dependency{fill:#333333!important;stroke:#333333!important;stroke-width:1;}#my-svg [id$="-dependencyEnd"],#my-svg .dependency{fill:#333333!important;stroke:#333333!important;stroke-width:1;}#my-svg [id$="-extensionStart"],#my-svg .extension{fill:transparent!important;stroke:#333333!important;stroke-width:1;}#my-svg [id$="-extensionEnd"],#my-svg .extension{fill:transparent!important;stroke:#333333!important;stroke-width:1;}#my-svg [id$="-aggregationStart"],#my-svg .aggregation{fill:transparent!important;stroke:#333333!important;stroke-width:1;}#my-svg [id$="-aggregationEnd"],#my-svg .aggregation{fill:transparent!important;stroke:#333333!important;stroke-width:1;}#my-svg [id$="-lollipopStart"],#my-svg .lollipop{fill:#ECECFF!important;stroke:#333333!important;stroke-width:1;}#my-svg [id$="-lollipopEnd"],#my-svg .lollipop{fill:#ECECFF!important;stroke:#333333!important;stroke-width:1;}#my-svg .edgeTerminals{font-size:11px;line-height:initial;}#my-svg .classTitleText{text-anchor:middle;font-size:18px;fill:#333;}#my-svg .edgeLabel[data-look="neo"]{background-color:rgba(232,232,232, 0.8);text-align:center;}#my-svg .edgeLabel[data-look="neo"] p{background-color:rgba(232,232,232, 0.8);}#my-svg .edgeLabel[data-look="neo"] rect{opacity:0.5;background-color:rgba(232,232,232, 0.8);fill:rgba(232,232,232, 0.8);}#my-svg .label-icon{display:inline-block;height:1em;overflow:visible;vertical-align:-0.125em;}#my-svg .node .label-icon path{fill:currentColor;stroke:revert;stroke-width:revert;}#my-svg .node .neo-node{stroke:#9370DB;}#my-svg [data-look="neo"].node rect,#my-svg [data-look="neo"].cluster rect,#my-svg [data-look="neo"].node polygon{stroke:#9370DB;filter:drop-shadow(1px 2px 2px rgba(185, 185, 185, 1));}#my-svg [data-look="neo"].node path{stroke:#9370DB;stroke-width:1px;}#my-svg [data-look="neo"].node .outer-path{filter:drop-shadow(1px 2px 2px rgba(185, 185, 185, 1));}#my-svg [data-look="neo"].node .neo-line path{stroke:#9370DB;filter:none;}#my-svg [data-look="neo"].node circle{stroke:#9370DB;filter:drop-shadow(1px 2px 2px rgba(185, 185, 185, 1));}#my-svg [data-look="neo"].node circle .state-start{fill:#000000;}#my-svg [data-look="neo"].icon-shape .icon{fill:#9370DB;filter:drop-shadow(1px 2px 2px rgba(185, 185, 185, 1));}#my-svg [data-look="neo"].icon-shape .icon-neo path{stroke:#9370DB;filter:drop-shadow(1px 2px 2px rgba(185, 185, 185, 1));}#my-svg :root{--mermaid-font-family:"trebuchet ms",verdana,arial,sans-serif;}</style><g><defs><marker id="my-svg_class-aggregationStart" class="marker aggregation class" refX="18" refY="7" markerWidth="190" markerHeight="240" orient="auto"><path d="M 18,7 L9,13 L1,7 L9,1 Z"/></marker></defs><defs><marker id="my-svg_class-aggregationEnd" class="marker aggregation class" refX="1" refY="7" markerWidth="20" markerHeight="28" orient="auto"><path d="M 18,7 L9,13 L1,7 L9,1 Z"/></marker></defs><defs><marker id="my-svg_class-aggregationStart-margin" class="marker aggregation class" refX="15" refY="7" markerWidth="190" markerHeight="240" orient="auto" markerUnits="userSpaceOnUse"><path d="M 18,7 L9,13 L1,7 L9,1 Z" style="stroke-width: 2;"/></marker></defs><defs><marker id="my-svg_class-aggregationEnd-margin" class="marker aggregation class" refX="1" refY="7" markerWidth="20" markerHeight="28" orient="auto" markerUnits="userSpaceOnUse"><path d="M 18,7 L9,13 L1,7 L9,1 Z" style="stroke-width: 2;"/></marker></defs><defs><marker id="my-svg_class-extensionStart" class="marker extension class" refX="18" refY="7" markerWidth="20" markerHeight="28" orient="auto" markerUnits="userSpaceOnUse"><path d="M 1,7 L18,13 V 1 Z"/></marker></defs><defs><marker id="my-svg_class-extensionEnd" class="marker extension class" refX="1" refY="7" markerWidth="20" markerHeight="28" orient="auto"><path d="M 1,1 V 13 L18,7 Z"/></marker></defs><marker id="my-svg_class-extensionStart-margin" class="marker extension class" refX="18" refY="7" markerWidth="20" markerHeight="28" orient="auto" markerUnits="userSpaceOnUse" viewBox="0 0 20 14"><polygon points="10,7 18,13 18,1" style="stroke-width: 2; stroke-dasharray: 0;"/></marker><defs><marker id="my-svg_class-extensionEnd-margin" class="marker extension class" refX="9" refY="7" markerWidth="20" markerHeight="28" orient="auto" markerUnits="userSpaceOnUse" viewBox="0 0 20 14"><polygon points="10,1 10,13 18,7" style="stroke-width: 2; stroke-dasharray: 0;"/></marker></defs><defs><marker id="my-svg_class-compositionStart" class="marker composition class" refX="18" refY="7" markerWidth="190" markerHeight="240" orient="auto"><path d="M 18,7 L9,13 L1,7 L9,1 Z"/></marker></defs><defs><marker id="my-svg_class-compositionEnd" class="marker composition class" refX="1" refY="7" markerWidth="20" markerHeight="28" orient="auto"><path d="M 18,7 L9,13 L1,7 L9,1 Z"/></marker></defs><defs><marker id="my-svg_class-compositionStart-margin" class="marker composition class" refX="15" refY="7" markerWidth="190" markerHeight="240" orient="auto" markerUnits="userSpaceOnUse"><path viewBox="0 0 15 15" d="M 18,7 L9,13 L1,7 L9,1 Z" style="stroke-width: 0;"/></marker></defs><defs><marker id="my-svg_class-compositionEnd-margin" class="marker composition class" refX="3.5" refY="7" markerWidth="20" markerHeight="28" orient="auto" markerUnits="userSpaceOnUse"><path d="M 18,7 L9,13 L1,7 L9,1 Z" style="stroke-width: 0;"/></marker></defs><defs><marker id="my-svg_class-dependencyStart" class="marker dependency class" refX="6" refY="7" markerWidth="190" markerHeight="240" orient="auto"><path d="M 5,7 L9,13 L1,7 L9,1 Z"/></marker></defs><defs><marker id="my-svg_class-dependencyEnd" class="marker dependency class" refX="13" refY="7" markerWidth="20" markerHeight="28" orient="auto"><path d="M 18,7 L9,13 L14,7 L9,1 Z"/></marker></defs><defs><marker id="my-svg_class-dependencyStart-margin" class="marker dependency class" refX="4" refY="7" markerWidth="190" markerHeight="240" orient="auto" markerUnits="userSpaceOnUse"><path d="M 5,7 L9,13 L1,7 L9,1 Z" style="stroke-width: 0;"/></marker></defs><defs><marker id="my-svg_class-dependencyEnd-margin" class="marker dependency class" refX="16" refY="7" markerWidth="20" markerHeight="28" orient="auto" markerUnits="userSpaceOnUse"><path d="M 18,7 L9,13 L14,7 L9,1 Z" style="stroke-width: 0;"/></marker></defs><defs><marker id="my-svg_class-lollipopStart" class="marker lollipop class" refX="13" refY="7" markerWidth="190" markerHeight="240" orient="auto"><circle fill="transparent" cx="7" cy="7" r="6"/></marker></defs><defs><marker id="my-svg_class-lollipopEnd" class="marker lollipop class" refX="1" refY="7" markerWidth="190" markerHeight="240" orient="auto"><circle fill="transparent" cx="7" cy="7" r="6"/></marker></defs><defs><marker id="my-svg_class-lollipopStart-margin" class="marker lollipop class" refX="13" refY="7" markerWidth="190" markerHeight="240" orient="auto" markerUnits="userSpaceOnUse"><circle fill="transparent" cx="7" cy="7" r="6" stroke-width="2"/></marker></defs><defs><marker id="my-svg_class-lollipopEnd-margin" class="marker lollipop class" refX="1" refY="7" markerWidth="190" markerHeight="240" orient="auto" markerUnits="userSpaceOnUse"><circle fill="transparent" cx="7" cy="7" r="6" stroke-width="2"/></marker></defs><g class="root"><g class="clusters"/><g class="edgePaths"><path d="M1911.457,303.941L1902.799,307.118C1894.141,310.294,1876.825,316.647,1868.168,323.99C1859.51,331.333,1859.51,339.667,1859.51,343.833L1859.51,348" id="my-svg-id_MediaFile_ImageFile_1" class="edge-thickness-normal edge-pattern-solid relation" style=";;;" data-edge="true" data-et="edge" data-id="id_MediaFile_ImageFile_1" data-points="W3sieCI6MTkyNy42NTE0MjQ2MzIzNTMsInkiOjI5OH0seyJ4IjoxODU5LjUwOTc2NTYyNSwieSI6MzIzfSx7IngiOjE4NTkuNTA5NzY1NjI1LCJ5IjozNDh9XQ==" data-look="classic" marker-start="url(#my-svg_class-extensionStart)"/><path d="M2270.926,303.941L2279.584,307.118C2288.242,310.294,2305.557,316.647,2314.215,323.99C2322.873,331.333,2322.873,339.667,2322.873,343.833L2322.873,348" id="my-svg-id_MediaFile_AudioFile_2" class="edge-thickness-normal edge-pattern-solid relation" style=";;;" data-edge="true" data-et="edge" data-id="id_MediaFile_AudioFile_2" data-points="W3sieCI6MjI1NC43MzEzODc4Njc2NDcsInkiOjI5OH0seyJ4IjoyMzIyLjg3MzA0Njg3NSwieSI6MzIzfSx7IngiOjIzMjIuODczMDQ2ODc1LCJ5IjozNDh9XQ==" data-look="classic" marker-start="url(#my-svg_class-extensionStart)"/><path d="M2674.82,145.25L2674.82,146.542C2674.82,147.833,2674.82,150.417,2674.82,155.875C2674.82,161.333,2674.82,169.667,2674.82,173.833L2674.82,178" id="my-svg-id_TimedText_Cue_3" class="edge-thickness-normal edge-pattern-solid relation" style=";;;" data-edge="true" data-et="edge" data-id="id_TimedText_Cue_3" data-points="W3sieCI6MjY3NC44MjAzMTI1LCJ5IjoxMjh9LHsieCI6MjY3NC44MjAzMTI1LCJ5IjoxNTN9LHsieCI6MjY3NC44MjAzMTI1LCJ5IjoxNzh9XQ==" data-look="classic" marker-start="url(#my-svg_class-compositionStart)"/><path d="M3567.969,145.25L3567.969,146.542C3567.969,147.833,3567.969,150.417,3567.969,155.875C3567.969,161.333,3567.969,169.667,3567.969,173.833L3567.969,178" id="my-svg-id_SegmentModel_Segment_4" class="edge-thickness-normal edge-pattern-solid relation" style=";;;" data-edge="true" data-et="edge" data-id="id_SegmentModel_Segment_4" data-points="W3sieCI6MzU2Ny45Njg3NSwieSI6MTI4fSx7IngiOjM1NjcuOTY4NzUsInkiOjE1M30seyJ4IjozNTY3Ljk2ODc1LCJ5IjoxNzh9XQ==" data-look="classic" marker-start="url(#my-svg_class-compositionStart)"/><path d="M2091.191,145.25L2091.191,146.542C2091.191,147.833,2091.191,150.417,2091.191,155.875C2091.191,161.333,2091.191,169.667,2091.191,173.833L2091.191,178" id="my-svg-id_Delivery_MediaFile_5" class="edge-thickness-normal edge-pattern-solid relation" style=";;;" data-edge="true" data-et="edge" data-id="id_Delivery_MediaFile_5" data-points="W3sieCI6MjA5MS4xOTE0MDYyNSwieSI6MTI4fSx7IngiOjIwOTEuMTkxNDA2MjUsInkiOjE1M30seyJ4IjoyMDkxLjE5MTQwNjI1LCJ5IjoxNzh9XQ==" data-look="classic" marker-start="url(#my-svg_class-compositionStart)"/></g><g class="edgeLabels"><g class="edgeLabel"><g class="label" data-id="id_MediaFile_ImageFile_1" transform="translate(0, 0)"><foreignObject width="0" height="0"><div xmlns="http://www.w3.org/1999/xhtml" class="labelBkg" style="display: table-cell; white-space: nowrap; line-height: 1.5; max-width: 200px; text-align: center;"><span class="edgeLabel"></span></div></foreignObject></g></g><g class="edgeLabel"><g class="label" data-id="id_MediaFile_AudioFile_2" transform="translate(0, 0)"><foreignObject width="0" height="0"><div xmlns="http://www.w3.org/1999/xhtml" class="labelBkg" style="display: table-cell; white-space: nowrap; line-height: 1.5; max-width: 200px; text-align: center;"><span class="edgeLabel"></span></div></foreignObject></g></g><g class="edgeLabel"><g class="label" data-id="id_TimedText_Cue_3" transform="translate(0, 0)"><foreignObject width="0" height="0"><div xmlns="http://www.w3.org/1999/xhtml" class="labelBkg" style="display: table-cell; white-space: nowrap; line-height: 1.5; max-width: 200px; text-align: center;"><span class="edgeLabel"></span></div></foreignObject></g></g><g class="edgeLabel"><g class="label" data-id="id_SegmentModel_Segment_4" transform="translate(0, 0)"><foreignObject width="0" height="0"><div xmlns="http://www.w3.org/1999/xhtml" class="labelBkg" style="display: table-cell; white-space: nowrap; line-height: 1.5; max-width: 200px; text-align: center;"><span class="edgeLabel"></span></div></foreignObject></g></g><g class="edgeLabel"><g class="label" data-id="id_Delivery_MediaFile_5" transform="translate(0, 0)"><foreignObject width="0" height="0"><div xmlns="http://www.w3.org/1999/xhtml" class="labelBkg" style="display: table-cell; white-space: nowrap; line-height: 1.5; max-width: 200px; text-align: center;"><span class="edgeLabel"></span></div></foreignObject></g></g></g><g class="nodes"><g class="node default" id="my-svg-classId-MediaFile-0" data-look="classic" transform="translate(2091.19140625, 238)"><g class="basic label-container outer-path"><path d="M-349.75 -60 L349.75 -60 L349.75 60 L-349.75 60" stroke="none" stroke-width="0" fill="#ECECFF" style=""/><path d="M-349.75 -60 C-76.29189701059005 -60, 197.1662059788199 -60, 349.75 -60 M-349.75 -60 C-164.84860464391363 -60, 20.052790712172737 -60, 349.75 -60 M349.75 -60 C349.75 -22.612338915335044, 349.75 14.775322169329911, 349.75 60 M349.75 -60 C349.75 -13.34412729693711, 349.75 33.31174540612578, 349.75 60 M349.75 60 C171.94870774443677 60, -5.852584511126452 60, -349.75 60 M349.75 60 C209.59060509794622 60, 69.43121019589245 60, -349.75 60 M-349.75 60 C-349.75 17.164625080804946, -349.75 -25.67074983839011, -349.75 -60 M-349.75 60 C-349.75 24.313437558301906, -349.75 -11.373124883396187, -349.75 -60" stroke="#9370DB" stroke-width="1.3" fill="none" stroke-dasharray="0 0" style=""/></g><g class="annotation-group text" transform="translate(0, -36)"/><g class="label-group text" transform="translate(-36.453125, -36)"><g class="label" style="font-weight: bolder" transform="translate(0,-12)"><foreignObject width="72.90625" height="24"><div xmlns="http://www.w3.org/1999/xhtml" style="display: table-cell; white-space: nowrap; line-height: 1.5; max-width: 116px; text-align: center;"><span class="nodeLabel markdown-node-label" style=""><p>MediaFile</p></span></div></foreignObject></g></g><g class="members-group text" transform="translate(-337.75, 12)"><g class="label" style="" transform="translate(0,-12)"><foreignObject width="639.046875" height="24"><div xmlns="http://www.w3.org/1999/xhtml" style="display: table-cell; white-space: nowrap; line-height: 1.5; max-width: 669px; text-align: center;"><span class="nodeLabel markdown-node-label" style=""><p>&lt;&gt; +Path path; +String container; +Count vStreams; +Count aStreams; +Duration duration</p></span></div></foreignObject></g></g><g class="methods-group text" transform="translate(-337.75, 60)"/><g class="divider" style=""><path d="M-349.75 -12 C-184.3724316396267 -11.999763577457669, -18.994863279253423 -11.999527154915338, 349.75 -11.999 M-349.75 -12 C-100.2413253834039 -11.999643304253587, 149.2673492331922 -11.999286608507173, 349.75 -11.999" stroke="#9370DB" stroke-width="1.3" fill="none" stroke-dasharray="0 0" style=""/></g><g class="divider" style=""><path d="M-349.75 36 C-174.05729832484369 36.000251168980235, 1.6354033503126288 36.00050233796047, 349.75 36.001 M-349.75 36 C-206.9937742506699 36.0002040832391, -64.2375485013398 36.000408166478195, 349.75 36.001" stroke="#9370DB" stroke-width="1.3" fill="none" stroke-dasharray="0 0" style=""/></g></g><g class="node default" id="my-svg-classId-ImageFile-1" data-look="classic" transform="translate(1859.509765625, 408)"><g class="basic label-container outer-path"><path d="M-186.7890625 -60 L186.7890625 -60 L186.7890625 60 L-186.7890625 60" stroke="none" stroke-width="0" fill="#ECECFF" style=""/><path d="M-186.7890625 -60 C-90.11074708252633 -60, 6.567568334947339 -60, 186.7890625 -60 M-186.7890625 -60 C-61.97412684358288 -60, 62.84080881283424 -60, 186.7890625 -60 M186.7890625 -60 C186.7890625 -14.161117898754675, 186.7890625 31.67776420249065, 186.7890625 60 M186.7890625 -60 C186.7890625 -17.03491070935086, 186.7890625 25.93017858129828, 186.7890625 60 M186.7890625 60 C47.68823117621841 60, -91.41260014756318 60, -186.7890625 60 M186.7890625 60 C71.6045322520926 60, -43.57999799581481 60, -186.7890625 60 M-186.7890625 60 C-186.7890625 15.772352745229135, -186.7890625 -28.45529450954173, -186.7890625 -60 M-186.7890625 60 C-186.7890625 15.787322023125355, -186.7890625 -28.42535595374929, -186.7890625 -60" stroke="#9370DB" stroke-width="1.3" fill="none" stroke-dasharray="0 0" style=""/></g><g class="annotation-group text" transform="translate(0, -36)"/><g class="label-group text" transform="translate(-36.90625, -36)"><g class="label" style="font-weight: bolder" transform="translate(0,-12)"><foreignObject width="73.8125" height="24"><div xmlns="http://www.w3.org/1999/xhtml" style="display: table-cell; white-space: nowrap; line-height: 1.5; max-width: 115px; text-align: center;"><span class="nodeLabel markdown-node-label" style=""><p>ImageFile</p></span></div></foreignObject></g></g><g class="members-group text" transform="translate(-174.7890625, 12)"><g class="label" style="" transform="translate(0,-12)"><foreignObject width="312.671875" height="24"><div xmlns="http://www.w3.org/1999/xhtml" style="display: table-cell; white-space: nowrap; line-height: 1.5; max-width: 376px; text-align: center;"><span class="nodeLabel markdown-node-label" style=""><p>&lt;&gt; +Path path; +Count width; +Count height</p></span></div></foreignObject></g></g><g class="methods-group text" transform="translate(-174.7890625, 60)"/><g class="divider" style=""><path d="M-186.7890625 -12 C-94.0877589342024 -11.999751855643138, -1.3864553684047962 -11.999503711286277, 186.7890625 -11.999 M-186.7890625 -12 C-49.648664429397286 -11.999632900352314, 87.49173364120543 -11.99926580070463, 186.7890625 -11.999" stroke="#9370DB" stroke-width="1.3" fill="none" stroke-dasharray="0 0" style=""/></g><g class="divider" style=""><path d="M-186.7890625 36 C-91.44075578336768 36.00025522989794, 3.9075509332646448 36.00051045979588, 186.7890625 36.001 M-186.7890625 36 C-110.29702957366442 36.00020475511762, -33.804996647328835 36.00040951023525, 186.7890625 36.001" stroke="#9370DB" stroke-width="1.3" fill="none" stroke-dasharray="0 0" style=""/></g></g><g class="node default" id="my-svg-classId-AudioFile-2" data-look="classic" transform="translate(2322.873046875, 408)"><g class="basic label-container outer-path"><path d="M-226.57421875 -60 L226.57421875 -60 L226.57421875 60 L-226.57421875 60" stroke="none" stroke-width="0" fill="#ECECFF" style=""/><path d="M-226.57421875 -60 C-99.6295923042264 -60, 27.315034141547187 -60, 226.57421875 -60 M-226.57421875 -60 C-55.239600549627966 -60, 116.09501765074407 -60, 226.57421875 -60 M226.57421875 -60 C226.57421875 -28.159391376394836, 226.57421875 3.681217247210327, 226.57421875 60 M226.57421875 -60 C226.57421875 -26.130409750001135, 226.57421875 7.73918049999773, 226.57421875 60 M226.57421875 60 C51.33463321563161 60, -123.90495231873678 60, -226.57421875 60 M226.57421875 60 C129.33509623963386 60, 32.09597372926774 60, -226.57421875 60 M-226.57421875 60 C-226.57421875 35.393540036321106, -226.57421875 10.787080072642212, -226.57421875 -60 M-226.57421875 60 C-226.57421875 29.227794734411486, -226.57421875 -1.5444105311770286, -226.57421875 -60" stroke="#9370DB" stroke-width="1.3" fill="none" stroke-dasharray="0 0" style=""/></g><g class="annotation-group text" transform="translate(0, -36)"/><g class="label-group text" transform="translate(-36.4453125, -36)"><g class="label" style="font-weight: bolder" transform="translate(0,-12)"><foreignObject width="72.890625" height="24"><div xmlns="http://www.w3.org/1999/xhtml" style="display: table-cell; white-space: nowrap; line-height: 1.5; max-width: 115px; text-align: center;"><span class="nodeLabel markdown-node-label" style=""><p>AudioFile</p></span></div></foreignObject></g></g><g class="members-group text" transform="translate(-214.57421875, 12)"><g class="label" style="" transform="translate(0,-12)"><foreignObject width="392.703125" height="24"><div xmlns="http://www.w3.org/1999/xhtml" style="display: table-cell; white-space: nowrap; line-height: 1.5; max-width: 445px; text-align: center;"><span class="nodeLabel markdown-node-label" style=""><p>&lt;&gt; +Path path; +Duration duration; +Count sampleRate</p></span></div></foreignObject></g></g><g class="methods-group text" transform="translate(-214.57421875, 60)"/><g class="divider" style=""><path d="M-226.57421875 -12 C-116.65623394613263 -11.999757434924833, -6.738249142265261 -11.999514869849667, 226.57421875 -11.999 M-226.57421875 -12 C-106.44407873136899 -11.99973489892036, 13.68606128726202 -11.99946979784072, 226.57421875 -11.999" stroke="#9370DB" stroke-width="1.3" fill="none" stroke-dasharray="0 0" style=""/></g><g class="divider" style=""><path d="M-226.57421875 36 C-119.15850550957292 36.0002370431063, -11.742792269145838 36.0004740862126, 226.57421875 36.001 M-226.57421875 36 C-89.5708793738491 36.000302336559145, 47.43246000230181 36.00060467311829, 226.57421875 36.001" stroke="#9370DB" stroke-width="1.3" fill="none" stroke-dasharray="0 0" style=""/></g></g><g class="node default" id="my-svg-classId-EditDecision-3" data-look="classic" transform="translate(441.7109375, 68)"><g class="basic label-container outer-path"><path d="M-433.7109375 -60 L433.7109375 -60 L433.7109375 60 L-433.7109375 60" stroke="none" stroke-width="0" fill="#ECECFF" style=""/><path d="M-433.7109375 -60 C-191.69643818050312 -60, 50.318061138993755 -60, 433.7109375 -60 M-433.7109375 -60 C-188.15665001447047 -60, 57.397637471059056 -60, 433.7109375 -60 M433.7109375 -60 C433.7109375 -20.01620404987041, 433.7109375 19.96759190025918, 433.7109375 60 M433.7109375 -60 C433.7109375 -27.489805008791095, 433.7109375 5.020389982417811, 433.7109375 60 M433.7109375 60 C125.63844357289122 60, -182.43405035421756 60, -433.7109375 60 M433.7109375 60 C130.14712094223495 60, -173.4166956155301 60, -433.7109375 60 M-433.7109375 60 C-433.7109375 21.666001880812033, -433.7109375 -16.667996238375935, -433.7109375 -60 M-433.7109375 60 C-433.7109375 25.940981208276305, -433.7109375 -8.11803758344739, -433.7109375 -60" stroke="#9370DB" stroke-width="1.3" fill="none" stroke-dasharray="0 0" style=""/></g><g class="annotation-group text" transform="translate(0, -36)"/><g class="label-group text" transform="translate(-48.453125, -36)"><g class="label" style="font-weight: bolder" transform="translate(0,-12)"><foreignObject width="96.90625" height="24"><div xmlns="http://www.w3.org/1999/xhtml" style="display: table-cell; white-space: nowrap; line-height: 1.5; max-width: 134px; text-align: center;"><span class="nodeLabel markdown-node-label" style=""><p>EditDecision</p></span></div></foreignObject></g></g><g class="members-group text" transform="translate(-421.7109375, 12)"><g class="label" style="" transform="translate(0,-12)"><foreignObject width="794.96875" height="24"><div xmlns="http://www.w3.org/1999/xhtml" style="display: table-cell; white-space: nowrap; line-height: 1.5; max-width: 826px; text-align: center;"><span class="nodeLabel markdown-node-label" style=""><p>&lt;&gt; +Boolean[] keepSet; +Permutation order; +TransitionKind[] transitions; +Real[] trackLevels; +Boolean[] mutes</p></span></div></foreignObject></g></g><g class="methods-group text" transform="translate(-421.7109375, 60)"/><g class="divider" style=""><path d="M-433.7109375 -12 C-164.83351730592858 -11.999690026931596, 104.04390288814284 -11.999380053863193, 433.7109375 -11.999 M-433.7109375 -12 C-192.45037935953837 -11.999721864798325, 48.81017878092325 -11.999443729596651, 433.7109375 -11.999" stroke="#9370DB" stroke-width="1.3" fill="none" stroke-dasharray="0 0" style=""/></g><g class="divider" style=""><path d="M-433.7109375 36 C-141.126258966389 36.00033730378143, 151.458419567222 36.000674607562864, 433.7109375 36.001 M-433.7109375 36 C-217.93602749531433 36.00024875428696, -2.161117490628669 36.00049750857391, 433.7109375 36.001" stroke="#9370DB" stroke-width="1.3" fill="none" stroke-dasharray="0 0" style=""/></g></g><g class="node default" id="my-svg-classId-FilterGraph-4" data-look="classic" transform="translate(1033.46484375, 68)"><g class="basic label-container outer-path"><path d="M-108.04296875 -60 L108.04296875 -60 L108.04296875 60 L-108.04296875 60" stroke="none" stroke-width="0" fill="#ECECFF" style=""/><path d="M-108.04296875 -60 C-47.36367672104937 -60, 13.315615307901254 -60, 108.04296875 -60 M-108.04296875 -60 C-42.1555698231857 -60, 23.7318291036286 -60, 108.04296875 -60 M108.04296875 -60 C108.04296875 -24.938567519503565, 108.04296875 10.122864960992871, 108.04296875 60 M108.04296875 -60 C108.04296875 -27.70088606527561, 108.04296875 4.5982278694487775, 108.04296875 60 M108.04296875 60 C44.468539582100384 60, -19.105889585799233 60, -108.04296875 60 M108.04296875 60 C34.99345104801169 60, -38.056066653976615 60, -108.04296875 60 M-108.04296875 60 C-108.04296875 21.48097958727319, -108.04296875 -17.03804082545362, -108.04296875 -60 M-108.04296875 60 C-108.04296875 13.676921458196468, -108.04296875 -32.646157083607065, -108.04296875 -60" stroke="#9370DB" stroke-width="1.3" fill="none" stroke-dasharray="0 0" style=""/></g><g class="annotation-group text" transform="translate(0, -36)"/><g class="label-group text" transform="translate(-43.1171875, -36)"><g class="label" style="font-weight: bolder" transform="translate(0,-12)"><foreignObject width="86.234375" height="24"><div xmlns="http://www.w3.org/1999/xhtml" style="display: table-cell; white-space: nowrap; line-height: 1.5; max-width: 125px; text-align: center;"><span class="nodeLabel markdown-node-label" style=""><p>FilterGraph</p></span></div></foreignObject></g></g><g class="members-group text" transform="translate(-96.04296875, 12)"><g class="label" style="" transform="translate(0,-12)"><foreignObject width="148.96875" height="24"><div xmlns="http://www.w3.org/1999/xhtml" style="display: table-cell; white-space: nowrap; line-height: 1.5; max-width: 224px; text-align: center;"><span class="nodeLabel markdown-node-label" style=""><p>&lt;&gt; +String command</p></span></div></foreignObject></g></g><g class="methods-group text" transform="translate(-96.04296875, 60)"/><g class="divider" style=""><path d="M-108.04296875 -12 C-28.961179783351085 -11.999634026212526, 50.12060918329783 -11.999268052425053, 108.04296875 -11.999 M-108.04296875 -12 C-64.12267764306463 -11.999796746185268, -20.202386536129254 -11.999593492370535, 108.04296875 -11.999" stroke="#9370DB" stroke-width="1.3" fill="none" stroke-dasharray="0 0" style=""/></g><g class="divider" style=""><path d="M-108.04296875 36 C-62.76204660935179 36.00020955052728, -17.481124468703584 36.000419101054554, 108.04296875 36.001 M-108.04296875 36 C-44.48580496642142 36.00029412910678, 19.07135881715716 36.00058825821355, 108.04296875 36.001" stroke="#9370DB" stroke-width="1.3" fill="none" stroke-dasharray="0 0" style=""/></g></g><g class="node default" id="my-svg-classId-Measurement-5" data-look="classic" transform="translate(1462.7109375, 68)"><g class="basic label-container outer-path"><path d="M-271.203125 -60 L271.203125 -60 L271.203125 60 L-271.203125 60" stroke="none" stroke-width="0" fill="#ECECFF" style=""/><path d="M-271.203125 -60 C-102.43691591279733 -60, 66.32929317440534 -60, 271.203125 -60 M-271.203125 -60 C-116.72544069473628 -60, 37.752243610527444 -60, 271.203125 -60 M271.203125 -60 C271.203125 -12.102869369015309, 271.203125 35.79426126196938, 271.203125 60 M271.203125 -60 C271.203125 -26.741948760881968, 271.203125 6.516102478236064, 271.203125 60 M271.203125 60 C94.98346924936524 60, -81.23618650126951 60, -271.203125 60 M271.203125 60 C148.5115793563486 60, 25.82003371269718 60, -271.203125 60 M-271.203125 60 C-271.203125 18.2893393623021, -271.203125 -23.421321275395798, -271.203125 -60 M-271.203125 60 C-271.203125 18.962783586507342, -271.203125 -22.074432826985316, -271.203125 -60" stroke="#9370DB" stroke-width="1.3" fill="none" stroke-dasharray="0 0" style=""/></g><g class="annotation-group text" transform="translate(0, -36)"/><g class="label-group text" transform="translate(-51.578125, -36)"><g class="label" style="font-weight: bolder" transform="translate(0,-12)"><foreignObject width="103.15625" height="24"><div xmlns="http://www.w3.org/1999/xhtml" style="display: table-cell; white-space: nowrap; line-height: 1.5; max-width: 138px; text-align: center;"><span class="nodeLabel markdown-node-label" style=""><p>Measurement</p></span></div></foreignObject></g></g><g class="members-group text" transform="translate(-259.203125, 12)"><g class="label" style="" transform="translate(0,-12)"><foreignObject width="466.828125" height="24"><div xmlns="http://www.w3.org/1999/xhtml" style="display: table-cell; white-space: nowrap; line-height: 1.5; max-width: 509px; text-align: center;"><span class="nodeLabel markdown-node-label" style=""><p>&lt;&gt; +Loudness loudness; +TruePeak truePeak; +Duration duration</p></span></div></foreignObject></g></g><g class="methods-group text" transform="translate(-259.203125, 60)"/><g class="divider" style=""><path d="M-271.203125 -12 C-90.82337219079102 -11.999667445290667, 89.55638061841796 -11.999334890581334, 271.203125 -11.999 M-271.203125 -12 C-67.81543836632125 -11.999625027022397, 135.5722482673575 -11.999250054044792, 271.203125 -11.999" stroke="#9370DB" stroke-width="1.3" fill="none" stroke-dasharray="0 0" style=""/></g><g class="divider" style=""><path d="M-271.203125 36 C-149.8041364953677 36.00022381561515, -28.405147990735372 36.0004476312303, 271.203125 36.001 M-271.203125 36 C-73.8258759366247 36.00036389191508, 123.5513731267506 36.00072778383016, 271.203125 36.001" stroke="#9370DB" stroke-width="1.3" fill="none" stroke-dasharray="0 0" style=""/></g></g><g class="node default" id="my-svg-classId-TimedText-6" data-look="classic" transform="translate(2674.8203125, 68)"><g class="basic label-container outer-path"><path d="M-86.12109375 -60 L86.12109375 -60 L86.12109375 60 L-86.12109375 60" stroke="none" stroke-width="0" fill="#ECECFF" style=""/><path d="M-86.12109375 -60 C-40.547344248313024 -60, 5.026405253373952 -60, 86.12109375 -60 M-86.12109375 -60 C-30.673025377781535 -60, 24.77504299443693 -60, 86.12109375 -60 M86.12109375 -60 C86.12109375 -25.411402973500543, 86.12109375 9.177194052998914, 86.12109375 60 M86.12109375 -60 C86.12109375 -34.76001596327703, 86.12109375 -9.520031926554061, 86.12109375 60 M86.12109375 60 C36.146097719297956 60, -13.828898311404089 60, -86.12109375 60 M86.12109375 60 C22.880091289818182 60, -40.360911170363636 60, -86.12109375 60 M-86.12109375 60 C-86.12109375 20.599787275687433, -86.12109375 -18.800425448625134, -86.12109375 -60 M-86.12109375 60 C-86.12109375 27.53055324168976, -86.12109375 -4.938893516620482, -86.12109375 -60" stroke="#9370DB" stroke-width="1.3" fill="none" stroke-dasharray="0 0" style=""/></g><g class="annotation-group text" transform="translate(0, -36)"/><g class="label-group text" transform="translate(-39.2734375, -36)"><g class="label" style="font-weight: bolder" transform="translate(0,-12)"><foreignObject width="78.546875" height="24"><div xmlns="http://www.w3.org/1999/xhtml" style="display: table-cell; white-space: nowrap; line-height: 1.5; max-width: 120px; text-align: center;"><span class="nodeLabel markdown-node-label" style=""><p>TimedText</p></span></div></foreignObject></g></g><g class="members-group text" transform="translate(-74.12109375, 12)"><g class="label" style="" transform="translate(0,-12)"><foreignObject width="108.96875" height="24"><div xmlns="http://www.w3.org/1999/xhtml" style="display: table-cell; white-space: nowrap; line-height: 1.5; max-width: 187px; text-align: center;"><span class="nodeLabel markdown-node-label" style=""><p>&lt;&gt; +Cue[] cues</p></span></div></foreignObject></g></g><g class="methods-group text" transform="translate(-74.12109375, 60)"/><g class="divider" style=""><path d="M-86.12109375 -12 C-31.853781924508723 -11.999684936004279, 22.413529900982553 -11.999369872008558, 86.12109375 -11.999 M-86.12109375 -12 C-35.95712385339793 -11.99970875909889, 14.206846043204138 -11.999417518197781, 86.12109375 -11.999" stroke="#9370DB" stroke-width="1.3" fill="none" stroke-dasharray="0 0" style=""/></g><g class="divider" style=""><path d="M-86.12109375 36 C-43.12988126796862 36.00024959745987, -0.13866878593724152 36.00049919491973, 86.12109375 36.001 M-86.12109375 36 C-37.6109307269351 36.000281639264614, 10.899232296129796 36.00056327852923, 86.12109375 36.001" stroke="#9370DB" stroke-width="1.3" fill="none" stroke-dasharray="0 0" style=""/></g></g><g class="node default" id="my-svg-classId-Cue-7" data-look="classic" transform="translate(2674.8203125, 238)"><g class="basic label-container outer-path"><path d="M-183.87890625 -60 L183.87890625 -60 L183.87890625 60 L-183.87890625 60" stroke="none" stroke-width="0" fill="#ECECFF" style=""/><path d="M-183.87890625 -60 C-63.295616694218836 -60, 57.28767286156233 -60, 183.87890625 -60 M-183.87890625 -60 C-85.4226058090121 -60, 13.033694631975806 -60, 183.87890625 -60 M183.87890625 -60 C183.87890625 -15.125245272918121, 183.87890625 29.749509454163757, 183.87890625 60 M183.87890625 -60 C183.87890625 -13.80965778007382, 183.87890625 32.38068443985236, 183.87890625 60 M183.87890625 60 C104.56348127623203 60, 25.24805630246405 60, -183.87890625 60 M183.87890625 60 C56.879216366904515 60, -70.12047351619097 60, -183.87890625 60 M-183.87890625 60 C-183.87890625 19.054522008321015, -183.87890625 -21.89095598335797, -183.87890625 -60 M-183.87890625 60 C-183.87890625 22.791340368503214, -183.87890625 -14.417319262993573, -183.87890625 -60" stroke="#9370DB" stroke-width="1.3" fill="none" stroke-dasharray="0 0" style=""/></g><g class="annotation-group text" transform="translate(0, -36)"/><g class="label-group text" transform="translate(-15.1171875, -36)"><g class="label" style="font-weight: bolder" transform="translate(0,-12)"><foreignObject width="30.234375" height="24"><div xmlns="http://www.w3.org/1999/xhtml" style="display: table-cell; white-space: nowrap; line-height: 1.5; max-width: 76px; text-align: center;"><span class="nodeLabel markdown-node-label" style=""><p>Cue</p></span></div></foreignObject></g></g><g class="members-group text" transform="translate(-171.87890625, 12)"><g class="label" style="" transform="translate(0,-12)"><foreignObject width="328.640625" height="24"><div xmlns="http://www.w3.org/1999/xhtml" style="display: table-cell; white-space: nowrap; line-height: 1.5; max-width: 393px; text-align: center;"><span class="nodeLabel markdown-node-label" style=""><p>&lt;&gt; +Duration start; +Duration end; +String text</p></span></div></foreignObject></g></g><g class="methods-group text" transform="translate(-171.87890625, 60)"/><g class="divider" style=""><path d="M-183.87890625 -12 C-71.79708901872466 -11.999695229269314, 40.284728212550675 -11.999390458538628, 183.87890625 -11.999 M-183.87890625 -12 C-69.22728253897972 -11.999688241500754, 45.424341172040556 -11.999376483001509, 183.87890625 -11.999" stroke="#9370DB" stroke-width="1.3" fill="none" stroke-dasharray="0 0" style=""/></g><g class="divider" style=""><path d="M-183.87890625 36 C-101.69556476267972 36.000223471368095, -19.512223275359446 36.00044694273619, 183.87890625 36.001 M-183.87890625 36 C-54.320243648302494 36.00035229343388, 75.23841895339501 36.000704586867755, 183.87890625 36.001" stroke="#9370DB" stroke-width="1.3" fill="none" stroke-dasharray="0 0" style=""/></g></g><g class="node default" id="my-svg-classId-Delivery-8" data-look="classic" transform="translate(2091.19140625, 68)"><g class="basic label-container outer-path"><path d="M-307.27734375 -60 L307.27734375 -60 L307.27734375 60 L-307.27734375 60" stroke="none" stroke-width="0" fill="#ECECFF" style=""/><path d="M-307.27734375 -60 C-127.73170124620012 -60, 51.813941257599765 -60, 307.27734375 -60 M-307.27734375 -60 C-143.6941204347783 -60, 19.889102880443374 -60, 307.27734375 -60 M307.27734375 -60 C307.27734375 -34.78092854711203, 307.27734375 -9.561857094224067, 307.27734375 60 M307.27734375 -60 C307.27734375 -13.362572728907956, 307.27734375 33.27485454218409, 307.27734375 60 M307.27734375 60 C122.78727281200909 60, -61.702798125981815 60, -307.27734375 60 M307.27734375 60 C79.66729126775067 60, -147.94276121449866 60, -307.27734375 60 M-307.27734375 60 C-307.27734375 24.32982524604249, -307.27734375 -11.340349507915022, -307.27734375 -60 M-307.27734375 60 C-307.27734375 34.508766105254075, -307.27734375 9.01753221050815, -307.27734375 -60" stroke="#9370DB" stroke-width="1.3" fill="none" stroke-dasharray="0 0" style=""/></g><g class="annotation-group text" transform="translate(0, -36)"/><g class="label-group text" transform="translate(-31.1328125, -36)"><g class="label" style="font-weight: bolder" transform="translate(0,-12)"><foreignObject width="62.265625" height="24"><div xmlns="http://www.w3.org/1999/xhtml" style="display: table-cell; white-space: nowrap; line-height: 1.5; max-width: 106px; text-align: center;"><span class="nodeLabel markdown-node-label" style=""><p>Delivery</p></span></div></foreignObject></g></g><g class="members-group text" transform="translate(-295.27734375, 12)"><g class="label" style="" transform="translate(0,-12)"><foreignObject width="559.421875" height="24"><div xmlns="http://www.w3.org/1999/xhtml" style="display: table-cell; white-space: nowrap; line-height: 1.5; max-width: 600px; text-align: center;"><span class="nodeLabel markdown-node-label" style=""><p>&lt;&gt; +MediaFile mp4; +MediaFile mp3; +File srt; +Loudness measuredLoudness</p></span></div></foreignObject></g></g><g class="methods-group text" transform="translate(-295.27734375, 60)"/><g class="divider" style=""><path d="M-307.27734375 -12 C-176.31516112983448 -11.99978689905832, -45.35297850966896 -11.99957379811664, 307.27734375 -11.999 M-307.27734375 -12 C-72.03871881605139 -11.999617221006172, 163.19990611789723 -11.999234442012343, 307.27734375 -11.999" stroke="#9370DB" stroke-width="1.3" fill="none" stroke-dasharray="0 0" style=""/></g><g class="divider" style=""><path d="M-307.27734375 36 C-75.88920717012945 36.000376513500406, 155.4989294097411 36.000753027000805, 307.27734375 36.001 M-307.27734375 36 C-94.02765953474787 36.0003469987107, 119.22202468050426 36.00069399742139, 307.27734375 36.001" stroke="#9370DB" stroke-width="1.3" fill="none" stroke-dasharray="0 0" style=""/></g></g><g class="node default" id="my-svg-classId-ProjectDoc-9" data-look="classic" transform="translate(3099.42578125, 68)"><g class="basic label-container outer-path"><path d="M-288.484375 -60 L288.484375 -60 L288.484375 60 L-288.484375 60" stroke="none" stroke-width="0" fill="#ECECFF" style=""/><path d="M-288.484375 -60 C-116.74468762280085 -60, 54.99499975439829 -60, 288.484375 -60 M-288.484375 -60 C-100.69278239290097 -60, 87.09881021419807 -60, 288.484375 -60 M288.484375 -60 C288.484375 -24.960292019687543, 288.484375 10.079415960624914, 288.484375 60 M288.484375 -60 C288.484375 -12.81096724293635, 288.484375 34.3780655141273, 288.484375 60 M288.484375 60 C60.84723452434048 60, -166.78990595131904 60, -288.484375 60 M288.484375 60 C74.00812636850952 60, -140.46812226298096 60, -288.484375 60 M-288.484375 60 C-288.484375 17.48173987404062, -288.484375 -25.03652025191876, -288.484375 -60 M-288.484375 60 C-288.484375 16.12365760469377, -288.484375 -27.752684790612463, -288.484375 -60" stroke="#9370DB" stroke-width="1.3" fill="none" stroke-dasharray="0 0" style=""/></g><g class="annotation-group text" transform="translate(0, -36)"/><g class="label-group text" transform="translate(-42.234375, -36)"><g class="label" style="font-weight: bolder" transform="translate(0,-12)"><foreignObject width="84.46875" height="24"><div xmlns="http://www.w3.org/1999/xhtml" style="display: table-cell; white-space: nowrap; line-height: 1.5; max-width: 122px; text-align: center;"><span class="nodeLabel markdown-node-label" style=""><p>ProjectDoc</p></span></div></foreignObject></g></g><g class="members-group text" transform="translate(-276.484375, 12)"><g class="label" style="" transform="translate(0,-12)"><foreignObject width="510.734375" height="24"><div xmlns="http://www.w3.org/1999/xhtml" style="display: table-cell; white-space: nowrap; line-height: 1.5; max-width: 568px; text-align: center;"><span class="nodeLabel markdown-node-label" style=""><p>&lt;&gt; +String version; +Track[] tracks; +Clip[] clips; +String[] mediaHandles</p></span></div></foreignObject></g></g><g class="methods-group text" transform="translate(-276.484375, 60)"/><g class="divider" style=""><path d="M-288.484375 -12 C-142.63509067449968 -11.999747214586014, 3.2141936510006417 -11.99949442917203, 288.484375 -11.999 M-288.484375 -12 C-111.28853513089302 -11.99969288485751, 65.90730473821395 -11.999385769715019, 288.484375 -11.999" stroke="#9370DB" stroke-width="1.3" fill="none" stroke-dasharray="0 0" style=""/></g><g class="divider" style=""><path d="M-288.484375 36 C-147.11439825274928 36.00024502189546, -5.744421505498565 36.000490043790926, 288.484375 36.001 M-288.484375 36 C-83.69051288533626 36.00035494792762, 121.10334922932748 36.00070989585524, 288.484375 36.001" stroke="#9370DB" stroke-width="1.3" fill="none" stroke-dasharray="0 0" style=""/></g></g><g class="node default" id="my-svg-classId-SegmentModel-10" data-look="classic" transform="translate(3567.96875, 68)"><g class="basic label-container outer-path"><path d="M-130.05859375 -60 L130.05859375 -60 L130.05859375 60 L-130.05859375 60" stroke="none" stroke-width="0" fill="#ECECFF" style=""/><path d="M-130.05859375 -60 C-42.79042988318352 -60, 44.47773398363296 -60, 130.05859375 -60 M-130.05859375 -60 C-77.18209883284337 -60, -24.305603915686717 -60, 130.05859375 -60 M130.05859375 -60 C130.05859375 -22.774393249386506, 130.05859375 14.451213501226988, 130.05859375 60 M130.05859375 -60 C130.05859375 -22.25103030042844, 130.05859375 15.497939399143121, 130.05859375 60 M130.05859375 60 C27.27136191944645 60, -75.5158699111071 60, -130.05859375 60 M130.05859375 60 C69.61563717167809 60, 9.172680593356162 60, -130.05859375 60 M-130.05859375 60 C-130.05859375 13.450509478938521, -130.05859375 -33.09898104212296, -130.05859375 -60 M-130.05859375 60 C-130.05859375 28.39710720692181, -130.05859375 -3.205785586156381, -130.05859375 -60" stroke="#9370DB" stroke-width="1.3" fill="none" stroke-dasharray="0 0" style=""/></g><g class="annotation-group text" transform="translate(0, -36)"/><g class="label-group text" transform="translate(-56.8984375, -36)"><g class="label" style="font-weight: bolder" transform="translate(0,-12)"><foreignObject width="113.796875" height="24"><div xmlns="http://www.w3.org/1999/xhtml" style="display: table-cell; white-space: nowrap; line-height: 1.5; max-width: 148px; text-align: center;"><span class="nodeLabel markdown-node-label" style=""><p>SegmentModel</p></span></div></foreignObject></g></g><g class="members-group text" transform="translate(-118.05859375, 12)"><g class="label" style="" transform="translate(0,-12)"><foreignObject width="179.21875" height="24"><div xmlns="http://www.w3.org/1999/xhtml" style="display: table-cell; white-space: nowrap; line-height: 1.5; max-width: 248px; text-align: center;"><span class="nodeLabel markdown-node-label" style=""><p>&lt;&gt; +Segment[] segments</p></span></div></foreignObject></g></g><g class="methods-group text" transform="translate(-118.05859375, 60)"/><g class="divider" style=""><path d="M-130.05859375 -12 C-45.55745026804034 -11.999675142022355, 38.94369321391932 -11.999350284044711, 130.05859375 -11.999 M-130.05859375 -12 C-36.44227275715217 -11.999640099441745, 57.174048235695665 -11.999280198883492, 130.05859375 -11.999" stroke="#9370DB" stroke-width="1.3" fill="none" stroke-dasharray="0 0" style=""/></g><g class="divider" style=""><path d="M-130.05859375 36 C-59.281410252182056 36.000272097296524, 11.495773245635888 36.00054419459305, 130.05859375 36.001 M-130.05859375 36 C-26.817138936701426 36.00039690362565, 76.42431587659715 36.000793807251306, 130.05859375 36.001" stroke="#9370DB" stroke-width="1.3" fill="none" stroke-dasharray="0 0" style=""/></g></g><g class="node default" id="my-svg-classId-Segment-11" data-look="classic" transform="translate(3567.96875, 238)"><g class="basic label-container outer-path"><path d="M-276.61328125 -60 L276.61328125 -60 L276.61328125 60 L-276.61328125 60" stroke="none" stroke-width="0" fill="#ECECFF" style=""/><path d="M-276.61328125 -60 C-162.9885797832178 -60, -49.36387831643563 -60, 276.61328125 -60 M-276.61328125 -60 C-58.69666780763785 -60, 159.2199456347243 -60, 276.61328125 -60 M276.61328125 -60 C276.61328125 -35.57260610535692, 276.61328125 -11.145212210713836, 276.61328125 60 M276.61328125 -60 C276.61328125 -27.566208725902513, 276.61328125 4.867582548194974, 276.61328125 60 M276.61328125 60 C132.36193394870935 60, -11.8894133525813 60, -276.61328125 60 M276.61328125 60 C89.99857921849576 60, -96.61612281300847 60, -276.61328125 60 M-276.61328125 60 C-276.61328125 16.06975765568435, -276.61328125 -27.860484688631303, -276.61328125 -60 M-276.61328125 60 C-276.61328125 17.80855401838636, -276.61328125 -24.38289196322728, -276.61328125 -60" stroke="#9370DB" stroke-width="1.3" fill="none" stroke-dasharray="0 0" style=""/></g><g class="annotation-group text" transform="translate(0, -36)"/><g class="label-group text" transform="translate(-33.7890625, -36)"><g class="label" style="font-weight: bolder" transform="translate(0,-12)"><foreignObject width="67.578125" height="24"><div xmlns="http://www.w3.org/1999/xhtml" style="display: table-cell; white-space: nowrap; line-height: 1.5; max-width: 107px; text-align: center;"><span class="nodeLabel markdown-node-label" style=""><p>Segment</p></span></div></foreignObject></g></g><g class="members-group text" transform="translate(-264.61328125, 12)"><g class="label" style="" transform="translate(0,-12)"><foreignObject width="495.4375" height="24"><div xmlns="http://www.w3.org/1999/xhtml" style="display: table-cell; white-space: nowrap; line-height: 1.5; max-width: 543px; text-align: center;"><span class="nodeLabel markdown-node-label" style=""><p>&lt;&gt; +Duration start; +Duration end; +TagLabel tag; +SubSection[] subs</p></span></div></foreignObject></g></g><g class="methods-group text" transform="translate(-264.61328125, 60)"/><g class="divider" style=""><path d="M-276.61328125 -12 C-59.24807560286348 -11.999607095500505, 158.11713004427304 -11.999214191001007, 276.61328125 -11.999 M-276.61328125 -12 C-70.38522883081717 -11.999627226770372, 135.84282358836566 -11.999254453540745, 276.61328125 -11.999" stroke="#9370DB" stroke-width="1.3" fill="none" stroke-dasharray="0 0" style=""/></g><g class="divider" style=""><path d="M-276.61328125 36 C-69.30766808527488 36.000374721004405, 137.99794507945023 36.00074944200881, 276.61328125 36.001 M-276.61328125 36 C-96.02134399314573 36.00032643395942, 84.57059326370853 36.00065286791885, 276.61328125 36.001" stroke="#9370DB" stroke-width="1.3" fill="none" stroke-dasharray="0 0" style=""/></g></g></g></g></g><defs><filter id="my-svg-drop-shadow" height="130%" width="130%"><feDropShadow dx="4" dy="4" stdDeviation="0" flood-opacity="0.06" flood-color="#000000"/></filter></defs><defs><filter id="my-svg-drop-shadow-small" height="150%" width="150%"><feDropShadow dx="2" dy="2" stdDeviation="0" flood-opacity="0.06" flood-color="#000000"/></filter></defs></svg>