<svg id="my-svg" width="100%" xmlns="http://www.w3.org/2000/svg" xmlns:xlink="http://www.w3.org/1999/xlink" class="classDiagram" style="max-width: 4140.97px; background-color: white;" viewBox="0 0 4140.97265625 476" role="graphics-document document" aria-roledescription="class"><style>#my-svg{font-family:"trebuchet ms",verdana,arial,sans-serif;font-size:16px;fill:#333;}@keyframes edge-animation-frame{from{stroke-dashoffset:0;}}@keyframes dash{to{stroke-dashoffset:0;}}#my-svg .edge-animation-slow{stroke-dasharray:9,5!important;stroke-dashoffset:900;animation:dash 50s linear infinite;stroke-linecap:round;}#my-svg .edge-animation-fast{stroke-dasharray:9,5!important;stroke-dashoffset:900;animation:dash 20s linear infinite;stroke-linecap:round;}#my-svg .error-icon{fill:#552222;}#my-svg .error-text{fill:#552222;stroke:#552222;}#my-svg .edge-thickness-normal{stroke-width:1px;}#my-svg .edge-thickness-thick{stroke-width:3.5px;}#my-svg .edge-pattern-solid{stroke-dasharray:0;}#my-svg .edge-thickness-invisible{stroke-width:0;fill:none;}#my-svg .edge-pattern-dashed{stroke-dasharray:3;}#my-svg .edge-pattern-dotted{stroke-dasharray:2;}#my-svg .marker{fill:#333333;stroke:#333333;}#my-svg .marker.cross{stroke:#333333;}#my-svg svg{font-family:"trebuchet ms",verdana,arial,sans-serif;font-size:16px;}#my-svg p{margin:0;}#my-svg g.classGroup text{fill:#9370DB;stroke:none;font-family:"trebuchet ms",verdana,arial,sans-serif;font-size:10px;}#my-svg g.classGroup text .title{font-weight:bolder;}#my-svg .cluster-label text{fill:#333;}#my-svg .cluster-label span{color:#333;}#my-svg .cluster-label span p{background-color:transparent;}#my-svg .cluster rect{fill:#ffffde;stroke:#aaaa33;stroke-width:1px;}#my-svg .cluster text{fill:#333;}#my-svg .cluster span{color:#333;}#my-svg .nodeLabel,#my-svg .edgeLabel{color:#131300;}#my-svg .noteLabel .nodeLabel,#my-svg .noteLabel .edgeLabel{color:black;}#my-svg .edgeLabel .label rect{fill:#ECECFF;}#my-svg .label text{fill:#131300;}#my-svg .labelBkg{background:#ECECFF;}#my-svg .edgeLabel .label span{background:#ECECFF;}#my-svg .classTitle{font-weight:bolder;}#my-svg .node rect,#my-svg .node circle,#my-svg .node ellipse,#my-svg .node polygon,#my-svg .node path{fill:#ECECFF;stroke:#9370DB;stroke-width:1;}#my-svg .divider{stroke:#9370DB;stroke-width:1;}#my-svg g.clickable{cursor:pointer;}#my-svg g.classGroup rect{fill:#ECECFF;stroke:#9370DB;}#my-svg g.classGroup line{stroke:#9370DB;stroke-width:1;}#my-svg .classLabel .box{stroke:none;stroke-width:0;fill:#ECECFF;opacity:0.5;}#my-svg .classLabel .label{fill:#9370DB;font-size:10px;}#my-svg .relation{stroke:#333333;stroke-width:1;fill:none;}#my-svg .dashed-line{stroke-dasharray:3;}#my-svg .dotted-line{stroke-dasharray:1 2;}#my-svg [id$="-compositionStart"],#my-svg .composition{fill:#333333!important;stroke:#333333!important;stroke-width:1;}#my-svg [id$="-compositionEnd"],#my-svg .composition{fill:#333333!important;stroke:#333333!important;stroke-width:1;}#my-svg [id$="-dependencyStart"],#my-svg .dependency{fill:#333333!important;stroke:#333333!important;stroke-width:1;}#my-svg [id$="-dependencyEnd"],#my-svg .dependency{fill:#333333!important;stroke:#333333!important;stroke-width:1;}#my-svg [id$="-extensionStart"],#my-svg .extension{fill:transparent!important;stroke:#333333!important;stroke-width:1;}#my-svg [id$="-extensionEnd"],#my-svg .extension{fill:transparent!important;stroke:#333333!important;stroke-width:1;}#my-svg [id$="-aggregationStart"],#my-svg .aggregation{fill:transparent!important;stroke:#333333!important;stroke-width:1;}#my-svg [id$="-aggregationEnd"],#my-svg .aggregation{fill:transparent!important;stroke:#333333!important;stroke-width:1;}#my-svg [id$="-lollipopStart"],#my-svg .lollipop{fill:#ECECFF!important;stroke:#333333!important;stroke-width:1;}#my-svg [id$="-lollipopEnd"],#my-svg .lollipop{fill:#ECECFF!important;stroke:#333333!important;stroke-width:1;}#my-svg .edgeTerminals{font-size:11px;line-height:initial;}#my-svg .classTitleText{text-anchor:middle;font-size:18px;fill:#333;}#my-svg .edgeLabel[data-look="neo"]{background-color:rgba(232,232,232, 0.8);text-align:center;}#my-svg .edgeLabel[data-look="neo"] p{background-color:rgba(232,232,232, 0.8);}#my-svg .edgeLabel[data-look="neo"] rect{opacity:0.5;background-color:rgba(232,232,232, 0.8);fill:rgba(232,232,232, 0.8);}#my-svg .label-icon{display:inline-block;height:1em;overflow:visible;vertical-align:-0.125em;}#my-svg .node .label-icon path{fill:currentColor;stroke:revert;stroke-width:revert;}#my-svg .node .neo-node{stroke:#9370DB;}#my-svg [data-look="neo"].node rect,#my-svg [data-look="neo"].cluster rect,#my-svg [data-look="neo"].node polygon{stroke:#9370DB;filter:drop-shadow(1px 2px 2px rgba(185, 185, 185, 1));}#my-svg [data-look="neo"].node path{stroke:#9370DB;stroke-width:1px;}#my-svg [data-look="neo"].node .outer-path{filter:drop-shadow(1px 2px 2px rgba(185, 185, 185, 1));}#my-svg [data-look="neo"].node .neo-line path{stroke:#9370DB;filter:none;}#my-svg [data-look="neo"].node circle{stroke:#9370DB;filter:drop-shadow(1px 2px 2px rgba(185, 185, 185, 1));}#my-svg [data-look="neo"].node circle .state-start{fill:#000000;}#my-svg [data-look="neo"].icon-shape .icon{fill:#9370DB;filter:drop-shadow(1px 2px 2px rgba(185, 185, 185, 1));}#my-svg [data-look="neo"].icon-shape .icon-neo path{stroke:#9370DB;filter:drop-shadow(1px 2px 2px rgba(185, 185, 185, 1));}#my-svg :root{--mermaid-font-family:"trebuchet ms",verdana,arial,sans-serif;}</style><g><defs><marker id="my-svg_class-aggregationStart" class="marker aggregation class" refX="18" refY="7" markerWidth="190" markerHeight="240" orient="auto"><path d="M 18,7 L9,13 L1,7 L9,1 Z"/></marker></defs><defs><marker id="my-svg_class-aggregationEnd" class="marker aggregation class" refX="1" refY="7" markerWidth="20" markerHeight="28" orient="auto"><path d="M 18,7 L9,13 L1,7 L9,1 Z"/></marker></defs><defs><marker id="my-svg_class-aggregationStart-margin" class="marker aggregation class" refX="15" refY="7" markerWidth="190" markerHeight="240" orient="auto" markerUnits="userSpaceOnUse"><path d="M 18,7 L9,13 L1,7 L9,1 Z" style="stroke-width: 2;"/></marker></defs><defs><marker id="my-svg_class-aggregationEnd-margin" class="marker aggregation class" refX="1" refY="7" markerWidth="20" markerHeight="28" orient="auto" markerUnits="userSpaceOnUse"><path d="M 18,7 L9,13 L1,7 L9,1 Z" style="stroke-width: 2;"/></marker></defs><defs><marker id="my-svg_class-extensionStart" class="marker extension class" refX="18" refY="7" markerWidth="20" markerHeight="28" orient="auto" markerUnits="userSpaceOnUse"><path d="M 1,7 L18,13 V 1 Z"/></marker></defs><defs><marker id="my-svg_class-extensionEnd" class="marker extension class" refX="1" refY="7" markerWidth="20" markerHeight="28" orient="auto"><path d="M 1,1 V 13 L18,7 Z"/></marker></defs><marker id="my-svg_class-extensionStart-margin" class="marker extension class" refX="18" refY="7" markerWidth="20" markerHeight="28" orient="auto" markerUnits="userSpaceOnUse" viewBox="0 0 20 14"><polygon points="10,7 18,13 18,1" style="stroke-width: 2; stroke-dasharray: 0;"/></marker><defs><marker id="my-svg_class-extensionEnd-margin" class="marker extension class" refX="9" refY="7" markerWidth="20" markerHeight="28" orient="auto" markerUnits="userSpaceOnUse" viewBox="0 0 20 14"><polygon points="10,1 10,13 18,7" style="stroke-width: 2; stroke-dasharray: 0;"/></marker></defs><defs><marker id="my-svg_class-compositionStart" class="marker composition class" refX="18" refY="7" markerWidth="190" markerHeight="240" orient="auto"><path d="M 18,7 L9,13 L1,7 L9,1 Z"/></marker></defs><defs><marker id="my-svg_class-compositionEnd" class="marker composition class" refX="1" refY="7" markerWidth="20" markerHeight="28" orient="auto"><path d="M 18,7 L9,13 L1,7 L9,1 Z"/></marker></defs><defs><marker id="my-svg_class-compositionStart-margin" class="marker composition class" refX="15" refY="7" markerWidth="190" markerHeight="240" orient="auto" markerUnits="userSpaceOnUse"><path viewBox="0 0 15 15" d="M 18,7 L9,13 L1,7 L9,1 Z" style="stroke-width: 0;"/></marker></defs><defs><marker id="my-svg_class-compositionEnd-margin" class="marker composition class" refX="3.5" refY="7" markerWidth="20" markerHeight="28" orient="auto" markerUnits="userSpaceOnUse"><path d="M 18,7 L9,13 L1,7 L9,1 Z" style="stroke-width: 0;"/></marker></defs><defs><marker id="my-svg_class-dependencyStart" class="marker dependency class" refX="6" refY="7" markerWidth="190" markerHeight="240" orient="auto"><path d="M 5,7 L9,13 L1,7 L9,1 Z"/></marker></defs><defs><marker id="my-svg_class-dependencyEnd" class="marker dependency class" refX="13" refY="7" markerWidth="20" markerHeight="28" orient="auto"><path d="M 18,7 L9,13 L14,7 L9,1 Z"/></marker></defs><defs><marker id="my-svg_class-dependencyStart-margin" class="marker dependency class" refX="4" refY="7" markerWidth="190" markerHeight="240" orient="auto" markerUnits="userSpaceOnUse"><path d="M 5,7 L9,13 L1,7 L9,1 Z" style="stroke-width: 0;"/></marker></defs><defs><marker id="my-svg_class-dependencyEnd-margin" class="marker dependency class" refX="16" refY="7" markerWidth="20" markerHeight="28" orient="auto" markerUnits="userSpaceOnUse"><path d="M 18,7 L9,13 L14,7 L9,1 Z" style="stroke-width: 0;"/></marker></defs><defs><marker id="my-svg_class-lollipopStart" class="marker lollipop class" refX="13" refY="7" markerWidth="190" markerHeight="240" orient="auto"><circle fill="transparent" cx="7" cy="7" r="6"/></marker></defs><defs><marker id="my-svg_class-lollipopEnd" class="marker lollipop class" refX="1" refY="7" markerWidth="190" markerHeight="240" orient="auto"><circle fill="transparent" cx="7" cy="7" r="6"/></marker></defs><defs><marker id="my-svg_class-lollipopStart-margin" class="marker lollipop class" refX="13" refY="7" markerWidth="190" markerHeight="240" orient="auto" markerUnits="userSpaceOnUse"><circle fill="transparent" cx="7" cy="7" r="6" stroke-width="2"/></marker></defs><defs><marker id="my-svg_class-lollipopEnd-margin" class="marker lollipop class" refX="1" refY="7" markerWidth="190" markerHeight="240" orient="auto" markerUnits="userSpaceOnUse"><circle fill="transparent" cx="7" cy="7" r="6" stroke-width="2"/></marker></defs><g class="root"><g class="clusters"/><g class="edgePaths"><path d="M2071.769,303.941L2063.112,307.118C2054.454,310.294,2037.138,316.647,2028.48,323.99C2019.822,331.333,2019.822,339.667,2019.822,343.833L2019.822,348" id="my-svg-id_MediaFile_ImageFile_1" class="edge-thickness-normal edge-pattern-solid relation" style=";;;" data-edge="true" data-et="edge" data-id="id_MediaFile_ImageFile_1" data-points="W3sieCI6MjA4Ny45NjM5MjQ2MzIzNTMsInkiOjI5OH0seyJ4IjoyMDE5LjgyMjI2NTYyNSwieSI6MzIzfSx7IngiOjIwMTkuODIyMjY1NjI1LCJ5IjozNDh9XQ==" data-look="classic" marker-start="url(#my-svg_class-extensionStart)"/><path d="M2431.238,303.941L2439.896,307.118C2448.554,310.294,2465.87,316.647,2474.528,323.99C2483.186,331.333,2483.186,339.667,2483.186,343.833L2483.186,348" id="my-svg-id_MediaFile_AudioFile_2" class="edge-thickness-normal edge-pattern-solid relation" style=";;;" data-edge="true" data-et="edge" data-id="id_MediaFile_AudioFile_2" data-points="W3sieCI6MjQxNS4wNDM4ODc4Njc2NDcsInkiOjI5OH0seyJ4IjoyNDgzLjE4NTU0Njg3NSwieSI6MzIzfSx7IngiOjI0ODMuMTg1NTQ2ODc1LCJ5IjozNDh9XQ==" data-look="classic" marker-start="url(#my-svg_class-extensionStart)"/><path d="M2895.602,145.25L2895.602,146.542C2895.602,147.833,2895.602,150.417,2895.602,155.875C2895.602,161.333,2895.602,169.667,2895.602,173.833L2895.602,178" id="my-svg-id_TimedText_Cue_3" class="edge-thickness-normal edge-pattern-solid relation" style=";;;" data-edge="true" data-et="edge" data-id="id_TimedText_Cue_3" data-points="W3sieCI6Mjg5NS42MDE1NjI1LCJ5IjoxMjh9LHsieCI6Mjg5NS42MDE1NjI1LCJ5IjoxNTN9LHsieCI6Mjg5NS42MDE1NjI1LCJ5IjoxNzh9XQ==" data-look="classic" marker-start="url(#my-svg_class-compositionStart)"/><path d="M3856.359,145.25L3856.359,146.542C3856.359,147.833,3856.359,150.417,3856.359,155.875C3856.359,161.333,3856.359,169.667,3856.359,173.833L3856.359,178" id="my-svg-id_SegmentModel_Segment_4" class="edge-thickness-normal edge-pattern-solid relation" style=";;;" data-edge="true" data-et="edge" data-id="id_SegmentModel_Segment_4" data-points="W3sieCI6Mzg1Ni4zNTkzNzUsInkiOjEyOH0seyJ4IjozODU2LjM1OTM3NSwieSI6MTUzfSx7IngiOjM4NTYuMzU5Mzc1LCJ5IjoxNzh9XQ==" data-look="classic" marker-start="url(#my-svg_class-compositionStart)"/><path d="M2251.504,145.25L2251.504,146.542C2251.504,147.833,2251.504,150.417,2251.504,155.875C2251.504,161.333,2251.504,169.667,2251.504,173.833L2251.504,178" id="my-svg-id_Delivery_MediaFile_5" class="edge-thickness-normal edge-pattern-solid relation" style=";;;" data-edge="true" data-et="edge" data-id="id_Delivery_MediaFile_5" data-points="W3sieCI6MjI1MS41MDM5MDYyNSwieSI6MTI4fSx7IngiOjIyNTEuNTAzOTA2MjUsInkiOjE1M30seyJ4IjoyMjUxLjUwMzkwNjI1LCJ5IjoxNzh9XQ==" data-look="classic" marker-start="url(#my-svg_class-compositionStart)"/></g><g class="edgeLabels"><g class="edgeLabel"><g class="label" data-id="id_MediaFile_ImageFile_1" transform="translate(0, 0)"><foreignObject width="0" height="0"><div xmlns="http://www.w3.org/1999/xhtml" class="labelBkg" style="display: table-cell; white-space: nowrap; line-height: 1.5; max-width: 200px; text-align: center;"><span class="edgeLabel"></span></div></foreignObject></g></g><g class="edgeLabel"><g class="label" data-id="id_MediaFile_AudioFile_2" transform="translate(0, 0)"><foreignObject width="0" height="0"><div xmlns="http://www.w3.org/1999/xhtml" class="labelBkg" style="display: table-cell; white-space: nowrap; line-height: 1.5; max-width: 200px; text-align: center;"><span class="edgeLabel"></span></div></foreignObject></g></g><g class="edgeLabel"><g class="label" data-id="id_TimedText_Cue_3" transform="translate(0, 0)"><foreignObject width="0" height="0"><div xmlns="http://www.w3.org/1999/xhtml" class="labelBkg" style="display: table-cell; white-space: nowrap; line-height: 1.5; max-width: 200px; text-align: center;"><span class="edgeLabel"></span></div></foreignObject></g></g><g class="edgeLabel"><g class="label" data-id="id_SegmentModel_Segment_4" transform="translate(0, 0)"><foreignObject width="0" height="0"><div xmlns="http://www.w3.org/1999/xhtml" class="labelBkg" style="display: table-cell; white-space: nowrap; line-height: 1.5; max-width: 200px; text-align: center;"><span class="edgeLabel"></span></div></foreignObject></g></g><g class="edgeLabel"><g class="label" data-id="id_Delivery_MediaFile_5" transform="translate(0, 0)"><foreignObject width="0" height="0"><div xmlns="http://www.w3.org/1999/xhtml" class="labelBkg" style="display: table-cell; white-space: nowrap; line-height: 1.5; max-width: 200px; text-align: center;"><span class="edgeLabel"></span></div></foreignObject></g></g></g><g class="nodes"><g class="node default" id="my-svg-classId-MediaFile-0" data-look="classic" transform="translate(2251.50390625, 238)"><g class="basic label-container outer-path"><path d="M-388.875 -60 L388.875 -60 L388.875 60 L-388.875 60" stroke="none" stroke-width="0" fill="#ECECFF" style=""/><path d="M-388.875 -60 C-138.91038653248873 -60, 111.05422693502254 -60, 388.875 -60 M-388.875 -60 C-177.52457287242285 -60, 33.8258542551543 -60, 388.875 -60 M388.875 -60 C388.875 -20.54437746895102, 388.875 18.91124506209796, 388.875 60 M388.875 -60 C388.875 -20.53556862575749, 388.875 18.928862748485017, 388.875 60 M388.875 60 C230.66995073111067 60, 72.46490146222135 60, -388.875 60 M388.875 60 C199.76778167895995 60, 10.660563357919898 60, -388.875 60 M-388.875 60 C-388.875 20.338741442716824, -388.875 -19.322517114566352, -388.875 -60 M-388.875 60 C-388.875 22.129809807848474, -388.875 -15.740380384303052, -388.875 -60" stroke="#9370DB" stroke-width="1.3" fill="none" stroke-dasharray="0 0" style=""/></g><g class="annotation-group text" transform="translate(0, -36)"/><g class="label-group text" transform="translate(-36.453125, -36)"><g class="label" style="font-weight: bolder" transform="translate(0,-12)"><foreignObject width="72.90625" height="24"><div xmlns="http://www.w3.org/1999/xhtml" style="display: table-cell; white-space: nowrap; line-height: 1.5; max-width: 116px; text-align: center;"><span class="nodeLabel markdown-node-label" style=""><p>MediaFile</p></span></div></foreignObject></g></g><g class="members-group text" transform="translate(-376.875, 12)"><g class="label" style="" transform="translate(0,-12)"><foreignObject width="717.296875" height="24"><div xmlns="http://www.w3.org/1999/xhtml" style="display: table-cell; white-space: nowrap; line-height: 1.5; max-width: 739px; text-align: center;"><span class="nodeLabel markdown-node-label" style=""><p>&lt;&gt; +Path path; +ContainerFormat container; +Count vStreams; +Count aStreams; +Duration duration</p></span></div></foreignObject></g></g><g class="methods-group text" transform="translate(-376.875, 60)"/><g class="divider" style=""><path d="M-388.875 -12 C-225.0798273628148 -11.999789398685135, -61.28465472562959 -11.999578797370267, 388.875 -11.999 M-388.875 -12 C-201.4789016077333 -11.99975905355398, -14.082803215466583 -11.99951810710796, 388.875 -11.999" stroke="#9370DB" stroke-width="1.3" fill="none" stroke-dasharray="0 0" style=""/></g><g class="divider" style=""><path d="M-388.875 36 C-127.41104769202116 36.00033617994511, 134.0529046159577 36.00067235989022, 388.875 36.001 M-388.875 36 C-159.06032503983874 36.00029548656375, 70.75434992032251 36.00059097312751, 388.875 36.001" stroke="#9370DB" stroke-width="1.3" fill="none" stroke-dasharray="0 0" style=""/></g></g><g class="node default" id="my-svg-classId-ImageFile-1" data-look="classic" transform="translate(2019.822265625, 408)"><g class="basic label-container outer-path"><path d="M-186.7890625 -60 L186.7890625 -60 L186.7890625 60 L-186.7890625 60" stroke="none" stroke-width="0" fill="#ECECFF" style=""/><path d="M-186.7890625 -60 C-64.03278271315845 -60, 58.72349707368309 -60, 186.7890625 -60 M-186.7890625 -60 C-87.79632226082337 -60, 11.196417978353253 -60, 186.7890625 -60 M186.7890625 -60 C186.7890625 -18.91446775706769, 186.7890625 22.17106448586462, 186.7890625 60 M186.7890625 -60 C186.7890625 -13.35572631928968, 186.7890625 33.28854736142064, 186.7890625 60 M186.7890625 60 C52.22254403420155 60, -82.3439744315969 60, -186.7890625 60 M186.7890625 60 C76.83896370121136 60, -33.11113509757729 60, -186.7890625 60 M-186.7890625 60 C-186.7890625 25.153922615841914, -186.7890625 -9.692154768316172, -186.7890625 -60 M-186.7890625 60 C-186.7890625 12.303579050114763, -186.7890625 -35.392841899770474, -186.7890625 -60" stroke="#9370DB" stroke-width="1.3" fill="none" stroke-dasharray="0 0" style=""/></g><g class="annotation-group text" transform="translate(0, -36)"/><g class="label-group text" transform="translate(-36.90625, -36)"><g class="label" style="font-weight: bolder" transform="translate(0,-12)"><foreignObject width="73.8125" height="24"><div xmlns="http://www.w3.org/1999/xhtml" style="display: table-cell; white-space: nowrap; line-height: 1.5; max-width: 115px; text-align: center;"><span class="nodeLabel markdown-node-label" style=""><p>ImageFile</p></span></div></foreignObject></g></g><g class="members-group text" transform="translate(-174.7890625, 12)"><g class="label" style="" transform="translate(0,-12)"><foreignObject width="312.671875" height="24"><div xmlns="http://www.w3.org/1999/xhtml" style="display: table-cell; white-space: nowrap; line-height: 1.5; max-width: 376px; text-align: center;"><span class="nodeLabel markdown-node-label" style=""><p>&lt;&gt; +Path path; +Count width; +Count height</p></span></div></foreignObject></g></g><g class="methods-group text" transform="translate(-174.7890625, 60)"/><g class="divider" style=""><path d="M-186.7890625 -12 C-68.36948225616791 -11.999683012541905, 50.050097987664174 -11.999366025083809, 186.7890625 -11.999 M-186.7890625 -12 C-82.58360159028003 -11.999721061127683, 21.62185931943995 -11.999442122255367, 186.7890625 -11.999" stroke="#9370DB" stroke-width="1.3" fill="none" stroke-dasharray="0 0" style=""/></g><g class="divider" style=""><path d="M-186.7890625 36 C-96.02182841224274 36.00024296720823, -5.254594324485481 36.00048593441646, 186.7890625 36.001 M-186.7890625 36 C-105.45544651270053 36.000217715145894, -24.121830525401066 36.00043543029179, 186.7890625 36.001" stroke="#9370DB" stroke-width="1.3" fill="none" stroke-dasharray="0 0" style=""/></g></g><g class="node default" id="my-svg-classId-AudioFile-2" data-look="classic" transform="translate(2483.185546875, 408)"><g class="basic label-container outer-path"><path d="M-226.57421875 -60 L226.57421875 -60 L226.57421875 60 L-226.57421875 60" stroke="none" stroke-width="0" fill="#ECECFF" style=""/><path d="M-226.57421875 -60 C-93.02396349977315 -60, 40.52629175045371 -60, 226.57421875 -60 M-226.57421875 -60 C-94.32720573070443 -60, 37.91980728859113 -60, 226.57421875 -60 M226.57421875 -60 C226.57421875 -14.12448774799823, 226.57421875 31.75102450400354, 226.57421875 60 M226.57421875 -60 C226.57421875 -30.769760042325284, 226.57421875 -1.5395200846505688, 226.57421875 60 M226.57421875 60 C107.96181705860552 60, -10.650584632788963 60, -226.57421875 60 M226.57421875 60 C107.13586284529245 60, -12.302493059415099 60, -226.57421875 60 M-226.57421875 60 C-226.57421875 32.66106356706338, -226.57421875 5.322127134126767, -226.57421875 -60 M-226.57421875 60 C-226.57421875 23.557862840545667, -226.57421875 -12.884274318908666, -226.57421875 -60" stroke="#9370DB" stroke-width="1.3" fill="none" stroke-dasharray="0 0" style=""/></g><g class="annotation-group text" transform="translate(0, -36)"/><g class="label-group text" transform="translate(-36.4453125, -36)"><g class="label" style="font-weight: bolder" transform="translate(0,-12)"><foreignObject width="72.890625" height="24"><div xmlns="http://www.w3.org/1999/xhtml" style="display: table-cell; white-space: nowrap; line-height: 1.5; max-width: 115px; text-align: center;"><span class="nodeLabel markdown-node-label" style=""><p>AudioFile</p></span></div></foreignObject></g></g><g class="members-group text" transform="translate(-214.57421875, 12)"><g class="label" style="" transform="translate(0,-12)"><foreignObject width="392.703125" height="24"><div xmlns="http://www.w3.org/1999/xhtml" style="display: table-cell; white-space: nowrap; line-height: 1.5; max-width: 445px; text-align: center;"><span class="nodeLabel markdown-node-label" style=""><p>&lt;&gt; +Path path; +Duration duration; +Count sampleRate</p></span></div></foreignObject></g></g><g class="methods-group text" transform="translate(-214.57421875, 60)"/><g class="divider" style=""><path d="M-226.57421875 -12 C-120.49403377452789 -11.99976590411398, -14.413848799055785 -11.999531808227959, 226.57421875 -11.999 M-226.57421875 -12 C-76.31014435530443 -11.9996683998841, 73.95393003939114 -11.999336799768201, 226.57421875 -11.999" stroke="#9370DB" stroke-width="1.3" fill="none" stroke-dasharray="0 0" style=""/></g><g class="divider" style=""><path d="M-226.57421875 36 C-122.8745174163784 36.0002288426766, -19.17481608275679 36.0004576853532, 226.57421875 36.001 M-226.57421875 36 C-127.07061144175618 36.00021958281012, -27.56700413351237 36.00043916562024, 226.57421875 36.001" stroke="#9370DB" stroke-width="1.3" fill="none" stroke-dasharray="0 0" style=""/></g></g><g class="node default" id="my-svg-classId-EditDecision-3" data-look="classic" transform="translate(476.078125, 68)"><g class="basic label-container outer-path"><path d="M-468.078125 -60 L468.078125 -60 L468.078125 60 L-468.078125 60" stroke="none" stroke-width="0" fill="#ECECFF" style=""/><path d="M-468.078125 -60 C-145.49332797863457 -60, 177.09146904273086 -60, 468.078125 -60 M-468.078125 -60 C-214.6458332755568 -60, 38.78645844888638 -60, 468.078125 -60 M468.078125 -60 C468.078125 -15.230366483866497, 468.078125 29.539267032267006, 468.078125 60 M468.078125 -60 C468.078125 -13.94035108847141, 468.078125 32.11929782305718, 468.078125 60 M468.078125 60 C242.108027850426 60, 16.137930700851996 60, -468.078125 60 M468.078125 60 C156.3144709739111 60, -155.44918305217777 60, -468.078125 60 M-468.078125 60 C-468.078125 17.483254045054636, -468.078125 -25.033491909890728, -468.078125 -60 M-468.078125 60 C-468.078125 34.16120343540959, -468.078125 8.322406870819187, -468.078125 -60" stroke="#9370DB" stroke-width="1.3" fill="none" stroke-dasharray="0 0" style=""/></g><g class="annotation-group text" transform="translate(0, -36)"/><g class="label-group text" transform="translate(-48.453125, -36)"><g class="label" style="font-weight: bolder" transform="translate(0,-12)"><foreignObject width="96.90625" height="24"><div xmlns="http://www.w3.org/1999/xhtml" style="display: table-cell; white-space: nowrap; line-height: 1.5; max-width: 134px; text-align: center;"><span class="nodeLabel markdown-node-label" style=""><p>EditDecision</p></span></div></foreignObject></g></g><g class="members-group text" transform="translate(-456.078125, 12)"><g class="label" style="" transform="translate(0,-12)"><foreignObject width="863.703125" height="24"><div xmlns="http://www.w3.org/1999/xhtml" style="display: table-cell; white-space: nowrap; line-height: 1.5; max-width: 891px; text-align: center;"><span class="nodeLabel markdown-node-label" style=""><p>&lt;&gt; +KeepFlag[] keepSet; +Permutation order; +TransitionKind[] transitions; +TrackLevel[] trackLevels; +MuteState[] mutes</p></span></div></foreignObject></g></g><g class="methods-group text" transform="translate(-456.078125, 60)"/><g class="divider" style=""><path d="M-468.078125 -12 C-151.1343313262616 -11.999661441352687, 165.80946234747682 -11.999322882705375, 468.078125 -11.999 M-468.078125 -12 C-169.30905753515736 -11.999680855554333, 129.46000992968527 -11.999361711108664, 468.078125 -11.999" stroke="#9370DB" stroke-width="1.3" fill="none" stroke-dasharray="0 0" style=""/></g><g class="divider" style=""><path d="M-468.078125 36 C-111.6574892359697 36.000380727721215, 244.7631465280606 36.00076145544243, 468.078125 36.001 M-468.078125 36 C-188.02895053691788 36.00029914789808, 92.02022392616425 36.00059829579616, 468.078125 36.001" stroke="#9370DB" stroke-width="1.3" fill="none" stroke-dasharray="0 0" style=""/></g></g><g class="node default" id="my-svg-classId-FilterGraph-4" data-look="classic" transform="translate(1147.98828125, 68)"><g class="basic label-container outer-path"><path d="M-153.83203125 -60 L153.83203125 -60 L153.83203125 60 L-153.83203125 60" stroke="none" stroke-width="0" fill="#ECECFF" style=""/><path d="M-153.83203125 -60 C-61.357601337215186 -60, 31.116828575569627 -60, 153.83203125 -60 M-153.83203125 -60 C-57.14628037281891 -60, 39.539470504362185 -60, 153.83203125 -60 M153.83203125 -60 C153.83203125 -28.361313790817164, 153.83203125 3.2773724183656725, 153.83203125 60 M153.83203125 -60 C153.83203125 -33.01029828083553, 153.83203125 -6.020596561671063, 153.83203125 60 M153.83203125 60 C70.55741719334168 60, -12.717196863316644 60, -153.83203125 60 M153.83203125 60 C87.32176233052921 60, 20.81149341105842 60, -153.83203125 60 M-153.83203125 60 C-153.83203125 22.151975193150783, -153.83203125 -15.696049613698435, -153.83203125 -60 M-153.83203125 60 C-153.83203125 35.21687418235733, -153.83203125 10.433748364714653, -153.83203125 -60" stroke="#9370DB" stroke-width="1.3" fill="none" stroke-dasharray="0 0" style=""/></g><g class="annotation-group text" transform="translate(0, -36)"/><g class="label-group text" transform="translate(-43.1171875, -36)"><g class="label" style="font-weight: bolder" transform="translate(0,-12)"><foreignObject width="86.234375" height="24"><div xmlns="http://www.w3.org/1999/xhtml" style="display: table-cell; white-space: nowrap; line-height: 1.5; max-width: 125px; text-align: center;"><span class="nodeLabel markdown-node-label" style=""><p>FilterGraph</p></span></div></foreignObject></g></g><g class="members-group text" transform="translate(-141.83203125, 12)"><g class="label" style="" transform="translate(0,-12)"><foreignObject width="240.546875" height="24"><div xmlns="http://www.w3.org/1999/xhtml" style="display: table-cell; white-space: nowrap; line-height: 1.5; max-width: 305px; text-align: center;"><span class="nodeLabel markdown-node-label" style=""><p>&lt;&gt; +FFmpegCommand command</p></span></div></foreignObject></g></g><g class="methods-group text" transform="translate(-141.83203125, 60)"/><g class="divider" style=""><path d="M-153.83203125 -12 C-56.82766176796625 -11.999684706856259, 40.176707714067504 -11.999369413712516, 153.83203125 -11.999 M-153.83203125 -12 C-68.64060774731077 -11.999723102455286, 16.550815755378466 -11.999446204910575, 153.83203125 -11.999" stroke="#9370DB" stroke-width="1.3" fill="none" stroke-dasharray="0 0" style=""/></g><g class="divider" style=""><path d="M-153.83203125 36 C-36.62327428588422 36.00038096343138, 80.58548267823156 36.00076192686277, 153.83203125 36.001 M-153.83203125 36 C-74.01014363806622 36.00025944495098, 5.81174397386755 36.00051888990195, 153.83203125 36.001" stroke="#9370DB" stroke-width="1.3" fill="none" stroke-dasharray="0 0" style=""/></g></g><g class="node default" id="my-svg-classId-Measurement-5" data-look="classic" transform="translate(1623.0234375, 68)"><g class="basic label-container outer-path"><path d="M-271.203125 -60 L271.203125 -60 L271.203125 60 L-271.203125 60" stroke="none" stroke-width="0" fill="#ECECFF" style=""/><path d="M-271.203125 -60 C-103.05668666047544 -60, 65.08975167904913 -60, 271.203125 -60 M-271.203125 -60 C-159.71823829664044 -60, -48.2333515932809 -60, 271.203125 -60 M271.203125 -60 C271.203125 -31.171415624331264, 271.203125 -2.3428312486625273, 271.203125 60 M271.203125 -60 C271.203125 -20.199725032572104, 271.203125 19.600549934855792, 271.203125 60 M271.203125 60 C159.90869604984294 60, 48.61426709968586 60, -271.203125 60 M271.203125 60 C117.4597271778621 60, -36.28367064427579 60, -271.203125 60 M-271.203125 60 C-271.203125 27.240731723939774, -271.203125 -5.518536552120452, -271.203125 -60 M-271.203125 60 C-271.203125 26.422635919879333, -271.203125 -7.1547281602413335, -271.203125 -60" stroke="#9370DB" stroke-width="1.3" fill="none" stroke-dasharray="0 0" style=""/></g><g class="annotation-group text" transform="translate(0, -36)"/><g class="label-group text" transform="translate(-51.578125, -36)"><g class="label" style="font-weight: bolder" transform="translate(0,-12)"><foreignObject width="103.15625" height="24"><div xmlns="http://www.w3.org/1999/xhtml" style="display: table-cell; white-space: nowrap; line-height: 1.5; max-width: 138px; text-align: center;"><span class="nodeLabel markdown-node-label" style=""><p>Measurement</p></span></div></foreignObject></g></g><g class="members-group text" transform="translate(-259.203125, 12)"><g class="label" style="" transform="translate(0,-12)"><foreignObject width="466.828125" height="24"><div xmlns="http://www.w3.org/1999/xhtml" style="display: table-cell; white-space: nowrap; line-height: 1.5; max-width: 509px; text-align: center;"><span class="nodeLabel markdown-node-label" style=""><p>&lt;&gt; +Loudness loudness; +TruePeak truePeak; +Duration duration</p></span></div></foreignObject></g></g><g class="methods-group text" transform="translate(-259.203125, 60)"/><g class="divider" style=""><path d="M-271.203125 -12 C-152.8193808956093 -11.999781743399703, -34.43563679121857 -11.999563486799408, 271.203125 -11.999 M-271.203125 -12 C-88.9261843535717 -11.999663947565784, 93.3507562928566 -11.999327895131568, 271.203125 -11.999" stroke="#9370DB" stroke-width="1.3" fill="none" stroke-dasharray="0 0" style=""/></g><g class="divider" style=""><path d="M-271.203125 36 C-91.42206508300933 36.00033145093722, 88.35899483398134 36.00066290187444, 271.203125 36.001 M-271.203125 36 C-83.49220343718406 36.00034607072017, 104.21871812563188 36.00069214144034, 271.203125 36.001" stroke="#9370DB" stroke-width="1.3" fill="none" stroke-dasharray="0 0" style=""/></g></g><g class="node default" id="my-svg-classId-TimedText-6" data-look="classic" transform="translate(2895.6015625, 68)"><g class="basic label-container outer-path"><path d="M-86.12109375 -60 L86.12109375 -60 L86.12109375 60 L-86.12109375 60" stroke="none" stroke-width="0" fill="#ECECFF" style=""/><path d="M-86.12109375 -60 C-19.443077380296316 -60, 47.23493898940737 -60, 86.12109375 -60 M-86.12109375 -60 C-28.446704606698944 -60, 29.227684536602112 -60, 86.12109375 -60 M86.12109375 -60 C86.12109375 -29.137300134547477, 86.12109375 1.7253997309050462, 86.12109375 60 M86.12109375 -60 C86.12109375 -32.97827367165982, 86.12109375 -5.956547343319642, 86.12109375 60 M86.12109375 60 C27.80928781346264 60, -30.502518123074722 60, -86.12109375 60 M86.12109375 60 C49.383031226803794 60, 12.644968703607589 60, -86.12109375 60 M-86.12109375 60 C-86.12109375 20.32831610287517, -86.12109375 -19.34336779424966, -86.12109375 -60 M-86.12109375 60 C-86.12109375 22.239769287138984, -86.12109375 -15.520461425722033, -86.12109375 -60" stroke="#9370DB" stroke-width="1.3" fill="none" stroke-dasharray="0 0" style=""/></g><g class="annotation-group text" transform="translate(0, -36)"/><g class="label-group text" transform="translate(-39.2734375, -36)"><g class="label" style="font-weight: bolder" transform="translate(0,-12)"><foreignObject width="78.546875" height="24"><div xmlns="http://www.w3.org/1999/xhtml" style="display: table-cell; white-space: nowrap; line-height: 1.5; max-width: 120px; text-align: center;"><span class="nodeLabel markdown-node-label" style=""><p>TimedText</p></span></div></foreignObject></g></g><g class="members-group text" transform="translate(-74.12109375, 12)"><g class="label" style="" transform="translate(0,-12)"><foreignObject width="108.96875" height="24"><div xmlns="http://www.w3.org/1999/xhtml" style="display: table-cell; white-space: nowrap; line-height: 1.5; max-width: 187px; text-align: center;"><span class="nodeLabel markdown-node-label" style=""><p>&lt;&gt; +Cue[] cues</p></span></div></foreignObject></g></g><g class="methods-group text" transform="translate(-74.12109375, 60)"/><g class="divider" style=""><path d="M-86.12109375 -12 C-49.85288595164596 -11.999789434816611, -13.584678153291918 -11.999578869633222, 86.12109375 -11.999 M-86.12109375 -12 C-20.63750541146544 -11.999619816786533, 44.84608292706912 -11.999239633573064, 86.12109375 -11.999" stroke="#9370DB" stroke-width="1.3" fill="none" stroke-dasharray="0 0" style=""/></g><g class="divider" style=""><path d="M-86.12109375 36 C-32.438532662974744 36.00031166906242, 21.244028424050512 36.00062333812483, 86.12109375 36.001 M-86.12109375 36 C-48.709801588925615 36.000217201678076, -11.29850942785123 36.00043440335616, 86.12109375 36.001" stroke="#9370DB" stroke-width="1.3" fill="none" stroke-dasharray="0 0" style=""/></g></g><g class="node default" id="my-svg-classId-Cue-7" data-look="classic" transform="translate(2895.6015625, 238)"><g class="basic label-container outer-path"><path d="M-205.22265625 -60 L205.22265625 -60 L205.22265625 60 L-205.22265625 60" stroke="none" stroke-width="0" fill="#ECECFF" style=""/><path d="M-205.22265625 -60 C-92.98374971605789 -60, 19.255156817884227 -60, 205.22265625 -60 M-205.22265625 -60 C-41.401608521374555 -60, 122.41943920725089 -60, 205.22265625 -60 M205.22265625 -60 C205.22265625 -34.41862324699036, 205.22265625 -8.837246493980714, 205.22265625 60 M205.22265625 -60 C205.22265625 -19.606297901670025, 205.22265625 20.78740419665995, 205.22265625 60 M205.22265625 60 C87.18181625032237 60, -30.85902374935526 60, -205.22265625 60 M205.22265625 60 C43.16250456992938 60, -118.89764711014124 60, -205.22265625 60 M-205.22265625 60 C-205.22265625 28.43963466832333, -205.22265625 -3.120730663353342, -205.22265625 -60 M-205.22265625 60 C-205.22265625 19.74510058703639, -205.22265625 -20.50979882592722, -205.22265625 -60" stroke="#9370DB" stroke-width="1.3" fill="none" stroke-dasharray="0 0" style=""/></g><g class="annotation-group text" transform="translate(0, -36)"/><g class="label-group text" transform="translate(-15.1171875, -36)"><g class="label" style="font-weight: bolder" transform="translate(0,-12)"><foreignObject width="30.234375" height="24"><div xmlns="http://www.w3.org/1999/xhtml" style="display: table-cell; white-space: nowrap; line-height: 1.5; max-width: 76px; text-align: center;"><span class="nodeLabel markdown-node-label" style=""><p>Cue</p></span></div></foreignObject></g></g><g class="members-group text" transform="translate(-193.22265625, 12)"><g class="label" style="" transform="translate(0,-12)"><foreignObject width="371.328125" height="24"><div xmlns="http://www.w3.org/1999/xhtml" style="display: table-cell; white-space: nowrap; line-height: 1.5; max-width: 433px; text-align: center;"><span class="nodeLabel markdown-node-label" style=""><p>&lt;&gt; +Duration start; +Duration end; +CaptionText text</p></span></div></foreignObject></g></g><g class="methods-group text" transform="translate(-193.22265625, 60)"/><g class="divider" style=""><path d="M-205.22265625 -12 C-52.29104382829138 -11.999627400757753, 100.64056859341724 -11.999254801515505, 205.22265625 -11.999 M-205.22265625 -12 C-114.37460163778434 -11.999778659782812, -23.526547025568675 -11.999557319565627, 205.22265625 -11.999" stroke="#9370DB" stroke-width="1.3" fill="none" stroke-dasharray="0 0" style=""/></g><g class="divider" style=""><path d="M-205.22265625 36 C-106.82777553195604 36.00023972713957, -8.432894813912071 36.00047945427915, 205.22265625 36.001 M-205.22265625 36 C-101.7522715042399 36.0002520929868, 1.7181132415202 36.0005041859736, 205.22265625 36.001" stroke="#9370DB" stroke-width="1.3" fill="none" stroke-dasharray="0 0" style=""/></g></g><g class="node default" id="my-svg-classId-Delivery-8" data-look="classic" transform="translate(2251.50390625, 68)"><g class="basic label-container outer-path"><path d="M-307.27734375 -60 L307.27734375 -60 L307.27734375 60 L-307.27734375 60" stroke="none" stroke-width="0" fill="#ECECFF" style=""/><path d="M-307.27734375 -60 C-176.6273455511631 -60, -45.977347352326206 -60, 307.27734375 -60 M-307.27734375 -60 C-129.43066176311882 -60, 48.41602022376236 -60, 307.27734375 -60 M307.27734375 -60 C307.27734375 -33.92558418835499, 307.27734375 -7.851168376709978, 307.27734375 60 M307.27734375 -60 C307.27734375 -14.468500432907923, 307.27734375 31.062999134184153, 307.27734375 60 M307.27734375 60 C124.03889816563816 60, -59.19954741872368 60, -307.27734375 60 M307.27734375 60 C80.9889440578182 60, -145.2994556343636 60, -307.27734375 60 M-307.27734375 60 C-307.27734375 15.082069296044736, -307.27734375 -29.835861407910528, -307.27734375 -60 M-307.27734375 60 C-307.27734375 24.56802204401167, -307.27734375 -10.86395591197666, -307.27734375 -60" stroke="#9370DB" stroke-width="1.3" fill="none" stroke-dasharray="0 0" style=""/></g><g class="annotation-group text" transform="translate(0, -36)"/><g class="label-group text" transform="translate(-31.1328125, -36)"><g class="label" style="font-weight: bolder" transform="translate(0,-12)"><foreignObject width="62.265625" height="24"><div xmlns="http://www.w3.org/1999/xhtml" style="display: table-cell; white-space: nowrap; line-height: 1.5; max-width: 106px; text-align: center;"><span class="nodeLabel markdown-node-label" style=""><p>Delivery</p></span></div></foreignObject></g></g><g class="members-group text" transform="translate(-295.27734375, 12)"><g class="label" style="" transform="translate(0,-12)"><foreignObject width="559.421875" height="24"><div xmlns="http://www.w3.org/1999/xhtml" style="display: table-cell; white-space: nowrap; line-height: 1.5; max-width: 600px; text-align: center;"><span class="nodeLabel markdown-node-label" style=""><p>&lt;&gt; +MediaFile mp4; +MediaFile mp3; +File srt; +Loudness measuredLoudness</p></span></div></foreignObject></g></g><g class="methods-group text" transform="translate(-295.27734375, 60)"/><g class="divider" style=""><path d="M-307.27734375 -12 C-149.20390480204668 -11.999742783771463, 8.869534145906641 -11.999485567542928, 307.27734375 -11.999 M-307.27734375 -12 C-90.93249677158926 -11.999647964857516, 125.41235020682149 -11.999295929715032, 307.27734375 -11.999" stroke="#9370DB" stroke-width="1.3" fill="none" stroke-dasharray="0 0" style=""/></g><g class="divider" style=""><path d="M-307.27734375 36 C-155.9327692849383 36.00024626705734, -4.588194819876605 36.00049253411468, 307.27734375 36.001 M-307.27734375 36 C-153.8496172650044 36.000249656750825, -0.4218907800088232 36.00049931350165, 307.27734375 36.001" stroke="#9370DB" stroke-width="1.3" fill="none" stroke-dasharray="0 0" style=""/></g></g><g class="node default" id="my-svg-classId-ProjectDoc-9" data-look="classic" transform="translate(3354.01171875, 68)"><g class="basic label-container outer-path"><path d="M-322.2890625 -60 L322.2890625 -60 L322.2890625 60 L-322.2890625 60" stroke="none" stroke-width="0" fill="#ECECFF" style=""/><path d="M-322.2890625 -60 C-107.35540281513542 -60, 107.57825686972916 -60, 322.2890625 -60 M-322.2890625 -60 C-159.13644121274578 -60, 4.016180074508441 -60, 322.2890625 -60 M322.2890625 -60 C322.2890625 -22.282363426631477, 322.2890625 15.435273146737046, 322.2890625 60 M322.2890625 -60 C322.2890625 -33.09234768271213, 322.2890625 -6.184695365424254, 322.2890625 60 M322.2890625 60 C79.07976770107956 60, -164.12952709784088 60, -322.2890625 60 M322.2890625 60 C76.10985188612145 60, -170.0693587277571 60, -322.2890625 60 M-322.2890625 60 C-322.2890625 27.502147711619166, -322.2890625 -4.995704576761668, -322.2890625 -60 M-322.2890625 60 C-322.2890625 30.59614932270818, -322.2890625 1.1922986454163578, -322.2890625 -60" stroke="#9370DB" stroke-width="1.3" fill="none" stroke-dasharray="0 0" style=""/></g><g class="annotation-group text" transform="translate(0, -36)"/><g class="label-group text" transform="translate(-42.234375, -36)"><g class="label" style="font-weight: bolder" transform="translate(0,-12)"><foreignObject width="84.46875" height="24"><div xmlns="http://www.w3.org/1999/xhtml" style="display: table-cell; white-space: nowrap; line-height: 1.5; max-width: 122px; text-align: center;"><span class="nodeLabel markdown-node-label" style=""><p>ProjectDoc</p></span></div></foreignObject></g></g><g class="members-group text" transform="translate(-310.2890625, 12)"><g class="label" style="" transform="translate(0,-12)"><foreignObject width="578.34375" height="24"><div xmlns="http://www.w3.org/1999/xhtml" style="display: table-cell; white-space: nowrap; line-height: 1.5; max-width: 628px; text-align: center;"><span class="nodeLabel markdown-node-label" style=""><p>&lt;&gt; +SemVer version; +Track[] tracks; +Clip[] clips; +MediaHandle[] mediaHandles</p></span></div></foreignObject></g></g><g class="methods-group text" transform="translate(-310.2890625, 60)"/><g class="divider" style=""><path d="M-322.2890625 -12 C-163.59911586039934 -11.999753808048265, -4.909169220798674 -11.99950761609653, 322.2890625 -11.999 M-322.2890625 -12 C-180.48699064089786 -11.999780007936417, -38.684918781795716 -11.999560015872834, 322.2890625 -11.999" stroke="#9370DB" stroke-width="1.3" fill="none" stroke-dasharray="0 0" style=""/></g><g class="divider" style=""><path d="M-322.2890625 36 C-102.5868881414986 36.0003408464635, 117.11528621700279 36.00068169292701, 322.2890625 36.001 M-322.2890625 36 C-145.69531303286357 36.00027396795302, 30.898436434272867 36.000547935906035, 322.2890625 36.001" stroke="#9370DB" stroke-width="1.3" fill="none" stroke-dasharray="0 0" style=""/></g></g><g class="node default" id="my-svg-classId-SegmentModel-10" data-look="classic" transform="translate(3856.359375, 68)"><g class="basic label-container outer-path"><path d="M-130.05859375 -60 L130.05859375 -60 L130.05859375 60 L-130.05859375 60" stroke="none" stroke-width="0" fill="#ECECFF" style=""/><path d="M-130.05859375 -60 C-61.45572696032829 -60, 7.147139829343416 -60, 130.05859375 -60 M-130.05859375 -60 C-55.19194316374545 -60, 19.6747074225091 -60, 130.05859375 -60 M130.05859375 -60 C130.05859375 -34.69379118684614, 130.05859375 -9.387582373692283, 130.05859375 60 M130.05859375 -60 C130.05859375 -12.872610846760992, 130.05859375 34.254778306478016, 130.05859375 60 M130.05859375 60 C35.567118094487185 60, -58.92435756102563 60, -130.05859375 60 M130.05859375 60 C26.05613530299813 60, -77.94632314400374 60, -130.05859375 60 M-130.05859375 60 C-130.05859375 28.832742702944422, -130.05859375 -2.3345145941111554, -130.05859375 -60 M-130.05859375 60 C-130.05859375 14.488287176496492, -130.05859375 -31.023425647007016, -130.05859375 -60" stroke="#9370DB" stroke-width="1.3" fill="none" stroke-dasharray="0 0" style=""/></g><g class="annotation-group text" transform="translate(0, -36)"/><g class="label-group text" transform="translate(-56.8984375, -36)"><g class="label" style="font-weight: bolder" transform="translate(0,-12)"><foreignObject width="113.796875" height="24"><div xmlns="http://www.w3.org/1999/xhtml" style="display: table-cell; white-space: nowrap; line-height: 1.5; max-width: 148px; text-align: center;"><span class="nodeLabel markdown-node-label" style=""><p>SegmentModel</p></span></div></foreignObject></g></g><g class="members-group text" transform="translate(-118.05859375, 12)"><g class="label" style="" transform="translate(0,-12)"><foreignObject width="179.21875" height="24"><div xmlns="http://www.w3.org/1999/xhtml" style="display: table-cell; white-space: nowrap; line-height: 1.5; max-width: 248px; text-align: center;"><span class="nodeLabel markdown-node-label" style=""><p>&lt;&gt; +Segment[] segments</p></span></div></foreignObject></g></g><g class="methods-group text" transform="translate(-118.05859375, 60)"/><g class="divider" style=""><path d="M-130.05859375 -12 C-51.53932977932267 -11.999698138886071, 26.97993419135466 -11.999396277772144, 130.05859375 -11.999 M-130.05859375 -12 C-77.87334876121398 -11.999799377943878, -25.68810377242795 -11.999598755887757, 130.05859375 -11.999" stroke="#9370DB" stroke-width="1.3" fill="none" stroke-dasharray="0 0" style=""/></g><g class="divider" style=""><path d="M-130.05859375 36 C-53.29449125444749 36.00029511353414, 23.469611241105014 36.000590227068294, 130.05859375 36.001 M-130.05859375 36 C-35.41891987991933 36.00036383475763, 59.22075399016134 36.000727669515264, 130.05859375 36.001" stroke="#9370DB" stroke-width="1.3" fill="none" stroke-dasharray="0 0" style=""/></g></g><g class="node default" id="my-svg-classId-Segment-11" data-look="classic" transform="translate(3856.359375, 238)"><g class="basic label-container outer-path"><path d="M-276.61328125 -60 L276.61328125 -60 L276.61328125 60 L-276.61328125 60" stroke="none" stroke-width="0" fill="#ECECFF" style=""/><path d="M-276.61328125 -60 C-87.64417764476786 -60, 101.32492596046427 -60, 276.61328125 -60 M-276.61328125 -60 C-65.18240472998275 -60, 146.2484717900345 -60, 276.61328125 -60 M276.61328125 -60 C276.61328125 -31.288447289792117, 276.61328125 -2.576894579584234, 276.61328125 60 M276.61328125 -60 C276.61328125 -23.409769495588996, 276.61328125 13.180461008822007, 276.61328125 60 M276.61328125 60 C63.73093725193323 60, -149.15140674613355 60, -276.61328125 60 M276.61328125 60 C124.93897711546069 60, -26.735327019078625 60, -276.61328125 60 M-276.61328125 60 C-276.61328125 28.118698629105328, -276.61328125 -3.762602741789344, -276.61328125 -60 M-276.61328125 60 C-276.61328125 17.678262493200762, -276.61328125 -24.643475013598476, -276.61328125 -60" stroke="#9370DB" stroke-width="1.3" fill="none" stroke-dasharray="0 0" style=""/></g><g class="annotation-group text" transform="translate(0, -36)"/><g class="label-group text" transform="translate(-33.7890625, -36)"><g class="label" style="font-weight: bolder" transform="translate(0,-12)"><foreignObject width="67.578125" height="24"><div xmlns="http://www.w3.org/1999/xhtml" style="display: table-cell; white-space: nowrap; line-height: 1.5; max-width: 107px; text-align: center;"><span class="nodeLabel markdown-node-label" style=""><p>Segment</p></span></div></foreignObject></g></g><g class="members-group text" transform="translate(-264.61328125, 12)"><g class="label" style="" transform="translate(0,-12)"><foreignObject width="495.4375" height="24"><div xmlns="http://www.w3.org/1999/xhtml" style="display: table-cell; white-space: nowrap; line-height: 1.5; max-width: 543px; text-align: center;"><span class="nodeLabel markdown-node-label" style=""><p>&lt;&gt; +Duration start; +Duration end; +TagLabel tag; +SubSection[] subs</p></span></div></foreignObject></g></g><g class="methods-group text" transform="translate(-264.61328125, 60)"/><g class="divider" style=""><path d="M-276.61328125 -12 C-157.90444077769448 -11.999785424546616, -39.19560030538895 -11.999570849093233, 276.61328125 -11.999 M-276.61328125 -12 C-99.4429687858264 -11.999679750893263, 77.72734367834721 -11.999359501786525, 276.61328125 -11.999" stroke="#9370DB" stroke-width="1.3" fill="none" stroke-dasharray="0 0" style=""/></g><g class="divider" style=""><path d="M-276.61328125 36 C-81.85769070646984 36.00035203586332, 112.89789983706032 36.000704071726645, 276.61328125 36.001 M-276.61328125 36 C-65.6453850333917 36.0003813408656, 145.3225111832166 36.000762681731196, 276.61328125 36.001" stroke="#9370DB" stroke-width="1.3" fill="none" stroke-dasharray="0 0" style=""/></g></g></g></g></g><defs><filter id="my-svg-drop-shadow" height="130%" width="130%"><feDropShadow dx="4" dy="4" stdDeviation="0" flood-opacity="0.06" flood-color="#000000"/></filter></defs><defs><filter id="my-svg-drop-shadow-small" height="150%" width="150%"><feDropShadow dx="2" dy="2" stdDeviation="0" flood-opacity="0.06" flood-color="#000000"/></filter></defs></svg>