<svg id="my-svg" width="100%" xmlns="http://www.w3.org/2000/svg" xmlns:xlink="http://www.w3.org/1999/xlink" class="classDiagram" style="max-width: 3852.58px; background-color: white;" viewBox="0 0 3852.58203125 476" role="graphics-document document" aria-roledescription="class"><style>#my-svg{font-family:"trebuchet ms",verdana,arial,sans-serif;font-size:16px;fill:#333;}@keyframes edge-animation-frame{from{stroke-dashoffset:0;}}@keyframes dash{to{stroke-dashoffset:0;}}#my-svg .edge-animation-slow{stroke-dasharray:9,5!important;stroke-dashoffset:900;animation:dash 50s linear infinite;stroke-linecap:round;}#my-svg .edge-animation-fast{stroke-dasharray:9,5!important;stroke-dashoffset:900;animation:dash 20s linear infinite;stroke-linecap:round;}#my-svg .error-icon{fill:#552222;}#my-svg .error-text{fill:#552222;stroke:#552222;}#my-svg .edge-thickness-normal{stroke-width:1px;}#my-svg .edge-thickness-thick{stroke-width:3.5px;}#my-svg .edge-pattern-solid{stroke-dasharray:0;}#my-svg .edge-thickness-invisible{stroke-width:0;fill:none;}#my-svg .edge-pattern-dashed{stroke-dasharray:3;}#my-svg .edge-pattern-dotted{stroke-dasharray:2;}#my-svg .marker{fill:#333333;stroke:#333333;}#my-svg .marker.cross{stroke:#333333;}#my-svg svg{font-family:"trebuchet ms",verdana,arial,sans-serif;font-size:16px;}#my-svg p{margin:0;}#my-svg g.classGroup text{fill:#9370DB;stroke:none;font-family:"trebuchet ms",verdana,arial,sans-serif;font-size:10px;}#my-svg g.classGroup text .title{font-weight:bolder;}#my-svg .cluster-label text{fill:#333;}#my-svg .cluster-label span{color:#333;}#my-svg .cluster-label span p{background-color:transparent;}#my-svg .cluster rect{fill:#ffffde;stroke:#aaaa33;stroke-width:1px;}#my-svg .cluster text{fill:#333;}#my-svg .cluster span{color:#333;}#my-svg .nodeLabel,#my-svg .edgeLabel{color:#131300;}#my-svg .noteLabel .nodeLabel,#my-svg .noteLabel .edgeLabel{color:black;}#my-svg .edgeLabel .label rect{fill:#ECECFF;}#my-svg .label text{fill:#131300;}#my-svg .labelBkg{background:#ECECFF;}#my-svg .edgeLabel .label span{background:#ECECFF;}#my-svg .classTitle{font-weight:bolder;}#my-svg .node rect,#my-svg .node circle,#my-svg .node ellipse,#my-svg .node polygon,#my-svg .node path{fill:#ECECFF;stroke:#9370DB;stroke-width:1;}#my-svg .divider{stroke:#9370DB;stroke-width:1;}#my-svg g.clickable{cursor:pointer;}#my-svg g.classGroup rect{fill:#ECECFF;stroke:#9370DB;}#my-svg g.classGroup line{stroke:#9370DB;stroke-width:1;}#my-svg .classLabel .box{stroke:none;stroke-width:0;fill:#ECECFF;opacity:0.5;}#my-svg .classLabel .label{fill:#9370DB;font-size:10px;}#my-svg .relation{stroke:#333333;stroke-width:1;fill:none;}#my-svg .dashed-line{stroke-dasharray:3;}#my-svg .dotted-line{stroke-dasharray:1 2;}#my-svg [id$="-compositionStart"],#my-svg .composition{fill:#333333!important;stroke:#333333!important;stroke-width:1;}#my-svg [id$="-compositionEnd"],#my-svg .composition{fill:#333333!important;stroke:#333333!important;stroke-width:1;}#my-svg [id$="-dependencyStart"],#my-svg .dependency{fill:#333333!important;stroke:#333333!important;stroke-width:1;}#my-svg [id$="-dependencyEnd"],#my-svg .dependency{fill:#333333!important;stroke:#333333!important;stroke-width:1;}#my-svg [id$="-extensionStart"],#my-svg .extension{fill:transparent!important;stroke:#333333!important;stroke-width:1;}#my-svg [id$="-extensionEnd"],#my-svg .extension{fill:transparent!important;stroke:#333333!important;stroke-width:1;}#my-svg [id$="-aggregationStart"],#my-svg .aggregation{fill:transparent!important;stroke:#333333!important;stroke-width:1;}#my-svg [id$="-aggregationEnd"],#my-svg .aggregation{fill:transparent!important;stroke:#333333!important;stroke-width:1;}#my-svg [id$="-lollipopStart"],#my-svg .lollipop{fill:#ECECFF!important;stroke:#333333!important;stroke-width:1;}#my-svg [id$="-lollipopEnd"],#my-svg .lollipop{fill:#ECECFF!important;stroke:#333333!important;stroke-width:1;}#my-svg .edgeTerminals{font-size:11px;line-height:initial;}#my-svg .classTitleText{text-anchor:middle;font-size:18px;fill:#333;}#my-svg .edgeLabel[data-look="neo"]{background-color:rgba(232,232,232, 0.8);text-align:center;}#my-svg .edgeLabel[data-look="neo"] p{background-color:rgba(232,232,232, 0.8);}#my-svg .edgeLabel[data-look="neo"] rect{opacity:0.5;background-color:rgba(232,232,232, 0.8);fill:rgba(232,232,232, 0.8);}#my-svg .label-icon{display:inline-block;height:1em;overflow:visible;vertical-align:-0.125em;}#my-svg .node .label-icon path{fill:currentColor;stroke:revert;stroke-width:revert;}#my-svg .node .neo-node{stroke:#9370DB;}#my-svg [data-look="neo"].node rect,#my-svg [data-look="neo"].cluster rect,#my-svg [data-look="neo"].node polygon{stroke:#9370DB;filter:drop-shadow(1px 2px 2px rgba(185, 185, 185, 1));}#my-svg [data-look="neo"].node path{stroke:#9370DB;stroke-width:1px;}#my-svg [data-look="neo"].node .outer-path{filter:drop-shadow(1px 2px 2px rgba(185, 185, 185, 1));}#my-svg [data-look="neo"].node .neo-line path{stroke:#9370DB;filter:none;}#my-svg [data-look="neo"].node circle{stroke:#9370DB;filter:drop-shadow(1px 2px 2px rgba(185, 185, 185, 1));}#my-svg [data-look="neo"].node circle .state-start{fill:#000000;}#my-svg [data-look="neo"].icon-shape .icon{fill:#9370DB;filter:drop-shadow(1px 2px 2px rgba(185, 185, 185, 1));}#my-svg [data-look="neo"].icon-shape .icon-neo path{stroke:#9370DB;filter:drop-shadow(1px 2px 2px rgba(185, 185, 185, 1));}#my-svg :root{--mermaid-font-family:"trebuchet ms",verdana,arial,sans-serif;}</style><g><defs><marker id="my-svg_class-aggregationStart" class="marker aggregation class" refX="18" refY="7" markerWidth="190" markerHeight="240" orient="auto"><path d="M 18,7 L9,13 L1,7 L9,1 Z"/></marker></defs><defs><marker id="my-svg_class-aggregationEnd" class="marker aggregation class" refX="1" refY="7" markerWidth="20" markerHeight="28" orient="auto"><path d="M 18,7 L9,13 L1,7 L9,1 Z"/></marker></defs><defs><marker id="my-svg_class-aggregationStart-margin" class="marker aggregation class" refX="15" refY="7" markerWidth="190" markerHeight="240" orient="auto" markerUnits="userSpaceOnUse"><path d="M 18,7 L9,13 L1,7 L9,1 Z" style="stroke-width: 2;"/></marker></defs><defs><marker id="my-svg_class-aggregationEnd-margin" class="marker aggregation class" refX="1" refY="7" markerWidth="20" markerHeight="28" orient="auto" markerUnits="userSpaceOnUse"><path d="M 18,7 L9,13 L1,7 L9,1 Z" style="stroke-width: 2;"/></marker></defs><defs><marker id="my-svg_class-extensionStart" class="marker extension class" refX="18" refY="7" markerWidth="20" markerHeight="28" orient="auto" markerUnits="userSpaceOnUse"><path d="M 1,7 L18,13 V 1 Z"/></marker></defs><defs><marker id="my-svg_class-extensionEnd" class="marker extension class" refX="1" refY="7" markerWidth="20" markerHeight="28" orient="auto"><path d="M 1,1 V 13 L18,7 Z"/></marker></defs><marker id="my-svg_class-extensionStart-margin" class="marker extension class" refX="18" refY="7" markerWidth="20" markerHeight="28" orient="auto" markerUnits="userSpaceOnUse" viewBox="0 0 20 14"><polygon points="10,7 18,13 18,1" style="stroke-width: 2; stroke-dasharray: 0;"/></marker><defs><marker id="my-svg_class-extensionEnd-margin" class="marker extension class" refX="9" refY="7" markerWidth="20" markerHeight="28" orient="auto" markerUnits="userSpaceOnUse" viewBox="0 0 20 14"><polygon points="10,1 10,13 18,7" style="stroke-width: 2; stroke-dasharray: 0;"/></marker></defs><defs><marker id="my-svg_class-compositionStart" class="marker composition class" refX="18" refY="7" markerWidth="190" markerHeight="240" orient="auto"><path d="M 18,7 L9,13 L1,7 L9,1 Z"/></marker></defs><defs><marker id="my-svg_class-compositionEnd" class="marker composition class" refX="1" refY="7" markerWidth="20" markerHeight="28" orient="auto"><path d="M 18,7 L9,13 L1,7 L9,1 Z"/></marker></defs><defs><marker id="my-svg_class-compositionStart-margin" class="marker composition class" refX="15" refY="7" markerWidth="190" markerHeight="240" orient="auto" markerUnits="userSpaceOnUse"><path viewBox="0 0 15 15" d="M 18,7 L9,13 L1,7 L9,1 Z" style="stroke-width: 0;"/></marker></defs><defs><marker id="my-svg_class-compositionEnd-margin" class="marker composition class" refX="3.5" refY="7" markerWidth="20" markerHeight="28" orient="auto" markerUnits="userSpaceOnUse"><path d="M 18,7 L9,13 L1,7 L9,1 Z" style="stroke-width: 0;"/></marker></defs><defs><marker id="my-svg_class-dependencyStart" class="marker dependency class" refX="6" refY="7" markerWidth="190" markerHeight="240" orient="auto"><path d="M 5,7 L9,13 L1,7 L9,1 Z"/></marker></defs><defs><marker id="my-svg_class-dependencyEnd" class="marker dependency class" refX="13" refY="7" markerWidth="20" markerHeight="28" orient="auto"><path d="M 18,7 L9,13 L14,7 L9,1 Z"/></marker></defs><defs><marker id="my-svg_class-dependencyStart-margin" class="marker dependency class" refX="4" refY="7" markerWidth="190" markerHeight="240" orient="auto" markerUnits="userSpaceOnUse"><path d="M 5,7 L9,13 L1,7 L9,1 Z" style="stroke-width: 0;"/></marker></defs><defs><marker id="my-svg_class-dependencyEnd-margin" class="marker dependency class" refX="16" refY="7" markerWidth="20" markerHeight="28" orient="auto" markerUnits="userSpaceOnUse"><path d="M 18,7 L9,13 L14,7 L9,1 Z" style="stroke-width: 0;"/></marker></defs><defs><marker id="my-svg_class-lollipopStart" class="marker lollipop class" refX="13" refY="7" markerWidth="190" markerHeight="240" orient="auto"><circle fill="transparent" cx="7" cy="7" r="6"/></marker></defs><defs><marker id="my-svg_class-lollipopEnd" class="marker lollipop class" refX="1" refY="7" markerWidth="190" markerHeight="240" orient="auto"><circle fill="transparent" cx="7" cy="7" r="6"/></marker></defs><defs><marker id="my-svg_class-lollipopStart-margin" class="marker lollipop class" refX="13" refY="7" markerWidth="190" markerHeight="240" orient="auto" markerUnits="userSpaceOnUse"><circle fill="transparent" cx="7" cy="7" r="6" stroke-width="2"/></marker></defs><defs><marker id="my-svg_class-lollipopEnd-margin" class="marker lollipop class" refX="1" refY="7" markerWidth="190" markerHeight="240" orient="auto" markerUnits="userSpaceOnUse"><circle fill="transparent" cx="7" cy="7" r="6" stroke-width="2"/></marker></defs><g class="root"><g class="clusters"/><g class="edgePaths"><path d="M1911.457,303.941L1902.799,307.118C1894.141,310.294,1876.825,316.647,1868.168,323.99C1859.51,331.333,1859.51,339.667,1859.51,343.833L1859.51,348" id="my-svg-id_MediaFile_ImageFile_1" class="edge-thickness-normal edge-pattern-solid relation" style=";;;" data-edge="true" data-et="edge" data-id="id_MediaFile_ImageFile_1" data-points="W3sieCI6MTkyNy42NTE0MjQ2MzIzNTMsInkiOjI5OH0seyJ4IjoxODU5LjUwOTc2NTYyNSwieSI6MzIzfSx7IngiOjE4NTkuNTA5NzY1NjI1LCJ5IjozNDh9XQ==" data-look="classic" marker-start="url(#my-svg_class-extensionStart)"/><path d="M2270.926,303.941L2279.584,307.118C2288.242,310.294,2305.557,316.647,2314.215,323.99C2322.873,331.333,2322.873,339.667,2322.873,343.833L2322.873,348" id="my-svg-id_MediaFile_AudioFile_2" class="edge-thickness-normal edge-pattern-solid relation" style=";;;" data-edge="true" data-et="edge" data-id="id_MediaFile_AudioFile_2" data-points="W3sieCI6MjI1NC43MzEzODc4Njc2NDcsInkiOjI5OH0seyJ4IjoyMzIyLjg3MzA0Njg3NSwieSI6MzIzfSx7IngiOjIzMjIuODczMDQ2ODc1LCJ5IjozNDh9XQ==" data-look="classic" marker-start="url(#my-svg_class-extensionStart)"/><path d="M2674.82,145.25L2674.82,146.542C2674.82,147.833,2674.82,150.417,2674.82,155.875C2674.82,161.333,2674.82,169.667,2674.82,173.833L2674.82,178" id="my-svg-id_TimedText_Cue_3" class="edge-thickness-normal edge-pattern-solid relation" style=";;;" data-edge="true" data-et="edge" data-id="id_TimedText_Cue_3" data-points="W3sieCI6MjY3NC44MjAzMTI1LCJ5IjoxMjh9LHsieCI6MjY3NC44MjAzMTI1LCJ5IjoxNTN9LHsieCI6MjY3NC44MjAzMTI1LCJ5IjoxNzh9XQ==" data-look="classic" marker-start="url(#my-svg_class-compositionStart)"/><path d="M3567.969,145.25L3567.969,146.542C3567.969,147.833,3567.969,150.417,3567.969,155.875C3567.969,161.333,3567.969,169.667,3567.969,173.833L3567.969,178" id="my-svg-id_SegmentModel_Segment_4" class="edge-thickness-normal edge-pattern-solid relation" style=";;;" data-edge="true" data-et="edge" data-id="id_SegmentModel_Segment_4" data-points="W3sieCI6MzU2Ny45Njg3NSwieSI6MTI4fSx7IngiOjM1NjcuOTY4NzUsInkiOjE1M30seyJ4IjozNTY3Ljk2ODc1LCJ5IjoxNzh9XQ==" data-look="classic" marker-start="url(#my-svg_class-compositionStart)"/><path d="M2091.191,145.25L2091.191,146.542C2091.191,147.833,2091.191,150.417,2091.191,155.875C2091.191,161.333,2091.191,169.667,2091.191,173.833L2091.191,178" id="my-svg-id_Delivery_MediaFile_5" class="edge-thickness-normal edge-pattern-solid relation" style=";;;" data-edge="true" data-et="edge" data-id="id_Delivery_MediaFile_5" data-points="W3sieCI6MjA5MS4xOTE0MDYyNSwieSI6MTI4fSx7IngiOjIwOTEuMTkxNDA2MjUsInkiOjE1M30seyJ4IjoyMDkxLjE5MTQwNjI1LCJ5IjoxNzh9XQ==" data-look="classic" marker-start="url(#my-svg_class-compositionStart)"/></g><g class="edgeLabels"><g class="edgeLabel"><g class="label" data-id="id_MediaFile_ImageFile_1" transform="translate(0, 0)"><foreignObject width="0" height="0"><div xmlns="http://www.w3.org/1999/xhtml" class="labelBkg" style="display: table-cell; white-space: nowrap; line-height: 1.5; max-width: 200px; text-align: center;"><span class="edgeLabel"></span></div></foreignObject></g></g><g class="edgeLabel"><g class="label" data-id="id_MediaFile_AudioFile_2" transform="translate(0, 0)"><foreignObject width="0" height="0"><div xmlns="http://www.w3.org/1999/xhtml" class="labelBkg" style="display: table-cell; white-space: nowrap; line-height: 1.5; max-width: 200px; text-align: center;"><span class="edgeLabel"></span></div></foreignObject></g></g><g class="edgeLabel"><g class="label" data-id="id_TimedText_Cue_3" transform="translate(0, 0)"><foreignObject width="0" height="0"><div xmlns="http://www.w3.org/1999/xhtml" class="labelBkg" style="display: table-cell; white-space: nowrap; line-height: 1.5; max-width: 200px; text-align: center;"><span class="edgeLabel"></span></div></foreignObject></g></g><g class="edgeLabel"><g class="label" data-id="id_SegmentModel_Segment_4" transform="translate(0, 0)"><foreignObject width="0" height="0"><div xmlns="http://www.w3.org/1999/xhtml" class="labelBkg" style="display: table-cell; white-space: nowrap; line-height: 1.5; max-width: 200px; text-align: center;"><span class="edgeLabel"></span></div></foreignObject></g></g><g class="edgeLabel"><g class="label" data-id="id_Delivery_MediaFile_5" transform="translate(0, 0)"><foreignObject width="0" height="0"><div xmlns="http://www.w3.org/1999/xhtml" class="labelBkg" style="display: table-cell; white-space: nowrap; line-height: 1.5; max-width: 200px; text-align: center;"><span class="edgeLabel"></span></div></foreignObject></g></g></g><g class="nodes"><g class="node default" id="my-svg-classId-MediaFile-0" data-look="classic" transform="translate(2091.19140625, 238)"><g class="basic label-container outer-path"><path d="M-349.75 -60 L349.75 -60 L349.75 60 L-349.75 60" stroke="none" stroke-width="0" fill="#ECECFF" style=""/><path d="M-349.75 -60 C-172.98566575474914 -60, 3.7786684905017296 -60, 349.75 -60 M-349.75 -60 C-182.89059909986895 -60, -16.0311981997379 -60, 349.75 -60 M349.75 -60 C349.75 -23.823039570025273, 349.75 12.353920859949454, 349.75 60 M349.75 -60 C349.75 -34.67851193617989, 349.75 -9.357023872359783, 349.75 60 M349.75 60 C97.51596265446372 60, -154.71807469107256 60, -349.75 60 M349.75 60 C107.56568261561674 60, -134.61863476876653 60, -349.75 60 M-349.75 60 C-349.75 32.81410513015118, -349.75 5.628210260302353, -349.75 -60 M-349.75 60 C-349.75 18.89824420413688, -349.75 -22.20351159172624, -349.75 -60" stroke="#9370DB" stroke-width="1.3" fill="none" stroke-dasharray="0 0" style=""/></g><g class="annotation-group text" transform="translate(0, -36)"/><g class="label-group text" transform="translate(-36.453125, -36)"><g class="label" style="font-weight: bolder" transform="translate(0,-12)"><foreignObject width="72.90625" height="24"><div xmlns="http://www.w3.org/1999/xhtml" style="display: table-cell; white-space: nowrap; line-height: 1.5; max-width: 116px; text-align: center;"><span class="nodeLabel markdown-node-label" style=""><p>MediaFile</p></span></div></foreignObject></g></g><g class="members-group text" transform="translate(-337.75, 12)"><g class="label" style="" transform="translate(0,-12)"><foreignObject width="639.046875" height="24"><div xmlns="http://www.w3.org/1999/xhtml" style="display: table-cell; white-space: nowrap; line-height: 1.5; max-width: 669px; text-align: center;"><span class="nodeLabel markdown-node-label" style=""><p>&lt;&gt; +Path path; +String container; +Count vStreams; +Count aStreams; +Duration duration</p></span></div></foreignObject></g></g><g class="methods-group text" transform="translate(-337.75, 60)"/><g class="divider" style=""><path d="M-349.75 -12 C-72.16227863242023 -11.999603162657086, 205.42544273515955 -11.999206325314175, 349.75 -11.999 M-349.75 -12 C-183.95847219729836 -11.999762985664328, -18.166944394596726 -11.999525971328655, 349.75 -11.999" stroke="#9370DB" stroke-width="1.3" fill="none" stroke-dasharray="0 0" style=""/></g><g class="divider" style=""><path d="M-349.75 36 C-111.67606276662389 36.00034034873085, 126.39787446675223 36.00068069746171, 349.75 36.001 M-349.75 36 C-186.7667510241386 36.000232999641135, -23.783502048277228 36.00046599928228, 349.75 36.001" stroke="#9370DB" stroke-width="1.3" fill="none" stroke-dasharray="0 0" style=""/></g></g><g class="node default" id="my-svg-classId-ImageFile-1" data-look="classic" transform="translate(1859.509765625, 408)"><g class="basic label-container outer-path"><path d="M-186.7890625 -60 L186.7890625 -60 L186.7890625 60 L-186.7890625 60" stroke="none" stroke-width="0" fill="#ECECFF" style=""/><path d="M-186.7890625 -60 C-90.69982986315276 -60, 5.389402773694485 -60, 186.7890625 -60 M-186.7890625 -60 C-106.04198194537852 -60, -25.294901390757047 -60, 186.7890625 -60 M186.7890625 -60 C186.7890625 -27.25438867988514, 186.7890625 5.491222640229722, 186.7890625 60 M186.7890625 -60 C186.7890625 -26.86308064578065, 186.7890625 6.273838708438703, 186.7890625 60 M186.7890625 60 C89.38376767212289 60, -8.021527155754228 60, -186.7890625 60 M186.7890625 60 C92.64177354856132 60, -1.5055154028773643 60, -186.7890625 60 M-186.7890625 60 C-186.7890625 32.02409619511279, -186.7890625 4.048192390225573, -186.7890625 -60 M-186.7890625 60 C-186.7890625 13.195435848035359, -186.7890625 -33.60912830392928, -186.7890625 -60" stroke="#9370DB" stroke-width="1.3" fill="none" stroke-dasharray="0 0" style=""/></g><g class="annotation-group text" transform="translate(0, -36)"/><g class="label-group text" transform="translate(-36.90625, -36)"><g class="label" style="font-weight: bolder" transform="translate(0,-12)"><foreignObject width="73.8125" height="24"><div xmlns="http://www.w3.org/1999/xhtml" style="display: table-cell; white-space: nowrap; line-height: 1.5; max-width: 115px; text-align: center;"><span class="nodeLabel markdown-node-label" style=""><p>ImageFile</p></span></div></foreignObject></g></g><g class="members-group text" transform="translate(-174.7890625, 12)"><g class="label" style="" transform="translate(0,-12)"><foreignObject width="312.671875" height="24"><div xmlns="http://www.w3.org/1999/xhtml" style="display: table-cell; white-space: nowrap; line-height: 1.5; max-width: 376px; text-align: center;"><span class="nodeLabel markdown-node-label" style=""><p>&lt;&gt; +Path path; +Count width; +Count height</p></span></div></foreignObject></g></g><g class="methods-group text" transform="translate(-174.7890625, 60)"/><g class="divider" style=""><path d="M-186.7890625 -12 C-111.26974571268372 -11.999797848664754, -35.75042892536743 -11.999595697329509, 186.7890625 -11.999 M-186.7890625 -12 C-108.33847396060654 -11.999790002188861, -29.88788542121307 -11.999580004377723, 186.7890625 -11.999" stroke="#9370DB" stroke-width="1.3" fill="none" stroke-dasharray="0 0" style=""/></g><g class="divider" style=""><path d="M-186.7890625 36 C-100.21030395193172 36.00023175542879, -13.631545403863441 36.00046351085759, 186.7890625 36.001 M-186.7890625 36 C-106.64505009978436 36.00021453079567, -26.501037699568712 36.00042906159133, 186.7890625 36.001" stroke="#9370DB" stroke-width="1.3" fill="none" stroke-dasharray="0 0" style=""/></g></g><g class="node default" id="my-svg-classId-AudioFile-2" data-look="classic" transform="translate(2322.873046875, 408)"><g class="basic label-container outer-path"><path d="M-226.57421875 -60 L226.57421875 -60 L226.57421875 60 L-226.57421875 60" stroke="none" stroke-width="0" fill="#ECECFF" style=""/><path d="M-226.57421875 -60 C-115.90971166865619 -60, -5.245204587312372 -60, 226.57421875 -60 M-226.57421875 -60 C-123.79743286102438 -60, -21.020646972048752 -60, 226.57421875 -60 M226.57421875 -60 C226.57421875 -13.09908429265937, 226.57421875 33.80183141468126, 226.57421875 60 M226.57421875 -60 C226.57421875 -15.652527694186581, 226.57421875 28.694944611626838, 226.57421875 60 M226.57421875 60 C124.31943324669642 60, 22.06464774339284 60, -226.57421875 60 M226.57421875 60 C103.24718729355797 60, -20.079844162884058 60, -226.57421875 60 M-226.57421875 60 C-226.57421875 17.543597562577368, -226.57421875 -24.912804874845264, -226.57421875 -60 M-226.57421875 60 C-226.57421875 18.856619441895155, -226.57421875 -22.28676111620969, -226.57421875 -60" stroke="#9370DB" stroke-width="1.3" fill="none" stroke-dasharray="0 0" style=""/></g><g class="annotation-group text" transform="translate(0, -36)"/><g class="label-group text" transform="translate(-36.4453125, -36)"><g class="label" style="font-weight: bolder" transform="translate(0,-12)"><foreignObject width="72.890625" height="24"><div xmlns="http://www.w3.org/1999/xhtml" style="display: table-cell; white-space: nowrap; line-height: 1.5; max-width: 115px; text-align: center;"><span class="nodeLabel markdown-node-label" style=""><p>AudioFile</p></span></div></foreignObject></g></g><g class="members-group text" transform="translate(-214.57421875, 12)"><g class="label" style="" transform="translate(0,-12)"><foreignObject width="392.703125" height="24"><div xmlns="http://www.w3.org/1999/xhtml" style="display: table-cell; white-space: nowrap; line-height: 1.5; max-width: 445px; text-align: center;"><span class="nodeLabel markdown-node-label" style=""><p>&lt;&gt; +Path path; +Duration duration; +Count sampleRate</p></span></div></foreignObject></g></g><g class="methods-group text" transform="translate(-214.57421875, 60)"/><g class="divider" style=""><path d="M-226.57421875 -12 C-55.70969938281547 -11.999622939184542, 115.15481998436906 -11.999245878369084, 226.57421875 -11.999 M-226.57421875 -12 C-82.92476942297307 -11.999682996922335, 60.72467990405386 -11.999365993844668, 226.57421875 -11.999" stroke="#9370DB" stroke-width="1.3" fill="none" stroke-dasharray="0 0" style=""/></g><g class="divider" style=""><path d="M-226.57421875 36 C-104.02072498295702 36.00027044889406, 18.53276878408596 36.00054089778812, 226.57421875 36.001 M-226.57421875 36 C-126.16733374925502 36.00022157614744, -25.760448748510044 36.000443152294885, 226.57421875 36.001" stroke="#9370DB" stroke-width="1.3" fill="none" stroke-dasharray="0 0" style=""/></g></g><g class="node default" id="my-svg-classId-EditDecision-3" data-look="classic" transform="translate(441.7109375, 68)"><g class="basic label-container outer-path"><path d="M-433.7109375 -60 L433.7109375 -60 L433.7109375 60 L-433.7109375 60" stroke="none" stroke-width="0" fill="#ECECFF" style=""/><path d="M-433.7109375 -60 C-112.0537443464446 -60, 209.6034488071108 -60, 433.7109375 -60 M-433.7109375 -60 C-252.86599402966118 -60, -72.02105055932236 -60, 433.7109375 -60 M433.7109375 -60 C433.7109375 -26.294783568509423, 433.7109375 7.410432862981153, 433.7109375 60 M433.7109375 -60 C433.7109375 -23.317703220401775, 433.7109375 13.36459355919645, 433.7109375 60 M433.7109375 60 C244.04280587498764 60, 54.37467424997527 60, -433.7109375 60 M433.7109375 60 C250.24022492077293 60, 66.76951234154586 60, -433.7109375 60 M-433.7109375 60 C-433.7109375 18.430607533281147, -433.7109375 -23.138784933437705, -433.7109375 -60 M-433.7109375 60 C-433.7109375 32.64307216467254, -433.7109375 5.286144329345078, -433.7109375 -60" stroke="#9370DB" stroke-width="1.3" fill="none" stroke-dasharray="0 0" style=""/></g><g class="annotation-group text" transform="translate(0, -36)"/><g class="label-group text" transform="translate(-48.453125, -36)"><g class="label" style="font-weight: bolder" transform="translate(0,-12)"><foreignObject width="96.90625" height="24"><div xmlns="http://www.w3.org/1999/xhtml" style="display: table-cell; white-space: nowrap; line-height: 1.5; max-width: 134px; text-align: center;"><span class="nodeLabel markdown-node-label" style=""><p>EditDecision</p></span></div></foreignObject></g></g><g class="members-group text" transform="translate(-421.7109375, 12)"><g class="label" style="" transform="translate(0,-12)"><foreignObject width="794.96875" height="24"><div xmlns="http://www.w3.org/1999/xhtml" style="display: table-cell; white-space: nowrap; line-height: 1.5; max-width: 826px; text-align: center;"><span class="nodeLabel markdown-node-label" style=""><p>&lt;&gt; +Boolean[] keepSet; +Permutation order; +TransitionKind[] transitions; +Real[] trackLevels; +Boolean[] mutes</p></span></div></foreignObject></g></g><g class="methods-group text" transform="translate(-421.7109375, 60)"/><g class="divider" style=""><path d="M-433.7109375 -12 C-244.19531938762609 -11.999781518516452, -54.67970127525217 -11.999563037032903, 433.7109375 -11.999 M-433.7109375 -12 C-122.30834516979945 -11.999641002145202, 189.0942471604011 -11.999282004290404, 433.7109375 -11.999" stroke="#9370DB" stroke-width="1.3" fill="none" stroke-dasharray="0 0" style=""/></g><g class="divider" style=""><path d="M-433.7109375 36 C-147.75540595728978 36.00032966142518, 138.20012558542044 36.00065932285035, 433.7109375 36.001 M-433.7109375 36 C-135.0429186915494 36.00034431690901, 163.6251001169012 36.00068863381802, 433.7109375 36.001" stroke="#9370DB" stroke-width="1.3" fill="none" stroke-dasharray="0 0" style=""/></g></g><g class="node default" id="my-svg-classId-FilterGraph-4" data-look="classic" transform="translate(1033.46484375, 68)"><g class="basic label-container outer-path"><path d="M-108.04296875 -60 L108.04296875 -60 L108.04296875 60 L-108.04296875 60" stroke="none" stroke-width="0" fill="#ECECFF" style=""/><path d="M-108.04296875 -60 C-33.57799788316868 -60, 40.886972983662645 -60, 108.04296875 -60 M-108.04296875 -60 C-40.85933596298706 -60, 26.32429682402588 -60, 108.04296875 -60 M108.04296875 -60 C108.04296875 -16.21253320856534, 108.04296875 27.57493358286932, 108.04296875 60 M108.04296875 -60 C108.04296875 -23.372908722397703, 108.04296875 13.254182555204594, 108.04296875 60 M108.04296875 60 C22.53705020690272 60, -62.96886833619456 60, -108.04296875 60 M108.04296875 60 C48.844354900493634 60, -10.354258949012731 60, -108.04296875 60 M-108.04296875 60 C-108.04296875 13.70620691932995, -108.04296875 -32.5875861613401, -108.04296875 -60 M-108.04296875 60 C-108.04296875 14.758057434520168, -108.04296875 -30.483885130959663, -108.04296875 -60" stroke="#9370DB" stroke-width="1.3" fill="none" stroke-dasharray="0 0" style=""/></g><g class="annotation-group text" transform="translate(0, -36)"/><g class="label-group text" transform="translate(-43.1171875, -36)"><g class="label" style="font-weight: bolder" transform="translate(0,-12)"><foreignObject width="86.234375" height="24"><div xmlns="http://www.w3.org/1999/xhtml" style="display: table-cell; white-space: nowrap; line-height: 1.5; max-width: 125px; text-align: center;"><span class="nodeLabel markdown-node-label" style=""><p>FilterGraph</p></span></div></foreignObject></g></g><g class="members-group text" transform="translate(-96.04296875, 12)"><g class="label" style="" transform="translate(0,-12)"><foreignObject width="148.96875" height="24"><div xmlns="http://www.w3.org/1999/xhtml" style="display: table-cell; white-space: nowrap; line-height: 1.5; max-width: 224px; text-align: center;"><span class="nodeLabel markdown-node-label" style=""><p>&lt;&gt; +String command</p></span></div></foreignObject></g></g><g class="methods-group text" transform="translate(-96.04296875, 60)"/><g class="divider" style=""><path d="M-108.04296875 -12 C-28.438016922698296 -11.999631605125497, 51.16693490460341 -11.999263210250993, 108.04296875 -11.999 M-108.04296875 -12 C-33.01887859947324 -11.999652804384134, 42.00521155105352 -11.999305608768266, 108.04296875 -11.999" stroke="#9370DB" stroke-width="1.3" fill="none" stroke-dasharray="0 0" style=""/></g><g class="divider" style=""><path d="M-108.04296875 36 C-43.274669033083626 36.000299733987625, 21.493630683832748 36.00059946797525, 108.04296875 36.001 M-108.04296875 36 C-53.45993399373688 36.00025259873635, 1.123100762526235 36.000505197472705, 108.04296875 36.001" stroke="#9370DB" stroke-width="1.3" fill="none" stroke-dasharray="0 0" style=""/></g></g><g class="node default" id="my-svg-classId-Measurement-5" data-look="classic" transform="translate(1462.7109375, 68)"><g class="basic label-container outer-path"><path d="M-271.203125 -60 L271.203125 -60 L271.203125 60 L-271.203125 60" stroke="none" stroke-width="0" fill="#ECECFF" style=""/><path d="M-271.203125 -60 C-151.63140844794358 -60, -32.05969189588717 -60, 271.203125 -60 M-271.203125 -60 C-143.8329057036532 -60, -16.46268640730642 -60, 271.203125 -60 M271.203125 -60 C271.203125 -15.482708237551613, 271.203125 29.034583524896775, 271.203125 60 M271.203125 -60 C271.203125 -19.102571206632007, 271.203125 21.794857586735986, 271.203125 60 M271.203125 60 C78.93425783265724 60, -113.33460933468552 60, -271.203125 60 M271.203125 60 C97.48855977407538 60, -76.22600545184923 60, -271.203125 60 M-271.203125 60 C-271.203125 34.71842085130138, -271.203125 9.436841702602763, -271.203125 -60 M-271.203125 60 C-271.203125 33.90158874701389, -271.203125 7.8031774940277785, -271.203125 -60" stroke="#9370DB" stroke-width="1.3" fill="none" stroke-dasharray="0 0" style=""/></g><g class="annotation-group text" transform="translate(0, -36)"/><g class="label-group text" transform="translate(-51.578125, -36)"><g class="label" style="font-weight: bolder" transform="translate(0,-12)"><foreignObject width="103.15625" height="24"><div xmlns="http://www.w3.org/1999/xhtml" style="display: table-cell; white-space: nowrap; line-height: 1.5; max-width: 138px; text-align: center;"><span class="nodeLabel markdown-node-label" style=""><p>Measurement</p></span></div></foreignObject></g></g><g class="members-group text" transform="translate(-259.203125, 12)"><g class="label" style="" transform="translate(0,-12)"><foreignObject width="466.828125" height="24"><div xmlns="http://www.w3.org/1999/xhtml" style="display: table-cell; white-space: nowrap; line-height: 1.5; max-width: 509px; text-align: center;"><span class="nodeLabel markdown-node-label" style=""><p>&lt;&gt; +Loudness loudness; +TruePeak truePeak; +Duration duration</p></span></div></foreignObject></g></g><g class="methods-group text" transform="translate(-259.203125, 60)"/><g class="divider" style=""><path d="M-271.203125 -12 C-82.02543146688879 -11.99965122508538, 107.15226206622242 -11.999302450170761, 271.203125 -11.999 M-271.203125 -12 C-80.00732474778215 -11.999647504430024, 111.1884755044357 -11.999295008860049, 271.203125 -11.999" stroke="#9370DB" stroke-width="1.3" fill="none" stroke-dasharray="0 0" style=""/></g><g class="divider" style=""><path d="M-271.203125 36 C-115.96559969068346 36.000286201579186, 39.27192561863308 36.000572403158365, 271.203125 36.001 M-271.203125 36 C-75.08701262723866 36.00036156683735, 121.02909974552267 36.000723133674704, 271.203125 36.001" stroke="#9370DB" stroke-width="1.3" fill="none" stroke-dasharray="0 0" style=""/></g></g><g class="node default" id="my-svg-classId-TimedText-6" data-look="classic" transform="translate(2674.8203125, 68)"><g class="basic label-container outer-path"><path d="M-86.12109375 -60 L86.12109375 -60 L86.12109375 60 L-86.12109375 60" stroke="none" stroke-width="0" fill="#ECECFF" style=""/><path d="M-86.12109375 -60 C-29.269457274375497 -60, 27.582179201249005 -60, 86.12109375 -60 M-86.12109375 -60 C-24.177991054141103 -60, 37.765111641717795 -60, 86.12109375 -60 M86.12109375 -60 C86.12109375 -13.627627352422259, 86.12109375 32.74474529515548, 86.12109375 60 M86.12109375 -60 C86.12109375 -14.064827541163368, 86.12109375 31.870344917673265, 86.12109375 60 M86.12109375 60 C38.959414166199814 60, -8.202265417600373 60, -86.12109375 60 M86.12109375 60 C23.109477831994766 60, -39.90213808601047 60, -86.12109375 60 M-86.12109375 60 C-86.12109375 25.59999134173396, -86.12109375 -8.800017316532077, -86.12109375 -60 M-86.12109375 60 C-86.12109375 29.12891305091182, -86.12109375 -1.742173898176361, -86.12109375 -60" stroke="#9370DB" stroke-width="1.3" fill="none" stroke-dasharray="0 0" style=""/></g><g class="annotation-group text" transform="translate(0, -36)"/><g class="label-group text" transform="translate(-39.2734375, -36)"><g class="label" style="font-weight: bolder" transform="translate(0,-12)"><foreignObject width="78.546875" height="24"><div xmlns="http://www.w3.org/1999/xhtml" style="display: table-cell; white-space: nowrap; line-height: 1.5; max-width: 120px; text-align: center;"><span class="nodeLabel markdown-node-label" style=""><p>TimedText</p></span></div></foreignObject></g></g><g class="members-group text" transform="translate(-74.12109375, 12)"><g class="label" style="" transform="translate(0,-12)"><foreignObject width="108.96875" height="24"><div xmlns="http://www.w3.org/1999/xhtml" style="display: table-cell; white-space: nowrap; line-height: 1.5; max-width: 187px; text-align: center;"><span class="nodeLabel markdown-node-label" style=""><p>&lt;&gt; +Cue[] cues</p></span></div></foreignObject></g></g><g class="methods-group text" transform="translate(-74.12109375, 60)"/><g class="divider" style=""><path d="M-86.12109375 -12 C-47.13045931730493 -11.999773629010415, -8.139824884609865 -11.99954725802083, 86.12109375 -11.999 M-86.12109375 -12 C-22.74890672272621 -11.999632075115004, 40.62328030454758 -11.99926415023001, 86.12109375 -11.999" stroke="#9370DB" stroke-width="1.3" fill="none" stroke-dasharray="0 0" style=""/></g><g class="divider" style=""><path d="M-86.12109375 36 C-37.81588831708356 36.00028044932623, 10.489317115832876 36.00056089865246, 86.12109375 36.001 M-86.12109375 36 C-32.09811616403746 36.00031364544523, 21.924861421925087 36.00062729089046, 86.12109375 36.001" stroke="#9370DB" stroke-width="1.3" fill="none" stroke-dasharray="0 0" style=""/></g></g><g class="node default" id="my-svg-classId-Cue-7" data-look="classic" transform="translate(2674.8203125, 238)"><g class="basic label-container outer-path"><path d="M-183.87890625 -60 L183.87890625 -60 L183.87890625 60 L-183.87890625 60" stroke="none" stroke-width="0" fill="#ECECFF" style=""/><path d="M-183.87890625 -60 C-86.60343762324696 -60, 10.672031003506078 -60, 183.87890625 -60 M-183.87890625 -60 C-73.7989668370189 -60, 36.28097257596221 -60, 183.87890625 -60 M183.87890625 -60 C183.87890625 -18.30042641780517, 183.87890625 23.39914716438966, 183.87890625 60 M183.87890625 -60 C183.87890625 -25.754807914003166, 183.87890625 8.490384171993668, 183.87890625 60 M183.87890625 60 C40.63172674165759 60, -102.61545276668483 60, -183.87890625 60 M183.87890625 60 C54.69850229591205 60, -74.4819016581759 60, -183.87890625 60 M-183.87890625 60 C-183.87890625 18.95846966763665, -183.87890625 -22.083060664726702, -183.87890625 -60 M-183.87890625 60 C-183.87890625 14.67246300649446, -183.87890625 -30.65507398701108, -183.87890625 -60" stroke="#9370DB" stroke-width="1.3" fill="none" stroke-dasharray="0 0" style=""/></g><g class="annotation-group text" transform="translate(0, -36)"/><g class="label-group text" transform="translate(-15.1171875, -36)"><g class="label" style="font-weight: bolder" transform="translate(0,-12)"><foreignObject width="30.234375" height="24"><div xmlns="http://www.w3.org/1999/xhtml" style="display: table-cell; white-space: nowrap; line-height: 1.5; max-width: 76px; text-align: center;"><span class="nodeLabel markdown-node-label" style=""><p>Cue</p></span></div></foreignObject></g></g><g class="members-group text" transform="translate(-171.87890625, 12)"><g class="label" style="" transform="translate(0,-12)"><foreignObject width="328.640625" height="24"><div xmlns="http://www.w3.org/1999/xhtml" style="display: table-cell; white-space: nowrap; line-height: 1.5; max-width: 393px; text-align: center;"><span class="nodeLabel markdown-node-label" style=""><p>&lt;&gt; +Duration start; +Duration end; +String text</p></span></div></foreignObject></g></g><g class="methods-group text" transform="translate(-171.87890625, 60)"/><g class="divider" style=""><path d="M-183.87890625 -12 C-66.82197725819144 -11.999681701040704, 50.23495173361712 -11.999363402081407, 183.87890625 -11.999 M-183.87890625 -12 C-100.57185352414636 -11.999773473057827, -17.264800798292725 -11.999546946115654, 183.87890625 -11.999" stroke="#9370DB" stroke-width="1.3" fill="none" stroke-dasharray="0 0" style=""/></g><g class="divider" style=""><path d="M-183.87890625 36 C-85.99340957107425 36.000266168367745, 11.892087107851495 36.00053233673549, 183.87890625 36.001 M-183.87890625 36 C-69.9576344219023 36.00030977254039, 43.9636374061954 36.00061954508079, 183.87890625 36.001" stroke="#9370DB" stroke-width="1.3" fill="none" stroke-dasharray="0 0" style=""/></g></g><g class="node default" id="my-svg-classId-Delivery-8" data-look="classic" transform="translate(2091.19140625, 68)"><g class="basic label-container outer-path"><path d="M-307.27734375 -60 L307.27734375 -60 L307.27734375 60 L-307.27734375 60" stroke="none" stroke-width="0" fill="#ECECFF" style=""/><path d="M-307.27734375 -60 C-137.7387473202485 -60, 31.799849109502986 -60, 307.27734375 -60 M-307.27734375 -60 C-87.02629955060846 -60, 133.2247446487831 -60, 307.27734375 -60 M307.27734375 -60 C307.27734375 -27.982491736307956, 307.27734375 4.035016527384087, 307.27734375 60 M307.27734375 -60 C307.27734375 -14.660140787183494, 307.27734375 30.679718425633013, 307.27734375 60 M307.27734375 60 C94.48403159969928 60, -118.30928055060144 60, -307.27734375 60 M307.27734375 60 C64.20805429011455 60, -178.8612351697709 60, -307.27734375 60 M-307.27734375 60 C-307.27734375 17.580708346288993, -307.27734375 -24.838583307422013, -307.27734375 -60 M-307.27734375 60 C-307.27734375 22.56302549398705, -307.27734375 -14.873949012025903, -307.27734375 -60" stroke="#9370DB" stroke-width="1.3" fill="none" stroke-dasharray="0 0" style=""/></g><g class="annotation-group text" transform="translate(0, -36)"/><g class="label-group text" transform="translate(-31.1328125, -36)"><g class="label" style="font-weight: bolder" transform="translate(0,-12)"><foreignObject width="62.265625" height="24"><div xmlns="http://www.w3.org/1999/xhtml" style="display: table-cell; white-space: nowrap; line-height: 1.5; max-width: 106px; text-align: center;"><span class="nodeLabel markdown-node-label" style=""><p>Delivery</p></span></div></foreignObject></g></g><g class="members-group text" transform="translate(-295.27734375, 12)"><g class="label" style="" transform="translate(0,-12)"><foreignObject width="559.421875" height="24"><div xmlns="http://www.w3.org/1999/xhtml" style="display: table-cell; white-space: nowrap; line-height: 1.5; max-width: 600px; text-align: center;"><span class="nodeLabel markdown-node-label" style=""><p>&lt;&gt; +MediaFile mp4; +MediaFile mp3; +File srt; +Loudness measuredLoudness</p></span></div></foreignObject></g></g><g class="methods-group text" transform="translate(-295.27734375, 60)"/><g class="divider" style=""><path d="M-307.27734375 -12 C-71.67397575095507 -11.999616627498266, 163.92939224808987 -11.999233254996533, 307.27734375 -11.999 M-307.27734375 -12 C-156.23237352993658 -11.999754220457037, -5.187403309873162 -11.999508440914072, 307.27734375 -11.999" stroke="#9370DB" stroke-width="1.3" fill="none" stroke-dasharray="0 0" style=""/></g><g class="divider" style=""><path d="M-307.27734375 36 C-98.8390314723163 36.0003391696728, 109.59928080536741 36.0006783393456, 307.27734375 36.001 M-307.27734375 36 C-88.3491325228645 36.00035623877855, 130.579078704271 36.0007124775571, 307.27734375 36.001" stroke="#9370DB" stroke-width="1.3" fill="none" stroke-dasharray="0 0" style=""/></g></g><g class="node default" id="my-svg-classId-ProjectDoc-9" data-look="classic" transform="translate(3099.42578125, 68)"><g class="basic label-container outer-path"><path d="M-288.484375 -60 L288.484375 -60 L288.484375 60 L-288.484375 60" stroke="none" stroke-width="0" fill="#ECECFF" style=""/><path d="M-288.484375 -60 C-152.82125223377008 -60, -17.158129467540164 -60, 288.484375 -60 M-288.484375 -60 C-164.0639945411085 -60, -39.64361408221703 -60, 288.484375 -60 M288.484375 -60 C288.484375 -23.719700598258797, 288.484375 12.560598803482407, 288.484375 60 M288.484375 -60 C288.484375 -33.10206221021707, 288.484375 -6.204124420434134, 288.484375 60 M288.484375 60 C77.94089232936429 60, -132.60259034127142 60, -288.484375 60 M288.484375 60 C167.66752440039755 60, 46.850673800795136 60, -288.484375 60 M-288.484375 60 C-288.484375 15.744448286644413, -288.484375 -28.511103426711173, -288.484375 -60 M-288.484375 60 C-288.484375 32.49557252484223, -288.484375 4.991145049684469, -288.484375 -60" stroke="#9370DB" stroke-width="1.3" fill="none" stroke-dasharray="0 0" style=""/></g><g class="annotation-group text" transform="translate(0, -36)"/><g class="label-group text" transform="translate(-42.234375, -36)"><g class="label" style="font-weight: bolder" transform="translate(0,-12)"><foreignObject width="84.46875" height="24"><div xmlns="http://www.w3.org/1999/xhtml" style="display: table-cell; white-space: nowrap; line-height: 1.5; max-width: 122px; text-align: center;"><span class="nodeLabel markdown-node-label" style=""><p>ProjectDoc</p></span></div></foreignObject></g></g><g class="members-group text" transform="translate(-276.484375, 12)"><g class="label" style="" transform="translate(0,-12)"><foreignObject width="510.734375" height="24"><div xmlns="http://www.w3.org/1999/xhtml" style="display: table-cell; white-space: nowrap; line-height: 1.5; max-width: 568px; text-align: center;"><span class="nodeLabel markdown-node-label" style=""><p>&lt;&gt; +String version; +Track[] tracks; +Clip[] clips; +String[] mediaHandles</p></span></div></foreignObject></g></g><g class="methods-group text" transform="translate(-276.484375, 60)"/><g class="divider" style=""><path d="M-288.484375 -12 C-151.10507639163743 -11.999761894732412, -13.72577778327485 -11.999523789464826, 288.484375 -11.999 M-288.484375 -12 C-169.87363340813124 -11.99979442432265, -51.26289181626245 -11.999588848645297, 288.484375 -11.999" stroke="#9370DB" stroke-width="1.3" fill="none" stroke-dasharray="0 0" style=""/></g><g class="divider" style=""><path d="M-288.484375 36 C-162.7273729240019 36.00021796154831, -36.970370848003824 36.00043592309662, 288.484375 36.001 M-288.484375 36 C-60.2525260929952 36.00039557055543, 167.9793228140096 36.000791141110874, 288.484375 36.001" stroke="#9370DB" stroke-width="1.3" fill="none" stroke-dasharray="0 0" style=""/></g></g><g class="node default" id="my-svg-classId-SegmentModel-10" data-look="classic" transform="translate(3567.96875, 68)"><g class="basic label-container outer-path"><path d="M-130.05859375 -60 L130.05859375 -60 L130.05859375 60 L-130.05859375 60" stroke="none" stroke-width="0" fill="#ECECFF" style=""/><path d="M-130.05859375 -60 C-55.96514881474678 -60, 18.128296120506434 -60, 130.05859375 -60 M-130.05859375 -60 C-60.57238440909342 -60, 8.913824931813167 -60, 130.05859375 -60 M130.05859375 -60 C130.05859375 -16.74268782345999, 130.05859375 26.514624353080023, 130.05859375 60 M130.05859375 -60 C130.05859375 -28.601872026579013, 130.05859375 2.796255946841974, 130.05859375 60 M130.05859375 60 C44.425449435545175 60, -41.20769487890965 60, -130.05859375 60 M130.05859375 60 C47.54053910398024 60, -34.97751554203953 60, -130.05859375 60 M-130.05859375 60 C-130.05859375 31.655802895836402, -130.05859375 3.311605791672804, -130.05859375 -60 M-130.05859375 60 C-130.05859375 33.15338055107426, -130.05859375 6.3067611021485135, -130.05859375 -60" stroke="#9370DB" stroke-width="1.3" fill="none" stroke-dasharray="0 0" style=""/></g><g class="annotation-group text" transform="translate(0, -36)"/><g class="label-group text" transform="translate(-56.8984375, -36)"><g class="label" style="font-weight: bolder" transform="translate(0,-12)"><foreignObject width="113.796875" height="24"><div xmlns="http://www.w3.org/1999/xhtml" style="display: table-cell; white-space: nowrap; line-height: 1.5; max-width: 148px; text-align: center;"><span class="nodeLabel markdown-node-label" style=""><p>SegmentModel</p></span></div></foreignObject></g></g><g class="members-group text" transform="translate(-118.05859375, 12)"><g class="label" style="" transform="translate(0,-12)"><foreignObject width="179.21875" height="24"><div xmlns="http://www.w3.org/1999/xhtml" style="display: table-cell; white-space: nowrap; line-height: 1.5; max-width: 248px; text-align: center;"><span class="nodeLabel markdown-node-label" style=""><p>&lt;&gt; +Segment[] segments</p></span></div></foreignObject></g></g><g class="methods-group text" transform="translate(-118.05859375, 60)"/><g class="divider" style=""><path d="M-130.05859375 -12 C-41.271719438112314 -11.999658665868392, 47.51515487377537 -11.999317331736782, 130.05859375 -11.999 M-130.05859375 -12 C-45.541970261756774 -11.999675082510693, 38.97465322648645 -11.999350165021385, 130.05859375 -11.999" stroke="#9370DB" stroke-width="1.3" fill="none" stroke-dasharray="0 0" style=""/></g><g class="divider" style=""><path d="M-130.05859375 36 C-75.83108851679785 36.00020847336447, -21.603583283595682 36.000416946728926, 130.05859375 36.001 M-130.05859375 36 C-55.99732042225405 36.00028472272071, 18.063952905491902 36.000569445441414, 130.05859375 36.001" stroke="#9370DB" stroke-width="1.3" fill="none" stroke-dasharray="0 0" style=""/></g></g><g class="node default" id="my-svg-classId-Segment-11" data-look="classic" transform="translate(3567.96875, 238)"><g class="basic label-container outer-path"><path d="M-276.61328125 -60 L276.61328125 -60 L276.61328125 60 L-276.61328125 60" stroke="none" stroke-width="0" fill="#ECECFF" style=""/><path d="M-276.61328125 -60 C-146.73261572296613 -60, -16.85195019593226 -60, 276.61328125 -60 M-276.61328125 -60 C-111.69760652077491 -60, 53.21806820845018 -60, 276.61328125 -60 M276.61328125 -60 C276.61328125 -33.569716483152774, 276.61328125 -7.139432966305542, 276.61328125 60 M276.61328125 -60 C276.61328125 -23.59280910475671, 276.61328125 12.814381790486578, 276.61328125 60 M276.61328125 60 C62.6689029170968 60, -151.2754754158064 60, -276.61328125 60 M276.61328125 60 C67.48802439920746 60, -141.63723245158508 60, -276.61328125 60 M-276.61328125 60 C-276.61328125 20.65300677581392, -276.61328125 -18.693986448372158, -276.61328125 -60 M-276.61328125 60 C-276.61328125 17.651046867737207, -276.61328125 -24.697906264525585, -276.61328125 -60" stroke="#9370DB" stroke-width="1.3" fill="none" stroke-dasharray="0 0" style=""/></g><g class="annotation-group text" transform="translate(0, -36)"/><g class="label-group text" transform="translate(-33.7890625, -36)"><g class="label" style="font-weight: bolder" transform="translate(0,-12)"><foreignObject width="67.578125" height="24"><div xmlns="http://www.w3.org/1999/xhtml" style="display: table-cell; white-space: nowrap; line-height: 1.5; max-width: 107px; text-align: center;"><span class="nodeLabel markdown-node-label" style=""><p>Segment</p></span></div></foreignObject></g></g><g class="members-group text" transform="translate(-264.61328125, 12)"><g class="label" style="" transform="translate(0,-12)"><foreignObject width="495.4375" height="24"><div xmlns="http://www.w3.org/1999/xhtml" style="display: table-cell; white-space: nowrap; line-height: 1.5; max-width: 543px; text-align: center;"><span class="nodeLabel markdown-node-label" style=""><p>&lt;&gt; +Duration start; +Duration end; +TagLabel tag; +SubSection[] subs</p></span></div></foreignObject></g></g><g class="methods-group text" transform="translate(-264.61328125, 60)"/><g class="divider" style=""><path d="M-276.61328125 -12 C-100.09932133979254 -11.999680937301505, 76.41463857041492 -11.99936187460301, 276.61328125 -11.999 M-276.61328125 -12 C-84.60043038880576 -11.999652921851775, 107.41242047238848 -11.999305843703551, 276.61328125 -11.999" stroke="#9370DB" stroke-width="1.3" fill="none" stroke-dasharray="0 0" style=""/></g><g class="divider" style=""><path d="M-276.61328125 36 C-57.15044236854192 36.000396696134565, 162.31239651291617 36.000793392269124, 276.61328125 36.001 M-276.61328125 36 C-66.85674926379005 36.000379151230625, 142.8997827224199 36.00075830246125, 276.61328125 36.001" stroke="#9370DB" stroke-width="1.3" fill="none" stroke-dasharray="0 0" style=""/></g></g></g></g></g><defs><filter id="my-svg-drop-shadow" height="130%" width="130%"><feDropShadow dx="4" dy="4" stdDeviation="0" flood-opacity="0.06" flood-color="#000000"/></filter></defs><defs><filter id="my-svg-drop-shadow-small" height="150%" width="150%"><feDropShadow dx="2" dy="2" stdDeviation="0" flood-opacity="0.06" flood-color="#000000"/></filter></defs></svg>