<svg id="my-svg" width="100%" xmlns="http://www.w3.org/2000/svg" xmlns:xlink="http://www.w3.org/1999/xlink" class="classDiagram" style="max-width: 3852.58px; background-color: white;" viewBox="0 0 3852.58203125 476" role="graphics-document document" aria-roledescription="class"><style>#my-svg{font-family:"trebuchet ms",verdana,arial,sans-serif;font-size:16px;fill:#333;}@keyframes edge-animation-frame{from{stroke-dashoffset:0;}}@keyframes dash{to{stroke-dashoffset:0;}}#my-svg .edge-animation-slow{stroke-dasharray:9,5!important;stroke-dashoffset:900;animation:dash 50s linear infinite;stroke-linecap:round;}#my-svg .edge-animation-fast{stroke-dasharray:9,5!important;stroke-dashoffset:900;animation:dash 20s linear infinite;stroke-linecap:round;}#my-svg .error-icon{fill:#552222;}#my-svg .error-text{fill:#552222;stroke:#552222;}#my-svg .edge-thickness-normal{stroke-width:1px;}#my-svg .edge-thickness-thick{stroke-width:3.5px;}#my-svg .edge-pattern-solid{stroke-dasharray:0;}#my-svg .edge-thickness-invisible{stroke-width:0;fill:none;}#my-svg .edge-pattern-dashed{stroke-dasharray:3;}#my-svg .edge-pattern-dotted{stroke-dasharray:2;}#my-svg .marker{fill:#333333;stroke:#333333;}#my-svg .marker.cross{stroke:#333333;}#my-svg svg{font-family:"trebuchet ms",verdana,arial,sans-serif;font-size:16px;}#my-svg p{margin:0;}#my-svg g.classGroup text{fill:#9370DB;stroke:none;font-family:"trebuchet ms",verdana,arial,sans-serif;font-size:10px;}#my-svg g.classGroup text .title{font-weight:bolder;}#my-svg .cluster-label text{fill:#333;}#my-svg .cluster-label span{color:#333;}#my-svg .cluster-label span p{background-color:transparent;}#my-svg .cluster rect{fill:#ffffde;stroke:#aaaa33;stroke-width:1px;}#my-svg .cluster text{fill:#333;}#my-svg .cluster span{color:#333;}#my-svg .nodeLabel,#my-svg .edgeLabel{color:#131300;}#my-svg .noteLabel .nodeLabel,#my-svg .noteLabel .edgeLabel{color:black;}#my-svg .edgeLabel .label rect{fill:#ECECFF;}#my-svg .label text{fill:#131300;}#my-svg .labelBkg{background:#ECECFF;}#my-svg .edgeLabel .label span{background:#ECECFF;}#my-svg .classTitle{font-weight:bolder;}#my-svg .node rect,#my-svg .node circle,#my-svg .node ellipse,#my-svg .node polygon,#my-svg .node path{fill:#ECECFF;stroke:#9370DB;stroke-width:1;}#my-svg .divider{stroke:#9370DB;stroke-width:1;}#my-svg g.clickable{cursor:pointer;}#my-svg g.classGroup rect{fill:#ECECFF;stroke:#9370DB;}#my-svg g.classGroup line{stroke:#9370DB;stroke-width:1;}#my-svg .classLabel .box{stroke:none;stroke-width:0;fill:#ECECFF;opacity:0.5;}#my-svg .classLabel .label{fill:#9370DB;font-size:10px;}#my-svg .relation{stroke:#333333;stroke-width:1;fill:none;}#my-svg .dashed-line{stroke-dasharray:3;}#my-svg .dotted-line{stroke-dasharray:1 2;}#my-svg [id$="-compositionStart"],#my-svg .composition{fill:#333333!important;stroke:#333333!important;stroke-width:1;}#my-svg [id$="-compositionEnd"],#my-svg .composition{fill:#333333!important;stroke:#333333!important;stroke-width:1;}#my-svg [id$="-dependencyStart"],#my-svg .dependency{fill:#333333!important;stroke:#333333!important;stroke-width:1;}#my-svg [id$="-dependencyEnd"],#my-svg .dependency{fill:#333333!important;stroke:#333333!important;stroke-width:1;}#my-svg [id$="-extensionStart"],#my-svg .extension{fill:transparent!important;stroke:#333333!important;stroke-width:1;}#my-svg [id$="-extensionEnd"],#my-svg .extension{fill:transparent!important;stroke:#333333!important;stroke-width:1;}#my-svg [id$="-aggregationStart"],#my-svg .aggregation{fill:transparent!important;stroke:#333333!important;stroke-width:1;}#my-svg [id$="-aggregationEnd"],#my-svg .aggregation{fill:transparent!important;stroke:#333333!important;stroke-width:1;}#my-svg [id$="-lollipopStart"],#my-svg .lollipop{fill:#ECECFF!important;stroke:#333333!important;stroke-width:1;}#my-svg [id$="-lollipopEnd"],#my-svg .lollipop{fill:#ECECFF!important;stroke:#333333!important;stroke-width:1;}#my-svg .edgeTerminals{font-size:11px;line-height:initial;}#my-svg .classTitleText{text-anchor:middle;font-size:18px;fill:#333;}#my-svg .edgeLabel[data-look="neo"]{background-color:rgba(232,232,232, 0.8);text-align:center;}#my-svg .edgeLabel[data-look="neo"] p{background-color:rgba(232,232,232, 0.8);}#my-svg .edgeLabel[data-look="neo"] rect{opacity:0.5;background-color:rgba(232,232,232, 0.8);fill:rgba(232,232,232, 0.8);}#my-svg .label-icon{display:inline-block;height:1em;overflow:visible;vertical-align:-0.125em;}#my-svg .node .label-icon path{fill:currentColor;stroke:revert;stroke-width:revert;}#my-svg .node .neo-node{stroke:#9370DB;}#my-svg [data-look="neo"].node rect,#my-svg [data-look="neo"].cluster rect,#my-svg [data-look="neo"].node polygon{stroke:#9370DB;filter:drop-shadow(1px 2px 2px rgba(185, 185, 185, 1));}#my-svg [data-look="neo"].node path{stroke:#9370DB;stroke-width:1px;}#my-svg [data-look="neo"].node .outer-path{filter:drop-shadow(1px 2px 2px rgba(185, 185, 185, 1));}#my-svg [data-look="neo"].node .neo-line path{stroke:#9370DB;filter:none;}#my-svg [data-look="neo"].node circle{stroke:#9370DB;filter:drop-shadow(1px 2px 2px rgba(185, 185, 185, 1));}#my-svg [data-look="neo"].node circle .state-start{fill:#000000;}#my-svg [data-look="neo"].icon-shape .icon{fill:#9370DB;filter:drop-shadow(1px 2px 2px rgba(185, 185, 185, 1));}#my-svg [data-look="neo"].icon-shape .icon-neo path{stroke:#9370DB;filter:drop-shadow(1px 2px 2px rgba(185, 185, 185, 1));}#my-svg :root{--mermaid-font-family:"trebuchet ms",verdana,arial,sans-serif;}</style><g><defs><marker id="my-svg_class-aggregationStart" class="marker aggregation class" refX="18" refY="7" markerWidth="190" markerHeight="240" orient="auto"><path d="M 18,7 L9,13 L1,7 L9,1 Z"/></marker></defs><defs><marker id="my-svg_class-aggregationEnd" class="marker aggregation class" refX="1" refY="7" markerWidth="20" markerHeight="28" orient="auto"><path d="M 18,7 L9,13 L1,7 L9,1 Z"/></marker></defs><defs><marker id="my-svg_class-aggregationStart-margin" class="marker aggregation class" refX="15" refY="7" markerWidth="190" markerHeight="240" orient="auto" markerUnits="userSpaceOnUse"><path d="M 18,7 L9,13 L1,7 L9,1 Z" style="stroke-width: 2;"/></marker></defs><defs><marker id="my-svg_class-aggregationEnd-margin" class="marker aggregation class" refX="1" refY="7" markerWidth="20" markerHeight="28" orient="auto" markerUnits="userSpaceOnUse"><path d="M 18,7 L9,13 L1,7 L9,1 Z" style="stroke-width: 2;"/></marker></defs><defs><marker id="my-svg_class-extensionStart" class="marker extension class" refX="18" refY="7" markerWidth="20" markerHeight="28" orient="auto" markerUnits="userSpaceOnUse"><path d="M 1,7 L18,13 V 1 Z"/></marker></defs><defs><marker id="my-svg_class-extensionEnd" class="marker extension class" refX="1" refY="7" markerWidth="20" markerHeight="28" orient="auto"><path d="M 1,1 V 13 L18,7 Z"/></marker></defs><marker id="my-svg_class-extensionStart-margin" class="marker extension class" refX="18" refY="7" markerWidth="20" markerHeight="28" orient="auto" markerUnits="userSpaceOnUse" viewBox="0 0 20 14"><polygon points="10,7 18,13 18,1" style="stroke-width: 2; stroke-dasharray: 0;"/></marker><defs><marker id="my-svg_class-extensionEnd-margin" class="marker extension class" refX="9" refY="7" markerWidth="20" markerHeight="28" orient="auto" markerUnits="userSpaceOnUse" viewBox="0 0 20 14"><polygon points="10,1 10,13 18,7" style="stroke-width: 2; stroke-dasharray: 0;"/></marker></defs><defs><marker id="my-svg_class-compositionStart" class="marker composition class" refX="18" refY="7" markerWidth="190" markerHeight="240" orient="auto"><path d="M 18,7 L9,13 L1,7 L9,1 Z"/></marker></defs><defs><marker id="my-svg_class-compositionEnd" class="marker composition class" refX="1" refY="7" markerWidth="20" markerHeight="28" orient="auto"><path d="M 18,7 L9,13 L1,7 L9,1 Z"/></marker></defs><defs><marker id="my-svg_class-compositionStart-margin" class="marker composition class" refX="15" refY="7" markerWidth="190" markerHeight="240" orient="auto" markerUnits="userSpaceOnUse"><path viewBox="0 0 15 15" d="M 18,7 L9,13 L1,7 L9,1 Z" style="stroke-width: 0;"/></marker></defs><defs><marker id="my-svg_class-compositionEnd-margin" class="marker composition class" refX="3.5" refY="7" markerWidth="20" markerHeight="28" orient="auto" markerUnits="userSpaceOnUse"><path d="M 18,7 L9,13 L1,7 L9,1 Z" style="stroke-width: 0;"/></marker></defs><defs><marker id="my-svg_class-dependencyStart" class="marker dependency class" refX="6" refY="7" markerWidth="190" markerHeight="240" orient="auto"><path d="M 5,7 L9,13 L1,7 L9,1 Z"/></marker></defs><defs><marker id="my-svg_class-dependencyEnd" class="marker dependency class" refX="13" refY="7" markerWidth="20" markerHeight="28" orient="auto"><path d="M 18,7 L9,13 L14,7 L9,1 Z"/></marker></defs><defs><marker id="my-svg_class-dependencyStart-margin" class="marker dependency class" refX="4" refY="7" markerWidth="190" markerHeight="240" orient="auto" markerUnits="userSpaceOnUse"><path d="M 5,7 L9,13 L1,7 L9,1 Z" style="stroke-width: 0;"/></marker></defs><defs><marker id="my-svg_class-dependencyEnd-margin" class="marker dependency class" refX="16" refY="7" markerWidth="20" markerHeight="28" orient="auto" markerUnits="userSpaceOnUse"><path d="M 18,7 L9,13 L14,7 L9,1 Z" style="stroke-width: 0;"/></marker></defs><defs><marker id="my-svg_class-lollipopStart" class="marker lollipop class" refX="13" refY="7" markerWidth="190" markerHeight="240" orient="auto"><circle fill="transparent" cx="7" cy="7" r="6"/></marker></defs><defs><marker id="my-svg_class-lollipopEnd" class="marker lollipop class" refX="1" refY="7" markerWidth="190" markerHeight="240" orient="auto"><circle fill="transparent" cx="7" cy="7" r="6"/></marker></defs><defs><marker id="my-svg_class-lollipopStart-margin" class="marker lollipop class" refX="13" refY="7" markerWidth="190" markerHeight="240" orient="auto" markerUnits="userSpaceOnUse"><circle fill="transparent" cx="7" cy="7" r="6" stroke-width="2"/></marker></defs><defs><marker id="my-svg_class-lollipopEnd-margin" class="marker lollipop class" refX="1" refY="7" markerWidth="190" markerHeight="240" orient="auto" markerUnits="userSpaceOnUse"><circle fill="transparent" cx="7" cy="7" r="6" stroke-width="2"/></marker></defs><g class="root"><g class="clusters"/><g class="edgePaths"><path d="M1911.457,303.941L1902.799,307.118C1894.141,310.294,1876.825,316.647,1868.168,323.99C1859.51,331.333,1859.51,339.667,1859.51,343.833L1859.51,348" id="my-svg-id_MediaFile_ImageFile_1" class="edge-thickness-normal edge-pattern-solid relation" style=";;;" data-edge="true" data-et="edge" data-id="id_MediaFile_ImageFile_1" data-points="W3sieCI6MTkyNy42NTE0MjQ2MzIzNTMsInkiOjI5OH0seyJ4IjoxODU5LjUwOTc2NTYyNSwieSI6MzIzfSx7IngiOjE4NTkuNTA5NzY1NjI1LCJ5IjozNDh9XQ==" data-look="classic" marker-start="url(#my-svg_class-extensionStart)"/><path d="M2270.926,303.941L2279.584,307.118C2288.242,310.294,2305.557,316.647,2314.215,323.99C2322.873,331.333,2322.873,339.667,2322.873,343.833L2322.873,348" id="my-svg-id_MediaFile_AudioFile_2" class="edge-thickness-normal edge-pattern-solid relation" style=";;;" data-edge="true" data-et="edge" data-id="id_MediaFile_AudioFile_2" data-points="W3sieCI6MjI1NC43MzEzODc4Njc2NDcsInkiOjI5OH0seyJ4IjoyMzIyLjg3MzA0Njg3NSwieSI6MzIzfSx7IngiOjIzMjIuODczMDQ2ODc1LCJ5IjozNDh9XQ==" data-look="classic" marker-start="url(#my-svg_class-extensionStart)"/><path d="M2674.82,145.25L2674.82,146.542C2674.82,147.833,2674.82,150.417,2674.82,155.875C2674.82,161.333,2674.82,169.667,2674.82,173.833L2674.82,178" id="my-svg-id_TimedText_Cue_3" class="edge-thickness-normal edge-pattern-solid relation" style=";;;" data-edge="true" data-et="edge" data-id="id_TimedText_Cue_3" data-points="W3sieCI6MjY3NC44MjAzMTI1LCJ5IjoxMjh9LHsieCI6MjY3NC44MjAzMTI1LCJ5IjoxNTN9LHsieCI6MjY3NC44MjAzMTI1LCJ5IjoxNzh9XQ==" data-look="classic" marker-start="url(#my-svg_class-compositionStart)"/><path d="M3567.969,145.25L3567.969,146.542C3567.969,147.833,3567.969,150.417,3567.969,155.875C3567.969,161.333,3567.969,169.667,3567.969,173.833L3567.969,178" id="my-svg-id_SegmentModel_Segment_4" class="edge-thickness-normal edge-pattern-solid relation" style=";;;" data-edge="true" data-et="edge" data-id="id_SegmentModel_Segment_4" data-points="W3sieCI6MzU2Ny45Njg3NSwieSI6MTI4fSx7IngiOjM1NjcuOTY4NzUsInkiOjE1M30seyJ4IjozNTY3Ljk2ODc1LCJ5IjoxNzh9XQ==" data-look="classic" marker-start="url(#my-svg_class-compositionStart)"/><path d="M2091.191,145.25L2091.191,146.542C2091.191,147.833,2091.191,150.417,2091.191,155.875C2091.191,161.333,2091.191,169.667,2091.191,173.833L2091.191,178" id="my-svg-id_Delivery_MediaFile_5" class="edge-thickness-normal edge-pattern-solid relation" style=";;;" data-edge="true" data-et="edge" data-id="id_Delivery_MediaFile_5" data-points="W3sieCI6MjA5MS4xOTE0MDYyNSwieSI6MTI4fSx7IngiOjIwOTEuMTkxNDA2MjUsInkiOjE1M30seyJ4IjoyMDkxLjE5MTQwNjI1LCJ5IjoxNzh9XQ==" data-look="classic" marker-start="url(#my-svg_class-compositionStart)"/></g><g class="edgeLabels"><g class="edgeLabel"><g class="label" data-id="id_MediaFile_ImageFile_1" transform="translate(0, 0)"><foreignObject width="0" height="0"><div xmlns="http://www.w3.org/1999/xhtml" class="labelBkg" style="display: table-cell; white-space: nowrap; line-height: 1.5; max-width: 200px; text-align: center;"><span class="edgeLabel"></span></div></foreignObject></g></g><g class="edgeLabel"><g class="label" data-id="id_MediaFile_AudioFile_2" transform="translate(0, 0)"><foreignObject width="0" height="0"><div xmlns="http://www.w3.org/1999/xhtml" class="labelBkg" style="display: table-cell; white-space: nowrap; line-height: 1.5; max-width: 200px; text-align: center;"><span class="edgeLabel"></span></div></foreignObject></g></g><g class="edgeLabel"><g class="label" data-id="id_TimedText_Cue_3" transform="translate(0, 0)"><foreignObject width="0" height="0"><div xmlns="http://www.w3.org/1999/xhtml" class="labelBkg" style="display: table-cell; white-space: nowrap; line-height: 1.5; max-width: 200px; text-align: center;"><span class="edgeLabel"></span></div></foreignObject></g></g><g class="edgeLabel"><g class="label" data-id="id_SegmentModel_Segment_4" transform="translate(0, 0)"><foreignObject width="0" height="0"><div xmlns="http://www.w3.org/1999/xhtml" class="labelBkg" style="display: table-cell; white-space: nowrap; line-height: 1.5; max-width: 200px; text-align: center;"><span class="edgeLabel"></span></div></foreignObject></g></g><g class="edgeLabel"><g class="label" data-id="id_Delivery_MediaFile_5" transform="translate(0, 0)"><foreignObject width="0" height="0"><div xmlns="http://www.w3.org/1999/xhtml" class="labelBkg" style="display: table-cell; white-space: nowrap; line-height: 1.5; max-width: 200px; text-align: center;"><span class="edgeLabel"></span></div></foreignObject></g></g></g><g class="nodes"><g class="node default" id="my-svg-classId-MediaFile-0" data-look="classic" transform="translate(2091.19140625, 238)"><g class="basic label-container outer-path"><path d="M-349.75 -60 L349.75 -60 L349.75 60 L-349.75 60" stroke="none" stroke-width="0" fill="#ECECFF" style=""/><path d="M-349.75 -60 C-187.11031178874234 -60, -24.470623577484673 -60, 349.75 -60 M-349.75 -60 C-127.08039871402912 -60, 95.58920257194177 -60, 349.75 -60 M349.75 -60 C349.75 -34.20654025911527, 349.75 -8.41308051823055, 349.75 60 M349.75 -60 C349.75 -32.89282568021653, 349.75 -5.785651360433057, 349.75 60 M349.75 60 C95.75456437738686 60, -158.2408712452263 60, -349.75 60 M349.75 60 C206.0477819492247 60, 62.34556389844943 60, -349.75 60 M-349.75 60 C-349.75 16.400650038521988, -349.75 -27.198699922956024, -349.75 -60 M-349.75 60 C-349.75 20.651283916459384, -349.75 -18.69743216708123, -349.75 -60" stroke="#9370DB" stroke-width="1.3" fill="none" stroke-dasharray="0 0" style=""/></g><g class="annotation-group text" transform="translate(0, -36)"/><g class="label-group text" transform="translate(-36.453125, -36)"><g class="label" style="font-weight: bolder" transform="translate(0,-12)"><foreignObject width="72.90625" height="24"><div xmlns="http://www.w3.org/1999/xhtml" style="display: table-cell; white-space: nowrap; line-height: 1.5; max-width: 116px; text-align: center;"><span class="nodeLabel markdown-node-label" style=""><p>MediaFile</p></span></div></foreignObject></g></g><g class="members-group text" transform="translate(-337.75, 12)"><g class="label" style="" transform="translate(0,-12)"><foreignObject width="639.046875" height="24"><div xmlns="http://www.w3.org/1999/xhtml" style="display: table-cell; white-space: nowrap; line-height: 1.5; max-width: 669px; text-align: center;"><span class="nodeLabel markdown-node-label" style=""><p>&lt;&gt; +Path path; +String container; +Count vStreams; +Count aStreams; +Duration duration</p></span></div></foreignObject></g></g><g class="methods-group text" transform="translate(-337.75, 60)"/><g class="divider" style=""><path d="M-349.75 -12 C-95.87423446665409 -11.999637061092876, 158.00153106669183 -11.999274122185753, 349.75 -11.999 M-349.75 -12 C-94.19558651280087 -11.99963466131024, 161.35882697439826 -11.99926932262048, 349.75 -11.999" stroke="#9370DB" stroke-width="1.3" fill="none" stroke-dasharray="0 0" style=""/></g><g class="divider" style=""><path d="M-349.75 36 C-147.29648640200486 36.00028942603802, 55.15702719599028 36.000578852076046, 349.75 36.001 M-349.75 36 C-105.5095735775966 36.00034916429796, 138.7308528448068 36.00069832859592, 349.75 36.001" stroke="#9370DB" stroke-width="1.3" fill="none" stroke-dasharray="0 0" style=""/></g></g><g class="node default" id="my-svg-classId-ImageFile-1" data-look="classic" transform="translate(1859.509765625, 408)"><g class="basic label-container outer-path"><path d="M-186.7890625 -60 L186.7890625 -60 L186.7890625 60 L-186.7890625 60" stroke="none" stroke-width="0" fill="#ECECFF" style=""/><path d="M-186.7890625 -60 C-49.328481681603535 -60, 88.13209913679293 -60, 186.7890625 -60 M-186.7890625 -60 C-69.9173999752943 -60, 46.954262549411396 -60, 186.7890625 -60 M186.7890625 -60 C186.7890625 -20.594776442180823, 186.7890625 18.810447115638354, 186.7890625 60 M186.7890625 -60 C186.7890625 -20.641294720155315, 186.7890625 18.71741055968937, 186.7890625 60 M186.7890625 60 C99.27110684040211 60, 11.753151180804224 60, -186.7890625 60 M186.7890625 60 C57.67387293581959 60, -71.44131662836082 60, -186.7890625 60 M-186.7890625 60 C-186.7890625 21.734042035247832, -186.7890625 -16.531915929504336, -186.7890625 -60 M-186.7890625 60 C-186.7890625 34.93665846397698, -186.7890625 9.873316927953965, -186.7890625 -60" stroke="#9370DB" stroke-width="1.3" fill="none" stroke-dasharray="0 0" style=""/></g><g class="annotation-group text" transform="translate(0, -36)"/><g class="label-group text" transform="translate(-36.90625, -36)"><g class="label" style="font-weight: bolder" transform="translate(0,-12)"><foreignObject width="73.8125" height="24"><div xmlns="http://www.w3.org/1999/xhtml" style="display: table-cell; white-space: nowrap; line-height: 1.5; max-width: 115px; text-align: center;"><span class="nodeLabel markdown-node-label" style=""><p>ImageFile</p></span></div></foreignObject></g></g><g class="members-group text" transform="translate(-174.7890625, 12)"><g class="label" style="" transform="translate(0,-12)"><foreignObject width="312.671875" height="24"><div xmlns="http://www.w3.org/1999/xhtml" style="display: table-cell; white-space: nowrap; line-height: 1.5; max-width: 376px; text-align: center;"><span class="nodeLabel markdown-node-label" style=""><p>&lt;&gt; +Path path; +Count width; +Count height</p></span></div></foreignObject></g></g><g class="methods-group text" transform="translate(-174.7890625, 60)"/><g class="divider" style=""><path d="M-186.7890625 -12 C-40.36377702781121 -11.99960804641473, 106.06150844437758 -11.99921609282946, 186.7890625 -11.999 M-186.7890625 -12 C-44.7841232802663 -11.999619878869462, 97.2208159394674 -11.999239757738922, 186.7890625 -11.999" stroke="#9370DB" stroke-width="1.3" fill="none" stroke-dasharray="0 0" style=""/></g><g class="divider" style=""><path d="M-186.7890625 36 C-95.56376784819028 36.000244193352195, -4.338473196380562 36.0004883867044, 186.7890625 36.001 M-186.7890625 36 C-95.70060753430236 36.0002438270575, -4.612152568604728 36.000487654115005, 186.7890625 36.001" stroke="#9370DB" stroke-width="1.3" fill="none" stroke-dasharray="0 0" style=""/></g></g><g class="node default" id="my-svg-classId-AudioFile-2" data-look="classic" transform="translate(2322.873046875, 408)"><g class="basic label-container outer-path"><path d="M-226.57421875 -60 L226.57421875 -60 L226.57421875 60 L-226.57421875 60" stroke="none" stroke-width="0" fill="#ECECFF" style=""/><path d="M-226.57421875 -60 C-57.83642550040889 -60, 110.90136774918221 -60, 226.57421875 -60 M-226.57421875 -60 C-95.26909908414945 -60, 36.03602058170111 -60, 226.57421875 -60 M226.57421875 -60 C226.57421875 -32.21006024574882, 226.57421875 -4.4201204914976415, 226.57421875 60 M226.57421875 -60 C226.57421875 -35.49778209369951, 226.57421875 -10.995564187399019, 226.57421875 60 M226.57421875 60 C95.38137249563673 60, -35.81147375872655 60, -226.57421875 60 M226.57421875 60 C88.85081228884403 60, -48.87259417231195 60, -226.57421875 60 M-226.57421875 60 C-226.57421875 31.055141110367625, -226.57421875 2.1102822207352503, -226.57421875 -60 M-226.57421875 60 C-226.57421875 19.88638094954087, -226.57421875 -20.227238100918257, -226.57421875 -60" stroke="#9370DB" stroke-width="1.3" fill="none" stroke-dasharray="0 0" style=""/></g><g class="annotation-group text" transform="translate(0, -36)"/><g class="label-group text" transform="translate(-36.4453125, -36)"><g class="label" style="font-weight: bolder" transform="translate(0,-12)"><foreignObject width="72.890625" height="24"><div xmlns="http://www.w3.org/1999/xhtml" style="display: table-cell; white-space: nowrap; line-height: 1.5; max-width: 115px; text-align: center;"><span class="nodeLabel markdown-node-label" style=""><p>AudioFile</p></span></div></foreignObject></g></g><g class="members-group text" transform="translate(-214.57421875, 12)"><g class="label" style="" transform="translate(0,-12)"><foreignObject width="392.703125" height="24"><div xmlns="http://www.w3.org/1999/xhtml" style="display: table-cell; white-space: nowrap; line-height: 1.5; max-width: 445px; text-align: center;"><span class="nodeLabel markdown-node-label" style=""><p>&lt;&gt; +Path path; +Duration duration; +Count sampleRate</p></span></div></foreignObject></g></g><g class="methods-group text" transform="translate(-214.57421875, 60)"/><g class="divider" style=""><path d="M-226.57421875 -12 C-101.17479760116005 -11.99972327076346, 24.224623547679897 -11.99944654152692, 226.57421875 -11.999 M-226.57421875 -12 C-73.62332083001425 -11.999662470649213, 79.3275770899715 -11.999324941298424, 226.57421875 -11.999" stroke="#9370DB" stroke-width="1.3" fill="none" stroke-dasharray="0 0" style=""/></g><g class="divider" style=""><path d="M-226.57421875 36 C-82.2602289215805 36.000318469573955, 62.05376090683899 36.0006369391479, 226.57421875 36.001 M-226.57421875 36 C-62.88287543904997 36.000361231176726, 100.80846787190006 36.00072246235346, 226.57421875 36.001" stroke="#9370DB" stroke-width="1.3" fill="none" stroke-dasharray="0 0" style=""/></g></g><g class="node default" id="my-svg-classId-EditDecision-3" data-look="classic" transform="translate(441.7109375, 68)"><g class="basic label-container outer-path"><path d="M-433.7109375 -60 L433.7109375 -60 L433.7109375 60 L-433.7109375 60" stroke="none" stroke-width="0" fill="#ECECFF" style=""/><path d="M-433.7109375 -60 C-191.7505775390768 -60, 50.2097824218464 -60, 433.7109375 -60 M-433.7109375 -60 C-173.77234949489213 -60, 86.16623851021575 -60, 433.7109375 -60 M433.7109375 -60 C433.7109375 -30.795284278401482, 433.7109375 -1.590568556802964, 433.7109375 60 M433.7109375 -60 C433.7109375 -31.958585756498866, 433.7109375 -3.917171512997733, 433.7109375 60 M433.7109375 60 C94.25970441457963 60, -245.19152867084074 60, -433.7109375 60 M433.7109375 60 C207.89049551629788 60, -17.92994646740425 60, -433.7109375 60 M-433.7109375 60 C-433.7109375 31.537855094227933, -433.7109375 3.075710188455865, -433.7109375 -60 M-433.7109375 60 C-433.7109375 35.54606656486788, -433.7109375 11.092133129735757, -433.7109375 -60" stroke="#9370DB" stroke-width="1.3" fill="none" stroke-dasharray="0 0" style=""/></g><g class="annotation-group text" transform="translate(0, -36)"/><g class="label-group text" transform="translate(-48.453125, -36)"><g class="label" style="font-weight: bolder" transform="translate(0,-12)"><foreignObject width="96.90625" height="24"><div xmlns="http://www.w3.org/1999/xhtml" style="display: table-cell; white-space: nowrap; line-height: 1.5; max-width: 134px; text-align: center;"><span class="nodeLabel markdown-node-label" style=""><p>EditDecision</p></span></div></foreignObject></g></g><g class="members-group text" transform="translate(-421.7109375, 12)"><g class="label" style="" transform="translate(0,-12)"><foreignObject width="794.96875" height="24"><div xmlns="http://www.w3.org/1999/xhtml" style="display: table-cell; white-space: nowrap; line-height: 1.5; max-width: 826px; text-align: center;"><span class="nodeLabel markdown-node-label" style=""><p>&lt;&gt; +Boolean[] keepSet; +Permutation order; +TransitionKind[] transitions; +Real[] trackLevels; +Boolean[] mutes</p></span></div></foreignObject></g></g><g class="methods-group text" transform="translate(-421.7109375, 60)"/><g class="divider" style=""><path d="M-433.7109375 -12 C-170.26444302405048 -11.999696287928552, 93.18205145189904 -11.999392575857103, 433.7109375 -11.999 M-433.7109375 -12 C-137.9643239868803 -11.99965905100847, 157.78228952623942 -11.999318102016938, 433.7109375 -11.999" stroke="#9370DB" stroke-width="1.3" fill="none" stroke-dasharray="0 0" style=""/></g><g class="divider" style=""><path d="M-433.7109375 36 C-242.92554258479674 36.00021994533503, -52.14014766959349 36.00043989067007, 433.7109375 36.001 M-433.7109375 36 C-223.44778600245246 36.0002424001026, -13.18463450490492 36.0004848002052, 433.7109375 36.001" stroke="#9370DB" stroke-width="1.3" fill="none" stroke-dasharray="0 0" style=""/></g></g><g class="node default" id="my-svg-classId-FilterGraph-4" data-look="classic" transform="translate(1033.46484375, 68)"><g class="basic label-container outer-path"><path d="M-108.04296875 -60 L108.04296875 -60 L108.04296875 60 L-108.04296875 60" stroke="none" stroke-width="0" fill="#ECECFF" style=""/><path d="M-108.04296875 -60 C-58.80699815566456 -60, -9.571027561329117 -60, 108.04296875 -60 M-108.04296875 -60 C-61.354322633660594 -60, -14.665676517321188 -60, 108.04296875 -60 M108.04296875 -60 C108.04296875 -30.45705194418579, 108.04296875 -0.914103888371578, 108.04296875 60 M108.04296875 -60 C108.04296875 -12.84058263470078, 108.04296875 34.31883473059844, 108.04296875 60 M108.04296875 60 C61.56506903506882 60, 15.087169320137633 60, -108.04296875 60 M108.04296875 60 C24.515159800619443 60, -59.01264914876111 60, -108.04296875 60 M-108.04296875 60 C-108.04296875 20.647548841870673, -108.04296875 -18.704902316258654, -108.04296875 -60 M-108.04296875 60 C-108.04296875 21.488593749026705, -108.04296875 -17.02281250194659, -108.04296875 -60" stroke="#9370DB" stroke-width="1.3" fill="none" stroke-dasharray="0 0" style=""/></g><g class="annotation-group text" transform="translate(0, -36)"/><g class="label-group text" transform="translate(-43.1171875, -36)"><g class="label" style="font-weight: bolder" transform="translate(0,-12)"><foreignObject width="86.234375" height="24"><div xmlns="http://www.w3.org/1999/xhtml" style="display: table-cell; white-space: nowrap; line-height: 1.5; max-width: 125px; text-align: center;"><span class="nodeLabel markdown-node-label" style=""><p>FilterGraph</p></span></div></foreignObject></g></g><g class="members-group text" transform="translate(-96.04296875, 12)"><g class="label" style="" transform="translate(0,-12)"><foreignObject width="148.96875" height="24"><div xmlns="http://www.w3.org/1999/xhtml" style="display: table-cell; white-space: nowrap; line-height: 1.5; max-width: 224px; text-align: center;"><span class="nodeLabel markdown-node-label" style=""><p>&lt;&gt; +String command</p></span></div></foreignObject></g></g><g class="methods-group text" transform="translate(-96.04296875, 60)"/><g class="divider" style=""><path d="M-108.04296875 -12 C-54.76985247059674 -11.99975346328921, -1.4967361911934773 -11.999506926578418, 108.04296875 -11.999 M-108.04296875 -12 C-22.35370710064295 -11.999603448226939, 63.3355545487141 -11.999206896453877, 108.04296875 -11.999" stroke="#9370DB" stroke-width="1.3" fill="none" stroke-dasharray="0 0" style=""/></g><g class="divider" style=""><path d="M-108.04296875 36 C-26.374521291995777 36.00037794429569, 55.29392616600845 36.000755888591385, 108.04296875 36.001 M-108.04296875 36 C-58.658297415291855 36.00022854181029, -9.27362608058371 36.00045708362058, 108.04296875 36.001" stroke="#9370DB" stroke-width="1.3" fill="none" stroke-dasharray="0 0" style=""/></g></g><g class="node default" id="my-svg-classId-Measurement-5" data-look="classic" transform="translate(1462.7109375, 68)"><g class="basic label-container outer-path"><path d="M-271.203125 -60 L271.203125 -60 L271.203125 60 L-271.203125 60" stroke="none" stroke-width="0" fill="#ECECFF" style=""/><path d="M-271.203125 -60 C-142.1388390972464 -60, -13.074553194492808 -60, 271.203125 -60 M-271.203125 -60 C-70.04745892293468 -60, 131.10820715413064 -60, 271.203125 -60 M271.203125 -60 C271.203125 -25.2712893471976, 271.203125 9.457421305604797, 271.203125 60 M271.203125 -60 C271.203125 -32.870391621532505, 271.203125 -5.740783243065003, 271.203125 60 M271.203125 60 C87.39525094275194 60, -96.41262311449611 60, -271.203125 60 M271.203125 60 C159.20760481028654 60, 47.21208462057308 60, -271.203125 60 M-271.203125 60 C-271.203125 14.639240628840959, -271.203125 -30.721518742318082, -271.203125 -60 M-271.203125 60 C-271.203125 26.66652620544425, -271.203125 -6.666947589111501, -271.203125 -60" stroke="#9370DB" stroke-width="1.3" fill="none" stroke-dasharray="0 0" style=""/></g><g class="annotation-group text" transform="translate(0, -36)"/><g class="label-group text" transform="translate(-51.578125, -36)"><g class="label" style="font-weight: bolder" transform="translate(0,-12)"><foreignObject width="103.15625" height="24"><div xmlns="http://www.w3.org/1999/xhtml" style="display: table-cell; white-space: nowrap; line-height: 1.5; max-width: 138px; text-align: center;"><span class="nodeLabel markdown-node-label" style=""><p>Measurement</p></span></div></foreignObject></g></g><g class="members-group text" transform="translate(-259.203125, 12)"><g class="label" style="" transform="translate(0,-12)"><foreignObject width="466.828125" height="24"><div xmlns="http://www.w3.org/1999/xhtml" style="display: table-cell; white-space: nowrap; line-height: 1.5; max-width: 509px; text-align: center;"><span class="nodeLabel markdown-node-label" style=""><p>&lt;&gt; +Loudness loudness; +TruePeak truePeak; +Duration duration</p></span></div></foreignObject></g></g><g class="methods-group text" transform="translate(-259.203125, 60)"/><g class="divider" style=""><path d="M-271.203125 -12 C-90.24551644998209 -11.99966637993469, 90.71209210003582 -11.999332759869379, 271.203125 -11.999 M-271.203125 -12 C-140.37611384038786 -11.999758802537471, -9.549102680775718 -11.999517605074944, 271.203125 -11.999" stroke="#9370DB" stroke-width="1.3" fill="none" stroke-dasharray="0 0" style=""/></g><g class="divider" style=""><path d="M-271.203125 36 C-74.39052309280672 36.00036285091093, 122.42207881438657 36.000725701821864, 271.203125 36.001 M-271.203125 36 C-61.540696339570786 36.00038654132149, 148.12173232085843 36.00077308264298, 271.203125 36.001" stroke="#9370DB" stroke-width="1.3" fill="none" stroke-dasharray="0 0" style=""/></g></g><g class="node default" id="my-svg-classId-TimedText-6" data-look="classic" transform="translate(2674.8203125, 68)"><g class="basic label-container outer-path"><path d="M-86.12109375 -60 L86.12109375 -60 L86.12109375 60 L-86.12109375 60" stroke="none" stroke-width="0" fill="#ECECFF" style=""/><path d="M-86.12109375 -60 C-44.15902294780108 -60, -2.196952145602154 -60, 86.12109375 -60 M-86.12109375 -60 C-40.33998498060125 -60, 5.441123788797498 -60, 86.12109375 -60 M86.12109375 -60 C86.12109375 -15.693217872523249, 86.12109375 28.613564254953502, 86.12109375 60 M86.12109375 -60 C86.12109375 -21.84094141477732, 86.12109375 16.318117170445362, 86.12109375 60 M86.12109375 60 C33.14096806926903 60, -19.839157611461943 60, -86.12109375 60 M86.12109375 60 C21.74920123330112 60, -42.62269128339776 60, -86.12109375 60 M-86.12109375 60 C-86.12109375 21.02305249110087, -86.12109375 -17.95389501779826, -86.12109375 -60 M-86.12109375 60 C-86.12109375 35.51194217901224, -86.12109375 11.023884358024468, -86.12109375 -60" stroke="#9370DB" stroke-width="1.3" fill="none" stroke-dasharray="0 0" style=""/></g><g class="annotation-group text" transform="translate(0, -36)"/><g class="label-group text" transform="translate(-39.2734375, -36)"><g class="label" style="font-weight: bolder" transform="translate(0,-12)"><foreignObject width="78.546875" height="24"><div xmlns="http://www.w3.org/1999/xhtml" style="display: table-cell; white-space: nowrap; line-height: 1.5; max-width: 120px; text-align: center;"><span class="nodeLabel markdown-node-label" style=""><p>TimedText</p></span></div></foreignObject></g></g><g class="members-group text" transform="translate(-74.12109375, 12)"><g class="label" style="" transform="translate(0,-12)"><foreignObject width="108.96875" height="24"><div xmlns="http://www.w3.org/1999/xhtml" style="display: table-cell; white-space: nowrap; line-height: 1.5; max-width: 187px; text-align: center;"><span class="nodeLabel markdown-node-label" style=""><p>&lt;&gt; +Cue[] cues</p></span></div></foreignObject></g></g><g class="methods-group text" transform="translate(-74.12109375, 60)"/><g class="divider" style=""><path d="M-86.12109375 -12 C-48.67913453654564 -11.999782620275806, -11.237175323091279 -11.999565240551611, 86.12109375 -11.999 M-86.12109375 -12 C-26.305513991772926 -11.999652723989248, 33.51006576645415 -11.999305447978497, 86.12109375 -11.999" stroke="#9370DB" stroke-width="1.3" fill="none" stroke-dasharray="0 0" style=""/></g><g class="divider" style=""><path d="M-86.12109375 36 C-39.90534634303287 36.00026831839561, 6.310401063934265 36.000536636791225, 86.12109375 36.001 M-86.12109375 36 C-25.723431950591582 36.00035065545019, 34.674229848816836 36.000701310900375, 86.12109375 36.001" stroke="#9370DB" stroke-width="1.3" fill="none" stroke-dasharray="0 0" style=""/></g></g><g class="node default" id="my-svg-classId-Cue-7" data-look="classic" transform="translate(2674.8203125, 238)"><g class="basic label-container outer-path"><path d="M-183.87890625 -60 L183.87890625 -60 L183.87890625 60 L-183.87890625 60" stroke="none" stroke-width="0" fill="#ECECFF" style=""/><path d="M-183.87890625 -60 C-91.06458704728725 -60, 1.7497321554255052 -60, 183.87890625 -60 M-183.87890625 -60 C-56.76309476299022 -60, 70.35271672401956 -60, 183.87890625 -60 M183.87890625 -60 C183.87890625 -31.00629862020845, 183.87890625 -2.012597240416902, 183.87890625 60 M183.87890625 -60 C183.87890625 -21.988004185150302, 183.87890625 16.023991629699395, 183.87890625 60 M183.87890625 60 C54.5377334812338 60, -74.8034392875324 60, -183.87890625 60 M183.87890625 60 C69.23873462221336 60, -45.401437005573285 60, -183.87890625 60 M-183.87890625 60 C-183.87890625 34.92562012598927, -183.87890625 9.851240251978545, -183.87890625 -60 M-183.87890625 60 C-183.87890625 13.297144715592978, -183.87890625 -33.405710568814044, -183.87890625 -60" stroke="#9370DB" stroke-width="1.3" fill="none" stroke-dasharray="0 0" style=""/></g><g class="annotation-group text" transform="translate(0, -36)"/><g class="label-group text" transform="translate(-15.1171875, -36)"><g class="label" style="font-weight: bolder" transform="translate(0,-12)"><foreignObject width="30.234375" height="24"><div xmlns="http://www.w3.org/1999/xhtml" style="display: table-cell; white-space: nowrap; line-height: 1.5; max-width: 76px; text-align: center;"><span class="nodeLabel markdown-node-label" style=""><p>Cue</p></span></div></foreignObject></g></g><g class="members-group text" transform="translate(-171.87890625, 12)"><g class="label" style="" transform="translate(0,-12)"><foreignObject width="328.640625" height="24"><div xmlns="http://www.w3.org/1999/xhtml" style="display: table-cell; white-space: nowrap; line-height: 1.5; max-width: 393px; text-align: center;"><span class="nodeLabel markdown-node-label" style=""><p>&lt;&gt; +Duration start; +Duration end; +String text</p></span></div></foreignObject></g></g><g class="methods-group text" transform="translate(-171.87890625, 60)"/><g class="divider" style=""><path d="M-183.87890625 -12 C-90.68181309464843 -11.999746580249317, 2.515280060703134 -11.999493160498634, 183.87890625 -11.999 M-183.87890625 -12 C-40.737409638047325 -11.999610772384035, 102.40408697390535 -11.99922154476807, 183.87890625 -11.999" stroke="#9370DB" stroke-width="1.3" fill="none" stroke-dasharray="0 0" style=""/></g><g class="divider" style=""><path d="M-183.87890625 36 C-63.95534246479893 36.00032609385772, 55.96822132040214 36.00065218771544, 183.87890625 36.001 M-183.87890625 36 C-62.70904081677567 36.00032948277729, 58.46082461644866 36.000658965554585, 183.87890625 36.001" stroke="#9370DB" stroke-width="1.3" fill="none" stroke-dasharray="0 0" style=""/></g></g><g class="node default" id="my-svg-classId-Delivery-8" data-look="classic" transform="translate(2091.19140625, 68)"><g class="basic label-container outer-path"><path d="M-307.27734375 -60 L307.27734375 -60 L307.27734375 60 L-307.27734375 60" stroke="none" stroke-width="0" fill="#ECECFF" style=""/><path d="M-307.27734375 -60 C-139.17121609817292 -60, 28.93491155365416 -60, 307.27734375 -60 M-307.27734375 -60 C-87.26787203613634 -60, 132.74159967772732 -60, 307.27734375 -60 M307.27734375 -60 C307.27734375 -25.332087287377547, 307.27734375 9.335825425244906, 307.27734375 60 M307.27734375 -60 C307.27734375 -24.254943434683554, 307.27734375 11.490113130632892, 307.27734375 60 M307.27734375 60 C134.88740571524113 60, -37.50253231951774 60, -307.27734375 60 M307.27734375 60 C165.2921434000486 60, 23.306943050097175 60, -307.27734375 60 M-307.27734375 60 C-307.27734375 33.532220874856534, -307.27734375 7.064441749713062, -307.27734375 -60 M-307.27734375 60 C-307.27734375 15.412731763547605, -307.27734375 -29.17453647290479, -307.27734375 -60" stroke="#9370DB" stroke-width="1.3" fill="none" stroke-dasharray="0 0" style=""/></g><g class="annotation-group text" transform="translate(0, -36)"/><g class="label-group text" transform="translate(-31.1328125, -36)"><g class="label" style="font-weight: bolder" transform="translate(0,-12)"><foreignObject width="62.265625" height="24"><div xmlns="http://www.w3.org/1999/xhtml" style="display: table-cell; white-space: nowrap; line-height: 1.5; max-width: 106px; text-align: center;"><span class="nodeLabel markdown-node-label" style=""><p>Delivery</p></span></div></foreignObject></g></g><g class="members-group text" transform="translate(-295.27734375, 12)"><g class="label" style="" transform="translate(0,-12)"><foreignObject width="559.421875" height="24"><div xmlns="http://www.w3.org/1999/xhtml" style="display: table-cell; white-space: nowrap; line-height: 1.5; max-width: 600px; text-align: center;"><span class="nodeLabel markdown-node-label" style=""><p>&lt;&gt; +MediaFile mp4; +MediaFile mp3; +File srt; +Loudness measuredLoudness</p></span></div></foreignObject></g></g><g class="methods-group text" transform="translate(-295.27734375, 60)"/><g class="divider" style=""><path d="M-307.27734375 -12 C-71.31019840341409 -11.999616035561772, 164.65694694317182 -11.999232071123544, 307.27734375 -11.999 M-307.27734375 -12 C-140.03194346420602 -11.999727859206532, 27.213456821587954 -11.999455718413063, 307.27734375 -11.999" stroke="#9370DB" stroke-width="1.3" fill="none" stroke-dasharray="0 0" style=""/></g><g class="divider" style=""><path d="M-307.27734375 36 C-157.33539322277346 36.0002439847154, -7.3934426955469235 36.0004879694308, 307.27734375 36.001 M-307.27734375 36 C-88.30214997222146 36.000356315228295, 130.67304380555709 36.00071263045659, 307.27734375 36.001" stroke="#9370DB" stroke-width="1.3" fill="none" stroke-dasharray="0 0" style=""/></g></g><g class="node default" id="my-svg-classId-ProjectDoc-9" data-look="classic" transform="translate(3099.42578125, 68)"><g class="basic label-container outer-path"><path d="M-288.484375 -60 L288.484375 -60 L288.484375 60 L-288.484375 60" stroke="none" stroke-width="0" fill="#ECECFF" style=""/><path d="M-288.484375 -60 C-127.08341286490116 -60, 34.317549270197674 -60, 288.484375 -60 M-288.484375 -60 C-142.20184732438662 -60, 4.080680351226761 -60, 288.484375 -60 M288.484375 -60 C288.484375 -30.98792572364263, 288.484375 -1.9758514472852582, 288.484375 60 M288.484375 -60 C288.484375 -16.4923196247328, 288.484375 27.0153607505344, 288.484375 60 M288.484375 60 C109.71840992675263 60, -69.04755514649474 60, -288.484375 60 M288.484375 60 C107.28332490504465 60, -73.9177251899107 60, -288.484375 60 M-288.484375 60 C-288.484375 34.69496354571196, -288.484375 9.389927091423914, -288.484375 -60 M-288.484375 60 C-288.484375 35.63385545693679, -288.484375 11.267710913873586, -288.484375 -60" stroke="#9370DB" stroke-width="1.3" fill="none" stroke-dasharray="0 0" style=""/></g><g class="annotation-group text" transform="translate(0, -36)"/><g class="label-group text" transform="translate(-42.234375, -36)"><g class="label" style="font-weight: bolder" transform="translate(0,-12)"><foreignObject width="84.46875" height="24"><div xmlns="http://www.w3.org/1999/xhtml" style="display: table-cell; white-space: nowrap; line-height: 1.5; max-width: 122px; text-align: center;"><span class="nodeLabel markdown-node-label" style=""><p>ProjectDoc</p></span></div></foreignObject></g></g><g class="members-group text" transform="translate(-276.484375, 12)"><g class="label" style="" transform="translate(0,-12)"><foreignObject width="510.734375" height="24"><div xmlns="http://www.w3.org/1999/xhtml" style="display: table-cell; white-space: nowrap; line-height: 1.5; max-width: 568px; text-align: center;"><span class="nodeLabel markdown-node-label" style=""><p>&lt;&gt; +String version; +Track[] tracks; +Clip[] clips; +String[] mediaHandles</p></span></div></foreignObject></g></g><g class="methods-group text" transform="translate(-276.484375, 60)"/><g class="divider" style=""><path d="M-288.484375 -12 C-122.54145178645285 -11.999712388369018, 43.40147142709429 -11.999424776738035, 288.484375 -11.999 M-288.484375 -12 C-159.41190471039485 -11.99977629209504, -30.3394344207897 -11.99955258419008, 288.484375 -11.999" stroke="#9370DB" stroke-width="1.3" fill="none" stroke-dasharray="0 0" style=""/></g><g class="divider" style=""><path d="M-288.484375 36 C-61.90910727934738 36.00039269937535, 164.66616044130524 36.00078539875069, 288.484375 36.001 M-288.484375 36 C-64.00399276556038 36.000389068527944, 160.47638946887923 36.000778137055896, 288.484375 36.001" stroke="#9370DB" stroke-width="1.3" fill="none" stroke-dasharray="0 0" style=""/></g></g><g class="node default" id="my-svg-classId-SegmentModel-10" data-look="classic" transform="translate(3567.96875, 68)"><g class="basic label-container outer-path"><path d="M-130.05859375 -60 L130.05859375 -60 L130.05859375 60 L-130.05859375 60" stroke="none" stroke-width="0" fill="#ECECFF" style=""/><path d="M-130.05859375 -60 C-45.0060332537158 -60, 40.0465272425684 -60, 130.05859375 -60 M-130.05859375 -60 C-68.69820717192934 -60, -7.337820593858666 -60, 130.05859375 -60 M130.05859375 -60 C130.05859375 -18.00224784375031, 130.05859375 23.995504312499378, 130.05859375 60 M130.05859375 -60 C130.05859375 -28.460741748238593, 130.05859375 3.0785165035228133, 130.05859375 60 M130.05859375 60 C47.52888442579855 60, -35.0008248984029 60, -130.05859375 60 M130.05859375 60 C30.119830246888597 60, -69.8189332562228 60, -130.05859375 60 M-130.05859375 60 C-130.05859375 23.241999153644244, -130.05859375 -13.516001692711512, -130.05859375 -60 M-130.05859375 60 C-130.05859375 26.871812619805453, -130.05859375 -6.256374760389093, -130.05859375 -60" stroke="#9370DB" stroke-width="1.3" fill="none" stroke-dasharray="0 0" style=""/></g><g class="annotation-group text" transform="translate(0, -36)"/><g class="label-group text" transform="translate(-56.8984375, -36)"><g class="label" style="font-weight: bolder" transform="translate(0,-12)"><foreignObject width="113.796875" height="24"><div xmlns="http://www.w3.org/1999/xhtml" style="display: table-cell; white-space: nowrap; line-height: 1.5; max-width: 148px; text-align: center;"><span class="nodeLabel markdown-node-label" style=""><p>SegmentModel</p></span></div></foreignObject></g></g><g class="members-group text" transform="translate(-118.05859375, 12)"><g class="label" style="" transform="translate(0,-12)"><foreignObject width="179.21875" height="24"><div xmlns="http://www.w3.org/1999/xhtml" style="display: table-cell; white-space: nowrap; line-height: 1.5; max-width: 248px; text-align: center;"><span class="nodeLabel markdown-node-label" style=""><p>&lt;&gt; +Segment[] segments</p></span></div></foreignObject></g></g><g class="methods-group text" transform="translate(-118.05859375, 60)"/><g class="divider" style=""><path d="M-130.05859375 -12 C-49.59785698113916 -11.999690675047113, 30.86287978772168 -11.999381350094223, 130.05859375 -11.999 M-130.05859375 -12 C-66.08480055485894 -11.999754057800601, -2.111007359717888 -11.999508115601204, 130.05859375 -11.999" stroke="#9370DB" stroke-width="1.3" fill="none" stroke-dasharray="0 0" style=""/></g><g class="divider" style=""><path d="M-130.05859375 36 C-48.48658909737672 36.00031359713457, 33.085415555246556 36.00062719426914, 130.05859375 36.001 M-130.05859375 36 C-37.07950708065985 36.000357450761186, 55.8995795886803 36.00071490152237, 130.05859375 36.001" stroke="#9370DB" stroke-width="1.3" fill="none" stroke-dasharray="0 0" style=""/></g></g><g class="node default" id="my-svg-classId-Segment-11" data-look="classic" transform="translate(3567.96875, 238)"><g class="basic label-container outer-path"><path d="M-276.61328125 -60 L276.61328125 -60 L276.61328125 60 L-276.61328125 60" stroke="none" stroke-width="0" fill="#ECECFF" style=""/><path d="M-276.61328125 -60 C-68.29059176954078 -60, 140.03209771091844 -60, 276.61328125 -60 M-276.61328125 -60 C-162.36093990705677 -60, -48.10859856411358 -60, 276.61328125 -60 M276.61328125 -60 C276.61328125 -31.38108221325394, 276.61328125 -2.76216442650788, 276.61328125 60 M276.61328125 -60 C276.61328125 -29.206538599780842, 276.61328125 1.586922800438316, 276.61328125 60 M276.61328125 60 C164.8146774142964 60, 53.01607357859277 60, -276.61328125 60 M276.61328125 60 C105.81314269605087 60, -64.98699585789825 60, -276.61328125 60 M-276.61328125 60 C-276.61328125 12.834464319046006, -276.61328125 -34.33107136190799, -276.61328125 -60 M-276.61328125 60 C-276.61328125 18.594251135101942, -276.61328125 -22.811497729796116, -276.61328125 -60" stroke="#9370DB" stroke-width="1.3" fill="none" stroke-dasharray="0 0" style=""/></g><g class="annotation-group text" transform="translate(0, -36)"/><g class="label-group text" transform="translate(-33.7890625, -36)"><g class="label" style="font-weight: bolder" transform="translate(0,-12)"><foreignObject width="67.578125" height="24"><div xmlns="http://www.w3.org/1999/xhtml" style="display: table-cell; white-space: nowrap; line-height: 1.5; max-width: 107px; text-align: center;"><span class="nodeLabel markdown-node-label" style=""><p>Segment</p></span></div></foreignObject></g></g><g class="members-group text" transform="translate(-264.61328125, 12)"><g class="label" style="" transform="translate(0,-12)"><foreignObject width="495.4375" height="24"><div xmlns="http://www.w3.org/1999/xhtml" style="display: table-cell; white-space: nowrap; line-height: 1.5; max-width: 543px; text-align: center;"><span class="nodeLabel markdown-node-label" style=""><p>&lt;&gt; +Duration start; +Duration end; +TagLabel tag; +SubSection[] subs</p></span></div></foreignObject></g></g><g class="methods-group text" transform="translate(-264.61328125, 60)"/><g class="divider" style=""><path d="M-276.61328125 -12 C-103.58097089580806 -11.999687230653619, 69.45133945838387 -11.999374461307237, 276.61328125 -11.999 M-276.61328125 -12 C-61.09863353049565 -11.999610440527755, 154.4160141890087 -11.99922088105551, 276.61328125 -11.999" stroke="#9370DB" stroke-width="1.3" fill="none" stroke-dasharray="0 0" style=""/></g><g class="divider" style=""><path d="M-276.61328125 36 C-58.354040652010866 36.00039452053714, 159.90519994597827 36.00078904107428, 276.61328125 36.001 M-276.61328125 36 C-58.16794560817715 36.00039485691839, 160.2773900336457 36.00078971383678, 276.61328125 36.001" stroke="#9370DB" stroke-width="1.3" fill="none" stroke-dasharray="0 0" style=""/></g></g></g></g></g><defs><filter id="my-svg-drop-shadow" height="130%" width="130%"><feDropShadow dx="4" dy="4" stdDeviation="0" flood-opacity="0.06" flood-color="#000000"/></filter></defs><defs><filter id="my-svg-drop-shadow-small" height="150%" width="150%"><feDropShadow dx="2" dy="2" stdDeviation="0" flood-opacity="0.06" flood-color="#000000"/></filter></defs></svg>