<svg id="my-svg" width="100%" xmlns="http://www.w3.org/2000/svg" xmlns:xlink="http://www.w3.org/1999/xlink" class="classDiagram" style="max-width: 3852.58px; background-color: white;" viewBox="0 0 3852.58203125 476" role="graphics-document document" aria-roledescription="class"><style>#my-svg{font-family:"trebuchet ms",verdana,arial,sans-serif;font-size:16px;fill:#333;}@keyframes edge-animation-frame{from{stroke-dashoffset:0;}}@keyframes dash{to{stroke-dashoffset:0;}}#my-svg .edge-animation-slow{stroke-dasharray:9,5!important;stroke-dashoffset:900;animation:dash 50s linear infinite;stroke-linecap:round;}#my-svg .edge-animation-fast{stroke-dasharray:9,5!important;stroke-dashoffset:900;animation:dash 20s linear infinite;stroke-linecap:round;}#my-svg .error-icon{fill:#552222;}#my-svg .error-text{fill:#552222;stroke:#552222;}#my-svg .edge-thickness-normal{stroke-width:1px;}#my-svg .edge-thickness-thick{stroke-width:3.5px;}#my-svg .edge-pattern-solid{stroke-dasharray:0;}#my-svg .edge-thickness-invisible{stroke-width:0;fill:none;}#my-svg .edge-pattern-dashed{stroke-dasharray:3;}#my-svg .edge-pattern-dotted{stroke-dasharray:2;}#my-svg .marker{fill:#333333;stroke:#333333;}#my-svg .marker.cross{stroke:#333333;}#my-svg svg{font-family:"trebuchet ms",verdana,arial,sans-serif;font-size:16px;}#my-svg p{margin:0;}#my-svg g.classGroup text{fill:#9370DB;stroke:none;font-family:"trebuchet ms",verdana,arial,sans-serif;font-size:10px;}#my-svg g.classGroup text .title{font-weight:bolder;}#my-svg .cluster-label text{fill:#333;}#my-svg .cluster-label span{color:#333;}#my-svg .cluster-label span p{background-color:transparent;}#my-svg .cluster rect{fill:#ffffde;stroke:#aaaa33;stroke-width:1px;}#my-svg .cluster text{fill:#333;}#my-svg .cluster span{color:#333;}#my-svg .nodeLabel,#my-svg .edgeLabel{color:#131300;}#my-svg .noteLabel .nodeLabel,#my-svg .noteLabel .edgeLabel{color:black;}#my-svg .edgeLabel .label rect{fill:#ECECFF;}#my-svg .label text{fill:#131300;}#my-svg .labelBkg{background:#ECECFF;}#my-svg .edgeLabel .label span{background:#ECECFF;}#my-svg .classTitle{font-weight:bolder;}#my-svg .node rect,#my-svg .node circle,#my-svg .node ellipse,#my-svg .node polygon,#my-svg .node path{fill:#ECECFF;stroke:#9370DB;stroke-width:1;}#my-svg .divider{stroke:#9370DB;stroke-width:1;}#my-svg g.clickable{cursor:pointer;}#my-svg g.classGroup rect{fill:#ECECFF;stroke:#9370DB;}#my-svg g.classGroup line{stroke:#9370DB;stroke-width:1;}#my-svg .classLabel .box{stroke:none;stroke-width:0;fill:#ECECFF;opacity:0.5;}#my-svg .classLabel .label{fill:#9370DB;font-size:10px;}#my-svg .relation{stroke:#333333;stroke-width:1;fill:none;}#my-svg .dashed-line{stroke-dasharray:3;}#my-svg .dotted-line{stroke-dasharray:1 2;}#my-svg [id$="-compositionStart"],#my-svg .composition{fill:#333333!important;stroke:#333333!important;stroke-width:1;}#my-svg [id$="-compositionEnd"],#my-svg .composition{fill:#333333!important;stroke:#333333!important;stroke-width:1;}#my-svg [id$="-dependencyStart"],#my-svg .dependency{fill:#333333!important;stroke:#333333!important;stroke-width:1;}#my-svg [id$="-dependencyEnd"],#my-svg .dependency{fill:#333333!important;stroke:#333333!important;stroke-width:1;}#my-svg [id$="-extensionStart"],#my-svg .extension{fill:transparent!important;stroke:#333333!important;stroke-width:1;}#my-svg [id$="-extensionEnd"],#my-svg .extension{fill:transparent!important;stroke:#333333!important;stroke-width:1;}#my-svg [id$="-aggregationStart"],#my-svg .aggregation{fill:transparent!important;stroke:#333333!important;stroke-width:1;}#my-svg [id$="-aggregationEnd"],#my-svg .aggregation{fill:transparent!important;stroke:#333333!important;stroke-width:1;}#my-svg [id$="-lollipopStart"],#my-svg .lollipop{fill:#ECECFF!important;stroke:#333333!important;stroke-width:1;}#my-svg [id$="-lollipopEnd"],#my-svg .lollipop{fill:#ECECFF!important;stroke:#333333!important;stroke-width:1;}#my-svg .edgeTerminals{font-size:11px;line-height:initial;}#my-svg .classTitleText{text-anchor:middle;font-size:18px;fill:#333;}#my-svg .edgeLabel[data-look="neo"]{background-color:rgba(232,232,232, 0.8);text-align:center;}#my-svg .edgeLabel[data-look="neo"] p{background-color:rgba(232,232,232, 0.8);}#my-svg .edgeLabel[data-look="neo"] rect{opacity:0.5;background-color:rgba(232,232,232, 0.8);fill:rgba(232,232,232, 0.8);}#my-svg .label-icon{display:inline-block;height:1em;overflow:visible;vertical-align:-0.125em;}#my-svg .node .label-icon path{fill:currentColor;stroke:revert;stroke-width:revert;}#my-svg .node .neo-node{stroke:#9370DB;}#my-svg [data-look="neo"].node rect,#my-svg [data-look="neo"].cluster rect,#my-svg [data-look="neo"].node polygon{stroke:#9370DB;filter:drop-shadow(1px 2px 2px rgba(185, 185, 185, 1));}#my-svg [data-look="neo"].node path{stroke:#9370DB;stroke-width:1px;}#my-svg [data-look="neo"].node .outer-path{filter:drop-shadow(1px 2px 2px rgba(185, 185, 185, 1));}#my-svg [data-look="neo"].node .neo-line path{stroke:#9370DB;filter:none;}#my-svg [data-look="neo"].node circle{stroke:#9370DB;filter:drop-shadow(1px 2px 2px rgba(185, 185, 185, 1));}#my-svg [data-look="neo"].node circle .state-start{fill:#000000;}#my-svg [data-look="neo"].icon-shape .icon{fill:#9370DB;filter:drop-shadow(1px 2px 2px rgba(185, 185, 185, 1));}#my-svg [data-look="neo"].icon-shape .icon-neo path{stroke:#9370DB;filter:drop-shadow(1px 2px 2px rgba(185, 185, 185, 1));}#my-svg :root{--mermaid-font-family:"trebuchet ms",verdana,arial,sans-serif;}</style><g><defs><marker id="my-svg_class-aggregationStart" class="marker aggregation class" refX="18" refY="7" markerWidth="190" markerHeight="240" orient="auto"><path d="M 18,7 L9,13 L1,7 L9,1 Z"/></marker></defs><defs><marker id="my-svg_class-aggregationEnd" class="marker aggregation class" refX="1" refY="7" markerWidth="20" markerHeight="28" orient="auto"><path d="M 18,7 L9,13 L1,7 L9,1 Z"/></marker></defs><defs><marker id="my-svg_class-aggregationStart-margin" class="marker aggregation class" refX="15" refY="7" markerWidth="190" markerHeight="240" orient="auto" markerUnits="userSpaceOnUse"><path d="M 18,7 L9,13 L1,7 L9,1 Z" style="stroke-width: 2;"/></marker></defs><defs><marker id="my-svg_class-aggregationEnd-margin" class="marker aggregation class" refX="1" refY="7" markerWidth="20" markerHeight="28" orient="auto" markerUnits="userSpaceOnUse"><path d="M 18,7 L9,13 L1,7 L9,1 Z" style="stroke-width: 2;"/></marker></defs><defs><marker id="my-svg_class-extensionStart" class="marker extension class" refX="18" refY="7" markerWidth="20" markerHeight="28" orient="auto" markerUnits="userSpaceOnUse"><path d="M 1,7 L18,13 V 1 Z"/></marker></defs><defs><marker id="my-svg_class-extensionEnd" class="marker extension class" refX="1" refY="7" markerWidth="20" markerHeight="28" orient="auto"><path d="M 1,1 V 13 L18,7 Z"/></marker></defs><marker id="my-svg_class-extensionStart-margin" class="marker extension class" refX="18" refY="7" markerWidth="20" markerHeight="28" orient="auto" markerUnits="userSpaceOnUse" viewBox="0 0 20 14"><polygon points="10,7 18,13 18,1" style="stroke-width: 2; stroke-dasharray: 0;"/></marker><defs><marker id="my-svg_class-extensionEnd-margin" class="marker extension class" refX="9" refY="7" markerWidth="20" markerHeight="28" orient="auto" markerUnits="userSpaceOnUse" viewBox="0 0 20 14"><polygon points="10,1 10,13 18,7" style="stroke-width: 2; stroke-dasharray: 0;"/></marker></defs><defs><marker id="my-svg_class-compositionStart" class="marker composition class" refX="18" refY="7" markerWidth="190" markerHeight="240" orient="auto"><path d="M 18,7 L9,13 L1,7 L9,1 Z"/></marker></defs><defs><marker id="my-svg_class-compositionEnd" class="marker composition class" refX="1" refY="7" markerWidth="20" markerHeight="28" orient="auto"><path d="M 18,7 L9,13 L1,7 L9,1 Z"/></marker></defs><defs><marker id="my-svg_class-compositionStart-margin" class="marker composition class" refX="15" refY="7" markerWidth="190" markerHeight="240" orient="auto" markerUnits="userSpaceOnUse"><path viewBox="0 0 15 15" d="M 18,7 L9,13 L1,7 L9,1 Z" style="stroke-width: 0;"/></marker></defs><defs><marker id="my-svg_class-compositionEnd-margin" class="marker composition class" refX="3.5" refY="7" markerWidth="20" markerHeight="28" orient="auto" markerUnits="userSpaceOnUse"><path d="M 18,7 L9,13 L1,7 L9,1 Z" style="stroke-width: 0;"/></marker></defs><defs><marker id="my-svg_class-dependencyStart" class="marker dependency class" refX="6" refY="7" markerWidth="190" markerHeight="240" orient="auto"><path d="M 5,7 L9,13 L1,7 L9,1 Z"/></marker></defs><defs><marker id="my-svg_class-dependencyEnd" class="marker dependency class" refX="13" refY="7" markerWidth="20" markerHeight="28" orient="auto"><path d="M 18,7 L9,13 L14,7 L9,1 Z"/></marker></defs><defs><marker id="my-svg_class-dependencyStart-margin" class="marker dependency class" refX="4" refY="7" markerWidth="190" markerHeight="240" orient="auto" markerUnits="userSpaceOnUse"><path d="M 5,7 L9,13 L1,7 L9,1 Z" style="stroke-width: 0;"/></marker></defs><defs><marker id="my-svg_class-dependencyEnd-margin" class="marker dependency class" refX="16" refY="7" markerWidth="20" markerHeight="28" orient="auto" markerUnits="userSpaceOnUse"><path d="M 18,7 L9,13 L14,7 L9,1 Z" style="stroke-width: 0;"/></marker></defs><defs><marker id="my-svg_class-lollipopStart" class="marker lollipop class" refX="13" refY="7" markerWidth="190" markerHeight="240" orient="auto"><circle fill="transparent" cx="7" cy="7" r="6"/></marker></defs><defs><marker id="my-svg_class-lollipopEnd" class="marker lollipop class" refX="1" refY="7" markerWidth="190" markerHeight="240" orient="auto"><circle fill="transparent" cx="7" cy="7" r="6"/></marker></defs><defs><marker id="my-svg_class-lollipopStart-margin" class="marker lollipop class" refX="13" refY="7" markerWidth="190" markerHeight="240" orient="auto" markerUnits="userSpaceOnUse"><circle fill="transparent" cx="7" cy="7" r="6" stroke-width="2"/></marker></defs><defs><marker id="my-svg_class-lollipopEnd-margin" class="marker lollipop class" refX="1" refY="7" markerWidth="190" markerHeight="240" orient="auto" markerUnits="userSpaceOnUse"><circle fill="transparent" cx="7" cy="7" r="6" stroke-width="2"/></marker></defs><g class="root"><g class="clusters"/><g class="edgePaths"><path d="M1911.457,303.941L1902.799,307.118C1894.141,310.294,1876.825,316.647,1868.168,323.99C1859.51,331.333,1859.51,339.667,1859.51,343.833L1859.51,348" id="my-svg-id_MediaFile_ImageFile_1" class="edge-thickness-normal edge-pattern-solid relation" style=";;;" data-edge="true" data-et="edge" data-id="id_MediaFile_ImageFile_1" data-points="W3sieCI6MTkyNy42NTE0MjQ2MzIzNTMsInkiOjI5OH0seyJ4IjoxODU5LjUwOTc2NTYyNSwieSI6MzIzfSx7IngiOjE4NTkuNTA5NzY1NjI1LCJ5IjozNDh9XQ==" data-look="classic" marker-start="url(#my-svg_class-extensionStart)"/><path d="M2270.926,303.941L2279.584,307.118C2288.242,310.294,2305.557,316.647,2314.215,323.99C2322.873,331.333,2322.873,339.667,2322.873,343.833L2322.873,348" id="my-svg-id_MediaFile_AudioFile_2" class="edge-thickness-normal edge-pattern-solid relation" style=";;;" data-edge="true" data-et="edge" data-id="id_MediaFile_AudioFile_2" data-points="W3sieCI6MjI1NC43MzEzODc4Njc2NDcsInkiOjI5OH0seyJ4IjoyMzIyLjg3MzA0Njg3NSwieSI6MzIzfSx7IngiOjIzMjIuODczMDQ2ODc1LCJ5IjozNDh9XQ==" data-look="classic" marker-start="url(#my-svg_class-extensionStart)"/><path d="M2674.82,145.25L2674.82,146.542C2674.82,147.833,2674.82,150.417,2674.82,155.875C2674.82,161.333,2674.82,169.667,2674.82,173.833L2674.82,178" id="my-svg-id_TimedText_Cue_3" class="edge-thickness-normal edge-pattern-solid relation" style=";;;" data-edge="true" data-et="edge" data-id="id_TimedText_Cue_3" data-points="W3sieCI6MjY3NC44MjAzMTI1LCJ5IjoxMjh9LHsieCI6MjY3NC44MjAzMTI1LCJ5IjoxNTN9LHsieCI6MjY3NC44MjAzMTI1LCJ5IjoxNzh9XQ==" data-look="classic" marker-start="url(#my-svg_class-compositionStart)"/><path d="M3567.969,145.25L3567.969,146.542C3567.969,147.833,3567.969,150.417,3567.969,155.875C3567.969,161.333,3567.969,169.667,3567.969,173.833L3567.969,178" id="my-svg-id_SegmentModel_Segment_4" class="edge-thickness-normal edge-pattern-solid relation" style=";;;" data-edge="true" data-et="edge" data-id="id_SegmentModel_Segment_4" data-points="W3sieCI6MzU2Ny45Njg3NSwieSI6MTI4fSx7IngiOjM1NjcuOTY4NzUsInkiOjE1M30seyJ4IjozNTY3Ljk2ODc1LCJ5IjoxNzh9XQ==" data-look="classic" marker-start="url(#my-svg_class-compositionStart)"/><path d="M2091.191,145.25L2091.191,146.542C2091.191,147.833,2091.191,150.417,2091.191,155.875C2091.191,161.333,2091.191,169.667,2091.191,173.833L2091.191,178" id="my-svg-id_Delivery_MediaFile_5" class="edge-thickness-normal edge-pattern-solid relation" style=";;;" data-edge="true" data-et="edge" data-id="id_Delivery_MediaFile_5" data-points="W3sieCI6MjA5MS4xOTE0MDYyNSwieSI6MTI4fSx7IngiOjIwOTEuMTkxNDA2MjUsInkiOjE1M30seyJ4IjoyMDkxLjE5MTQwNjI1LCJ5IjoxNzh9XQ==" data-look="classic" marker-start="url(#my-svg_class-compositionStart)"/></g><g class="edgeLabels"><g class="edgeLabel"><g class="label" data-id="id_MediaFile_ImageFile_1" transform="translate(0, 0)"><foreignObject width="0" height="0"><div xmlns="http://www.w3.org/1999/xhtml" class="labelBkg" style="display: table-cell; white-space: nowrap; line-height: 1.5; max-width: 200px; text-align: center;"><span class="edgeLabel"></span></div></foreignObject></g></g><g class="edgeLabel"><g class="label" data-id="id_MediaFile_AudioFile_2" transform="translate(0, 0)"><foreignObject width="0" height="0"><div xmlns="http://www.w3.org/1999/xhtml" class="labelBkg" style="display: table-cell; white-space: nowrap; line-height: 1.5; max-width: 200px; text-align: center;"><span class="edgeLabel"></span></div></foreignObject></g></g><g class="edgeLabel"><g class="label" data-id="id_TimedText_Cue_3" transform="translate(0, 0)"><foreignObject width="0" height="0"><div xmlns="http://www.w3.org/1999/xhtml" class="labelBkg" style="display: table-cell; white-space: nowrap; line-height: 1.5; max-width: 200px; text-align: center;"><span class="edgeLabel"></span></div></foreignObject></g></g><g class="edgeLabel"><g class="label" data-id="id_SegmentModel_Segment_4" transform="translate(0, 0)"><foreignObject width="0" height="0"><div xmlns="http://www.w3.org/1999/xhtml" class="labelBkg" style="display: table-cell; white-space: nowrap; line-height: 1.5; max-width: 200px; text-align: center;"><span class="edgeLabel"></span></div></foreignObject></g></g><g class="edgeLabel"><g class="label" data-id="id_Delivery_MediaFile_5" transform="translate(0, 0)"><foreignObject width="0" height="0"><div xmlns="http://www.w3.org/1999/xhtml" class="labelBkg" style="display: table-cell; white-space: nowrap; line-height: 1.5; max-width: 200px; text-align: center;"><span class="edgeLabel"></span></div></foreignObject></g></g></g><g class="nodes"><g class="node default" id="my-svg-classId-MediaFile-0" data-look="classic" transform="translate(2091.19140625, 238)"><g class="basic label-container outer-path"><path d="M-349.75 -60 L349.75 -60 L349.75 60 L-349.75 60" stroke="none" stroke-width="0" fill="#ECECFF" style=""/><path d="M-349.75 -60 C-166.43835533926068 -60, 16.873289321478637 -60, 349.75 -60 M-349.75 -60 C-184.0063370271238 -60, -18.26267405424761 -60, 349.75 -60 M349.75 -60 C349.75 -29.73032397575614, 349.75 0.5393520484877214, 349.75 60 M349.75 -60 C349.75 -27.66098420051437, 349.75 4.678031598971259, 349.75 60 M349.75 60 C126.11069316422532 60, -97.52861367154935 60, -349.75 60 M349.75 60 C116.44031080656845 60, -116.8693783868631 60, -349.75 60 M-349.75 60 C-349.75 12.46443499953687, -349.75 -35.07113000092626, -349.75 -60 M-349.75 60 C-349.75 15.50660014687086, -349.75 -28.98679970625828, -349.75 -60" stroke="#9370DB" stroke-width="1.3" fill="none" stroke-dasharray="0 0" style=""/></g><g class="annotation-group text" transform="translate(0, -36)"/><g class="label-group text" transform="translate(-36.453125, -36)"><g class="label" style="font-weight: bolder" transform="translate(0,-12)"><foreignObject width="72.90625" height="24"><div xmlns="http://www.w3.org/1999/xhtml" style="display: table-cell; white-space: nowrap; line-height: 1.5; max-width: 116px; text-align: center;"><span class="nodeLabel markdown-node-label" style=""><p>MediaFile</p></span></div></foreignObject></g></g><g class="members-group text" transform="translate(-337.75, 12)"><g class="label" style="" transform="translate(0,-12)"><foreignObject width="639.046875" height="24"><div xmlns="http://www.w3.org/1999/xhtml" style="display: table-cell; white-space: nowrap; line-height: 1.5; max-width: 669px; text-align: center;"><span class="nodeLabel markdown-node-label" style=""><p>&lt;&gt; +Path path; +String container; +Count vStreams; +Count aStreams; +Duration duration</p></span></div></foreignObject></g></g><g class="methods-group text" transform="translate(-337.75, 60)"/><g class="divider" style=""><path d="M-349.75 -12 C-175.1439112377005 -11.999750384433506, -0.5378224754010148 -11.999500768867014, 349.75 -11.999 M-349.75 -12 C-143.76781987003514 -11.999705529406533, 62.21436025992972 -11.999411058813067, 349.75 -11.999" stroke="#9370DB" stroke-width="1.3" fill="none" stroke-dasharray="0 0" style=""/></g><g class="divider" style=""><path d="M-349.75 36 C-174.66706162997406 36.00025029726715, 0.41587674005188546 36.000500594534294, 349.75 36.001 M-349.75 36 C-81.85584261761932 36.000382979495896, 186.03831476476137 36.0007659589918, 349.75 36.001" stroke="#9370DB" stroke-width="1.3" fill="none" stroke-dasharray="0 0" style=""/></g></g><g class="node default" id="my-svg-classId-ImageFile-1" data-look="classic" transform="translate(1859.509765625, 408)"><g class="basic label-container outer-path"><path d="M-186.7890625 -60 L186.7890625 -60 L186.7890625 60 L-186.7890625 60" stroke="none" stroke-width="0" fill="#ECECFF" style=""/><path d="M-186.7890625 -60 C-106.89063078934113 -60, -26.992199078682262 -60, 186.7890625 -60 M-186.7890625 -60 C-53.03282014966433 -60, 80.72342220067134 -60, 186.7890625 -60 M186.7890625 -60 C186.7890625 -23.554164582606496, 186.7890625 12.891670834787007, 186.7890625 60 M186.7890625 -60 C186.7890625 -31.974006559101078, 186.7890625 -3.948013118202155, 186.7890625 60 M186.7890625 60 C63.784609680072506 60, -59.21984313985499 60, -186.7890625 60 M186.7890625 60 C50.92660259004077 60, -84.93585731991845 60, -186.7890625 60 M-186.7890625 60 C-186.7890625 25.89244252189694, -186.7890625 -8.215114956206122, -186.7890625 -60 M-186.7890625 60 C-186.7890625 28.032807432043704, -186.7890625 -3.934385135912592, -186.7890625 -60" stroke="#9370DB" stroke-width="1.3" fill="none" stroke-dasharray="0 0" style=""/></g><g class="annotation-group text" transform="translate(0, -36)"/><g class="label-group text" transform="translate(-36.90625, -36)"><g class="label" style="font-weight: bolder" transform="translate(0,-12)"><foreignObject width="73.8125" height="24"><div xmlns="http://www.w3.org/1999/xhtml" style="display: table-cell; white-space: nowrap; line-height: 1.5; max-width: 115px; text-align: center;"><span class="nodeLabel markdown-node-label" style=""><p>ImageFile</p></span></div></foreignObject></g></g><g class="members-group text" transform="translate(-174.7890625, 12)"><g class="label" style="" transform="translate(0,-12)"><foreignObject width="312.671875" height="24"><div xmlns="http://www.w3.org/1999/xhtml" style="display: table-cell; white-space: nowrap; line-height: 1.5; max-width: 376px; text-align: center;"><span class="nodeLabel markdown-node-label" style=""><p>&lt;&gt; +Path path; +Count width; +Count height</p></span></div></foreignObject></g></g><g class="methods-group text" transform="translate(-174.7890625, 60)"/><g class="divider" style=""><path d="M-186.7890625 -12 C-62.89250976785016 -11.999668351692883, 61.004042964299686 -11.999336703385767, 186.7890625 -11.999 M-186.7890625 -12 C-103.0014498080104 -11.99977571595582, -19.213837116020812 -11.999551431911641, 186.7890625 -11.999" stroke="#9370DB" stroke-width="1.3" fill="none" stroke-dasharray="0 0" style=""/></g><g class="divider" style=""><path d="M-186.7890625 36 C-83.55598469827771 36.0002763359814, 19.677093103444577 36.0005526719628, 186.7890625 36.001 M-186.7890625 36 C-73.5174331758395 36.00030320733936, 39.754196148321 36.00060641467872, 186.7890625 36.001" stroke="#9370DB" stroke-width="1.3" fill="none" stroke-dasharray="0 0" style=""/></g></g><g class="node default" id="my-svg-classId-AudioFile-2" data-look="classic" transform="translate(2322.873046875, 408)"><g class="basic label-container outer-path"><path d="M-226.57421875 -60 L226.57421875 -60 L226.57421875 60 L-226.57421875 60" stroke="none" stroke-width="0" fill="#ECECFF" style=""/><path d="M-226.57421875 -60 C-110.14893112428013 -60, 6.27635650143975 -60, 226.57421875 -60 M-226.57421875 -60 C-128.44773425282625 -60, -30.32124975565253 -60, 226.57421875 -60 M226.57421875 -60 C226.57421875 -23.873375288962443, 226.57421875 12.253249422075115, 226.57421875 60 M226.57421875 -60 C226.57421875 -12.624340906825644, 226.57421875 34.75131818634871, 226.57421875 60 M226.57421875 60 C55.92299021866887 60, -114.72823831266226 60, -226.57421875 60 M226.57421875 60 C132.9275538632193 60, 39.280888976438575 60, -226.57421875 60 M-226.57421875 60 C-226.57421875 30.791236913020462, -226.57421875 1.5824738260409248, -226.57421875 -60 M-226.57421875 60 C-226.57421875 16.31436684594381, -226.57421875 -27.371266308112382, -226.57421875 -60" stroke="#9370DB" stroke-width="1.3" fill="none" stroke-dasharray="0 0" style=""/></g><g class="annotation-group text" transform="translate(0, -36)"/><g class="label-group text" transform="translate(-36.4453125, -36)"><g class="label" style="font-weight: bolder" transform="translate(0,-12)"><foreignObject width="72.890625" height="24"><div xmlns="http://www.w3.org/1999/xhtml" style="display: table-cell; white-space: nowrap; line-height: 1.5; max-width: 115px; text-align: center;"><span class="nodeLabel markdown-node-label" style=""><p>AudioFile</p></span></div></foreignObject></g></g><g class="members-group text" transform="translate(-214.57421875, 12)"><g class="label" style="" transform="translate(0,-12)"><foreignObject width="392.703125" height="24"><div xmlns="http://www.w3.org/1999/xhtml" style="display: table-cell; white-space: nowrap; line-height: 1.5; max-width: 445px; text-align: center;"><span class="nodeLabel markdown-node-label" style=""><p>&lt;&gt; +Path path; +Duration duration; +Count sampleRate</p></span></div></foreignObject></g></g><g class="methods-group text" transform="translate(-214.57421875, 60)"/><g class="divider" style=""><path d="M-226.57421875 -12 C-78.88363538012752 -11.99967407901882, 68.80694798974497 -11.999348158037641, 226.57421875 -11.999 M-226.57421875 -12 C-102.45313887400832 -11.999726091784492, 21.667941001983365 -11.999452183568984, 226.57421875 -11.999" stroke="#9370DB" stroke-width="1.3" fill="none" stroke-dasharray="0 0" style=""/></g><g class="divider" style=""><path d="M-226.57421875 36 C-102.30248435889611 36.00027424067724, 21.969250032207782 36.000548481354485, 226.57421875 36.001 M-226.57421875 36 C-107.13780977546745 36.000263570166176, 12.298599199065109 36.00052714033235, 226.57421875 36.001" stroke="#9370DB" stroke-width="1.3" fill="none" stroke-dasharray="0 0" style=""/></g></g><g class="node default" id="my-svg-classId-EditDecision-3" data-look="classic" transform="translate(441.7109375, 68)"><g class="basic label-container outer-path"><path d="M-433.7109375 -60 L433.7109375 -60 L433.7109375 60 L-433.7109375 60" stroke="none" stroke-width="0" fill="#ECECFF" style=""/><path d="M-433.7109375 -60 C-91.85363240901893 -60, 250.00367268196214 -60, 433.7109375 -60 M-433.7109375 -60 C-179.64627879162668 -60, 74.41837991674663 -60, 433.7109375 -60 M433.7109375 -60 C433.7109375 -23.208720097210062, 433.7109375 13.582559805579876, 433.7109375 60 M433.7109375 -60 C433.7109375 -15.167883364420831, 433.7109375 29.664233271158338, 433.7109375 60 M433.7109375 60 C134.31445700596726 60, -165.0820234880655 60, -433.7109375 60 M433.7109375 60 C88.13866883208789 60, -257.4335998358242 60, -433.7109375 60 M-433.7109375 60 C-433.7109375 15.198108705714766, -433.7109375 -29.603782588570468, -433.7109375 -60 M-433.7109375 60 C-433.7109375 22.43822892648921, -433.7109375 -15.123542147021581, -433.7109375 -60" stroke="#9370DB" stroke-width="1.3" fill="none" stroke-dasharray="0 0" style=""/></g><g class="annotation-group text" transform="translate(0, -36)"/><g class="label-group text" transform="translate(-48.453125, -36)"><g class="label" style="font-weight: bolder" transform="translate(0,-12)"><foreignObject width="96.90625" height="24"><div xmlns="http://www.w3.org/1999/xhtml" style="display: table-cell; white-space: nowrap; line-height: 1.5; max-width: 134px; text-align: center;"><span class="nodeLabel markdown-node-label" style=""><p>EditDecision</p></span></div></foreignObject></g></g><g class="members-group text" transform="translate(-421.7109375, 12)"><g class="label" style="" transform="translate(0,-12)"><foreignObject width="794.96875" height="24"><div xmlns="http://www.w3.org/1999/xhtml" style="display: table-cell; white-space: nowrap; line-height: 1.5; max-width: 826px; text-align: center;"><span class="nodeLabel markdown-node-label" style=""><p>&lt;&gt; +Boolean[] keepSet; +Permutation order; +TransitionKind[] transitions; +Real[] trackLevels; +Boolean[] mutes</p></span></div></foreignObject></g></g><g class="methods-group text" transform="translate(-421.7109375, 60)"/><g class="divider" style=""><path d="M-433.7109375 -12 C-95.76932630525727 -11.999610406860912, 242.17228488948547 -11.999220813721825, 433.7109375 -11.999 M-433.7109375 -12 C-243.10068684209008 -11.999780256578545, -52.49043618418017 -11.999560513157089, 433.7109375 -11.999" stroke="#9370DB" stroke-width="1.3" fill="none" stroke-dasharray="0 0" style=""/></g><g class="divider" style=""><path d="M-433.7109375 36 C-239.93910964297672 36.00022338821909, -46.167281785953435 36.00044677643818, 433.7109375 36.001 M-433.7109375 36 C-159.70184996955135 36.000315889067856, 114.3072375608973 36.000631778135705, 433.7109375 36.001" stroke="#9370DB" stroke-width="1.3" fill="none" stroke-dasharray="0 0" style=""/></g></g><g class="node default" id="my-svg-classId-FilterGraph-4" data-look="classic" transform="translate(1033.46484375, 68)"><g class="basic label-container outer-path"><path d="M-108.04296875 -60 L108.04296875 -60 L108.04296875 60 L-108.04296875 60" stroke="none" stroke-width="0" fill="#ECECFF" style=""/><path d="M-108.04296875 -60 C-53.96912476244011 -60, 0.10471922511977994 -60, 108.04296875 -60 M-108.04296875 -60 C-47.40566706163563 -60, 13.231634626728734 -60, 108.04296875 -60 M108.04296875 -60 C108.04296875 -31.43206259182591, 108.04296875 -2.8641251836518222, 108.04296875 60 M108.04296875 -60 C108.04296875 -17.690514645125035, 108.04296875 24.61897070974993, 108.04296875 60 M108.04296875 60 C30.604773021015262 60, -46.833422707969476 60, -108.04296875 60 M108.04296875 60 C22.119454574612078 60, -63.804059600775844 60, -108.04296875 60 M-108.04296875 60 C-108.04296875 24.298453691153227, -108.04296875 -11.403092617693545, -108.04296875 -60 M-108.04296875 60 C-108.04296875 25.955677416187662, -108.04296875 -8.088645167624676, -108.04296875 -60" stroke="#9370DB" stroke-width="1.3" fill="none" stroke-dasharray="0 0" style=""/></g><g class="annotation-group text" transform="translate(0, -36)"/><g class="label-group text" transform="translate(-43.1171875, -36)"><g class="label" style="font-weight: bolder" transform="translate(0,-12)"><foreignObject width="86.234375" height="24"><div xmlns="http://www.w3.org/1999/xhtml" style="display: table-cell; white-space: nowrap; line-height: 1.5; max-width: 125px; text-align: center;"><span class="nodeLabel markdown-node-label" style=""><p>FilterGraph</p></span></div></foreignObject></g></g><g class="members-group text" transform="translate(-96.04296875, 12)"><g class="label" style="" transform="translate(0,-12)"><foreignObject width="148.96875" height="24"><div xmlns="http://www.w3.org/1999/xhtml" style="display: table-cell; white-space: nowrap; line-height: 1.5; max-width: 224px; text-align: center;"><span class="nodeLabel markdown-node-label" style=""><p>&lt;&gt; +String command</p></span></div></foreignObject></g></g><g class="methods-group text" transform="translate(-96.04296875, 60)"/><g class="divider" style=""><path d="M-108.04296875 -12 C-45.30385811348434 -11.999709656670108, 17.435252523031323 -11.999419313340217, 108.04296875 -11.999 M-108.04296875 -12 C-54.23581962705435 -11.999750991898198, -0.42867050410869467 -11.999501983796396, 108.04296875 -11.999" stroke="#9370DB" stroke-width="1.3" fill="none" stroke-dasharray="0 0" style=""/></g><g class="divider" style=""><path d="M-108.04296875 36 C-30.172633688927775 36.000360367435114, 47.69770137214445 36.00072073487023, 108.04296875 36.001 M-108.04296875 36 C-41.602331795920065 36.00030747321053, 24.83830515815987 36.00061494642107, 108.04296875 36.001" stroke="#9370DB" stroke-width="1.3" fill="none" stroke-dasharray="0 0" style=""/></g></g><g class="node default" id="my-svg-classId-Measurement-5" data-look="classic" transform="translate(1462.7109375, 68)"><g class="basic label-container outer-path"><path d="M-271.203125 -60 L271.203125 -60 L271.203125 60 L-271.203125 60" stroke="none" stroke-width="0" fill="#ECECFF" style=""/><path d="M-271.203125 -60 C-55.68756620655009 -60, 159.82799258689982 -60, 271.203125 -60 M-271.203125 -60 C-125.56552794988872 -60, 20.072069100222564 -60, 271.203125 -60 M271.203125 -60 C271.203125 -24.49681118621453, 271.203125 11.006377627570942, 271.203125 60 M271.203125 -60 C271.203125 -13.982413272083818, 271.203125 32.035173455832364, 271.203125 60 M271.203125 60 C133.61547459708547 60, -3.9721758058290675 60, -271.203125 60 M271.203125 60 C63.43445553159188 60, -144.33421393681624 60, -271.203125 60 M-271.203125 60 C-271.203125 19.672139973504727, -271.203125 -20.655720052990546, -271.203125 -60 M-271.203125 60 C-271.203125 21.638872163015904, -271.203125 -16.722255673968192, -271.203125 -60" stroke="#9370DB" stroke-width="1.3" fill="none" stroke-dasharray="0 0" style=""/></g><g class="annotation-group text" transform="translate(0, -36)"/><g class="label-group text" transform="translate(-51.578125, -36)"><g class="label" style="font-weight: bolder" transform="translate(0,-12)"><foreignObject width="103.15625" height="24"><div xmlns="http://www.w3.org/1999/xhtml" style="display: table-cell; white-space: nowrap; line-height: 1.5; max-width: 138px; text-align: center;"><span class="nodeLabel markdown-node-label" style=""><p>Measurement</p></span></div></foreignObject></g></g><g class="members-group text" transform="translate(-259.203125, 12)"><g class="label" style="" transform="translate(0,-12)"><foreignObject width="466.828125" height="24"><div xmlns="http://www.w3.org/1999/xhtml" style="display: table-cell; white-space: nowrap; line-height: 1.5; max-width: 509px; text-align: center;"><span class="nodeLabel markdown-node-label" style=""><p>&lt;&gt; +Loudness loudness; +TruePeak truePeak; +Duration duration</p></span></div></foreignObject></g></g><g class="methods-group text" transform="translate(-259.203125, 60)"/><g class="divider" style=""><path d="M-271.203125 -12 C-83.49470333100155 -11.999653933888725, 104.21371833799691 -11.99930786777745, 271.203125 -11.999 M-271.203125 -12 C-132.23491379290027 -11.999743793123315, 6.7332974141994555 -11.99948758624663, 271.203125 -11.999" stroke="#9370DB" stroke-width="1.3" fill="none" stroke-dasharray="0 0" style=""/></g><g class="divider" style=""><path d="M-271.203125 36 C-127.46321487515044 36.000265004155324, 16.276695249699117 36.00053000831065, 271.203125 36.001 M-271.203125 36 C-133.42046477347517 36.00025402115154, 4.362195453049651 36.000508042303075, 271.203125 36.001" stroke="#9370DB" stroke-width="1.3" fill="none" stroke-dasharray="0 0" style=""/></g></g><g class="node default" id="my-svg-classId-TimedText-6" data-look="classic" transform="translate(2674.8203125, 68)"><g class="basic label-container outer-path"><path d="M-86.12109375 -60 L86.12109375 -60 L86.12109375 60 L-86.12109375 60" stroke="none" stroke-width="0" fill="#ECECFF" style=""/><path d="M-86.12109375 -60 C-34.94217737955476 -60, 16.236738990890487 -60, 86.12109375 -60 M-86.12109375 -60 C-48.35314945655268 -60, -10.585205163105357 -60, 86.12109375 -60 M86.12109375 -60 C86.12109375 -30.57858267878726, 86.12109375 -1.1571653575745202, 86.12109375 60 M86.12109375 -60 C86.12109375 -24.17830548160898, 86.12109375 11.64338903678204, 86.12109375 60 M86.12109375 60 C20.437839175237812 60, -45.245415399524376 60, -86.12109375 60 M86.12109375 60 C42.47618928278843 60, -1.1687151844231352 60, -86.12109375 60 M-86.12109375 60 C-86.12109375 16.616486929235343, -86.12109375 -26.767026141529314, -86.12109375 -60 M-86.12109375 60 C-86.12109375 22.369525012707932, -86.12109375 -15.260949974584136, -86.12109375 -60" stroke="#9370DB" stroke-width="1.3" fill="none" stroke-dasharray="0 0" style=""/></g><g class="annotation-group text" transform="translate(0, -36)"/><g class="label-group text" transform="translate(-39.2734375, -36)"><g class="label" style="font-weight: bolder" transform="translate(0,-12)"><foreignObject width="78.546875" height="24"><div xmlns="http://www.w3.org/1999/xhtml" style="display: table-cell; white-space: nowrap; line-height: 1.5; max-width: 120px; text-align: center;"><span class="nodeLabel markdown-node-label" style=""><p>TimedText</p></span></div></foreignObject></g></g><g class="members-group text" transform="translate(-74.12109375, 12)"><g class="label" style="" transform="translate(0,-12)"><foreignObject width="108.96875" height="24"><div xmlns="http://www.w3.org/1999/xhtml" style="display: table-cell; white-space: nowrap; line-height: 1.5; max-width: 187px; text-align: center;"><span class="nodeLabel markdown-node-label" style=""><p>&lt;&gt; +Cue[] cues</p></span></div></foreignObject></g></g><g class="methods-group text" transform="translate(-74.12109375, 60)"/><g class="divider" style=""><path d="M-86.12109375 -12 C-36.89850679480743 -11.999714224559792, 12.324080160385137 -11.999428449119584, 86.12109375 -11.999 M-86.12109375 -12 C-25.742572871638913 -11.99964945567776, 34.635948006722174 -11.99929891135552, 86.12109375 -11.999" stroke="#9370DB" stroke-width="1.3" fill="none" stroke-dasharray="0 0" style=""/></g><g class="divider" style=""><path d="M-86.12109375 36 C-18.36235902837035 36.00039339220957, 49.3963756932593 36.000786784419134, 86.12109375 36.001 M-86.12109375 36 C-22.337736793756044 36.000370312046556, 41.44562016248791 36.00074062409311, 86.12109375 36.001" stroke="#9370DB" stroke-width="1.3" fill="none" stroke-dasharray="0 0" style=""/></g></g><g class="node default" id="my-svg-classId-Cue-7" data-look="classic" transform="translate(2674.8203125, 238)"><g class="basic label-container outer-path"><path d="M-183.87890625 -60 L183.87890625 -60 L183.87890625 60 L-183.87890625 60" stroke="none" stroke-width="0" fill="#ECECFF" style=""/><path d="M-183.87890625 -60 C-41.42198864377394 -60, 101.03492896245211 -60, 183.87890625 -60 M-183.87890625 -60 C-108.06571358001794 -60, -32.252520910035884 -60, 183.87890625 -60 M183.87890625 -60 C183.87890625 -25.792562708992435, 183.87890625 8.41487458201513, 183.87890625 60 M183.87890625 -60 C183.87890625 -12.23811163306138, 183.87890625 35.52377673387724, 183.87890625 60 M183.87890625 60 C78.67470598910597 60, -26.529494271788053 60, -183.87890625 60 M183.87890625 60 C99.21935266841147 60, 14.559799086822949 60, -183.87890625 60 M-183.87890625 60 C-183.87890625 31.757391922874476, -183.87890625 3.5147838457489513, -183.87890625 -60 M-183.87890625 60 C-183.87890625 23.485670245363337, -183.87890625 -13.028659509273325, -183.87890625 -60" stroke="#9370DB" stroke-width="1.3" fill="none" stroke-dasharray="0 0" style=""/></g><g class="annotation-group text" transform="translate(0, -36)"/><g class="label-group text" transform="translate(-15.1171875, -36)"><g class="label" style="font-weight: bolder" transform="translate(0,-12)"><foreignObject width="30.234375" height="24"><div xmlns="http://www.w3.org/1999/xhtml" style="display: table-cell; white-space: nowrap; line-height: 1.5; max-width: 76px; text-align: center;"><span class="nodeLabel markdown-node-label" style=""><p>Cue</p></span></div></foreignObject></g></g><g class="members-group text" transform="translate(-171.87890625, 12)"><g class="label" style="" transform="translate(0,-12)"><foreignObject width="328.640625" height="24"><div xmlns="http://www.w3.org/1999/xhtml" style="display: table-cell; white-space: nowrap; line-height: 1.5; max-width: 393px; text-align: center;"><span class="nodeLabel markdown-node-label" style=""><p>&lt;&gt; +Duration start; +Duration end; +String text</p></span></div></foreignObject></g></g><g class="methods-group text" transform="translate(-171.87890625, 60)"/><g class="divider" style=""><path d="M-183.87890625 -12 C-108.54227052066754 -11.999795146063065, -33.205634791335086 -11.999590292126129, 183.87890625 -11.999 M-183.87890625 -12 C-40.51181215341862 -11.999610158943677, 102.85528194316277 -11.999220317887351, 183.87890625 -11.999" stroke="#9370DB" stroke-width="1.3" fill="none" stroke-dasharray="0 0" style=""/></g><g class="divider" style=""><path d="M-183.87890625 36 C-91.74871135015393 36.00025051866138, 0.3814835496921489 36.00050103732276, 183.87890625 36.001 M-183.87890625 36 C-42.6425489181712 36.00038404719772, 98.5938084136576 36.00076809439545, 183.87890625 36.001" stroke="#9370DB" stroke-width="1.3" fill="none" stroke-dasharray="0 0" style=""/></g></g><g class="node default" id="my-svg-classId-Delivery-8" data-look="classic" transform="translate(2091.19140625, 68)"><g class="basic label-container outer-path"><path d="M-307.27734375 -60 L307.27734375 -60 L307.27734375 60 L-307.27734375 60" stroke="none" stroke-width="0" fill="#ECECFF" style=""/><path d="M-307.27734375 -60 C-123.29215042937699 -60, 60.69304289124602 -60, 307.27734375 -60 M-307.27734375 -60 C-164.13286084063762 -60, -20.988377931275238 -60, 307.27734375 -60 M307.27734375 -60 C307.27734375 -20.500018119281272, 307.27734375 18.999963761437456, 307.27734375 60 M307.27734375 -60 C307.27734375 -18.912773312805626, 307.27734375 22.174453374388747, 307.27734375 60 M307.27734375 60 C82.89733303905189 60, -141.48267767189623 60, -307.27734375 60 M307.27734375 60 C162.6693125229059 60, 18.061281295811796 60, -307.27734375 60 M-307.27734375 60 C-307.27734375 30.647501600433444, -307.27734375 1.295003200866887, -307.27734375 -60 M-307.27734375 60 C-307.27734375 24.48070918846463, -307.27734375 -11.03858162307074, -307.27734375 -60" stroke="#9370DB" stroke-width="1.3" fill="none" stroke-dasharray="0 0" style=""/></g><g class="annotation-group text" transform="translate(0, -36)"/><g class="label-group text" transform="translate(-31.1328125, -36)"><g class="label" style="font-weight: bolder" transform="translate(0,-12)"><foreignObject width="62.265625" height="24"><div xmlns="http://www.w3.org/1999/xhtml" style="display: table-cell; white-space: nowrap; line-height: 1.5; max-width: 106px; text-align: center;"><span class="nodeLabel markdown-node-label" style=""><p>Delivery</p></span></div></foreignObject></g></g><g class="members-group text" transform="translate(-295.27734375, 12)"><g class="label" style="" transform="translate(0,-12)"><foreignObject width="559.421875" height="24"><div xmlns="http://www.w3.org/1999/xhtml" style="display: table-cell; white-space: nowrap; line-height: 1.5; max-width: 600px; text-align: center;"><span class="nodeLabel markdown-node-label" style=""><p>&lt;&gt; +MediaFile mp4; +MediaFile mp3; +File srt; +Loudness measuredLoudness</p></span></div></foreignObject></g></g><g class="methods-group text" transform="translate(-295.27734375, 60)"/><g class="divider" style=""><path d="M-307.27734375 -12 C-125.3345987877392 -11.999703943768289, 56.60814617452161 -11.999407887536576, 307.27734375 -11.999 M-307.27734375 -12 C-114.95899410800229 -11.999687060641545, 77.35935553399543 -11.99937412128309, 307.27734375 -11.999" stroke="#9370DB" stroke-width="1.3" fill="none" stroke-dasharray="0 0" style=""/></g><g class="divider" style=""><path d="M-307.27734375 36 C-114.50494440977076 36.00031367818562, 78.26745493045848 36.00062735637124, 307.27734375 36.001 M-307.27734375 36 C-98.56458132425672 36.00033961625657, 110.14818110148656 36.000679232513136, 307.27734375 36.001" stroke="#9370DB" stroke-width="1.3" fill="none" stroke-dasharray="0 0" style=""/></g></g><g class="node default" id="my-svg-classId-ProjectDoc-9" data-look="classic" transform="translate(3099.42578125, 68)"><g class="basic label-container outer-path"><path d="M-288.484375 -60 L288.484375 -60 L288.484375 60 L-288.484375 60" stroke="none" stroke-width="0" fill="#ECECFF" style=""/><path d="M-288.484375 -60 C-160.9301772930618 -60, -33.375979586123606 -60, 288.484375 -60 M-288.484375 -60 C-161.50451252164993 -60, -34.52465004329986 -60, 288.484375 -60 M288.484375 -60 C288.484375 -23.631455262549593, 288.484375 12.737089474900813, 288.484375 60 M288.484375 -60 C288.484375 -19.817456918738216, 288.484375 20.365086162523568, 288.484375 60 M288.484375 60 C71.06479951653446 60, -146.35477596693107 60, -288.484375 60 M288.484375 60 C85.76979738880402 60, -116.94478022239196 60, -288.484375 60 M-288.484375 60 C-288.484375 12.81916235904039, -288.484375 -34.36167528191922, -288.484375 -60 M-288.484375 60 C-288.484375 14.615714787244741, -288.484375 -30.768570425510518, -288.484375 -60" stroke="#9370DB" stroke-width="1.3" fill="none" stroke-dasharray="0 0" style=""/></g><g class="annotation-group text" transform="translate(0, -36)"/><g class="label-group text" transform="translate(-42.234375, -36)"><g class="label" style="font-weight: bolder" transform="translate(0,-12)"><foreignObject width="84.46875" height="24"><div xmlns="http://www.w3.org/1999/xhtml" style="display: table-cell; white-space: nowrap; line-height: 1.5; max-width: 122px; text-align: center;"><span class="nodeLabel markdown-node-label" style=""><p>ProjectDoc</p></span></div></foreignObject></g></g><g class="members-group text" transform="translate(-276.484375, 12)"><g class="label" style="" transform="translate(0,-12)"><foreignObject width="510.734375" height="24"><div xmlns="http://www.w3.org/1999/xhtml" style="display: table-cell; white-space: nowrap; line-height: 1.5; max-width: 568px; text-align: center;"><span class="nodeLabel markdown-node-label" style=""><p>&lt;&gt; +String version; +Track[] tracks; +Clip[] clips; +String[] mediaHandles</p></span></div></foreignObject></g></g><g class="methods-group text" transform="translate(-276.484375, 60)"/><g class="divider" style=""><path d="M-288.484375 -12 C-120.37725476585635 -11.999708637391134, 47.7298654682873 -11.99941727478227, 288.484375 -11.999 M-288.484375 -12 C-146.89950788306467 -11.999754605657383, -5.314640766129344 -11.999509211314766, 288.484375 -11.999" stroke="#9370DB" stroke-width="1.3" fill="none" stroke-dasharray="0 0" style=""/></g><g class="divider" style=""><path d="M-288.484375 36 C-136.25971979903014 36.00026383518206, 15.964935401939726 36.00052767036412, 288.484375 36.001 M-288.484375 36 C-64.0795258561055 36.00038893761429, 160.325323287789 36.00077787522857, 288.484375 36.001" stroke="#9370DB" stroke-width="1.3" fill="none" stroke-dasharray="0 0" style=""/></g></g><g class="node default" id="my-svg-classId-SegmentModel-10" data-look="classic" transform="translate(3567.96875, 68)"><g class="basic label-container outer-path"><path d="M-130.05859375 -60 L130.05859375 -60 L130.05859375 60 L-130.05859375 60" stroke="none" stroke-width="0" fill="#ECECFF" style=""/><path d="M-130.05859375 -60 C-41.51386241730343 -60, 47.03086891539314 -60, 130.05859375 -60 M-130.05859375 -60 C-70.72982659673848 -60, -11.401059443476953 -60, 130.05859375 -60 M130.05859375 -60 C130.05859375 -12.4001601167232, 130.05859375 35.1996797665536, 130.05859375 60 M130.05859375 -60 C130.05859375 -12.140509055802305, 130.05859375 35.71898188839539, 130.05859375 60 M130.05859375 60 C51.49556470687919 60, -27.067464336241613 60, -130.05859375 60 M130.05859375 60 C30.6072595422186 60, -68.8440746655628 60, -130.05859375 60 M-130.05859375 60 C-130.05859375 25.743944545866462, -130.05859375 -8.512110908267076, -130.05859375 -60 M-130.05859375 60 C-130.05859375 33.477901367996644, -130.05859375 6.955802735993288, -130.05859375 -60" stroke="#9370DB" stroke-width="1.3" fill="none" stroke-dasharray="0 0" style=""/></g><g class="annotation-group text" transform="translate(0, -36)"/><g class="label-group text" transform="translate(-56.8984375, -36)"><g class="label" style="font-weight: bolder" transform="translate(0,-12)"><foreignObject width="113.796875" height="24"><div xmlns="http://www.w3.org/1999/xhtml" style="display: table-cell; white-space: nowrap; line-height: 1.5; max-width: 148px; text-align: center;"><span class="nodeLabel markdown-node-label" style=""><p>SegmentModel</p></span></div></foreignObject></g></g><g class="members-group text" transform="translate(-118.05859375, 12)"><g class="label" style="" transform="translate(0,-12)"><foreignObject width="179.21875" height="24"><div xmlns="http://www.w3.org/1999/xhtml" style="display: table-cell; white-space: nowrap; line-height: 1.5; max-width: 248px; text-align: center;"><span class="nodeLabel markdown-node-label" style=""><p>&lt;&gt; +Segment[] segments</p></span></div></foreignObject></g></g><g class="methods-group text" transform="translate(-118.05859375, 60)"/><g class="divider" style=""><path d="M-130.05859375 -12 C-32.08099728994128 -11.999623332862384, 65.89659917011744 -11.99924666572477, 130.05859375 -11.999 M-130.05859375 -12 C-58.26123660835593 -11.999723980726412, 13.536120533288141 -11.999447961452823, 130.05859375 -11.999" stroke="#9370DB" stroke-width="1.3" fill="none" stroke-dasharray="0 0" style=""/></g><g class="divider" style=""><path d="M-130.05859375 36 C-26.868960214322016 36.00039670440284, 76.32067332135597 36.00079340880568, 130.05859375 36.001 M-130.05859375 36 C-51.87995616792871 36.000300551602656, 26.298681414142578 36.00060110320531, 130.05859375 36.001" stroke="#9370DB" stroke-width="1.3" fill="none" stroke-dasharray="0 0" style=""/></g></g><g class="node default" id="my-svg-classId-Segment-11" data-look="classic" transform="translate(3567.96875, 238)"><g class="basic label-container outer-path"><path d="M-276.61328125 -60 L276.61328125 -60 L276.61328125 60 L-276.61328125 60" stroke="none" stroke-width="0" fill="#ECECFF" style=""/><path d="M-276.61328125 -60 C-148.53221173305585 -60, -20.45114221611169 -60, 276.61328125 -60 M-276.61328125 -60 C-124.35533040090209 -60, 27.90262044819582 -60, 276.61328125 -60 M276.61328125 -60 C276.61328125 -14.034164199060513, 276.61328125 31.931671601878975, 276.61328125 60 M276.61328125 -60 C276.61328125 -26.82434057135442, 276.61328125 6.351318857291162, 276.61328125 60 M276.61328125 60 C105.76212513696044 60, -65.08903097607913 60, -276.61328125 60 M276.61328125 60 C114.26928072717212 60, -48.07471979565577 60, -276.61328125 60 M-276.61328125 60 C-276.61328125 19.544640955148992, -276.61328125 -20.910718089702016, -276.61328125 -60 M-276.61328125 60 C-276.61328125 21.71356574690973, -276.61328125 -16.57286850618054, -276.61328125 -60" stroke="#9370DB" stroke-width="1.3" fill="none" stroke-dasharray="0 0" style=""/></g><g class="annotation-group text" transform="translate(0, -36)"/><g class="label-group text" transform="translate(-33.7890625, -36)"><g class="label" style="font-weight: bolder" transform="translate(0,-12)"><foreignObject width="67.578125" height="24"><div xmlns="http://www.w3.org/1999/xhtml" style="display: table-cell; white-space: nowrap; line-height: 1.5; max-width: 107px; text-align: center;"><span class="nodeLabel markdown-node-label" style=""><p>Segment</p></span></div></foreignObject></g></g><g class="members-group text" transform="translate(-264.61328125, 12)"><g class="label" style="" transform="translate(0,-12)"><foreignObject width="495.4375" height="24"><div xmlns="http://www.w3.org/1999/xhtml" style="display: table-cell; white-space: nowrap; line-height: 1.5; max-width: 543px; text-align: center;"><span class="nodeLabel markdown-node-label" style=""><p>&lt;&gt; +Duration start; +Duration end; +TagLabel tag; +SubSection[] subs</p></span></div></foreignObject></g></g><g class="methods-group text" transform="translate(-264.61328125, 60)"/><g class="divider" style=""><path d="M-276.61328125 -12 C-86.71710666531786 -11.99965674790862, 103.17906791936429 -11.999313495817242, 276.61328125 -11.999 M-276.61328125 -12 C-135.17109360279048 -11.99974433225511, 6.271094044419044 -11.999488664510222, 276.61328125 -11.999" stroke="#9370DB" stroke-width="1.3" fill="none" stroke-dasharray="0 0" style=""/></g><g class="divider" style=""><path d="M-276.61328125 36 C-131.01057904108575 36.000263188198254, 14.592123167828504 36.0005263763965, 276.61328125 36.001 M-276.61328125 36 C-92.34785191421344 36.00033307408181, 91.91757742157313 36.00066614816361, 276.61328125 36.001" stroke="#9370DB" stroke-width="1.3" fill="none" stroke-dasharray="0 0" style=""/></g></g></g></g></g><defs><filter id="my-svg-drop-shadow" height="130%" width="130%"><feDropShadow dx="4" dy="4" stdDeviation="0" flood-opacity="0.06" flood-color="#000000"/></filter></defs><defs><filter id="my-svg-drop-shadow-small" height="150%" width="150%"><feDropShadow dx="2" dy="2" stdDeviation="0" flood-opacity="0.06" flood-color="#000000"/></filter></defs></svg>