<svg id="my-svg" width="100%" xmlns="http://www.w3.org/2000/svg" xmlns:xlink="http://www.w3.org/1999/xlink" class="classDiagram" style="max-width: 2677.55px; background-color: white;" viewBox="0 0 2677.546875 136" role="graphics-document document" aria-roledescription="class"><style>#my-svg{font-family:"trebuchet ms",verdana,arial,sans-serif;font-size:16px;fill:#333;}@keyframes edge-animation-frame{from{stroke-dashoffset:0;}}@keyframes dash{to{stroke-dashoffset:0;}}#my-svg .edge-animation-slow{stroke-dasharray:9,5!important;stroke-dashoffset:900;animation:dash 50s linear infinite;stroke-linecap:round;}#my-svg .edge-animation-fast{stroke-dasharray:9,5!important;stroke-dashoffset:900;animation:dash 20s linear infinite;stroke-linecap:round;}#my-svg .error-icon{fill:#552222;}#my-svg .error-text{fill:#552222;stroke:#552222;}#my-svg .edge-thickness-normal{stroke-width:1px;}#my-svg .edge-thickness-thick{stroke-width:3.5px;}#my-svg .edge-pattern-solid{stroke-dasharray:0;}#my-svg .edge-thickness-invisible{stroke-width:0;fill:none;}#my-svg .edge-pattern-dashed{stroke-dasharray:3;}#my-svg .edge-pattern-dotted{stroke-dasharray:2;}#my-svg .marker{fill:#333333;stroke:#333333;}#my-svg .marker.cross{stroke:#333333;}#my-svg svg{font-family:"trebuchet ms",verdana,arial,sans-serif;font-size:16px;}#my-svg p{margin:0;}#my-svg g.classGroup text{fill:#9370DB;stroke:none;font-family:"trebuchet ms",verdana,arial,sans-serif;font-size:10px;}#my-svg g.classGroup text .title{font-weight:bolder;}#my-svg .cluster-label text{fill:#333;}#my-svg .cluster-label span{color:#333;}#my-svg .cluster-label span p{background-color:transparent;}#my-svg .cluster rect{fill:#ffffde;stroke:#aaaa33;stroke-width:1px;}#my-svg .cluster text{fill:#333;}#my-svg .cluster span{color:#333;}#my-svg .nodeLabel,#my-svg .edgeLabel{color:#131300;}#my-svg .noteLabel .nodeLabel,#my-svg .noteLabel .edgeLabel{color:black;}#my-svg .edgeLabel .label rect{fill:#ECECFF;}#my-svg .label text{fill:#131300;}#my-svg .labelBkg{background:#ECECFF;}#my-svg .edgeLabel .label span{background:#ECECFF;}#my-svg .classTitle{font-weight:bolder;}#my-svg .node rect,#my-svg .node circle,#my-svg .node ellipse,#my-svg .node polygon,#my-svg .node path{fill:#ECECFF;stroke:#9370DB;stroke-width:1;}#my-svg .divider{stroke:#9370DB;stroke-width:1;}#my-svg g.clickable{cursor:pointer;}#my-svg g.classGroup rect{fill:#ECECFF;stroke:#9370DB;}#my-svg g.classGroup line{stroke:#9370DB;stroke-width:1;}#my-svg .classLabel .box{stroke:none;stroke-width:0;fill:#ECECFF;opacity:0.5;}#my-svg .classLabel .label{fill:#9370DB;font-size:10px;}#my-svg .relation{stroke:#333333;stroke-width:1;fill:none;}#my-svg .dashed-line{stroke-dasharray:3;}#my-svg .dotted-line{stroke-dasharray:1 2;}#my-svg [id$="-compositionStart"],#my-svg .composition{fill:#333333!important;stroke:#333333!important;stroke-width:1;}#my-svg [id$="-compositionEnd"],#my-svg .composition{fill:#333333!important;stroke:#333333!important;stroke-width:1;}#my-svg [id$="-dependencyStart"],#my-svg .dependency{fill:#333333!important;stroke:#333333!important;stroke-width:1;}#my-svg [id$="-dependencyEnd"],#my-svg .dependency{fill:#333333!important;stroke:#333333!important;stroke-width:1;}#my-svg [id$="-extensionStart"],#my-svg .extension{fill:transparent!important;stroke:#333333!important;stroke-width:1;}#my-svg [id$="-extensionEnd"],#my-svg .extension{fill:transparent!important;stroke:#333333!important;stroke-width:1;}#my-svg [id$="-aggregationStart"],#my-svg .aggregation{fill:transparent!important;stroke:#333333!important;stroke-width:1;}#my-svg [id$="-aggregationEnd"],#my-svg .aggregation{fill:transparent!important;stroke:#333333!important;stroke-width:1;}#my-svg [id$="-lollipopStart"],#my-svg .lollipop{fill:#ECECFF!important;stroke:#333333!important;stroke-width:1;}#my-svg [id$="-lollipopEnd"],#my-svg .lollipop{fill:#ECECFF!important;stroke:#333333!important;stroke-width:1;}#my-svg .edgeTerminals{font-size:11px;line-height:initial;}#my-svg .classTitleText{text-anchor:middle;font-size:18px;fill:#333;}#my-svg .edgeLabel[data-look="neo"]{background-color:rgba(232,232,232, 0.8);text-align:center;}#my-svg .edgeLabel[data-look="neo"] p{background-color:rgba(232,232,232, 0.8);}#my-svg .edgeLabel[data-look="neo"] rect{opacity:0.5;background-color:rgba(232,232,232, 0.8);fill:rgba(232,232,232, 0.8);}#my-svg .label-icon{display:inline-block;height:1em;overflow:visible;vertical-align:-0.125em;}#my-svg .node .label-icon path{fill:currentColor;stroke:revert;stroke-width:revert;}#my-svg .node .neo-node{stroke:#9370DB;}#my-svg [data-look="neo"].node rect,#my-svg [data-look="neo"].cluster rect,#my-svg [data-look="neo"].node polygon{stroke:#9370DB;filter:drop-shadow(1px 2px 2px rgba(185, 185, 185, 1));}#my-svg [data-look="neo"].node path{stroke:#9370DB;stroke-width:1px;}#my-svg [data-look="neo"].node .outer-path{filter:drop-shadow(1px 2px 2px rgba(185, 185, 185, 1));}#my-svg [data-look="neo"].node .neo-line path{stroke:#9370DB;filter:none;}#my-svg [data-look="neo"].node circle{stroke:#9370DB;filter:drop-shadow(1px 2px 2px rgba(185, 185, 185, 1));}#my-svg [data-look="neo"].node circle .state-start{fill:#000000;}#my-svg [data-look="neo"].icon-shape .icon{fill:#9370DB;filter:drop-shadow(1px 2px 2px rgba(185, 185, 185, 1));}#my-svg [data-look="neo"].icon-shape .icon-neo path{stroke:#9370DB;filter:drop-shadow(1px 2px 2px rgba(185, 185, 185, 1));}#my-svg :root{--mermaid-font-family:"trebuchet ms",verdana,arial,sans-serif;}</style><g><defs><marker id="my-svg_class-aggregationStart" class="marker aggregation class" refX="18" refY="7" markerWidth="190" markerHeight="240" orient="auto"><path d="M 18,7 L9,13 L1,7 L9,1 Z"/></marker></defs><defs><marker id="my-svg_class-aggregationEnd" class="marker aggregation class" refX="1" refY="7" markerWidth="20" markerHeight="28" orient="auto"><path d="M 18,7 L9,13 L1,7 L9,1 Z"/></marker></defs><defs><marker id="my-svg_class-aggregationStart-margin" class="marker aggregation class" refX="15" refY="7" markerWidth="190" markerHeight="240" orient="auto" markerUnits="userSpaceOnUse"><path d="M 18,7 L9,13 L1,7 L9,1 Z" style="stroke-width: 2;"/></marker></defs><defs><marker id="my-svg_class-aggregationEnd-margin" class="marker aggregation class" refX="1" refY="7" markerWidth="20" markerHeight="28" orient="auto" markerUnits="userSpaceOnUse"><path d="M 18,7 L9,13 L1,7 L9,1 Z" style="stroke-width: 2;"/></marker></defs><defs><marker id="my-svg_class-extensionStart" class="marker extension class" refX="18" refY="7" markerWidth="20" markerHeight="28" orient="auto" markerUnits="userSpaceOnUse"><path d="M 1,7 L18,13 V 1 Z"/></marker></defs><defs><marker id="my-svg_class-extensionEnd" class="marker extension class" refX="1" refY="7" markerWidth="20" markerHeight="28" orient="auto"><path d="M 1,1 V 13 L18,7 Z"/></marker></defs><marker id="my-svg_class-extensionStart-margin" class="marker extension class" refX="18" refY="7" markerWidth="20" markerHeight="28" orient="auto" markerUnits="userSpaceOnUse" viewBox="0 0 20 14"><polygon points="10,7 18,13 18,1" style="stroke-width: 2; stroke-dasharray: 0;"/></marker><defs><marker id="my-svg_class-extensionEnd-margin" class="marker extension class" refX="9" refY="7" markerWidth="20" markerHeight="28" orient="auto" markerUnits="userSpaceOnUse" viewBox="0 0 20 14"><polygon points="10,1 10,13 18,7" style="stroke-width: 2; stroke-dasharray: 0;"/></marker></defs><defs><marker id="my-svg_class-compositionStart" class="marker composition class" refX="18" refY="7" markerWidth="190" markerHeight="240" orient="auto"><path d="M 18,7 L9,13 L1,7 L9,1 Z"/></marker></defs><defs><marker id="my-svg_class-compositionEnd" class="marker composition class" refX="1" refY="7" markerWidth="20" markerHeight="28" orient="auto"><path d="M 18,7 L9,13 L1,7 L9,1 Z"/></marker></defs><defs><marker id="my-svg_class-compositionStart-margin" class="marker composition class" refX="15" refY="7" markerWidth="190" markerHeight="240" orient="auto" markerUnits="userSpaceOnUse"><path viewBox="0 0 15 15" d="M 18,7 L9,13 L1,7 L9,1 Z" style="stroke-width: 0;"/></marker></defs><defs><marker id="my-svg_class-compositionEnd-margin" class="marker composition class" refX="3.5" refY="7" markerWidth="20" markerHeight="28" orient="auto" markerUnits="userSpaceOnUse"><path d="M 18,7 L9,13 L1,7 L9,1 Z" style="stroke-width: 0;"/></marker></defs><defs><marker id="my-svg_class-dependencyStart" class="marker dependency class" refX="6" refY="7" markerWidth="190" markerHeight="240" orient="auto"><path d="M 5,7 L9,13 L1,7 L9,1 Z"/></marker></defs><defs><marker id="my-svg_class-dependencyEnd" class="marker dependency class" refX="13" refY="7" markerWidth="20" markerHeight="28" orient="auto"><path d="M 18,7 L9,13 L14,7 L9,1 Z"/></marker></defs><defs><marker id="my-svg_class-dependencyStart-margin" class="marker dependency class" refX="4" refY="7" markerWidth="190" markerHeight="240" orient="auto" markerUnits="userSpaceOnUse"><path d="M 5,7 L9,13 L1,7 L9,1 Z" style="stroke-width: 0;"/></marker></defs><defs><marker id="my-svg_class-dependencyEnd-margin" class="marker dependency class" refX="16" refY="7" markerWidth="20" markerHeight="28" orient="auto" markerUnits="userSpaceOnUse"><path d="M 18,7 L9,13 L14,7 L9,1 Z" style="stroke-width: 0;"/></marker></defs><defs><marker id="my-svg_class-lollipopStart" class="marker lollipop class" refX="13" refY="7" markerWidth="190" markerHeight="240" orient="auto"><circle fill="transparent" cx="7" cy="7" r="6"/></marker></defs><defs><marker id="my-svg_class-lollipopEnd" class="marker lollipop class" refX="1" refY="7" markerWidth="190" markerHeight="240" orient="auto"><circle fill="transparent" cx="7" cy="7" r="6"/></marker></defs><defs><marker id="my-svg_class-lollipopStart-margin" class="marker lollipop class" refX="13" refY="7" markerWidth="190" markerHeight="240" orient="auto" markerUnits="userSpaceOnUse"><circle fill="transparent" cx="7" cy="7" r="6" stroke-width="2"/></marker></defs><defs><marker id="my-svg_class-lollipopEnd-margin" class="marker lollipop class" refX="1" refY="7" markerWidth="190" markerHeight="240" orient="auto" markerUnits="userSpaceOnUse"><circle fill="transparent" cx="7" cy="7" r="6" stroke-width="2"/></marker></defs><g class="root"><g class="clusters"/><g class="edgePaths"/><g class="edgeLabels"/><g class="nodes"><g class="node default" id="my-svg-classId-Duration-0" data-look="classic" transform="translate(120.9453125, 68)"><g class="basic label-container outer-path"><path d="M-112.9453125 -60 L112.9453125 -60 L112.9453125 60 L-112.9453125 60" stroke="none" stroke-width="0" fill="#ECECFF" style=""/><path d="M-112.9453125 -60 C-29.565854506415334 -60, 53.81360348716933 -60, 112.9453125 -60 M-112.9453125 -60 C-36.589704157886885 -60, 39.76590418422623 -60, 112.9453125 -60 M112.9453125 -60 C112.9453125 -12.523722829534435, 112.9453125 34.95255434093113, 112.9453125 60 M112.9453125 -60 C112.9453125 -14.471212717582716, 112.9453125 31.057574564834567, 112.9453125 60 M112.9453125 60 C55.87358120055169 60, -1.198150098896619 60, -112.9453125 60 M112.9453125 60 C63.273999811765584 60, 13.602687123531169 60, -112.9453125 60 M-112.9453125 60 C-112.9453125 27.240127618491634, -112.9453125 -5.519744763016732, -112.9453125 -60 M-112.9453125 60 C-112.9453125 29.239032037205014, -112.9453125 -1.5219359255899718, -112.9453125 -60" stroke="#9370DB" stroke-width="1.3" fill="none" stroke-dasharray="0 0" style=""/></g><g class="annotation-group text" transform="translate(0, -36)"/><g class="label-group text" transform="translate(-32.890625, -36)"><g class="label" style="font-weight: bolder" transform="translate(0,-12)"><foreignObject width="65.78125" height="24"><div xmlns="http://www.w3.org/1999/xhtml" style="display: table-cell; white-space: nowrap; line-height: 1.5; max-width: 107px; text-align: center;"><span class="nodeLabel markdown-node-label" style=""><p>Duration</p></span></div></foreignObject></g></g><g class="members-group text" transform="translate(-100.9453125, 12)"><g class="label" style="" transform="translate(0,-12)"><foreignObject width="169" height="24"><div xmlns="http://www.w3.org/1999/xhtml" style="display: table-cell; white-space: nowrap; line-height: 1.5; max-width: 243px; text-align: center;"><span class="nodeLabel markdown-node-label" style=""><p>&lt;&gt; +Real value; unit = s</p></span></div></foreignObject></g></g><g class="methods-group text" transform="translate(-100.9453125, 60)"/><g class="divider" style=""><path d="M-112.9453125 -12 C-33.37754135459669 -11.999647759745915, 46.190229790806626 -11.999295519491831, 112.9453125 -11.999 M-112.9453125 -12 C-48.26358672893814 -11.999713659095985, 16.418139042123727 -11.99942731819197, 112.9453125 -11.999" stroke="#9370DB" stroke-width="1.3" fill="none" stroke-dasharray="0 0" style=""/></g><g class="divider" style=""><path d="M-112.9453125 36 C-63.03881077785306 36.00022093215122, -13.132309055706116 36.000441864302445, 112.9453125 36.001 M-112.9453125 36 C-40.41611758239809 36.00032108103166, 32.113077335203826 36.00064216206332, 112.9453125 36.001" stroke="#9370DB" stroke-width="1.3" fill="none" stroke-dasharray="0 0" style=""/></g></g><g class="node default" id="my-svg-classId-Loudness-1" data-look="classic" transform="translate(415.734375, 68)"><g class="basic label-container outer-path"><path d="M-131.84375 -60 L131.84375 -60 L131.84375 60 L-131.84375 60" stroke="none" stroke-width="0" fill="#ECECFF" style=""/><path d="M-131.84375 -60 C-64.95943854063584 -60, 1.9248729187283118 -60, 131.84375 -60 M-131.84375 -60 C-50.03691368677755 -60, 31.769922626444895 -60, 131.84375 -60 M131.84375 -60 C131.84375 -34.97131877411242, 131.84375 -9.942637548224837, 131.84375 60 M131.84375 -60 C131.84375 -26.014522262564768, 131.84375 7.970955474870465, 131.84375 60 M131.84375 60 C77.69179618732738 60, 23.539842374654754 60, -131.84375 60 M131.84375 60 C61.882929243255404 60, -8.077891513489192 60, -131.84375 60 M-131.84375 60 C-131.84375 29.65715921284787, -131.84375 -0.6856815743042617, -131.84375 -60 M-131.84375 60 C-131.84375 20.642931536923378, -131.84375 -18.714136926153245, -131.84375 -60" stroke="#9370DB" stroke-width="1.3" fill="none" stroke-dasharray="0 0" style=""/></g><g class="annotation-group text" transform="translate(0, -36)"/><g class="label-group text" transform="translate(-37.78125, -36)"><g class="label" style="font-weight: bolder" transform="translate(0,-12)"><foreignObject width="75.5625" height="24"><div xmlns="http://www.w3.org/1999/xhtml" style="display: table-cell; white-space: nowrap; line-height: 1.5; max-width: 111px; text-align: center;"><span class="nodeLabel markdown-node-label" style=""><p>Loudness</p></span></div></foreignObject></g></g><g class="members-group text" transform="translate(-119.84375, 12)"><g class="label" style="" transform="translate(0,-12)"><foreignObject width="201.90625" height="24"><div xmlns="http://www.w3.org/1999/xhtml" style="display: table-cell; white-space: nowrap; line-height: 1.5; max-width: 276px; text-align: center;"><span class="nodeLabel markdown-node-label" style=""><p>&lt;&gt; +Real value; unit = LUFS</p></span></div></foreignObject></g></g><g class="methods-group text" transform="translate(-119.84375, 60)"/><g class="divider" style=""><path d="M-131.84375 -12 C-39.641764346634744 -11.99965033615301, 52.56022130673051 -11.999300672306019, 131.84375 -11.999 M-131.84375 -12 C-49.949146150941075 -11.99968942553648, 31.94545769811785 -11.999378851072963, 131.84375 -11.999" stroke="#9370DB" stroke-width="1.3" fill="none" stroke-dasharray="0 0" style=""/></g><g class="divider" style=""><path d="M-131.84375 36 C-49.92464679150309 36.0003106673741, 31.994456416993813 36.0006213347482, 131.84375 36.001 M-131.84375 36 C-72.89092308847191 36.000223570806014, -13.938096176943802 36.000447141612035, 131.84375 36.001" stroke="#9370DB" stroke-width="1.3" fill="none" stroke-dasharray="0 0" style=""/></g></g><g class="node default" id="my-svg-classId-TruePeak-2" data-look="classic" transform="translate(727.875, 68)"><g class="basic label-container outer-path"><path d="M-130.296875 -60 L130.296875 -60 L130.296875 60 L-130.296875 60" stroke="none" stroke-width="0" fill="#ECECFF" style=""/><path d="M-130.296875 -60 C-55.0618241042135 -60, 20.173226791573 -60, 130.296875 -60 M-130.296875 -60 C-76.46945577877085 -60, -22.642036557541715 -60, 130.296875 -60 M130.296875 -60 C130.296875 -28.954875985791446, 130.296875 2.0902480284171077, 130.296875 60 M130.296875 -60 C130.296875 -26.358455676534966, 130.296875 7.283088646930068, 130.296875 60 M130.296875 60 C54.758314720158566 60, -20.780245559682868 60, -130.296875 60 M130.296875 60 C46.20699123886729 60, -37.88289252226542 60, -130.296875 60 M-130.296875 60 C-130.296875 12.891674537739554, -130.296875 -34.21665092452089, -130.296875 -60 M-130.296875 60 C-130.296875 28.059837753068578, -130.296875 -3.880324493862844, -130.296875 -60" stroke="#9370DB" stroke-width="1.3" fill="none" stroke-dasharray="0 0" style=""/></g><g class="annotation-group text" transform="translate(0, -36)"/><g class="label-group text" transform="translate(-35.578125, -36)"><g class="label" style="font-weight: bolder" transform="translate(0,-12)"><foreignObject width="71.15625" height="24"><div xmlns="http://www.w3.org/1999/xhtml" style="display: table-cell; white-space: nowrap; line-height: 1.5; max-width: 111px; text-align: center;"><span class="nodeLabel markdown-node-label" style=""><p>TruePeak</p></span></div></foreignObject></g></g><g class="members-group text" transform="translate(-118.296875, 12)"><g class="label" style="" transform="translate(0,-12)"><foreignObject width="201.015625" height="24"><div xmlns="http://www.w3.org/1999/xhtml" style="display: table-cell; white-space: nowrap; line-height: 1.5; max-width: 274px; text-align: center;"><span class="nodeLabel markdown-node-label" style=""><p>&lt;&gt; +Real value; unit = dBTP</p></span></div></foreignObject></g></g><g class="methods-group text" transform="translate(-118.296875, 60)"/><g class="divider" style=""><path d="M-130.296875 -12 C-41.6935084678249 -11.999659994276408, 46.9098580643502 -11.999319988552818, 130.296875 -11.999 M-130.296875 -12 C-49.51916271278472 -11.999690024368247, 31.25854957443056 -11.999380048736494, 130.296875 -11.999" stroke="#9370DB" stroke-width="1.3" fill="none" stroke-dasharray="0 0" style=""/></g><g class="divider" style=""><path d="M-130.296875 36 C-59.52822516395203 36.00027156694984, 11.24042467209594 36.00054313389969, 130.296875 36.001 M-130.296875 36 C-68.99571837721825 36.00023523648063, -7.694561754436492 36.00047047296125, 130.296875 36.001" stroke="#9370DB" stroke-width="1.3" fill="none" stroke-dasharray="0 0" style=""/></g></g><g class="node default" id="my-svg-classId-SyncError-3" data-look="classic" transform="translate(1030.6796875, 68)"><g class="basic label-container outer-path"><path d="M-122.5078125 -60 L122.5078125 -60 L122.5078125 60 L-122.5078125 60" stroke="none" stroke-width="0" fill="#ECECFF" style=""/><path d="M-122.5078125 -60 C-37.10695986675995 -60, 48.2938927664801 -60, 122.5078125 -60 M-122.5078125 -60 C-71.71702131327835 -60, -20.926230126556703 -60, 122.5078125 -60 M122.5078125 -60 C122.5078125 -19.960106867276295, 122.5078125 20.07978626544741, 122.5078125 60 M122.5078125 -60 C122.5078125 -28.554043037638827, 122.5078125 2.8919139247223455, 122.5078125 60 M122.5078125 60 C50.866194546976146 60, -20.775423406047707 60, -122.5078125 60 M122.5078125 60 C49.82655148686595 60, -22.854709526268095 60, -122.5078125 60 M-122.5078125 60 C-122.5078125 16.160655501272444, -122.5078125 -27.67868899745511, -122.5078125 -60 M-122.5078125 60 C-122.5078125 12.531258890146674, -122.5078125 -34.93748221970665, -122.5078125 -60" stroke="#9370DB" stroke-width="1.3" fill="none" stroke-dasharray="0 0" style=""/></g><g class="annotation-group text" transform="translate(0, -36)"/><g class="label-group text" transform="translate(-38.6875, -36)"><g class="label" style="font-weight: bolder" transform="translate(0,-12)"><foreignObject width="77.375" height="24"><div xmlns="http://www.w3.org/1999/xhtml" style="display: table-cell; white-space: nowrap; line-height: 1.5; max-width: 116px; text-align: center;"><span class="nodeLabel markdown-node-label" style=""><p>SyncError</p></span></div></foreignObject></g></g><g class="members-group text" transform="translate(-110.5078125, 12)"><g class="label" style="" transform="translate(0,-12)"><foreignObject width="182.328125" height="24"><div xmlns="http://www.w3.org/1999/xhtml" style="display: table-cell; white-space: nowrap; line-height: 1.5; max-width: 255px; text-align: center;"><span class="nodeLabel markdown-node-label" style=""><p>&lt;&gt; +Real value; unit = ms</p></span></div></foreignObject></g></g><g class="methods-group text" transform="translate(-110.5078125, 60)"/><g class="divider" style=""><path d="M-122.5078125 -12 C-49.75967801065521 -11.999703087774547, 22.988456478689585 -11.999406175549096, 122.5078125 -11.999 M-122.5078125 -12 C-72.14927290315964 -11.999794468048327, -21.790733306319268 -11.999588936096652, 122.5078125 -11.999" stroke="#9370DB" stroke-width="1.3" fill="none" stroke-dasharray="0 0" style=""/></g><g class="divider" style=""><path d="M-122.5078125 36 C-64.4444663494318 36.00023697813619, -6.381120198863613 36.00047395627239, 122.5078125 36.001 M-122.5078125 36 C-72.70310312221986 36.000203271564324, -22.8983937444397 36.00040654312865, 122.5078125 36.001" stroke="#9370DB" stroke-width="1.3" fill="none" stroke-dasharray="0 0" style=""/></g></g><g class="node default" id="my-svg-classId-DataSize-4" data-look="classic" transform="translate(1335.94140625, 68)"><g class="basic label-container outer-path"><path d="M-132.75390625 -60 L132.75390625 -60 L132.75390625 60 L-132.75390625 60" stroke="none" stroke-width="0" fill="#ECECFF" style=""/><path d="M-132.75390625 -60 C-53.070368518497006 -60, 26.61316921300599 -60, 132.75390625 -60 M-132.75390625 -60 C-59.54365637354516 -60, 13.666593502909677 -60, 132.75390625 -60 M132.75390625 -60 C132.75390625 -33.50656152377326, 132.75390625 -7.013123047546507, 132.75390625 60 M132.75390625 -60 C132.75390625 -14.151180446443036, 132.75390625 31.69763910711393, 132.75390625 60 M132.75390625 60 C76.84788755458904 60, 20.941868859178072 60, -132.75390625 60 M132.75390625 60 C48.715221892647904 60, -35.32346246470419 60, -132.75390625 60 M-132.75390625 60 C-132.75390625 34.17355888442272, -132.75390625 8.347117768845429, -132.75390625 -60 M-132.75390625 60 C-132.75390625 34.463321526828835, -132.75390625 8.92664305365767, -132.75390625 -60" stroke="#9370DB" stroke-width="1.3" fill="none" stroke-dasharray="0 0" style=""/></g><g class="annotation-group text" transform="translate(0, -36)"/><g class="label-group text" transform="translate(-33.3515625, -36)"><g class="label" style="font-weight: bolder" transform="translate(0,-12)"><foreignObject width="66.703125" height="24"><div xmlns="http://www.w3.org/1999/xhtml" style="display: table-cell; white-space: nowrap; line-height: 1.5; max-width: 108px; text-align: center;"><span class="nodeLabel markdown-node-label" style=""><p>DataSize</p></span></div></foreignObject></g></g><g class="members-group text" transform="translate(-120.75390625, 12)"><g class="label" style="" transform="translate(0,-12)"><foreignObject width="208.15625" height="24"><div xmlns="http://www.w3.org/1999/xhtml" style="display: table-cell; white-space: nowrap; line-height: 1.5; max-width: 280px; text-align: center;"><span class="nodeLabel markdown-node-label" style=""><p>&lt;&gt; +Integer value; unit = byte</p></span></div></foreignObject></g></g><g class="methods-group text" transform="translate(-120.75390625, 60)"/><g class="divider" style=""><path d="M-132.75390625 -12 C-72.83798338964044 -11.999774334614504, -12.92206052928087 -11.999548669229005, 132.75390625 -11.999 M-132.75390625 -12 C-60.037878180002934 -11.999726124714051, 12.678149889994131 -11.999452249428103, 132.75390625 -11.999" stroke="#9370DB" stroke-width="1.3" fill="none" stroke-dasharray="0 0" style=""/></g><g class="divider" style=""><path d="M-132.75390625 36 C-55.89749193889105 36.000289469502185, 20.9589223722179 36.00057893900437, 132.75390625 36.001 M-132.75390625 36 C-44.81973486550696 36.00033119240657, 43.11443651898608 36.00066238481313, 132.75390625 36.001" stroke="#9370DB" stroke-width="1.3" fill="none" stroke-dasharray="0 0" style=""/></g></g><g class="node default" id="my-svg-classId-TransitionKind-5" data-look="classic" transform="translate(1753.9140625, 68)"><g class="basic label-container outer-path"><path d="M-235.21875 -60 L235.21875 -60 L235.21875 60 L-235.21875 60" stroke="none" stroke-width="0" fill="#ECECFF" style=""/><path d="M-235.21875 -60 C-89.24894435465367 -60, 56.72086129069265 -60, 235.21875 -60 M-235.21875 -60 C-63.27671754857499 -60, 108.66531490285001 -60, 235.21875 -60 M235.21875 -60 C235.21875 -17.113088683787105, 235.21875 25.77382263242579, 235.21875 60 M235.21875 -60 C235.21875 -19.80415718077934, 235.21875 20.391685638441317, 235.21875 60 M235.21875 60 C56.22912896982402 60, -122.76049206035196 60, -235.21875 60 M235.21875 60 C75.69279892509601 60, -83.83315214980797 60, -235.21875 60 M-235.21875 60 C-235.21875 16.739468226356806, -235.21875 -26.52106354728639, -235.21875 -60 M-235.21875 60 C-235.21875 32.389703784025606, -235.21875 4.779407568051212, -235.21875 -60" stroke="#9370DB" stroke-width="1.3" fill="none" stroke-dasharray="0 0" style=""/></g><g class="annotation-group text" transform="translate(0, -36)"/><g class="label-group text" transform="translate(-56, -36)"><g class="label" style="font-weight: bolder" transform="translate(0,-12)"><foreignObject width="112" height="24"><div xmlns="http://www.w3.org/1999/xhtml" style="display: table-cell; white-space: nowrap; line-height: 1.5; max-width: 147px; text-align: center;"><span class="nodeLabel markdown-node-label" style=""><p>TransitionKind</p></span></div></foreignObject></g></g><g class="members-group text" transform="translate(-223.21875, 12)"><g class="label" style="" transform="translate(0,-12)"><foreignObject width="390.4375" height="24"><div xmlns="http://www.w3.org/1999/xhtml" style="display: table-cell; white-space: nowrap; line-height: 1.5; max-width: 442px; text-align: center;"><span class="nodeLabel markdown-node-label" style=""><p>&lt;&gt; none crossfade dissolve fade wipe slide circle radial</p></span></div></foreignObject></g></g><g class="methods-group text" transform="translate(-223.21875, 60)"/><g class="divider" style=""><path d="M-235.21875 -12 C-130.53825490883804 -11.999777482672851, -25.85775981767611 -11.9995549653457, 235.21875 -11.999 M-235.21875 -12 C-115.7131150049045 -11.99974596915638, 3.7925199901910105 -11.999491938312762, 235.21875 -11.999" stroke="#9370DB" stroke-width="1.3" fill="none" stroke-dasharray="0 0" style=""/></g><g class="divider" style=""><path d="M-235.21875 36 C-114.48583528921557 36.00025663964865, 6.247079421568856 36.000513279297294, 235.21875 36.001 M-235.21875 36 C-87.82670756288655 36.00031330844679, 59.56533487422689 36.00062661689358, 235.21875 36.001" stroke="#9370DB" stroke-width="1.3" fill="none" stroke-dasharray="0 0" style=""/></g></g><g class="node default" id="my-svg-classId-Status-6" data-look="classic" transform="translate(2122.0703125, 68)"><g class="basic label-container outer-path"><path d="M-82.9375 -60 L82.9375 -60 L82.9375 60 L-82.9375 60" stroke="none" stroke-width="0" fill="#ECECFF" style=""/><path d="M-82.9375 -60 C-46.37646154745118 -60, -9.815423094902357 -60, 82.9375 -60 M-82.9375 -60 C-18.072004500131087 -60, 46.79349099973783 -60, 82.9375 -60 M82.9375 -60 C82.9375 -33.17590906863532, 82.9375 -6.351818137270641, 82.9375 60 M82.9375 -60 C82.9375 -18.847388224910468, 82.9375 22.305223550179065, 82.9375 60 M82.9375 60 C25.73601485002284 60, -31.46547029995432 60, -82.9375 60 M82.9375 60 C23.590325867127767 60, -35.756848265744466 60, -82.9375 60 M-82.9375 60 C-82.9375 24.43267354203048, -82.9375 -11.134652915939043, -82.9375 -60 M-82.9375 60 C-82.9375 34.09508014995805, -82.9375 8.190160299916094, -82.9375 -60" stroke="#9370DB" stroke-width="1.3" fill="none" stroke-dasharray="0 0" style=""/></g><g class="annotation-group text" transform="translate(0, -36)"/><g class="label-group text" transform="translate(-24.453125, -36)"><g class="label" style="font-weight: bolder" transform="translate(0,-12)"><foreignObject width="48.90625" height="24"><div xmlns="http://www.w3.org/1999/xhtml" style="display: table-cell; white-space: nowrap; line-height: 1.5; max-width: 89px; text-align: center;"><span class="nodeLabel markdown-node-label" style=""><p>Status</p></span></div></foreignObject></g></g><g class="members-group text" transform="translate(-70.9375, 12)"><g class="label" style="" transform="translate(0,-12)"><foreignObject width="117.421875" height="24"><div xmlns="http://www.w3.org/1999/xhtml" style="display: table-cell; white-space: nowrap; line-height: 1.5; max-width: 197px; text-align: center;"><span class="nodeLabel markdown-node-label" style=""><p>&lt;&gt; Built Planned</p></span></div></foreignObject></g></g><g class="methods-group text" transform="translate(-70.9375, 60)"/><g class="divider" style=""><path d="M-82.9375 -12 C-42.3818650857666 -11.999755504838497, -1.8262301715331972 -11.999511009676995, 82.9375 -11.999 M-82.9375 -12 C-26.18681710359038 -11.99965787078887, 30.563865792819243 -11.999315741577737, 82.9375 -11.999" stroke="#9370DB" stroke-width="1.3" fill="none" stroke-dasharray="0 0" style=""/></g><g class="divider" style=""><path d="M-82.9375 36 C-30.902662106957003 36.00031369909807, 21.132175786085995 36.000627398196144, 82.9375 36.001 M-82.9375 36 C-31.840565790907952 36.00030804481814, 19.256368418184096 36.00061608963628, 82.9375 36.001" stroke="#9370DB" stroke-width="1.3" fill="none" stroke-dasharray="0 0" style=""/></g></g><g class="node default" id="my-svg-classId-VerificationMethodKind-7" data-look="classic" transform="translate(2462.27734375, 68)"><g class="basic label-container outer-path"><path d="M-207.26953125 -60 L207.26953125 -60 L207.26953125 60 L-207.26953125 60" stroke="none" stroke-width="0" fill="#ECECFF" style=""/><path d="M-207.26953125 -60 C-56.81312005251138 -60, 93.64329114497724 -60, 207.26953125 -60 M-207.26953125 -60 C-112.03761612077473 -60, -16.805700991549458 -60, 207.26953125 -60 M207.26953125 -60 C207.26953125 -29.65090368449961, 207.26953125 0.6981926310007793, 207.26953125 60 M207.26953125 -60 C207.26953125 -25.820186890835757, 207.26953125 8.359626218328486, 207.26953125 60 M207.26953125 60 C64.53409831600376 60, -78.20133461799247 60, -207.26953125 60 M207.26953125 60 C47.64223716740844 60, -111.98505691518312 60, -207.26953125 60 M-207.26953125 60 C-207.26953125 14.77351843952323, -207.26953125 -30.45296312095354, -207.26953125 -60 M-207.26953125 60 C-207.26953125 32.340834924307856, -207.26953125 4.681669848615719, -207.26953125 -60" stroke="#9370DB" stroke-width="1.3" fill="none" stroke-dasharray="0 0" style=""/></g><g class="annotation-group text" transform="translate(0, -36)"/><g class="label-group text" transform="translate(-89.3359375, -36)"><g class="label" style="font-weight: bolder" transform="translate(0,-12)"><foreignObject width="178.671875" height="24"><div xmlns="http://www.w3.org/1999/xhtml" style="display: table-cell; white-space: nowrap; line-height: 1.5; max-width: 207px; text-align: center;"><span class="nodeLabel markdown-node-label" style=""><p>VerificationMethodKind</p></span></div></foreignObject></g></g><g class="members-group text" transform="translate(-195.26953125, 12)"><g class="label" style="" transform="translate(0,-12)"><foreignObject width="301.203125" height="24"><div xmlns="http://www.w3.org/1999/xhtml" style="display: table-cell; white-space: nowrap; line-height: 1.5; max-width: 365px; text-align: center;"><span class="nodeLabel markdown-node-label" style=""><p>&lt;&gt; Inspection Analysis Demonstration Test</p></span></div></foreignObject></g></g><g class="methods-group text" transform="translate(-195.26953125, 60)"/><g class="divider" style=""><path d="M-207.26953125 -12 C-110.06277248675023 -11.999765506396002, -12.856013723500467 -11.999531012792005, 207.26953125 -11.999 M-207.26953125 -12 C-113.3117913374119 -11.999773344062328, -19.35405142482381 -11.999546688124656, 207.26953125 -11.999" stroke="#9370DB" stroke-width="1.3" fill="none" stroke-dasharray="0 0" style=""/></g><g class="divider" style=""><path d="M-207.26953125 36 C-61.883051264315725 36.00035071840784, 83.50342872136855 36.00070143681567, 207.26953125 36.001 M-207.26953125 36 C-58.07836240379734 36.000359896526874, 91.11280644240532 36.00071979305374, 207.26953125 36.001" stroke="#9370DB" stroke-width="1.3" fill="none" stroke-dasharray="0 0" style=""/></g></g></g></g></g><defs><filter id="my-svg-drop-shadow" height="130%" width="130%"><feDropShadow dx="4" dy="4" stdDeviation="0" flood-opacity="0.06" flood-color="#000000"/></filter></defs><defs><filter id="my-svg-drop-shadow-small" height="150%" width="150%"><feDropShadow dx="2" dy="2" stdDeviation="0" flood-opacity="0.06" flood-color="#000000"/></filter></defs></svg>