<svg id="my-svg" width="100%" xmlns="http://www.w3.org/2000/svg" xmlns:xlink="http://www.w3.org/1999/xlink" class="classDiagram" style="max-width: 2677.55px; background-color: white;" viewBox="0 0 2677.546875 136" role="graphics-document document" aria-roledescription="class"><style>#my-svg{font-family:"trebuchet ms",verdana,arial,sans-serif;font-size:16px;fill:#333;}@keyframes edge-animation-frame{from{stroke-dashoffset:0;}}@keyframes dash{to{stroke-dashoffset:0;}}#my-svg .edge-animation-slow{stroke-dasharray:9,5!important;stroke-dashoffset:900;animation:dash 50s linear infinite;stroke-linecap:round;}#my-svg .edge-animation-fast{stroke-dasharray:9,5!important;stroke-dashoffset:900;animation:dash 20s linear infinite;stroke-linecap:round;}#my-svg .error-icon{fill:#552222;}#my-svg .error-text{fill:#552222;stroke:#552222;}#my-svg .edge-thickness-normal{stroke-width:1px;}#my-svg .edge-thickness-thick{stroke-width:3.5px;}#my-svg .edge-pattern-solid{stroke-dasharray:0;}#my-svg .edge-thickness-invisible{stroke-width:0;fill:none;}#my-svg .edge-pattern-dashed{stroke-dasharray:3;}#my-svg .edge-pattern-dotted{stroke-dasharray:2;}#my-svg .marker{fill:#333333;stroke:#333333;}#my-svg .marker.cross{stroke:#333333;}#my-svg svg{font-family:"trebuchet ms",verdana,arial,sans-serif;font-size:16px;}#my-svg p{margin:0;}#my-svg g.classGroup text{fill:#9370DB;stroke:none;font-family:"trebuchet ms",verdana,arial,sans-serif;font-size:10px;}#my-svg g.classGroup text .title{font-weight:bolder;}#my-svg .cluster-label text{fill:#333;}#my-svg .cluster-label span{color:#333;}#my-svg .cluster-label span p{background-color:transparent;}#my-svg .cluster rect{fill:#ffffde;stroke:#aaaa33;stroke-width:1px;}#my-svg .cluster text{fill:#333;}#my-svg .cluster span{color:#333;}#my-svg .nodeLabel,#my-svg .edgeLabel{color:#131300;}#my-svg .noteLabel .nodeLabel,#my-svg .noteLabel .edgeLabel{color:black;}#my-svg .edgeLabel .label rect{fill:#ECECFF;}#my-svg .label text{fill:#131300;}#my-svg .labelBkg{background:#ECECFF;}#my-svg .edgeLabel .label span{background:#ECECFF;}#my-svg .classTitle{font-weight:bolder;}#my-svg .node rect,#my-svg .node circle,#my-svg .node ellipse,#my-svg .node polygon,#my-svg .node path{fill:#ECECFF;stroke:#9370DB;stroke-width:1;}#my-svg .divider{stroke:#9370DB;stroke-width:1;}#my-svg g.clickable{cursor:pointer;}#my-svg g.classGroup rect{fill:#ECECFF;stroke:#9370DB;}#my-svg g.classGroup line{stroke:#9370DB;stroke-width:1;}#my-svg .classLabel .box{stroke:none;stroke-width:0;fill:#ECECFF;opacity:0.5;}#my-svg .classLabel .label{fill:#9370DB;font-size:10px;}#my-svg .relation{stroke:#333333;stroke-width:1;fill:none;}#my-svg .dashed-line{stroke-dasharray:3;}#my-svg .dotted-line{stroke-dasharray:1 2;}#my-svg [id$="-compositionStart"],#my-svg .composition{fill:#333333!important;stroke:#333333!important;stroke-width:1;}#my-svg [id$="-compositionEnd"],#my-svg .composition{fill:#333333!important;stroke:#333333!important;stroke-width:1;}#my-svg [id$="-dependencyStart"],#my-svg .dependency{fill:#333333!important;stroke:#333333!important;stroke-width:1;}#my-svg [id$="-dependencyEnd"],#my-svg .dependency{fill:#333333!important;stroke:#333333!important;stroke-width:1;}#my-svg [id$="-extensionStart"],#my-svg .extension{fill:transparent!important;stroke:#333333!important;stroke-width:1;}#my-svg [id$="-extensionEnd"],#my-svg .extension{fill:transparent!important;stroke:#333333!important;stroke-width:1;}#my-svg [id$="-aggregationStart"],#my-svg .aggregation{fill:transparent!important;stroke:#333333!important;stroke-width:1;}#my-svg [id$="-aggregationEnd"],#my-svg .aggregation{fill:transparent!important;stroke:#333333!important;stroke-width:1;}#my-svg [id$="-lollipopStart"],#my-svg .lollipop{fill:#ECECFF!important;stroke:#333333!important;stroke-width:1;}#my-svg [id$="-lollipopEnd"],#my-svg .lollipop{fill:#ECECFF!important;stroke:#333333!important;stroke-width:1;}#my-svg .edgeTerminals{font-size:11px;line-height:initial;}#my-svg .classTitleText{text-anchor:middle;font-size:18px;fill:#333;}#my-svg .edgeLabel[data-look="neo"]{background-color:rgba(232,232,232, 0.8);text-align:center;}#my-svg .edgeLabel[data-look="neo"] p{background-color:rgba(232,232,232, 0.8);}#my-svg .edgeLabel[data-look="neo"] rect{opacity:0.5;background-color:rgba(232,232,232, 0.8);fill:rgba(232,232,232, 0.8);}#my-svg .label-icon{display:inline-block;height:1em;overflow:visible;vertical-align:-0.125em;}#my-svg .node .label-icon path{fill:currentColor;stroke:revert;stroke-width:revert;}#my-svg .node .neo-node{stroke:#9370DB;}#my-svg [data-look="neo"].node rect,#my-svg [data-look="neo"].cluster rect,#my-svg [data-look="neo"].node polygon{stroke:#9370DB;filter:drop-shadow(1px 2px 2px rgba(185, 185, 185, 1));}#my-svg [data-look="neo"].node path{stroke:#9370DB;stroke-width:1px;}#my-svg [data-look="neo"].node .outer-path{filter:drop-shadow(1px 2px 2px rgba(185, 185, 185, 1));}#my-svg [data-look="neo"].node .neo-line path{stroke:#9370DB;filter:none;}#my-svg [data-look="neo"].node circle{stroke:#9370DB;filter:drop-shadow(1px 2px 2px rgba(185, 185, 185, 1));}#my-svg [data-look="neo"].node circle .state-start{fill:#000000;}#my-svg [data-look="neo"].icon-shape .icon{fill:#9370DB;filter:drop-shadow(1px 2px 2px rgba(185, 185, 185, 1));}#my-svg [data-look="neo"].icon-shape .icon-neo path{stroke:#9370DB;filter:drop-shadow(1px 2px 2px rgba(185, 185, 185, 1));}#my-svg :root{--mermaid-font-family:"trebuchet ms",verdana,arial,sans-serif;}</style><g><defs><marker id="my-svg_class-aggregationStart" class="marker aggregation class" refX="18" refY="7" markerWidth="190" markerHeight="240" orient="auto"><path d="M 18,7 L9,13 L1,7 L9,1 Z"/></marker></defs><defs><marker id="my-svg_class-aggregationEnd" class="marker aggregation class" refX="1" refY="7" markerWidth="20" markerHeight="28" orient="auto"><path d="M 18,7 L9,13 L1,7 L9,1 Z"/></marker></defs><defs><marker id="my-svg_class-aggregationStart-margin" class="marker aggregation class" refX="15" refY="7" markerWidth="190" markerHeight="240" orient="auto" markerUnits="userSpaceOnUse"><path d="M 18,7 L9,13 L1,7 L9,1 Z" style="stroke-width: 2;"/></marker></defs><defs><marker id="my-svg_class-aggregationEnd-margin" class="marker aggregation class" refX="1" refY="7" markerWidth="20" markerHeight="28" orient="auto" markerUnits="userSpaceOnUse"><path d="M 18,7 L9,13 L1,7 L9,1 Z" style="stroke-width: 2;"/></marker></defs><defs><marker id="my-svg_class-extensionStart" class="marker extension class" refX="18" refY="7" markerWidth="20" markerHeight="28" orient="auto" markerUnits="userSpaceOnUse"><path d="M 1,7 L18,13 V 1 Z"/></marker></defs><defs><marker id="my-svg_class-extensionEnd" class="marker extension class" refX="1" refY="7" markerWidth="20" markerHeight="28" orient="auto"><path d="M 1,1 V 13 L18,7 Z"/></marker></defs><marker id="my-svg_class-extensionStart-margin" class="marker extension class" refX="18" refY="7" markerWidth="20" markerHeight="28" orient="auto" markerUnits="userSpaceOnUse" viewBox="0 0 20 14"><polygon points="10,7 18,13 18,1" style="stroke-width: 2; stroke-dasharray: 0;"/></marker><defs><marker id="my-svg_class-extensionEnd-margin" class="marker extension class" refX="9" refY="7" markerWidth="20" markerHeight="28" orient="auto" markerUnits="userSpaceOnUse" viewBox="0 0 20 14"><polygon points="10,1 10,13 18,7" style="stroke-width: 2; stroke-dasharray: 0;"/></marker></defs><defs><marker id="my-svg_class-compositionStart" class="marker composition class" refX="18" refY="7" markerWidth="190" markerHeight="240" orient="auto"><path d="M 18,7 L9,13 L1,7 L9,1 Z"/></marker></defs><defs><marker id="my-svg_class-compositionEnd" class="marker composition class" refX="1" refY="7" markerWidth="20" markerHeight="28" orient="auto"><path d="M 18,7 L9,13 L1,7 L9,1 Z"/></marker></defs><defs><marker id="my-svg_class-compositionStart-margin" class="marker composition class" refX="15" refY="7" markerWidth="190" markerHeight="240" orient="auto" markerUnits="userSpaceOnUse"><path viewBox="0 0 15 15" d="M 18,7 L9,13 L1,7 L9,1 Z" style="stroke-width: 0;"/></marker></defs><defs><marker id="my-svg_class-compositionEnd-margin" class="marker composition class" refX="3.5" refY="7" markerWidth="20" markerHeight="28" orient="auto" markerUnits="userSpaceOnUse"><path d="M 18,7 L9,13 L1,7 L9,1 Z" style="stroke-width: 0;"/></marker></defs><defs><marker id="my-svg_class-dependencyStart" class="marker dependency class" refX="6" refY="7" markerWidth="190" markerHeight="240" orient="auto"><path d="M 5,7 L9,13 L1,7 L9,1 Z"/></marker></defs><defs><marker id="my-svg_class-dependencyEnd" class="marker dependency class" refX="13" refY="7" markerWidth="20" markerHeight="28" orient="auto"><path d="M 18,7 L9,13 L14,7 L9,1 Z"/></marker></defs><defs><marker id="my-svg_class-dependencyStart-margin" class="marker dependency class" refX="4" refY="7" markerWidth="190" markerHeight="240" orient="auto" markerUnits="userSpaceOnUse"><path d="M 5,7 L9,13 L1,7 L9,1 Z" style="stroke-width: 0;"/></marker></defs><defs><marker id="my-svg_class-dependencyEnd-margin" class="marker dependency class" refX="16" refY="7" markerWidth="20" markerHeight="28" orient="auto" markerUnits="userSpaceOnUse"><path d="M 18,7 L9,13 L14,7 L9,1 Z" style="stroke-width: 0;"/></marker></defs><defs><marker id="my-svg_class-lollipopStart" class="marker lollipop class" refX="13" refY="7" markerWidth="190" markerHeight="240" orient="auto"><circle fill="transparent" cx="7" cy="7" r="6"/></marker></defs><defs><marker id="my-svg_class-lollipopEnd" class="marker lollipop class" refX="1" refY="7" markerWidth="190" markerHeight="240" orient="auto"><circle fill="transparent" cx="7" cy="7" r="6"/></marker></defs><defs><marker id="my-svg_class-lollipopStart-margin" class="marker lollipop class" refX="13" refY="7" markerWidth="190" markerHeight="240" orient="auto" markerUnits="userSpaceOnUse"><circle fill="transparent" cx="7" cy="7" r="6" stroke-width="2"/></marker></defs><defs><marker id="my-svg_class-lollipopEnd-margin" class="marker lollipop class" refX="1" refY="7" markerWidth="190" markerHeight="240" orient="auto" markerUnits="userSpaceOnUse"><circle fill="transparent" cx="7" cy="7" r="6" stroke-width="2"/></marker></defs><g class="root"><g class="clusters"/><g class="edgePaths"/><g class="edgeLabels"/><g class="nodes"><g class="node default" id="my-svg-classId-Duration-0" data-look="classic" transform="translate(120.9453125, 68)"><g class="basic label-container outer-path"><path d="M-112.9453125 -60 L112.9453125 -60 L112.9453125 60 L-112.9453125 60" stroke="none" stroke-width="0" fill="#ECECFF" style=""/><path d="M-112.9453125 -60 C-62.663756372646276 -60, -12.382200245292552 -60, 112.9453125 -60 M-112.9453125 -60 C-28.58763544176078 -60, 55.77004161647844 -60, 112.9453125 -60 M112.9453125 -60 C112.9453125 -25.48137786440303, 112.9453125 9.037244271193941, 112.9453125 60 M112.9453125 -60 C112.9453125 -29.38583076702858, 112.9453125 1.2283384659428407, 112.9453125 60 M112.9453125 60 C56.271344003174235 60, -0.40262449365152975 60, -112.9453125 60 M112.9453125 60 C59.47731794982815 60, 6.009323399656296 60, -112.9453125 60 M-112.9453125 60 C-112.9453125 32.89842757381909, -112.9453125 5.79685514763819, -112.9453125 -60 M-112.9453125 60 C-112.9453125 23.15224694677913, -112.9453125 -13.69550610644174, -112.9453125 -60" stroke="#9370DB" stroke-width="1.3" fill="none" stroke-dasharray="0 0" style=""/></g><g class="annotation-group text" transform="translate(0, -36)"/><g class="label-group text" transform="translate(-32.890625, -36)"><g class="label" style="font-weight: bolder" transform="translate(0,-12)"><foreignObject width="65.78125" height="24"><div xmlns="http://www.w3.org/1999/xhtml" style="display: table-cell; white-space: nowrap; line-height: 1.5; max-width: 107px; text-align: center;"><span class="nodeLabel markdown-node-label" style=""><p>Duration</p></span></div></foreignObject></g></g><g class="members-group text" transform="translate(-100.9453125, 12)"><g class="label" style="" transform="translate(0,-12)"><foreignObject width="169" height="24"><div xmlns="http://www.w3.org/1999/xhtml" style="display: table-cell; white-space: nowrap; line-height: 1.5; max-width: 243px; text-align: center;"><span class="nodeLabel markdown-node-label" style=""><p>&lt;&gt; +Real value; unit = s</p></span></div></foreignObject></g></g><g class="methods-group text" transform="translate(-100.9453125, 60)"/><g class="divider" style=""><path d="M-112.9453125 -12 C-54.258330921397715 -11.999740197356227, 4.428650657204571 -11.999480394712453, 112.9453125 -11.999 M-112.9453125 -12 C-31.73077540659493 -11.999640469642804, 49.48376168681014 -11.99928093928561, 112.9453125 -11.999" stroke="#9370DB" stroke-width="1.3" fill="none" stroke-dasharray="0 0" style=""/></g><g class="divider" style=""><path d="M-112.9453125 36 C-45.41790997909591 36.000298938490786, 22.10949254180818 36.00059787698158, 112.9453125 36.001 M-112.9453125 36 C-47.34055872139851 36.00029042707628, 18.264195057202983 36.00058085415257, 112.9453125 36.001" stroke="#9370DB" stroke-width="1.3" fill="none" stroke-dasharray="0 0" style=""/></g></g><g class="node default" id="my-svg-classId-Loudness-1" data-look="classic" transform="translate(415.734375, 68)"><g class="basic label-container outer-path"><path d="M-131.84375 -60 L131.84375 -60 L131.84375 60 L-131.84375 60" stroke="none" stroke-width="0" fill="#ECECFF" style=""/><path d="M-131.84375 -60 C-44.99040416412268 -60, 41.86294167175464 -60, 131.84375 -60 M-131.84375 -60 C-74.73222815414675 -60, -17.620706308293506 -60, 131.84375 -60 M131.84375 -60 C131.84375 -26.1756820670578, 131.84375 7.648635865884401, 131.84375 60 M131.84375 -60 C131.84375 -14.643675405126942, 131.84375 30.712649189746116, 131.84375 60 M131.84375 60 C38.44979353092104 60, -54.944162938157916 60, -131.84375 60 M131.84375 60 C32.40874373888745 60, -67.0262625222251 60, -131.84375 60 M-131.84375 60 C-131.84375 17.13060341428598, -131.84375 -25.738793171428043, -131.84375 -60 M-131.84375 60 C-131.84375 19.085890560282152, -131.84375 -21.828218879435695, -131.84375 -60" stroke="#9370DB" stroke-width="1.3" fill="none" stroke-dasharray="0 0" style=""/></g><g class="annotation-group text" transform="translate(0, -36)"/><g class="label-group text" transform="translate(-37.78125, -36)"><g class="label" style="font-weight: bolder" transform="translate(0,-12)"><foreignObject width="75.5625" height="24"><div xmlns="http://www.w3.org/1999/xhtml" style="display: table-cell; white-space: nowrap; line-height: 1.5; max-width: 111px; text-align: center;"><span class="nodeLabel markdown-node-label" style=""><p>Loudness</p></span></div></foreignObject></g></g><g class="members-group text" transform="translate(-119.84375, 12)"><g class="label" style="" transform="translate(0,-12)"><foreignObject width="201.90625" height="24"><div xmlns="http://www.w3.org/1999/xhtml" style="display: table-cell; white-space: nowrap; line-height: 1.5; max-width: 276px; text-align: center;"><span class="nodeLabel markdown-node-label" style=""><p>&lt;&gt; +Real value; unit = LUFS</p></span></div></foreignObject></g></g><g class="methods-group text" transform="translate(-119.84375, 60)"/><g class="divider" style=""><path d="M-131.84375 -12 C-59.88594145038482 -11.999727109519604, 12.07186709923036 -11.999454219039206, 131.84375 -11.999 M-131.84375 -12 C-59.07702689104998 -11.999724041818027, 13.689696217900035 -11.999448083636056, 131.84375 -11.999" stroke="#9370DB" stroke-width="1.3" fill="none" stroke-dasharray="0 0" style=""/></g><g class="divider" style=""><path d="M-131.84375 36 C-37.878936013010346 36.0003563491405, 56.08587797397931 36.000712698281006, 131.84375 36.001 M-131.84375 36 C-72.26388953158366 36.000225948747925, -12.684029063167316 36.00045189749585, 131.84375 36.001" stroke="#9370DB" stroke-width="1.3" fill="none" stroke-dasharray="0 0" style=""/></g></g><g class="node default" id="my-svg-classId-TruePeak-2" data-look="classic" transform="translate(727.875, 68)"><g class="basic label-container outer-path"><path d="M-130.296875 -60 L130.296875 -60 L130.296875 60 L-130.296875 60" stroke="none" stroke-width="0" fill="#ECECFF" style=""/><path d="M-130.296875 -60 C-27.885177744002362 -60, 74.52651951199528 -60, 130.296875 -60 M-130.296875 -60 C-30.80421448432601 -60, 68.68844603134798 -60, 130.296875 -60 M130.296875 -60 C130.296875 -34.62724458239291, 130.296875 -9.254489164785824, 130.296875 60 M130.296875 -60 C130.296875 -15.804428919264808, 130.296875 28.391142161470384, 130.296875 60 M130.296875 60 C43.92189981932967 60, -42.453075361340666 60, -130.296875 60 M130.296875 60 C55.62255177756994 60, -19.051771444860123 60, -130.296875 60 M-130.296875 60 C-130.296875 21.243865433321076, -130.296875 -17.512269133357847, -130.296875 -60 M-130.296875 60 C-130.296875 26.456944340594177, -130.296875 -7.086111318811646, -130.296875 -60" stroke="#9370DB" stroke-width="1.3" fill="none" stroke-dasharray="0 0" style=""/></g><g class="annotation-group text" transform="translate(0, -36)"/><g class="label-group text" transform="translate(-35.578125, -36)"><g class="label" style="font-weight: bolder" transform="translate(0,-12)"><foreignObject width="71.15625" height="24"><div xmlns="http://www.w3.org/1999/xhtml" style="display: table-cell; white-space: nowrap; line-height: 1.5; max-width: 111px; text-align: center;"><span class="nodeLabel markdown-node-label" style=""><p>TruePeak</p></span></div></foreignObject></g></g><g class="members-group text" transform="translate(-118.296875, 12)"><g class="label" style="" transform="translate(0,-12)"><foreignObject width="201.015625" height="24"><div xmlns="http://www.w3.org/1999/xhtml" style="display: table-cell; white-space: nowrap; line-height: 1.5; max-width: 274px; text-align: center;"><span class="nodeLabel markdown-node-label" style=""><p>&lt;&gt; +Real value; unit = dBTP</p></span></div></foreignObject></g></g><g class="methods-group text" transform="translate(-118.296875, 60)"/><g class="divider" style=""><path d="M-130.296875 -12 C-31.133104186313446 -11.999619469880557, 68.03066662737311 -11.999238939761113, 130.296875 -11.999 M-130.296875 -12 C-72.95734629935296 -11.999779965833023, -15.617817598705912 -11.999559931666047, 130.296875 -11.999" stroke="#9370DB" stroke-width="1.3" fill="none" stroke-dasharray="0 0" style=""/></g><g class="divider" style=""><path d="M-130.296875 36 C-40.632330297433626 36.0003440778787, 49.03221440513275 36.0006881557574, 130.296875 36.001 M-130.296875 36 C-42.484881460152224 36.00033696891633, 45.32711207969555 36.00067393783266, 130.296875 36.001" stroke="#9370DB" stroke-width="1.3" fill="none" stroke-dasharray="0 0" style=""/></g></g><g class="node default" id="my-svg-classId-SyncError-3" data-look="classic" transform="translate(1030.6796875, 68)"><g class="basic label-container outer-path"><path d="M-122.5078125 -60 L122.5078125 -60 L122.5078125 60 L-122.5078125 60" stroke="none" stroke-width="0" fill="#ECECFF" style=""/><path d="M-122.5078125 -60 C-33.2300154636895 -60, 56.047781572621005 -60, 122.5078125 -60 M-122.5078125 -60 C-63.57579353989794 -60, -4.643774579795874 -60, 122.5078125 -60 M122.5078125 -60 C122.5078125 -15.732216730696926, 122.5078125 28.535566538606147, 122.5078125 60 M122.5078125 -60 C122.5078125 -19.806319138273423, 122.5078125 20.387361723453154, 122.5078125 60 M122.5078125 60 C47.405702617251976 60, -27.69640726549605 60, -122.5078125 60 M122.5078125 60 C51.994820853546784 60, -18.51817079290643 60, -122.5078125 60 M-122.5078125 60 C-122.5078125 15.662933451329529, -122.5078125 -28.674133097340942, -122.5078125 -60 M-122.5078125 60 C-122.5078125 12.729085880013862, -122.5078125 -34.541828239972276, -122.5078125 -60" stroke="#9370DB" stroke-width="1.3" fill="none" stroke-dasharray="0 0" style=""/></g><g class="annotation-group text" transform="translate(0, -36)"/><g class="label-group text" transform="translate(-38.6875, -36)"><g class="label" style="font-weight: bolder" transform="translate(0,-12)"><foreignObject width="77.375" height="24"><div xmlns="http://www.w3.org/1999/xhtml" style="display: table-cell; white-space: nowrap; line-height: 1.5; max-width: 116px; text-align: center;"><span class="nodeLabel markdown-node-label" style=""><p>SyncError</p></span></div></foreignObject></g></g><g class="members-group text" transform="translate(-110.5078125, 12)"><g class="label" style="" transform="translate(0,-12)"><foreignObject width="182.328125" height="24"><div xmlns="http://www.w3.org/1999/xhtml" style="display: table-cell; white-space: nowrap; line-height: 1.5; max-width: 255px; text-align: center;"><span class="nodeLabel markdown-node-label" style=""><p>&lt;&gt; +Real value; unit = ms</p></span></div></foreignObject></g></g><g class="methods-group text" transform="translate(-110.5078125, 60)"/><g class="divider" style=""><path d="M-122.5078125 -12 C-52.05924909065202 -11.999712473180397, 18.389314318695966 -11.999424946360794, 122.5078125 -11.999 M-122.5078125 -12 C-50.02839473137364 -11.999704184507545, 22.451023037252725 -11.99940836901509, 122.5078125 -11.999" stroke="#9370DB" stroke-width="1.3" fill="none" stroke-dasharray="0 0" style=""/></g><g class="divider" style=""><path d="M-122.5078125 36 C-60.921229276786875 36.0002513577786, 0.6653539464262508 36.000502715557204, 122.5078125 36.001 M-122.5078125 36 C-31.210217511586066 36.00037261948085, 60.08737747682787 36.000745238961706, 122.5078125 36.001" stroke="#9370DB" stroke-width="1.3" fill="none" stroke-dasharray="0 0" style=""/></g></g><g class="node default" id="my-svg-classId-DataSize-4" data-look="classic" transform="translate(1335.94140625, 68)"><g class="basic label-container outer-path"><path d="M-132.75390625 -60 L132.75390625 -60 L132.75390625 60 L-132.75390625 60" stroke="none" stroke-width="0" fill="#ECECFF" style=""/><path d="M-132.75390625 -60 C-57.72030684316566 -60, 17.313292563668682 -60, 132.75390625 -60 M-132.75390625 -60 C-63.01851248082596 -60, 6.716881288348077 -60, 132.75390625 -60 M132.75390625 -60 C132.75390625 -29.53721720211148, 132.75390625 0.9255655957770372, 132.75390625 60 M132.75390625 -60 C132.75390625 -35.704557747283154, 132.75390625 -11.409115494566308, 132.75390625 60 M132.75390625 60 C39.42209230750376 60, -53.90972163499248 60, -132.75390625 60 M132.75390625 60 C46.55280421289551 60, -39.64829782420898 60, -132.75390625 60 M-132.75390625 60 C-132.75390625 16.906519093032045, -132.75390625 -26.18696181393591, -132.75390625 -60 M-132.75390625 60 C-132.75390625 32.56223928621221, -132.75390625 5.124478572424422, -132.75390625 -60" stroke="#9370DB" stroke-width="1.3" fill="none" stroke-dasharray="0 0" style=""/></g><g class="annotation-group text" transform="translate(0, -36)"/><g class="label-group text" transform="translate(-33.3515625, -36)"><g class="label" style="font-weight: bolder" transform="translate(0,-12)"><foreignObject width="66.703125" height="24"><div xmlns="http://www.w3.org/1999/xhtml" style="display: table-cell; white-space: nowrap; line-height: 1.5; max-width: 108px; text-align: center;"><span class="nodeLabel markdown-node-label" style=""><p>DataSize</p></span></div></foreignObject></g></g><g class="members-group text" transform="translate(-120.75390625, 12)"><g class="label" style="" transform="translate(0,-12)"><foreignObject width="208.15625" height="24"><div xmlns="http://www.w3.org/1999/xhtml" style="display: table-cell; white-space: nowrap; line-height: 1.5; max-width: 280px; text-align: center;"><span class="nodeLabel markdown-node-label" style=""><p>&lt;&gt; +Integer value; unit = byte</p></span></div></foreignObject></g></g><g class="methods-group text" transform="translate(-120.75390625, 60)"/><g class="divider" style=""><path d="M-132.75390625 -12 C-52.15337608644245 -11.999696428781494, 28.4471540771151 -11.999392857562988, 132.75390625 -11.999 M-132.75390625 -12 C-75.52212121214141 -11.999784444064003, -18.290336174282828 -11.999568888128007, 132.75390625 -11.999" stroke="#9370DB" stroke-width="1.3" fill="none" stroke-dasharray="0 0" style=""/></g><g class="divider" style=""><path d="M-132.75390625 36 C-69.66880773080936 36.000237601665745, -6.583709211618725 36.0004752033315, 132.75390625 36.001 M-132.75390625 36 C-70.60798389276897 36.00023406438316, -8.462061535537927 36.00046812876632, 132.75390625 36.001" stroke="#9370DB" stroke-width="1.3" fill="none" stroke-dasharray="0 0" style=""/></g></g><g class="node default" id="my-svg-classId-TransitionKind-5" data-look="classic" transform="translate(1753.9140625, 68)"><g class="basic label-container outer-path"><path d="M-235.21875 -60 L235.21875 -60 L235.21875 60 L-235.21875 60" stroke="none" stroke-width="0" fill="#ECECFF" style=""/><path d="M-235.21875 -60 C-68.02205126943926 -60, 99.17464746112148 -60, 235.21875 -60 M-235.21875 -60 C-51.65652866913754 -60, 131.9056926617249 -60, 235.21875 -60 M235.21875 -60 C235.21875 -20.578015354937413, 235.21875 18.843969290125173, 235.21875 60 M235.21875 -60 C235.21875 -12.954858523338658, 235.21875 34.090282953322685, 235.21875 60 M235.21875 60 C109.80839008983384 60, -15.601969820332329 60, -235.21875 60 M235.21875 60 C72.1120740997481 60, -90.9946018005038 60, -235.21875 60 M-235.21875 60 C-235.21875 33.76128061134586, -235.21875 7.522561222691721, -235.21875 -60 M-235.21875 60 C-235.21875 13.364869317282043, -235.21875 -33.270261365435914, -235.21875 -60" stroke="#9370DB" stroke-width="1.3" fill="none" stroke-dasharray="0 0" style=""/></g><g class="annotation-group text" transform="translate(0, -36)"/><g class="label-group text" transform="translate(-56, -36)"><g class="label" style="font-weight: bolder" transform="translate(0,-12)"><foreignObject width="112" height="24"><div xmlns="http://www.w3.org/1999/xhtml" style="display: table-cell; white-space: nowrap; line-height: 1.5; max-width: 147px; text-align: center;"><span class="nodeLabel markdown-node-label" style=""><p>TransitionKind</p></span></div></foreignObject></g></g><g class="members-group text" transform="translate(-223.21875, 12)"><g class="label" style="" transform="translate(0,-12)"><foreignObject width="390.4375" height="24"><div xmlns="http://www.w3.org/1999/xhtml" style="display: table-cell; white-space: nowrap; line-height: 1.5; max-width: 442px; text-align: center;"><span class="nodeLabel markdown-node-label" style=""><p>&lt;&gt; none crossfade dissolve fade wipe slide circle radial</p></span></div></foreignObject></g></g><g class="methods-group text" transform="translate(-223.21875, 60)"/><g class="divider" style=""><path d="M-235.21875 -12 C-62.98418011401543 -11.999633884267547, 109.25038977196914 -11.999267768535093, 235.21875 -11.999 M-235.21875 -12 C-116.05579995509541 -11.999746697595228, 3.1071500898091813 -11.999493395190456, 235.21875 -11.999" stroke="#9370DB" stroke-width="1.3" fill="none" stroke-dasharray="0 0" style=""/></g><g class="divider" style=""><path d="M-235.21875 36 C-85.57156144222824 36.00031810216778, 64.07562711554351 36.00063620433557, 235.21875 36.001 M-235.21875 36 C-68.68614992023973 36.00035399516425, 97.84645015952054 36.000707990328486, 235.21875 36.001" stroke="#9370DB" stroke-width="1.3" fill="none" stroke-dasharray="0 0" style=""/></g></g><g class="node default" id="my-svg-classId-Status-6" data-look="classic" transform="translate(2122.0703125, 68)"><g class="basic label-container outer-path"><path d="M-82.9375 -60 L82.9375 -60 L82.9375 60 L-82.9375 60" stroke="none" stroke-width="0" fill="#ECECFF" style=""/><path d="M-82.9375 -60 C-41.686384735163905 -60, -0.4352694703278104 -60, 82.9375 -60 M-82.9375 -60 C-25.439978055019232 -60, 32.057543889961536 -60, 82.9375 -60 M82.9375 -60 C82.9375 -22.799281759915218, 82.9375 14.401436480169565, 82.9375 60 M82.9375 -60 C82.9375 -17.818950103290675, 82.9375 24.36209979341865, 82.9375 60 M82.9375 60 C40.56168401587541 60, -1.8141319682491854 60, -82.9375 60 M82.9375 60 C47.4478569756252 60, 11.9582139512504 60, -82.9375 60 M-82.9375 60 C-82.9375 17.795914419285374, -82.9375 -24.40817116142925, -82.9375 -60 M-82.9375 60 C-82.9375 13.013994651077702, -82.9375 -33.972010697844595, -82.9375 -60" stroke="#9370DB" stroke-width="1.3" fill="none" stroke-dasharray="0 0" style=""/></g><g class="annotation-group text" transform="translate(0, -36)"/><g class="label-group text" transform="translate(-24.453125, -36)"><g class="label" style="font-weight: bolder" transform="translate(0,-12)"><foreignObject width="48.90625" height="24"><div xmlns="http://www.w3.org/1999/xhtml" style="display: table-cell; white-space: nowrap; line-height: 1.5; max-width: 89px; text-align: center;"><span class="nodeLabel markdown-node-label" style=""><p>Status</p></span></div></foreignObject></g></g><g class="members-group text" transform="translate(-70.9375, 12)"><g class="label" style="" transform="translate(0,-12)"><foreignObject width="117.421875" height="24"><div xmlns="http://www.w3.org/1999/xhtml" style="display: table-cell; white-space: nowrap; line-height: 1.5; max-width: 197px; text-align: center;"><span class="nodeLabel markdown-node-label" style=""><p>&lt;&gt; Built Planned</p></span></div></foreignObject></g></g><g class="methods-group text" transform="translate(-70.9375, 60)"/><g class="divider" style=""><path d="M-82.9375 -12 C-24.91427062277647 -11.999650199069317, 33.10895875444706 -11.999300398138633, 82.9375 -11.999 M-82.9375 -12 C-43.696404137013516 -11.999763429715973, -4.455308274027033 -11.999526859431946, 82.9375 -11.999" stroke="#9370DB" stroke-width="1.3" fill="none" stroke-dasharray="0 0" style=""/></g><g class="divider" style=""><path d="M-82.9375 36 C-19.999841057953205 36.00037942823778, 42.93781788409359 36.000758856475564, 82.9375 36.001 M-82.9375 36 C-42.02886670220979 36.000246623260274, -1.1202334044195794 36.00049324652054, 82.9375 36.001" stroke="#9370DB" stroke-width="1.3" fill="none" stroke-dasharray="0 0" style=""/></g></g><g class="node default" id="my-svg-classId-VerificationMethodKind-7" data-look="classic" transform="translate(2462.27734375, 68)"><g class="basic label-container outer-path"><path d="M-207.26953125 -60 L207.26953125 -60 L207.26953125 60 L-207.26953125 60" stroke="none" stroke-width="0" fill="#ECECFF" style=""/><path d="M-207.26953125 -60 C-60.37580103591108 -60, 86.51792917817784 -60, 207.26953125 -60 M-207.26953125 -60 C-94.20826401379244 -60, 18.85300322241511 -60, 207.26953125 -60 M207.26953125 -60 C207.26953125 -21.040018449840787, 207.26953125 17.919963100318427, 207.26953125 60 M207.26953125 -60 C207.26953125 -24.117102965908536, 207.26953125 11.765794068182927, 207.26953125 60 M207.26953125 60 C62.52084289026871 60, -82.22784546946258 60, -207.26953125 60 M207.26953125 60 C41.86526029602095 60, -123.5390106579581 60, -207.26953125 60 M-207.26953125 60 C-207.26953125 24.0903623191422, -207.26953125 -11.819275361715597, -207.26953125 -60 M-207.26953125 60 C-207.26953125 22.915667821528587, -207.26953125 -14.168664356942827, -207.26953125 -60" stroke="#9370DB" stroke-width="1.3" fill="none" stroke-dasharray="0 0" style=""/></g><g class="annotation-group text" transform="translate(0, -36)"/><g class="label-group text" transform="translate(-89.3359375, -36)"><g class="label" style="font-weight: bolder" transform="translate(0,-12)"><foreignObject width="178.671875" height="24"><div xmlns="http://www.w3.org/1999/xhtml" style="display: table-cell; white-space: nowrap; line-height: 1.5; max-width: 207px; text-align: center;"><span class="nodeLabel markdown-node-label" style=""><p>VerificationMethodKind</p></span></div></foreignObject></g></g><g class="members-group text" transform="translate(-195.26953125, 12)"><g class="label" style="" transform="translate(0,-12)"><foreignObject width="301.203125" height="24"><div xmlns="http://www.w3.org/1999/xhtml" style="display: table-cell; white-space: nowrap; line-height: 1.5; max-width: 365px; text-align: center;"><span class="nodeLabel markdown-node-label" style=""><p>&lt;&gt; Inspection Analysis Demonstration Test</p></span></div></foreignObject></g></g><g class="methods-group text" transform="translate(-195.26953125, 60)"/><g class="divider" style=""><path d="M-207.26953125 -12 C-109.15632701890266 -11.999763319761376, -11.043122787805316 -11.999526639522754, 207.26953125 -11.999 M-207.26953125 -12 C-97.88625515768743 -11.999736132765312, 11.49702093462514 -11.999472265530622, 207.26953125 -11.999" stroke="#9370DB" stroke-width="1.3" fill="none" stroke-dasharray="0 0" style=""/></g><g class="divider" style=""><path d="M-207.26953125 36 C-61.22569856016793 36.00035230415153, 84.81813412966414 36.00070460830306, 207.26953125 36.001 M-207.26953125 36 C-102.11774970568996 36.00025365952465, 3.0340318386200806 36.000507319049305, 207.26953125 36.001" stroke="#9370DB" stroke-width="1.3" fill="none" stroke-dasharray="0 0" style=""/></g></g></g></g></g><defs><filter id="my-svg-drop-shadow" height="130%" width="130%"><feDropShadow dx="4" dy="4" stdDeviation="0" flood-opacity="0.06" flood-color="#000000"/></filter></defs><defs><filter id="my-svg-drop-shadow-small" height="150%" width="150%"><feDropShadow dx="2" dy="2" stdDeviation="0" flood-opacity="0.06" flood-color="#000000"/></filter></defs></svg>