<svg id="my-svg" width="100%" xmlns="http://www.w3.org/2000/svg" xmlns:xlink="http://www.w3.org/1999/xlink" class="classDiagram" style="max-width: 2677.55px; background-color: white;" viewBox="0 0 2677.546875 136" role="graphics-document document" aria-roledescription="class"><style>#my-svg{font-family:"trebuchet ms",verdana,arial,sans-serif;font-size:16px;fill:#333;}@keyframes edge-animation-frame{from{stroke-dashoffset:0;}}@keyframes dash{to{stroke-dashoffset:0;}}#my-svg .edge-animation-slow{stroke-dasharray:9,5!important;stroke-dashoffset:900;animation:dash 50s linear infinite;stroke-linecap:round;}#my-svg .edge-animation-fast{stroke-dasharray:9,5!important;stroke-dashoffset:900;animation:dash 20s linear infinite;stroke-linecap:round;}#my-svg .error-icon{fill:#552222;}#my-svg .error-text{fill:#552222;stroke:#552222;}#my-svg .edge-thickness-normal{stroke-width:1px;}#my-svg .edge-thickness-thick{stroke-width:3.5px;}#my-svg .edge-pattern-solid{stroke-dasharray:0;}#my-svg .edge-thickness-invisible{stroke-width:0;fill:none;}#my-svg .edge-pattern-dashed{stroke-dasharray:3;}#my-svg .edge-pattern-dotted{stroke-dasharray:2;}#my-svg .marker{fill:#333333;stroke:#333333;}#my-svg .marker.cross{stroke:#333333;}#my-svg svg{font-family:"trebuchet ms",verdana,arial,sans-serif;font-size:16px;}#my-svg p{margin:0;}#my-svg g.classGroup text{fill:#9370DB;stroke:none;font-family:"trebuchet ms",verdana,arial,sans-serif;font-size:10px;}#my-svg g.classGroup text .title{font-weight:bolder;}#my-svg .cluster-label text{fill:#333;}#my-svg .cluster-label span{color:#333;}#my-svg .cluster-label span p{background-color:transparent;}#my-svg .cluster rect{fill:#ffffde;stroke:#aaaa33;stroke-width:1px;}#my-svg .cluster text{fill:#333;}#my-svg .cluster span{color:#333;}#my-svg .nodeLabel,#my-svg .edgeLabel{color:#131300;}#my-svg .noteLabel .nodeLabel,#my-svg .noteLabel .edgeLabel{color:black;}#my-svg .edgeLabel .label rect{fill:#ECECFF;}#my-svg .label text{fill:#131300;}#my-svg .labelBkg{background:#ECECFF;}#my-svg .edgeLabel .label span{background:#ECECFF;}#my-svg .classTitle{font-weight:bolder;}#my-svg .node rect,#my-svg .node circle,#my-svg .node ellipse,#my-svg .node polygon,#my-svg .node path{fill:#ECECFF;stroke:#9370DB;stroke-width:1;}#my-svg .divider{stroke:#9370DB;stroke-width:1;}#my-svg g.clickable{cursor:pointer;}#my-svg g.classGroup rect{fill:#ECECFF;stroke:#9370DB;}#my-svg g.classGroup line{stroke:#9370DB;stroke-width:1;}#my-svg .classLabel .box{stroke:none;stroke-width:0;fill:#ECECFF;opacity:0.5;}#my-svg .classLabel .label{fill:#9370DB;font-size:10px;}#my-svg .relation{stroke:#333333;stroke-width:1;fill:none;}#my-svg .dashed-line{stroke-dasharray:3;}#my-svg .dotted-line{stroke-dasharray:1 2;}#my-svg [id$="-compositionStart"],#my-svg .composition{fill:#333333!important;stroke:#333333!important;stroke-width:1;}#my-svg [id$="-compositionEnd"],#my-svg .composition{fill:#333333!important;stroke:#333333!important;stroke-width:1;}#my-svg [id$="-dependencyStart"],#my-svg .dependency{fill:#333333!important;stroke:#333333!important;stroke-width:1;}#my-svg [id$="-dependencyEnd"],#my-svg .dependency{fill:#333333!important;stroke:#333333!important;stroke-width:1;}#my-svg [id$="-extensionStart"],#my-svg .extension{fill:transparent!important;stroke:#333333!important;stroke-width:1;}#my-svg [id$="-extensionEnd"],#my-svg .extension{fill:transparent!important;stroke:#333333!important;stroke-width:1;}#my-svg [id$="-aggregationStart"],#my-svg .aggregation{fill:transparent!important;stroke:#333333!important;stroke-width:1;}#my-svg [id$="-aggregationEnd"],#my-svg .aggregation{fill:transparent!important;stroke:#333333!important;stroke-width:1;}#my-svg [id$="-lollipopStart"],#my-svg .lollipop{fill:#ECECFF!important;stroke:#333333!important;stroke-width:1;}#my-svg [id$="-lollipopEnd"],#my-svg .lollipop{fill:#ECECFF!important;stroke:#333333!important;stroke-width:1;}#my-svg .edgeTerminals{font-size:11px;line-height:initial;}#my-svg .classTitleText{text-anchor:middle;font-size:18px;fill:#333;}#my-svg .edgeLabel[data-look="neo"]{background-color:rgba(232,232,232, 0.8);text-align:center;}#my-svg .edgeLabel[data-look="neo"] p{background-color:rgba(232,232,232, 0.8);}#my-svg .edgeLabel[data-look="neo"] rect{opacity:0.5;background-color:rgba(232,232,232, 0.8);fill:rgba(232,232,232, 0.8);}#my-svg .label-icon{display:inline-block;height:1em;overflow:visible;vertical-align:-0.125em;}#my-svg .node .label-icon path{fill:currentColor;stroke:revert;stroke-width:revert;}#my-svg .node .neo-node{stroke:#9370DB;}#my-svg [data-look="neo"].node rect,#my-svg [data-look="neo"].cluster rect,#my-svg [data-look="neo"].node polygon{stroke:#9370DB;filter:drop-shadow(1px 2px 2px rgba(185, 185, 185, 1));}#my-svg [data-look="neo"].node path{stroke:#9370DB;stroke-width:1px;}#my-svg [data-look="neo"].node .outer-path{filter:drop-shadow(1px 2px 2px rgba(185, 185, 185, 1));}#my-svg [data-look="neo"].node .neo-line path{stroke:#9370DB;filter:none;}#my-svg [data-look="neo"].node circle{stroke:#9370DB;filter:drop-shadow(1px 2px 2px rgba(185, 185, 185, 1));}#my-svg [data-look="neo"].node circle .state-start{fill:#000000;}#my-svg [data-look="neo"].icon-shape .icon{fill:#9370DB;filter:drop-shadow(1px 2px 2px rgba(185, 185, 185, 1));}#my-svg [data-look="neo"].icon-shape .icon-neo path{stroke:#9370DB;filter:drop-shadow(1px 2px 2px rgba(185, 185, 185, 1));}#my-svg :root{--mermaid-font-family:"trebuchet ms",verdana,arial,sans-serif;}</style><g><defs><marker id="my-svg_class-aggregationStart" class="marker aggregation class" refX="18" refY="7" markerWidth="190" markerHeight="240" orient="auto"><path d="M 18,7 L9,13 L1,7 L9,1 Z"/></marker></defs><defs><marker id="my-svg_class-aggregationEnd" class="marker aggregation class" refX="1" refY="7" markerWidth="20" markerHeight="28" orient="auto"><path d="M 18,7 L9,13 L1,7 L9,1 Z"/></marker></defs><defs><marker id="my-svg_class-aggregationStart-margin" class="marker aggregation class" refX="15" refY="7" markerWidth="190" markerHeight="240" orient="auto" markerUnits="userSpaceOnUse"><path d="M 18,7 L9,13 L1,7 L9,1 Z" style="stroke-width: 2;"/></marker></defs><defs><marker id="my-svg_class-aggregationEnd-margin" class="marker aggregation class" refX="1" refY="7" markerWidth="20" markerHeight="28" orient="auto" markerUnits="userSpaceOnUse"><path d="M 18,7 L9,13 L1,7 L9,1 Z" style="stroke-width: 2;"/></marker></defs><defs><marker id="my-svg_class-extensionStart" class="marker extension class" refX="18" refY="7" markerWidth="20" markerHeight="28" orient="auto" markerUnits="userSpaceOnUse"><path d="M 1,7 L18,13 V 1 Z"/></marker></defs><defs><marker id="my-svg_class-extensionEnd" class="marker extension class" refX="1" refY="7" markerWidth="20" markerHeight="28" orient="auto"><path d="M 1,1 V 13 L18,7 Z"/></marker></defs><marker id="my-svg_class-extensionStart-margin" class="marker extension class" refX="18" refY="7" markerWidth="20" markerHeight="28" orient="auto" markerUnits="userSpaceOnUse" viewBox="0 0 20 14"><polygon points="10,7 18,13 18,1" style="stroke-width: 2; stroke-dasharray: 0;"/></marker><defs><marker id="my-svg_class-extensionEnd-margin" class="marker extension class" refX="9" refY="7" markerWidth="20" markerHeight="28" orient="auto" markerUnits="userSpaceOnUse" viewBox="0 0 20 14"><polygon points="10,1 10,13 18,7" style="stroke-width: 2; stroke-dasharray: 0;"/></marker></defs><defs><marker id="my-svg_class-compositionStart" class="marker composition class" refX="18" refY="7" markerWidth="190" markerHeight="240" orient="auto"><path d="M 18,7 L9,13 L1,7 L9,1 Z"/></marker></defs><defs><marker id="my-svg_class-compositionEnd" class="marker composition class" refX="1" refY="7" markerWidth="20" markerHeight="28" orient="auto"><path d="M 18,7 L9,13 L1,7 L9,1 Z"/></marker></defs><defs><marker id="my-svg_class-compositionStart-margin" class="marker composition class" refX="15" refY="7" markerWidth="190" markerHeight="240" orient="auto" markerUnits="userSpaceOnUse"><path viewBox="0 0 15 15" d="M 18,7 L9,13 L1,7 L9,1 Z" style="stroke-width: 0;"/></marker></defs><defs><marker id="my-svg_class-compositionEnd-margin" class="marker composition class" refX="3.5" refY="7" markerWidth="20" markerHeight="28" orient="auto" markerUnits="userSpaceOnUse"><path d="M 18,7 L9,13 L1,7 L9,1 Z" style="stroke-width: 0;"/></marker></defs><defs><marker id="my-svg_class-dependencyStart" class="marker dependency class" refX="6" refY="7" markerWidth="190" markerHeight="240" orient="auto"><path d="M 5,7 L9,13 L1,7 L9,1 Z"/></marker></defs><defs><marker id="my-svg_class-dependencyEnd" class="marker dependency class" refX="13" refY="7" markerWidth="20" markerHeight="28" orient="auto"><path d="M 18,7 L9,13 L14,7 L9,1 Z"/></marker></defs><defs><marker id="my-svg_class-dependencyStart-margin" class="marker dependency class" refX="4" refY="7" markerWidth="190" markerHeight="240" orient="auto" markerUnits="userSpaceOnUse"><path d="M 5,7 L9,13 L1,7 L9,1 Z" style="stroke-width: 0;"/></marker></defs><defs><marker id="my-svg_class-dependencyEnd-margin" class="marker dependency class" refX="16" refY="7" markerWidth="20" markerHeight="28" orient="auto" markerUnits="userSpaceOnUse"><path d="M 18,7 L9,13 L14,7 L9,1 Z" style="stroke-width: 0;"/></marker></defs><defs><marker id="my-svg_class-lollipopStart" class="marker lollipop class" refX="13" refY="7" markerWidth="190" markerHeight="240" orient="auto"><circle fill="transparent" cx="7" cy="7" r="6"/></marker></defs><defs><marker id="my-svg_class-lollipopEnd" class="marker lollipop class" refX="1" refY="7" markerWidth="190" markerHeight="240" orient="auto"><circle fill="transparent" cx="7" cy="7" r="6"/></marker></defs><defs><marker id="my-svg_class-lollipopStart-margin" class="marker lollipop class" refX="13" refY="7" markerWidth="190" markerHeight="240" orient="auto" markerUnits="userSpaceOnUse"><circle fill="transparent" cx="7" cy="7" r="6" stroke-width="2"/></marker></defs><defs><marker id="my-svg_class-lollipopEnd-margin" class="marker lollipop class" refX="1" refY="7" markerWidth="190" markerHeight="240" orient="auto" markerUnits="userSpaceOnUse"><circle fill="transparent" cx="7" cy="7" r="6" stroke-width="2"/></marker></defs><g class="root"><g class="clusters"/><g class="edgePaths"/><g class="edgeLabels"/><g class="nodes"><g class="node default" id="my-svg-classId-Duration-0" data-look="classic" transform="translate(120.9453125, 68)"><g class="basic label-container outer-path"><path d="M-112.9453125 -60 L112.9453125 -60 L112.9453125 60 L-112.9453125 60" stroke="none" stroke-width="0" fill="#ECECFF" style=""/><path d="M-112.9453125 -60 C-44.61862864416486 -60, 23.708055211670285 -60, 112.9453125 -60 M-112.9453125 -60 C-51.4946894154731 -60, 9.955933669053806 -60, 112.9453125 -60 M112.9453125 -60 C112.9453125 -30.63403526331933, 112.9453125 -1.2680705266386596, 112.9453125 60 M112.9453125 -60 C112.9453125 -30.26795615337706, 112.9453125 -0.5359123067541205, 112.9453125 60 M112.9453125 60 C38.51337832225765 60, -35.9185558554847 60, -112.9453125 60 M112.9453125 60 C66.60515154507105 60, 20.264990590142105 60, -112.9453125 60 M-112.9453125 60 C-112.9453125 28.331908490353005, -112.9453125 -3.3361830192939905, -112.9453125 -60 M-112.9453125 60 C-112.9453125 14.968941044410641, -112.9453125 -30.062117911178717, -112.9453125 -60" stroke="#9370DB" stroke-width="1.3" fill="none" stroke-dasharray="0 0" style=""/></g><g class="annotation-group text" transform="translate(0, -36)"/><g class="label-group text" transform="translate(-32.890625, -36)"><g class="label" style="font-weight: bolder" transform="translate(0,-12)"><foreignObject width="65.78125" height="24"><div xmlns="http://www.w3.org/1999/xhtml" style="display: table-cell; white-space: nowrap; line-height: 1.5; max-width: 107px; text-align: center;"><span class="nodeLabel markdown-node-label" style=""><p>Duration</p></span></div></foreignObject></g></g><g class="members-group text" transform="translate(-100.9453125, 12)"><g class="label" style="" transform="translate(0,-12)"><foreignObject width="169" height="24"><div xmlns="http://www.w3.org/1999/xhtml" style="display: table-cell; white-space: nowrap; line-height: 1.5; max-width: 243px; text-align: center;"><span class="nodeLabel markdown-node-label" style=""><p>&lt;&gt; +Real value; unit = s</p></span></div></foreignObject></g></g><g class="methods-group text" transform="translate(-100.9453125, 60)"/><g class="divider" style=""><path d="M-112.9453125 -12 C-39.51936521035661 -11.999674949116239, 33.90658207928678 -11.999349898232477, 112.9453125 -11.999 M-112.9453125 -12 C-58.66902797615082 -11.99975972316459, -4.392743452301644 -11.99951944632918, 112.9453125 -11.999" stroke="#9370DB" stroke-width="1.3" fill="none" stroke-dasharray="0 0" style=""/></g><g class="divider" style=""><path d="M-112.9453125 36 C-30.686195244020183 36.00036415463128, 51.57292201195963 36.000728309262556, 112.9453125 36.001 M-112.9453125 36 C-32.84858426836621 36.000354581905434, 47.24814396326758 36.00070916381086, 112.9453125 36.001" stroke="#9370DB" stroke-width="1.3" fill="none" stroke-dasharray="0 0" style=""/></g></g><g class="node default" id="my-svg-classId-Loudness-1" data-look="classic" transform="translate(415.734375, 68)"><g class="basic label-container outer-path"><path d="M-131.84375 -60 L131.84375 -60 L131.84375 60 L-131.84375 60" stroke="none" stroke-width="0" fill="#ECECFF" style=""/><path d="M-131.84375 -60 C-51.3978048138614 -60, 29.048140372277203 -60, 131.84375 -60 M-131.84375 -60 C-57.74300627130731 -60, 16.357737457385383 -60, 131.84375 -60 M131.84375 -60 C131.84375 -19.13685486361276, 131.84375 21.726290272774477, 131.84375 60 M131.84375 -60 C131.84375 -17.707856560610253, 131.84375 24.584286878779494, 131.84375 60 M131.84375 60 C50.582740869967196 60, -30.678268260065607 60, -131.84375 60 M131.84375 60 C54.40680747571059 60, -23.030135048578813 60, -131.84375 60 M-131.84375 60 C-131.84375 26.424530319262843, -131.84375 -7.150939361474315, -131.84375 -60 M-131.84375 60 C-131.84375 16.53225015427357, -131.84375 -26.93549969145286, -131.84375 -60" stroke="#9370DB" stroke-width="1.3" fill="none" stroke-dasharray="0 0" style=""/></g><g class="annotation-group text" transform="translate(0, -36)"/><g class="label-group text" transform="translate(-37.78125, -36)"><g class="label" style="font-weight: bolder" transform="translate(0,-12)"><foreignObject width="75.5625" height="24"><div xmlns="http://www.w3.org/1999/xhtml" style="display: table-cell; white-space: nowrap; line-height: 1.5; max-width: 111px; text-align: center;"><span class="nodeLabel markdown-node-label" style=""><p>Loudness</p></span></div></foreignObject></g></g><g class="members-group text" transform="translate(-119.84375, 12)"><g class="label" style="" transform="translate(0,-12)"><foreignObject width="201.90625" height="24"><div xmlns="http://www.w3.org/1999/xhtml" style="display: table-cell; white-space: nowrap; line-height: 1.5; max-width: 276px; text-align: center;"><span class="nodeLabel markdown-node-label" style=""><p>&lt;&gt; +Real value; unit = LUFS</p></span></div></foreignObject></g></g><g class="methods-group text" transform="translate(-119.84375, 60)"/><g class="divider" style=""><path d="M-131.84375 -12 C-70.26340731349279 -11.999766464687607, -8.68306462698557 -11.999532929375215, 131.84375 -11.999 M-131.84375 -12 C-74.04532515442213 -11.999780807111275, -16.24690030884426 -11.999561614222552, 131.84375 -11.999" stroke="#9370DB" stroke-width="1.3" fill="none" stroke-dasharray="0 0" style=""/></g><g class="divider" style=""><path d="M-131.84375 36 C-59.04653141191494 36.00027607383205, 13.750687176170118 36.000552147664095, 131.84375 36.001 M-131.84375 36 C-51.39078484776611 36.00030510723926, 29.062180304467773 36.00061021447852, 131.84375 36.001" stroke="#9370DB" stroke-width="1.3" fill="none" stroke-dasharray="0 0" style=""/></g></g><g class="node default" id="my-svg-classId-TruePeak-2" data-look="classic" transform="translate(727.875, 68)"><g class="basic label-container outer-path"><path d="M-130.296875 -60 L130.296875 -60 L130.296875 60 L-130.296875 60" stroke="none" stroke-width="0" fill="#ECECFF" style=""/><path d="M-130.296875 -60 C-43.32446826267923 -60, 43.647938474641535 -60, 130.296875 -60 M-130.296875 -60 C-76.95081621992061 -60, -23.604757439841222 -60, 130.296875 -60 M130.296875 -60 C130.296875 -17.909933762201128, 130.296875 24.180132475597745, 130.296875 60 M130.296875 -60 C130.296875 -25.284361476152107, 130.296875 9.431277047695787, 130.296875 60 M130.296875 60 C36.01833561639262 60, -58.26020376721476 60, -130.296875 60 M130.296875 60 C53.20083353020351 60, -23.89520793959298 60, -130.296875 60 M-130.296875 60 C-130.296875 19.755248030815864, -130.296875 -20.489503938368273, -130.296875 -60 M-130.296875 60 C-130.296875 27.202284878384845, -130.296875 -5.595430243230311, -130.296875 -60" stroke="#9370DB" stroke-width="1.3" fill="none" stroke-dasharray="0 0" style=""/></g><g class="annotation-group text" transform="translate(0, -36)"/><g class="label-group text" transform="translate(-35.578125, -36)"><g class="label" style="font-weight: bolder" transform="translate(0,-12)"><foreignObject width="71.15625" height="24"><div xmlns="http://www.w3.org/1999/xhtml" style="display: table-cell; white-space: nowrap; line-height: 1.5; max-width: 111px; text-align: center;"><span class="nodeLabel markdown-node-label" style=""><p>TruePeak</p></span></div></foreignObject></g></g><g class="members-group text" transform="translate(-118.296875, 12)"><g class="label" style="" transform="translate(0,-12)"><foreignObject width="201.015625" height="24"><div xmlns="http://www.w3.org/1999/xhtml" style="display: table-cell; white-space: nowrap; line-height: 1.5; max-width: 274px; text-align: center;"><span class="nodeLabel markdown-node-label" style=""><p>&lt;&gt; +Real value; unit = dBTP</p></span></div></foreignObject></g></g><g class="methods-group text" transform="translate(-118.296875, 60)"/><g class="divider" style=""><path d="M-130.296875 -12 C-35.364323000043115 -11.99963570671975, 59.56822899991377 -11.999271413439502, 130.296875 -11.999 M-130.296875 -12 C-64.8408051291338 -11.99974881949444, 0.6152647417324033 -11.99949763898888, 130.296875 -11.999" stroke="#9370DB" stroke-width="1.3" fill="none" stroke-dasharray="0 0" style=""/></g><g class="divider" style=""><path d="M-130.296875 36 C-33.134217312412915 36.00037285106679, 64.02844037517417 36.000745702133585, 130.296875 36.001 M-130.296875 36 C-63.9008402099719 36.00025478751808, 2.495194580056193 36.00050957503616, 130.296875 36.001" stroke="#9370DB" stroke-width="1.3" fill="none" stroke-dasharray="0 0" style=""/></g></g><g class="node default" id="my-svg-classId-SyncError-3" data-look="classic" transform="translate(1030.6796875, 68)"><g class="basic label-container outer-path"><path d="M-122.5078125 -60 L122.5078125 -60 L122.5078125 60 L-122.5078125 60" stroke="none" stroke-width="0" fill="#ECECFF" style=""/><path d="M-122.5078125 -60 C-37.24382141471271 -60, 48.020169670574575 -60, 122.5078125 -60 M-122.5078125 -60 C-65.65341242835584 -60, -8.799012356711685 -60, 122.5078125 -60 M122.5078125 -60 C122.5078125 -23.379917410975693, 122.5078125 13.240165178048613, 122.5078125 60 M122.5078125 -60 C122.5078125 -17.94780451767187, 122.5078125 24.10439096465626, 122.5078125 60 M122.5078125 60 C56.91909879515909 60, -8.669614909681826 60, -122.5078125 60 M122.5078125 60 C28.273457611833635 60, -65.96089727633273 60, -122.5078125 60 M-122.5078125 60 C-122.5078125 13.612718757137081, -122.5078125 -32.77456248572584, -122.5078125 -60 M-122.5078125 60 C-122.5078125 12.01518137856791, -122.5078125 -35.96963724286418, -122.5078125 -60" stroke="#9370DB" stroke-width="1.3" fill="none" stroke-dasharray="0 0" style=""/></g><g class="annotation-group text" transform="translate(0, -36)"/><g class="label-group text" transform="translate(-38.6875, -36)"><g class="label" style="font-weight: bolder" transform="translate(0,-12)"><foreignObject width="77.375" height="24"><div xmlns="http://www.w3.org/1999/xhtml" style="display: table-cell; white-space: nowrap; line-height: 1.5; max-width: 116px; text-align: center;"><span class="nodeLabel markdown-node-label" style=""><p>SyncError</p></span></div></foreignObject></g></g><g class="members-group text" transform="translate(-110.5078125, 12)"><g class="label" style="" transform="translate(0,-12)"><foreignObject width="182.328125" height="24"><div xmlns="http://www.w3.org/1999/xhtml" style="display: table-cell; white-space: nowrap; line-height: 1.5; max-width: 255px; text-align: center;"><span class="nodeLabel markdown-node-label" style=""><p>&lt;&gt; +Real value; unit = ms</p></span></div></foreignObject></g></g><g class="methods-group text" transform="translate(-110.5078125, 60)"/><g class="divider" style=""><path d="M-122.5078125 -12 C-30.72505169557195 -11.999625400376795, 61.0577091088561 -11.99925080075359, 122.5078125 -11.999 M-122.5078125 -12 C-51.78087267635672 -11.999711337022594, 18.946067147286556 -11.999422674045187, 122.5078125 -11.999" stroke="#9370DB" stroke-width="1.3" fill="none" stroke-dasharray="0 0" style=""/></g><g class="divider" style=""><path d="M-122.5078125 36 C-36.41293727392936 36.00035138524421, 49.68193795214128 36.00070277048842, 122.5078125 36.001 M-122.5078125 36 C-63.088186013724695 36.00024251362127, -3.668559527449389 36.00048502724254, 122.5078125 36.001" stroke="#9370DB" stroke-width="1.3" fill="none" stroke-dasharray="0 0" style=""/></g></g><g class="node default" id="my-svg-classId-DataSize-4" data-look="classic" transform="translate(1335.94140625, 68)"><g class="basic label-container outer-path"><path d="M-132.75390625 -60 L132.75390625 -60 L132.75390625 60 L-132.75390625 60" stroke="none" stroke-width="0" fill="#ECECFF" style=""/><path d="M-132.75390625 -60 C-48.0739724401226 -60, 36.605961369754795 -60, 132.75390625 -60 M-132.75390625 -60 C-44.53763162601824 -60, 43.67864299796352 -60, 132.75390625 -60 M132.75390625 -60 C132.75390625 -19.853361809736185, 132.75390625 20.29327638052763, 132.75390625 60 M132.75390625 -60 C132.75390625 -22.661996590810553, 132.75390625 14.676006818378895, 132.75390625 60 M132.75390625 60 C61.36487684125268 60, -10.024152567494639 60, -132.75390625 60 M132.75390625 60 C45.33812866778109 60, -42.077648914437816 60, -132.75390625 60 M-132.75390625 60 C-132.75390625 32.91020582114803, -132.75390625 5.820411642296065, -132.75390625 -60 M-132.75390625 60 C-132.75390625 23.09719433669055, -132.75390625 -13.805611326618902, -132.75390625 -60" stroke="#9370DB" stroke-width="1.3" fill="none" stroke-dasharray="0 0" style=""/></g><g class="annotation-group text" transform="translate(0, -36)"/><g class="label-group text" transform="translate(-33.3515625, -36)"><g class="label" style="font-weight: bolder" transform="translate(0,-12)"><foreignObject width="66.703125" height="24"><div xmlns="http://www.w3.org/1999/xhtml" style="display: table-cell; white-space: nowrap; line-height: 1.5; max-width: 108px; text-align: center;"><span class="nodeLabel markdown-node-label" style=""><p>DataSize</p></span></div></foreignObject></g></g><g class="members-group text" transform="translate(-120.75390625, 12)"><g class="label" style="" transform="translate(0,-12)"><foreignObject width="208.15625" height="24"><div xmlns="http://www.w3.org/1999/xhtml" style="display: table-cell; white-space: nowrap; line-height: 1.5; max-width: 280px; text-align: center;"><span class="nodeLabel markdown-node-label" style=""><p>&lt;&gt; +Integer value; unit = byte</p></span></div></foreignObject></g></g><g class="methods-group text" transform="translate(-120.75390625, 60)"/><g class="divider" style=""><path d="M-132.75390625 -12 C-45.23403246072969 -11.999670367990436, 42.28584132854061 -11.999340735980873, 132.75390625 -11.999 M-132.75390625 -12 C-62.669507631446066 -11.99973603639773, 7.414890987107867 -11.99947207279546, 132.75390625 -11.999" stroke="#9370DB" stroke-width="1.3" fill="none" stroke-dasharray="0 0" style=""/></g><g class="divider" style=""><path d="M-132.75390625 36 C-47.022676564708945 36.00032289531851, 38.70855312058211 36.00064579063703, 132.75390625 36.001 M-132.75390625 36 C-41.748149046008606 36.00034276112762, 49.25760815798279 36.00068552225523, 132.75390625 36.001" stroke="#9370DB" stroke-width="1.3" fill="none" stroke-dasharray="0 0" style=""/></g></g><g class="node default" id="my-svg-classId-TransitionKind-5" data-look="classic" transform="translate(1753.9140625, 68)"><g class="basic label-container outer-path"><path d="M-235.21875 -60 L235.21875 -60 L235.21875 60 L-235.21875 60" stroke="none" stroke-width="0" fill="#ECECFF" style=""/><path d="M-235.21875 -60 C-81.98263789968331 -60, 71.25347420063338 -60, 235.21875 -60 M-235.21875 -60 C-75.64170494926512 -60, 83.93534010146976 -60, 235.21875 -60 M235.21875 -60 C235.21875 -20.0421504067197, 235.21875 19.9156991865606, 235.21875 60 M235.21875 -60 C235.21875 -25.42486391017968, 235.21875 9.150272179640638, 235.21875 60 M235.21875 60 C101.59012792943756 60, -32.038494141124886 60, -235.21875 60 M235.21875 60 C103.60298685230327 60, -28.01277629539345 60, -235.21875 60 M-235.21875 60 C-235.21875 16.74073115703783, -235.21875 -26.518537685924343, -235.21875 -60 M-235.21875 60 C-235.21875 20.536893374391205, -235.21875 -18.92621325121759, -235.21875 -60" stroke="#9370DB" stroke-width="1.3" fill="none" stroke-dasharray="0 0" style=""/></g><g class="annotation-group text" transform="translate(0, -36)"/><g class="label-group text" transform="translate(-56, -36)"><g class="label" style="font-weight: bolder" transform="translate(0,-12)"><foreignObject width="112" height="24"><div xmlns="http://www.w3.org/1999/xhtml" style="display: table-cell; white-space: nowrap; line-height: 1.5; max-width: 147px; text-align: center;"><span class="nodeLabel markdown-node-label" style=""><p>TransitionKind</p></span></div></foreignObject></g></g><g class="members-group text" transform="translate(-223.21875, 12)"><g class="label" style="" transform="translate(0,-12)"><foreignObject width="390.4375" height="24"><div xmlns="http://www.w3.org/1999/xhtml" style="display: table-cell; white-space: nowrap; line-height: 1.5; max-width: 442px; text-align: center;"><span class="nodeLabel markdown-node-label" style=""><p>&lt;&gt; none crossfade dissolve fade wipe slide circle radial</p></span></div></foreignObject></g></g><g class="methods-group text" transform="translate(-223.21875, 60)"/><g class="divider" style=""><path d="M-235.21875 -12 C-112.61832198612315 -11.999739390614026, 9.982106027753701 -11.999478781228053, 235.21875 -11.999 M-235.21875 -12 C-117.94641397587672 -11.999750716437308, -0.6740779517534463 -11.999501432874615, 235.21875 -11.999" stroke="#9370DB" stroke-width="1.3" fill="none" stroke-dasharray="0 0" style=""/></g><g class="divider" style=""><path d="M-235.21875 36 C-121.82200845117752 36.000241045285605, -8.425266902355048 36.00048209057122, 235.21875 36.001 M-235.21875 36 C-115.68678392093696 36.0002540868151, 3.8451821581260788 36.0005081736302, 235.21875 36.001" stroke="#9370DB" stroke-width="1.3" fill="none" stroke-dasharray="0 0" style=""/></g></g><g class="node default" id="my-svg-classId-Status-6" data-look="classic" transform="translate(2122.0703125, 68)"><g class="basic label-container outer-path"><path d="M-82.9375 -60 L82.9375 -60 L82.9375 60 L-82.9375 60" stroke="none" stroke-width="0" fill="#ECECFF" style=""/><path d="M-82.9375 -60 C-36.29665971261511 -60, 10.34418057476978 -60, 82.9375 -60 M-82.9375 -60 C-40.865292967631376 -60, 1.2069140647372478 -60, 82.9375 -60 M82.9375 -60 C82.9375 -32.11241471591313, 82.9375 -4.224829431826272, 82.9375 60 M82.9375 -60 C82.9375 -35.162073798240485, 82.9375 -10.324147596480962, 82.9375 60 M82.9375 60 C20.211511038909478 60, -42.514477922181044 60, -82.9375 60 M82.9375 60 C45.17598226061206 60, 7.414464521224119 60, -82.9375 60 M-82.9375 60 C-82.9375 14.446147842619652, -82.9375 -31.107704314760696, -82.9375 -60 M-82.9375 60 C-82.9375 24.483028393292685, -82.9375 -11.03394321341463, -82.9375 -60" stroke="#9370DB" stroke-width="1.3" fill="none" stroke-dasharray="0 0" style=""/></g><g class="annotation-group text" transform="translate(0, -36)"/><g class="label-group text" transform="translate(-24.453125, -36)"><g class="label" style="font-weight: bolder" transform="translate(0,-12)"><foreignObject width="48.90625" height="24"><div xmlns="http://www.w3.org/1999/xhtml" style="display: table-cell; white-space: nowrap; line-height: 1.5; max-width: 89px; text-align: center;"><span class="nodeLabel markdown-node-label" style=""><p>Status</p></span></div></foreignObject></g></g><g class="members-group text" transform="translate(-70.9375, 12)"><g class="label" style="" transform="translate(0,-12)"><foreignObject width="117.421875" height="24"><div xmlns="http://www.w3.org/1999/xhtml" style="display: table-cell; white-space: nowrap; line-height: 1.5; max-width: 197px; text-align: center;"><span class="nodeLabel markdown-node-label" style=""><p>&lt;&gt; Built Planned</p></span></div></foreignObject></g></g><g class="methods-group text" transform="translate(-70.9375, 60)"/><g class="divider" style=""><path d="M-82.9375 -12 C-26.967679751611378 -11.999662578325557, 29.002140496777244 -11.999325156651112, 82.9375 -11.999 M-82.9375 -12 C-19.0937039023121 -11.999615108991122, 44.7500921953758 -11.999230217982245, 82.9375 -11.999" stroke="#9370DB" stroke-width="1.3" fill="none" stroke-dasharray="0 0" style=""/></g><g class="divider" style=""><path d="M-82.9375 36 C-40.611085539706814 36.00025517054686, 1.7153289205863729 36.000510341093715, 82.9375 36.001 M-82.9375 36 C-19.801304310516663 36.00038062514357, 43.334891378966674 36.000761250287134, 82.9375 36.001" stroke="#9370DB" stroke-width="1.3" fill="none" stroke-dasharray="0 0" style=""/></g></g><g class="node default" id="my-svg-classId-VerificationMethodKind-7" data-look="classic" transform="translate(2462.27734375, 68)"><g class="basic label-container outer-path"><path d="M-207.26953125 -60 L207.26953125 -60 L207.26953125 60 L-207.26953125 60" stroke="none" stroke-width="0" fill="#ECECFF" style=""/><path d="M-207.26953125 -60 C-106.234115835219 -60, -5.198700420438001 -60, 207.26953125 -60 M-207.26953125 -60 C-93.97015214474567 -60, 19.329226960508663 -60, 207.26953125 -60 M207.26953125 -60 C207.26953125 -23.019591272811354, 207.26953125 13.960817454377292, 207.26953125 60 M207.26953125 -60 C207.26953125 -28.2130901940156, 207.26953125 3.5738196119688013, 207.26953125 60 M207.26953125 60 C81.4267671243252 60, -44.41599700134961 60, -207.26953125 60 M207.26953125 60 C88.29590536422174 60, -30.677720521556523 60, -207.26953125 60 M-207.26953125 60 C-207.26953125 22.93829048267861, -207.26953125 -14.12341903464278, -207.26953125 -60 M-207.26953125 60 C-207.26953125 16.97714609363591, -207.26953125 -26.045707812728182, -207.26953125 -60" stroke="#9370DB" stroke-width="1.3" fill="none" stroke-dasharray="0 0" style=""/></g><g class="annotation-group text" transform="translate(0, -36)"/><g class="label-group text" transform="translate(-89.3359375, -36)"><g class="label" style="font-weight: bolder" transform="translate(0,-12)"><foreignObject width="178.671875" height="24"><div xmlns="http://www.w3.org/1999/xhtml" style="display: table-cell; white-space: nowrap; line-height: 1.5; max-width: 207px; text-align: center;"><span class="nodeLabel markdown-node-label" style=""><p>VerificationMethodKind</p></span></div></foreignObject></g></g><g class="members-group text" transform="translate(-195.26953125, 12)"><g class="label" style="" transform="translate(0,-12)"><foreignObject width="301.203125" height="24"><div xmlns="http://www.w3.org/1999/xhtml" style="display: table-cell; white-space: nowrap; line-height: 1.5; max-width: 365px; text-align: center;"><span class="nodeLabel markdown-node-label" style=""><p>&lt;&gt; Inspection Analysis Demonstration Test</p></span></div></foreignObject></g></g><g class="methods-group text" transform="translate(-195.26953125, 60)"/><g class="divider" style=""><path d="M-207.26953125 -12 C-84.12496760067731 -11.999702936165034, 39.01959604864538 -11.999405872330069, 207.26953125 -11.999 M-207.26953125 -12 C-74.62103059664926 -11.999680009647696, 58.027470056701475 -11.999360019295391, 207.26953125 -11.999" stroke="#9370DB" stroke-width="1.3" fill="none" stroke-dasharray="0 0" style=""/></g><g class="divider" style=""><path d="M-207.26953125 36 C-90.06137105371161 36.000282743342666, 27.14678914257678 36.000565486685325, 207.26953125 36.001 M-207.26953125 36 C-45.24145773237751 36.00039086322177, 116.78661578524498 36.000781726443535, 207.26953125 36.001" stroke="#9370DB" stroke-width="1.3" fill="none" stroke-dasharray="0 0" style=""/></g></g></g></g></g><defs><filter id="my-svg-drop-shadow" height="130%" width="130%"><feDropShadow dx="4" dy="4" stdDeviation="0" flood-opacity="0.06" flood-color="#000000"/></filter></defs><defs><filter id="my-svg-drop-shadow-small" height="150%" width="150%"><feDropShadow dx="2" dy="2" stdDeviation="0" flood-opacity="0.06" flood-color="#000000"/></filter></defs></svg>