<svg id="my-svg" width="100%" xmlns="http://www.w3.org/2000/svg" xmlns:xlink="http://www.w3.org/1999/xlink" class="classDiagram" style="max-width: 2677.55px; background-color: white;" viewBox="0 0 2677.546875 136" role="graphics-document document" aria-roledescription="class"><style>#my-svg{font-family:"trebuchet ms",verdana,arial,sans-serif;font-size:16px;fill:#333;}@keyframes edge-animation-frame{from{stroke-dashoffset:0;}}@keyframes dash{to{stroke-dashoffset:0;}}#my-svg .edge-animation-slow{stroke-dasharray:9,5!important;stroke-dashoffset:900;animation:dash 50s linear infinite;stroke-linecap:round;}#my-svg .edge-animation-fast{stroke-dasharray:9,5!important;stroke-dashoffset:900;animation:dash 20s linear infinite;stroke-linecap:round;}#my-svg .error-icon{fill:#552222;}#my-svg .error-text{fill:#552222;stroke:#552222;}#my-svg .edge-thickness-normal{stroke-width:1px;}#my-svg .edge-thickness-thick{stroke-width:3.5px;}#my-svg .edge-pattern-solid{stroke-dasharray:0;}#my-svg .edge-thickness-invisible{stroke-width:0;fill:none;}#my-svg .edge-pattern-dashed{stroke-dasharray:3;}#my-svg .edge-pattern-dotted{stroke-dasharray:2;}#my-svg .marker{fill:#333333;stroke:#333333;}#my-svg .marker.cross{stroke:#333333;}#my-svg svg{font-family:"trebuchet ms",verdana,arial,sans-serif;font-size:16px;}#my-svg p{margin:0;}#my-svg g.classGroup text{fill:#9370DB;stroke:none;font-family:"trebuchet ms",verdana,arial,sans-serif;font-size:10px;}#my-svg g.classGroup text .title{font-weight:bolder;}#my-svg .cluster-label text{fill:#333;}#my-svg .cluster-label span{color:#333;}#my-svg .cluster-label span p{background-color:transparent;}#my-svg .cluster rect{fill:#ffffde;stroke:#aaaa33;stroke-width:1px;}#my-svg .cluster text{fill:#333;}#my-svg .cluster span{color:#333;}#my-svg .nodeLabel,#my-svg .edgeLabel{color:#131300;}#my-svg .noteLabel .nodeLabel,#my-svg .noteLabel .edgeLabel{color:black;}#my-svg .edgeLabel .label rect{fill:#ECECFF;}#my-svg .label text{fill:#131300;}#my-svg .labelBkg{background:#ECECFF;}#my-svg .edgeLabel .label span{background:#ECECFF;}#my-svg .classTitle{font-weight:bolder;}#my-svg .node rect,#my-svg .node circle,#my-svg .node ellipse,#my-svg .node polygon,#my-svg .node path{fill:#ECECFF;stroke:#9370DB;stroke-width:1;}#my-svg .divider{stroke:#9370DB;stroke-width:1;}#my-svg g.clickable{cursor:pointer;}#my-svg g.classGroup rect{fill:#ECECFF;stroke:#9370DB;}#my-svg g.classGroup line{stroke:#9370DB;stroke-width:1;}#my-svg .classLabel .box{stroke:none;stroke-width:0;fill:#ECECFF;opacity:0.5;}#my-svg .classLabel .label{fill:#9370DB;font-size:10px;}#my-svg .relation{stroke:#333333;stroke-width:1;fill:none;}#my-svg .dashed-line{stroke-dasharray:3;}#my-svg .dotted-line{stroke-dasharray:1 2;}#my-svg [id$="-compositionStart"],#my-svg .composition{fill:#333333!important;stroke:#333333!important;stroke-width:1;}#my-svg [id$="-compositionEnd"],#my-svg .composition{fill:#333333!important;stroke:#333333!important;stroke-width:1;}#my-svg [id$="-dependencyStart"],#my-svg .dependency{fill:#333333!important;stroke:#333333!important;stroke-width:1;}#my-svg [id$="-dependencyEnd"],#my-svg .dependency{fill:#333333!important;stroke:#333333!important;stroke-width:1;}#my-svg [id$="-extensionStart"],#my-svg .extension{fill:transparent!important;stroke:#333333!important;stroke-width:1;}#my-svg [id$="-extensionEnd"],#my-svg .extension{fill:transparent!important;stroke:#333333!important;stroke-width:1;}#my-svg [id$="-aggregationStart"],#my-svg .aggregation{fill:transparent!important;stroke:#333333!important;stroke-width:1;}#my-svg [id$="-aggregationEnd"],#my-svg .aggregation{fill:transparent!important;stroke:#333333!important;stroke-width:1;}#my-svg [id$="-lollipopStart"],#my-svg .lollipop{fill:#ECECFF!important;stroke:#333333!important;stroke-width:1;}#my-svg [id$="-lollipopEnd"],#my-svg .lollipop{fill:#ECECFF!important;stroke:#333333!important;stroke-width:1;}#my-svg .edgeTerminals{font-size:11px;line-height:initial;}#my-svg .classTitleText{text-anchor:middle;font-size:18px;fill:#333;}#my-svg .edgeLabel[data-look="neo"]{background-color:rgba(232,232,232, 0.8);text-align:center;}#my-svg .edgeLabel[data-look="neo"] p{background-color:rgba(232,232,232, 0.8);}#my-svg .edgeLabel[data-look="neo"] rect{opacity:0.5;background-color:rgba(232,232,232, 0.8);fill:rgba(232,232,232, 0.8);}#my-svg .label-icon{display:inline-block;height:1em;overflow:visible;vertical-align:-0.125em;}#my-svg .node .label-icon path{fill:currentColor;stroke:revert;stroke-width:revert;}#my-svg .node .neo-node{stroke:#9370DB;}#my-svg [data-look="neo"].node rect,#my-svg [data-look="neo"].cluster rect,#my-svg [data-look="neo"].node polygon{stroke:#9370DB;filter:drop-shadow(1px 2px 2px rgba(185, 185, 185, 1));}#my-svg [data-look="neo"].node path{stroke:#9370DB;stroke-width:1px;}#my-svg [data-look="neo"].node .outer-path{filter:drop-shadow(1px 2px 2px rgba(185, 185, 185, 1));}#my-svg [data-look="neo"].node .neo-line path{stroke:#9370DB;filter:none;}#my-svg [data-look="neo"].node circle{stroke:#9370DB;filter:drop-shadow(1px 2px 2px rgba(185, 185, 185, 1));}#my-svg [data-look="neo"].node circle .state-start{fill:#000000;}#my-svg [data-look="neo"].icon-shape .icon{fill:#9370DB;filter:drop-shadow(1px 2px 2px rgba(185, 185, 185, 1));}#my-svg [data-look="neo"].icon-shape .icon-neo path{stroke:#9370DB;filter:drop-shadow(1px 2px 2px rgba(185, 185, 185, 1));}#my-svg :root{--mermaid-font-family:"trebuchet ms",verdana,arial,sans-serif;}</style><g><defs><marker id="my-svg_class-aggregationStart" class="marker aggregation class" refX="18" refY="7" markerWidth="190" markerHeight="240" orient="auto"><path d="M 18,7 L9,13 L1,7 L9,1 Z"/></marker></defs><defs><marker id="my-svg_class-aggregationEnd" class="marker aggregation class" refX="1" refY="7" markerWidth="20" markerHeight="28" orient="auto"><path d="M 18,7 L9,13 L1,7 L9,1 Z"/></marker></defs><defs><marker id="my-svg_class-aggregationStart-margin" class="marker aggregation class" refX="15" refY="7" markerWidth="190" markerHeight="240" orient="auto" markerUnits="userSpaceOnUse"><path d="M 18,7 L9,13 L1,7 L9,1 Z" style="stroke-width: 2;"/></marker></defs><defs><marker id="my-svg_class-aggregationEnd-margin" class="marker aggregation class" refX="1" refY="7" markerWidth="20" markerHeight="28" orient="auto" markerUnits="userSpaceOnUse"><path d="M 18,7 L9,13 L1,7 L9,1 Z" style="stroke-width: 2;"/></marker></defs><defs><marker id="my-svg_class-extensionStart" class="marker extension class" refX="18" refY="7" markerWidth="20" markerHeight="28" orient="auto" markerUnits="userSpaceOnUse"><path d="M 1,7 L18,13 V 1 Z"/></marker></defs><defs><marker id="my-svg_class-extensionEnd" class="marker extension class" refX="1" refY="7" markerWidth="20" markerHeight="28" orient="auto"><path d="M 1,1 V 13 L18,7 Z"/></marker></defs><marker id="my-svg_class-extensionStart-margin" class="marker extension class" refX="18" refY="7" markerWidth="20" markerHeight="28" orient="auto" markerUnits="userSpaceOnUse" viewBox="0 0 20 14"><polygon points="10,7 18,13 18,1" style="stroke-width: 2; stroke-dasharray: 0;"/></marker><defs><marker id="my-svg_class-extensionEnd-margin" class="marker extension class" refX="9" refY="7" markerWidth="20" markerHeight="28" orient="auto" markerUnits="userSpaceOnUse" viewBox="0 0 20 14"><polygon points="10,1 10,13 18,7" style="stroke-width: 2; stroke-dasharray: 0;"/></marker></defs><defs><marker id="my-svg_class-compositionStart" class="marker composition class" refX="18" refY="7" markerWidth="190" markerHeight="240" orient="auto"><path d="M 18,7 L9,13 L1,7 L9,1 Z"/></marker></defs><defs><marker id="my-svg_class-compositionEnd" class="marker composition class" refX="1" refY="7" markerWidth="20" markerHeight="28" orient="auto"><path d="M 18,7 L9,13 L1,7 L9,1 Z"/></marker></defs><defs><marker id="my-svg_class-compositionStart-margin" class="marker composition class" refX="15" refY="7" markerWidth="190" markerHeight="240" orient="auto" markerUnits="userSpaceOnUse"><path viewBox="0 0 15 15" d="M 18,7 L9,13 L1,7 L9,1 Z" style="stroke-width: 0;"/></marker></defs><defs><marker id="my-svg_class-compositionEnd-margin" class="marker composition class" refX="3.5" refY="7" markerWidth="20" markerHeight="28" orient="auto" markerUnits="userSpaceOnUse"><path d="M 18,7 L9,13 L1,7 L9,1 Z" style="stroke-width: 0;"/></marker></defs><defs><marker id="my-svg_class-dependencyStart" class="marker dependency class" refX="6" refY="7" markerWidth="190" markerHeight="240" orient="auto"><path d="M 5,7 L9,13 L1,7 L9,1 Z"/></marker></defs><defs><marker id="my-svg_class-dependencyEnd" class="marker dependency class" refX="13" refY="7" markerWidth="20" markerHeight="28" orient="auto"><path d="M 18,7 L9,13 L14,7 L9,1 Z"/></marker></defs><defs><marker id="my-svg_class-dependencyStart-margin" class="marker dependency class" refX="4" refY="7" markerWidth="190" markerHeight="240" orient="auto" markerUnits="userSpaceOnUse"><path d="M 5,7 L9,13 L1,7 L9,1 Z" style="stroke-width: 0;"/></marker></defs><defs><marker id="my-svg_class-dependencyEnd-margin" class="marker dependency class" refX="16" refY="7" markerWidth="20" markerHeight="28" orient="auto" markerUnits="userSpaceOnUse"><path d="M 18,7 L9,13 L14,7 L9,1 Z" style="stroke-width: 0;"/></marker></defs><defs><marker id="my-svg_class-lollipopStart" class="marker lollipop class" refX="13" refY="7" markerWidth="190" markerHeight="240" orient="auto"><circle fill="transparent" cx="7" cy="7" r="6"/></marker></defs><defs><marker id="my-svg_class-lollipopEnd" class="marker lollipop class" refX="1" refY="7" markerWidth="190" markerHeight="240" orient="auto"><circle fill="transparent" cx="7" cy="7" r="6"/></marker></defs><defs><marker id="my-svg_class-lollipopStart-margin" class="marker lollipop class" refX="13" refY="7" markerWidth="190" markerHeight="240" orient="auto" markerUnits="userSpaceOnUse"><circle fill="transparent" cx="7" cy="7" r="6" stroke-width="2"/></marker></defs><defs><marker id="my-svg_class-lollipopEnd-margin" class="marker lollipop class" refX="1" refY="7" markerWidth="190" markerHeight="240" orient="auto" markerUnits="userSpaceOnUse"><circle fill="transparent" cx="7" cy="7" r="6" stroke-width="2"/></marker></defs><g class="root"><g class="clusters"/><g class="edgePaths"/><g class="edgeLabels"/><g class="nodes"><g class="node default" id="my-svg-classId-Duration-0" data-look="classic" transform="translate(120.9453125, 68)"><g class="basic label-container outer-path"><path d="M-112.9453125 -60 L112.9453125 -60 L112.9453125 60 L-112.9453125 60" stroke="none" stroke-width="0" fill="#ECECFF" style=""/><path d="M-112.9453125 -60 C-66.45847405073914 -60, -19.971635601478283 -60, 112.9453125 -60 M-112.9453125 -60 C-24.558187083794962 -60, 63.828938332410075 -60, 112.9453125 -60 M112.9453125 -60 C112.9453125 -31.27812634397551, 112.9453125 -2.556252687951023, 112.9453125 60 M112.9453125 -60 C112.9453125 -20.592877701846916, 112.9453125 18.814244596306168, 112.9453125 60 M112.9453125 60 C47.16093117349419 60, -18.623450153011618 60, -112.9453125 60 M112.9453125 60 C48.13178658472533 60, -16.681739330549334 60, -112.9453125 60 M-112.9453125 60 C-112.9453125 32.913835827654225, -112.9453125 5.827671655308457, -112.9453125 -60 M-112.9453125 60 C-112.9453125 24.587627292238942, -112.9453125 -10.824745415522116, -112.9453125 -60" stroke="#9370DB" stroke-width="1.3" fill="none" stroke-dasharray="0 0" style=""/></g><g class="annotation-group text" transform="translate(0, -36)"/><g class="label-group text" transform="translate(-32.890625, -36)"><g class="label" style="font-weight: bolder" transform="translate(0,-12)"><foreignObject width="65.78125" height="24"><div xmlns="http://www.w3.org/1999/xhtml" style="display: table-cell; white-space: nowrap; line-height: 1.5; max-width: 107px; text-align: center;"><span class="nodeLabel markdown-node-label" style=""><p>Duration</p></span></div></foreignObject></g></g><g class="members-group text" transform="translate(-100.9453125, 12)"><g class="label" style="" transform="translate(0,-12)"><foreignObject width="169" height="24"><div xmlns="http://www.w3.org/1999/xhtml" style="display: table-cell; white-space: nowrap; line-height: 1.5; max-width: 243px; text-align: center;"><span class="nodeLabel markdown-node-label" style=""><p>&lt;&gt; +Real value; unit = s</p></span></div></foreignObject></g></g><g class="methods-group text" transform="translate(-100.9453125, 60)"/><g class="divider" style=""><path d="M-112.9453125 -12 C-57.97675349842748 -11.999756658520019, -3.008194496854955 -11.999513317040035, 112.9453125 -11.999 M-112.9453125 -12 C-49.235108473660176 -11.999717959946206, 14.475095552679647 -11.999435919892415, 112.9453125 -11.999" stroke="#9370DB" stroke-width="1.3" fill="none" stroke-dasharray="0 0" style=""/></g><g class="divider" style=""><path d="M-112.9453125 36 C-28.735336452865724 36.00037279092945, 55.47463959426855 36.000745581858894, 112.9453125 36.001 M-112.9453125 36 C-39.48363055804079 36.00032520907825, 33.97805138391843 36.0006504181565, 112.9453125 36.001" stroke="#9370DB" stroke-width="1.3" fill="none" stroke-dasharray="0 0" style=""/></g></g><g class="node default" id="my-svg-classId-Loudness-1" data-look="classic" transform="translate(415.734375, 68)"><g class="basic label-container outer-path"><path d="M-131.84375 -60 L131.84375 -60 L131.84375 60 L-131.84375 60" stroke="none" stroke-width="0" fill="#ECECFF" style=""/><path d="M-131.84375 -60 C-77.23627966014996 -60, -22.628809320299908 -60, 131.84375 -60 M-131.84375 -60 C-38.3086560475715 -60, 55.226437904856994 -60, 131.84375 -60 M131.84375 -60 C131.84375 -25.760389636653336, 131.84375 8.479220726693327, 131.84375 60 M131.84375 -60 C131.84375 -27.250492674435037, 131.84375 5.499014651129926, 131.84375 60 M131.84375 60 C58.41644113477565 60, -15.010867730448695 60, -131.84375 60 M131.84375 60 C52.229532061157784 60, -27.384685877684433 60, -131.84375 60 M-131.84375 60 C-131.84375 17.062755276954753, -131.84375 -25.874489446090493, -131.84375 -60 M-131.84375 60 C-131.84375 21.420501752443876, -131.84375 -17.15899649511225, -131.84375 -60" stroke="#9370DB" stroke-width="1.3" fill="none" stroke-dasharray="0 0" style=""/></g><g class="annotation-group text" transform="translate(0, -36)"/><g class="label-group text" transform="translate(-37.78125, -36)"><g class="label" style="font-weight: bolder" transform="translate(0,-12)"><foreignObject width="75.5625" height="24"><div xmlns="http://www.w3.org/1999/xhtml" style="display: table-cell; white-space: nowrap; line-height: 1.5; max-width: 111px; text-align: center;"><span class="nodeLabel markdown-node-label" style=""><p>Loudness</p></span></div></foreignObject></g></g><g class="members-group text" transform="translate(-119.84375, 12)"><g class="label" style="" transform="translate(0,-12)"><foreignObject width="201.90625" height="24"><div xmlns="http://www.w3.org/1999/xhtml" style="display: table-cell; white-space: nowrap; line-height: 1.5; max-width: 276px; text-align: center;"><span class="nodeLabel markdown-node-label" style=""><p>&lt;&gt; +Real value; unit = LUFS</p></span></div></foreignObject></g></g><g class="methods-group text" transform="translate(-119.84375, 60)"/><g class="divider" style=""><path d="M-131.84375 -12 C-49.44901037256639 -11.99968752883763, 32.94572925486722 -11.99937505767526, 131.84375 -11.999 M-131.84375 -12 C-76.16908659079867 -11.999788861195889, -20.49442318159734 -11.999577722391777, 131.84375 -11.999" stroke="#9370DB" stroke-width="1.3" fill="none" stroke-dasharray="0 0" style=""/></g><g class="divider" style=""><path d="M-131.84375 36 C-72.09623896031204 36.00022658454056, -12.348727920624071 36.000453169081126, 131.84375 36.001 M-131.84375 36 C-27.78174152713889 36.00039464141634, 76.28026694572222 36.00078928283269, 131.84375 36.001" stroke="#9370DB" stroke-width="1.3" fill="none" stroke-dasharray="0 0" style=""/></g></g><g class="node default" id="my-svg-classId-TruePeak-2" data-look="classic" transform="translate(727.875, 68)"><g class="basic label-container outer-path"><path d="M-130.296875 -60 L130.296875 -60 L130.296875 60 L-130.296875 60" stroke="none" stroke-width="0" fill="#ECECFF" style=""/><path d="M-130.296875 -60 C-77.96228876929943 -60, -25.627702538598868 -60, 130.296875 -60 M-130.296875 -60 C-72.78442820606186 -60, -15.271981412123722 -60, 130.296875 -60 M130.296875 -60 C130.296875 -31.51074238509026, 130.296875 -3.021484770180521, 130.296875 60 M130.296875 -60 C130.296875 -22.3527878302353, 130.296875 15.2944243395294, 130.296875 60 M130.296875 60 C45.74284061889158 60, -38.811193762216845 60, -130.296875 60 M130.296875 60 C30.295086173459822 60, -69.70670265308036 60, -130.296875 60 M-130.296875 60 C-130.296875 20.600278603588343, -130.296875 -18.799442792823314, -130.296875 -60 M-130.296875 60 C-130.296875 21.033966698273737, -130.296875 -17.932066603452526, -130.296875 -60" stroke="#9370DB" stroke-width="1.3" fill="none" stroke-dasharray="0 0" style=""/></g><g class="annotation-group text" transform="translate(0, -36)"/><g class="label-group text" transform="translate(-35.578125, -36)"><g class="label" style="font-weight: bolder" transform="translate(0,-12)"><foreignObject width="71.15625" height="24"><div xmlns="http://www.w3.org/1999/xhtml" style="display: table-cell; white-space: nowrap; line-height: 1.5; max-width: 111px; text-align: center;"><span class="nodeLabel markdown-node-label" style=""><p>TruePeak</p></span></div></foreignObject></g></g><g class="members-group text" transform="translate(-118.296875, 12)"><g class="label" style="" transform="translate(0,-12)"><foreignObject width="201.015625" height="24"><div xmlns="http://www.w3.org/1999/xhtml" style="display: table-cell; white-space: nowrap; line-height: 1.5; max-width: 274px; text-align: center;"><span class="nodeLabel markdown-node-label" style=""><p>&lt;&gt; +Real value; unit = dBTP</p></span></div></foreignObject></g></g><g class="methods-group text" transform="translate(-118.296875, 60)"/><g class="divider" style=""><path d="M-130.296875 -12 C-58.32876930207375 -11.999723830269536, 13.639336395852496 -11.999447660539074, 130.296875 -11.999 M-130.296875 -12 C-56.94024040071562 -11.99971850194182, 16.416394198568753 -11.999437003883637, 130.296875 -11.999" stroke="#9370DB" stroke-width="1.3" fill="none" stroke-dasharray="0 0" style=""/></g><g class="divider" style=""><path d="M-130.296875 36 C-61.6104190286118 36.000263576758734, 7.076036942776398 36.00052715351747, 130.296875 36.001 M-130.296875 36 C-63.889842728593635 36.000254829719715, 2.51718954281273 36.00050965943942, 130.296875 36.001" stroke="#9370DB" stroke-width="1.3" fill="none" stroke-dasharray="0 0" style=""/></g></g><g class="node default" id="my-svg-classId-SyncError-3" data-look="classic" transform="translate(1030.6796875, 68)"><g class="basic label-container outer-path"><path d="M-122.5078125 -60 L122.5078125 -60 L122.5078125 60 L-122.5078125 60" stroke="none" stroke-width="0" fill="#ECECFF" style=""/><path d="M-122.5078125 -60 C-64.21493666407076 -60, -5.9220608281415394 -60, 122.5078125 -60 M-122.5078125 -60 C-62.40123670740822 -60, -2.294660914816447 -60, 122.5078125 -60 M122.5078125 -60 C122.5078125 -18.406792198392814, 122.5078125 23.18641560321437, 122.5078125 60 M122.5078125 -60 C122.5078125 -23.035072208945813, 122.5078125 13.929855582108374, 122.5078125 60 M122.5078125 60 C46.39523526500831 60, -29.71734196998338 60, -122.5078125 60 M122.5078125 60 C30.563311212927886 60, -61.38119007414423 60, -122.5078125 60 M-122.5078125 60 C-122.5078125 12.775790153540477, -122.5078125 -34.448419692919046, -122.5078125 -60 M-122.5078125 60 C-122.5078125 23.285798243889907, -122.5078125 -13.428403512220186, -122.5078125 -60" stroke="#9370DB" stroke-width="1.3" fill="none" stroke-dasharray="0 0" style=""/></g><g class="annotation-group text" transform="translate(0, -36)"/><g class="label-group text" transform="translate(-38.6875, -36)"><g class="label" style="font-weight: bolder" transform="translate(0,-12)"><foreignObject width="77.375" height="24"><div xmlns="http://www.w3.org/1999/xhtml" style="display: table-cell; white-space: nowrap; line-height: 1.5; max-width: 116px; text-align: center;"><span class="nodeLabel markdown-node-label" style=""><p>SyncError</p></span></div></foreignObject></g></g><g class="members-group text" transform="translate(-110.5078125, 12)"><g class="label" style="" transform="translate(0,-12)"><foreignObject width="182.328125" height="24"><div xmlns="http://www.w3.org/1999/xhtml" style="display: table-cell; white-space: nowrap; line-height: 1.5; max-width: 255px; text-align: center;"><span class="nodeLabel markdown-node-label" style=""><p>&lt;&gt; +Real value; unit = ms</p></span></div></foreignObject></g></g><g class="methods-group text" transform="translate(-110.5078125, 60)"/><g class="divider" style=""><path d="M-122.5078125 -12 C-36.660170365218534 -11.999649623806095, 49.18747176956293 -11.999299247612191, 122.5078125 -11.999 M-122.5078125 -12 C-46.44281018054983 -11.99968955040186, 29.622192138900346 -11.999379100803719, 122.5078125 -11.999" stroke="#9370DB" stroke-width="1.3" fill="none" stroke-dasharray="0 0" style=""/></g><g class="divider" style=""><path d="M-122.5078125 36 C-39.27012291022088 36.00033972400572, 43.967566679558246 36.00067944801145, 122.5078125 36.001 M-122.5078125 36 C-55.68093220760312 36.000272745382226, 11.145948084793758 36.00054549076445, 122.5078125 36.001" stroke="#9370DB" stroke-width="1.3" fill="none" stroke-dasharray="0 0" style=""/></g></g><g class="node default" id="my-svg-classId-DataSize-4" data-look="classic" transform="translate(1335.94140625, 68)"><g class="basic label-container outer-path"><path d="M-132.75390625 -60 L132.75390625 -60 L132.75390625 60 L-132.75390625 60" stroke="none" stroke-width="0" fill="#ECECFF" style=""/><path d="M-132.75390625 -60 C-47.63120903245387 -60, 37.491488185092265 -60, 132.75390625 -60 M-132.75390625 -60 C-66.70602669316102 -60, -0.658147136322043 -60, 132.75390625 -60 M132.75390625 -60 C132.75390625 -21.934040287579336, 132.75390625 16.13191942484133, 132.75390625 60 M132.75390625 -60 C132.75390625 -32.97822266261928, 132.75390625 -5.956445325238562, 132.75390625 60 M132.75390625 60 C62.867143071899946 60, -7.019620106200108 60, -132.75390625 60 M132.75390625 60 C45.94043497538722 60, -40.87303629922556 60, -132.75390625 60 M-132.75390625 60 C-132.75390625 14.324690722923627, -132.75390625 -31.350618554152746, -132.75390625 -60 M-132.75390625 60 C-132.75390625 18.781894657678848, -132.75390625 -22.436210684642305, -132.75390625 -60" stroke="#9370DB" stroke-width="1.3" fill="none" stroke-dasharray="0 0" style=""/></g><g class="annotation-group text" transform="translate(0, -36)"/><g class="label-group text" transform="translate(-33.3515625, -36)"><g class="label" style="font-weight: bolder" transform="translate(0,-12)"><foreignObject width="66.703125" height="24"><div xmlns="http://www.w3.org/1999/xhtml" style="display: table-cell; white-space: nowrap; line-height: 1.5; max-width: 108px; text-align: center;"><span class="nodeLabel markdown-node-label" style=""><p>DataSize</p></span></div></foreignObject></g></g><g class="members-group text" transform="translate(-120.75390625, 12)"><g class="label" style="" transform="translate(0,-12)"><foreignObject width="208.15625" height="24"><div xmlns="http://www.w3.org/1999/xhtml" style="display: table-cell; white-space: nowrap; line-height: 1.5; max-width: 280px; text-align: center;"><span class="nodeLabel markdown-node-label" style=""><p>&lt;&gt; +Integer value; unit = byte</p></span></div></foreignObject></g></g><g class="methods-group text" transform="translate(-120.75390625, 60)"/><g class="divider" style=""><path d="M-132.75390625 -12 C-38.85579632569036 -11.999646345209054, 55.04231359861927 -11.999292690418107, 132.75390625 -11.999 M-132.75390625 -12 C-36.270065504656955 -11.999636606396487, 60.21377524068609 -11.999273212792973, 132.75390625 -11.999" stroke="#9370DB" stroke-width="1.3" fill="none" stroke-dasharray="0 0" style=""/></g><g class="divider" style=""><path d="M-132.75390625 36 C-54.59884468190512 36.000294360685025, 23.55621688618976 36.00058872137006, 132.75390625 36.001 M-132.75390625 36 C-71.3594183691144 36.00023123420476, -9.964930488228788 36.000462468409516, 132.75390625 36.001" stroke="#9370DB" stroke-width="1.3" fill="none" stroke-dasharray="0 0" style=""/></g></g><g class="node default" id="my-svg-classId-TransitionKind-5" data-look="classic" transform="translate(1753.9140625, 68)"><g class="basic label-container outer-path"><path d="M-235.21875 -60 L235.21875 -60 L235.21875 60 L-235.21875 60" stroke="none" stroke-width="0" fill="#ECECFF" style=""/><path d="M-235.21875 -60 C-138.0703788995545 -60, -40.922007799109 -60, 235.21875 -60 M-235.21875 -60 C-105.3196358369897 -60, 24.579478326020592 -60, 235.21875 -60 M235.21875 -60 C235.21875 -35.82469329191273, 235.21875 -11.64938658382546, 235.21875 60 M235.21875 -60 C235.21875 -20.805938880726337, 235.21875 18.388122238547325, 235.21875 60 M235.21875 60 C108.64916744942941 60, -17.920415101141174 60, -235.21875 60 M235.21875 60 C78.05664154217149 60, -79.10546691565702 60, -235.21875 60 M-235.21875 60 C-235.21875 13.876779680129452, -235.21875 -32.246440639741095, -235.21875 -60 M-235.21875 60 C-235.21875 31.04809082309396, -235.21875 2.0961816461879224, -235.21875 -60" stroke="#9370DB" stroke-width="1.3" fill="none" stroke-dasharray="0 0" style=""/></g><g class="annotation-group text" transform="translate(0, -36)"/><g class="label-group text" transform="translate(-56, -36)"><g class="label" style="font-weight: bolder" transform="translate(0,-12)"><foreignObject width="112" height="24"><div xmlns="http://www.w3.org/1999/xhtml" style="display: table-cell; white-space: nowrap; line-height: 1.5; max-width: 147px; text-align: center;"><span class="nodeLabel markdown-node-label" style=""><p>TransitionKind</p></span></div></foreignObject></g></g><g class="members-group text" transform="translate(-223.21875, 12)"><g class="label" style="" transform="translate(0,-12)"><foreignObject width="390.4375" height="24"><div xmlns="http://www.w3.org/1999/xhtml" style="display: table-cell; white-space: nowrap; line-height: 1.5; max-width: 442px; text-align: center;"><span class="nodeLabel markdown-node-label" style=""><p>&lt;&gt; none crossfade dissolve fade wipe slide circle radial</p></span></div></foreignObject></g></g><g class="methods-group text" transform="translate(-223.21875, 60)"/><g class="divider" style=""><path d="M-235.21875 -12 C-71.89460239058727 -11.999652824981832, 91.42954521882547 -11.999305649963665, 235.21875 -11.999 M-235.21875 -12 C-139.59568847425845 -11.999796735886221, -43.972626948516904 -11.999593471772442, 235.21875 -11.999" stroke="#9370DB" stroke-width="1.3" fill="none" stroke-dasharray="0 0" style=""/></g><g class="divider" style=""><path d="M-235.21875 36 C-60.90941687346282 36.00037052601701, 113.39991625307437 36.000741052034016, 235.21875 36.001 M-235.21875 36 C-135.00728307310027 36.00021301759942, -34.795816146200536 36.000426035198835, 235.21875 36.001" stroke="#9370DB" stroke-width="1.3" fill="none" stroke-dasharray="0 0" style=""/></g></g><g class="node default" id="my-svg-classId-Status-6" data-look="classic" transform="translate(2122.0703125, 68)"><g class="basic label-container outer-path"><path d="M-82.9375 -60 L82.9375 -60 L82.9375 60 L-82.9375 60" stroke="none" stroke-width="0" fill="#ECECFF" style=""/><path d="M-82.9375 -60 C-26.863540484635344 -60, 29.210419030729312 -60, 82.9375 -60 M-82.9375 -60 C-27.11337879080822 -60, 28.71074241838356 -60, 82.9375 -60 M82.9375 -60 C82.9375 -14.422214129708394, 82.9375 31.155571740583213, 82.9375 60 M82.9375 -60 C82.9375 -30.825643555806987, 82.9375 -1.651287111613975, 82.9375 60 M82.9375 60 C49.42982300461784 60, 15.922146009235675 60, -82.9375 60 M82.9375 60 C23.928642185935423 60, -35.08021562812915 60, -82.9375 60 M-82.9375 60 C-82.9375 29.288705664977222, -82.9375 -1.4225886700455561, -82.9375 -60 M-82.9375 60 C-82.9375 12.384490949381387, -82.9375 -35.231018101237225, -82.9375 -60" stroke="#9370DB" stroke-width="1.3" fill="none" stroke-dasharray="0 0" style=""/></g><g class="annotation-group text" transform="translate(0, -36)"/><g class="label-group text" transform="translate(-24.453125, -36)"><g class="label" style="font-weight: bolder" transform="translate(0,-12)"><foreignObject width="48.90625" height="24"><div xmlns="http://www.w3.org/1999/xhtml" style="display: table-cell; white-space: nowrap; line-height: 1.5; max-width: 89px; text-align: center;"><span class="nodeLabel markdown-node-label" style=""><p>Status</p></span></div></foreignObject></g></g><g class="members-group text" transform="translate(-70.9375, 12)"><g class="label" style="" transform="translate(0,-12)"><foreignObject width="117.421875" height="24"><div xmlns="http://www.w3.org/1999/xhtml" style="display: table-cell; white-space: nowrap; line-height: 1.5; max-width: 197px; text-align: center;"><span class="nodeLabel markdown-node-label" style=""><p>&lt;&gt; Built Planned</p></span></div></foreignObject></g></g><g class="methods-group text" transform="translate(-70.9375, 60)"/><g class="divider" style=""><path d="M-82.9375 -12 C-20.8399394746381 -11.999625636409794, 41.2576210507238 -11.999251272819588, 82.9375 -11.999 M-82.9375 -12 C-28.797438606061377 -11.999673609275696, 25.342622787877247 -11.999347218551392, 82.9375 -11.999" stroke="#9370DB" stroke-width="1.3" fill="none" stroke-dasharray="0 0" style=""/></g><g class="divider" style=""><path d="M-82.9375 36 C-43.688107970407074 36.000236620298594, -4.4387159408141486 36.00047324059719, 82.9375 36.001 M-82.9375 36 C-18.49817361593655 36.000388481244215, 45.9411527681269 36.00077696248843, 82.9375 36.001" stroke="#9370DB" stroke-width="1.3" fill="none" stroke-dasharray="0 0" style=""/></g></g><g class="node default" id="my-svg-classId-VerificationMethodKind-7" data-look="classic" transform="translate(2462.27734375, 68)"><g class="basic label-container outer-path"><path d="M-207.26953125 -60 L207.26953125 -60 L207.26953125 60 L-207.26953125 60" stroke="none" stroke-width="0" fill="#ECECFF" style=""/><path d="M-207.26953125 -60 C-84.01243570332588 -60, 39.244659843348245 -60, 207.26953125 -60 M-207.26953125 -60 C-54.57713794716301 -60, 98.11525535567398 -60, 207.26953125 -60 M207.26953125 -60 C207.26953125 -34.37560011788915, 207.26953125 -8.751200235778306, 207.26953125 60 M207.26953125 -60 C207.26953125 -34.866210795145044, 207.26953125 -9.732421590290087, 207.26953125 60 M207.26953125 60 C64.03214352283831 60, -79.20524420432338 60, -207.26953125 60 M207.26953125 60 C60.54410473032928 60, -86.18132178934144 60, -207.26953125 60 M-207.26953125 60 C-207.26953125 21.796665113092807, -207.26953125 -16.406669773814386, -207.26953125 -60 M-207.26953125 60 C-207.26953125 35.96123825119758, -207.26953125 11.922476502395156, -207.26953125 -60" stroke="#9370DB" stroke-width="1.3" fill="none" stroke-dasharray="0 0" style=""/></g><g class="annotation-group text" transform="translate(0, -36)"/><g class="label-group text" transform="translate(-89.3359375, -36)"><g class="label" style="font-weight: bolder" transform="translate(0,-12)"><foreignObject width="178.671875" height="24"><div xmlns="http://www.w3.org/1999/xhtml" style="display: table-cell; white-space: nowrap; line-height: 1.5; max-width: 207px; text-align: center;"><span class="nodeLabel markdown-node-label" style=""><p>VerificationMethodKind</p></span></div></foreignObject></g></g><g class="members-group text" transform="translate(-195.26953125, 12)"><g class="label" style="" transform="translate(0,-12)"><foreignObject width="301.203125" height="24"><div xmlns="http://www.w3.org/1999/xhtml" style="display: table-cell; white-space: nowrap; line-height: 1.5; max-width: 365px; text-align: center;"><span class="nodeLabel markdown-node-label" style=""><p>&lt;&gt; Inspection Analysis Demonstration Test</p></span></div></foreignObject></g></g><g class="methods-group text" transform="translate(-195.26953125, 60)"/><g class="divider" style=""><path d="M-207.26953125 -12 C-55.53596583984492 -11.999633970404393, 96.19759957031016 -11.999267940808787, 207.26953125 -11.999 M-207.26953125 -12 C-98.53160715130788 -11.999737689559476, 10.206316947384238 -11.999475379118953, 207.26953125 -11.999" stroke="#9370DB" stroke-width="1.3" fill="none" stroke-dasharray="0 0" style=""/></g><g class="divider" style=""><path d="M-207.26953125 36 C-71.73319575797345 36.000326956727974, 63.803139734053104 36.00065391345594, 207.26953125 36.001 M-207.26953125 36 C-90.85548840619673 36.00028082767916, 25.558554437606546 36.000561655358325, 207.26953125 36.001" stroke="#9370DB" stroke-width="1.3" fill="none" stroke-dasharray="0 0" style=""/></g></g></g></g></g><defs><filter id="my-svg-drop-shadow" height="130%" width="130%"><feDropShadow dx="4" dy="4" stdDeviation="0" flood-opacity="0.06" flood-color="#000000"/></filter></defs><defs><filter id="my-svg-drop-shadow-small" height="150%" width="150%"><feDropShadow dx="2" dy="2" stdDeviation="0" flood-opacity="0.06" flood-color="#000000"/></filter></defs></svg>