<svg id="my-svg" width="100%" xmlns="http://www.w3.org/2000/svg" xmlns:xlink="http://www.w3.org/1999/xlink" class="classDiagram" style="max-width: 2677.55px; background-color: white;" viewBox="0 0 2677.546875 136" role="graphics-document document" aria-roledescription="class"><style>#my-svg{font-family:"trebuchet ms",verdana,arial,sans-serif;font-size:16px;fill:#333;}@keyframes edge-animation-frame{from{stroke-dashoffset:0;}}@keyframes dash{to{stroke-dashoffset:0;}}#my-svg .edge-animation-slow{stroke-dasharray:9,5!important;stroke-dashoffset:900;animation:dash 50s linear infinite;stroke-linecap:round;}#my-svg .edge-animation-fast{stroke-dasharray:9,5!important;stroke-dashoffset:900;animation:dash 20s linear infinite;stroke-linecap:round;}#my-svg .error-icon{fill:#552222;}#my-svg .error-text{fill:#552222;stroke:#552222;}#my-svg .edge-thickness-normal{stroke-width:1px;}#my-svg .edge-thickness-thick{stroke-width:3.5px;}#my-svg .edge-pattern-solid{stroke-dasharray:0;}#my-svg .edge-thickness-invisible{stroke-width:0;fill:none;}#my-svg .edge-pattern-dashed{stroke-dasharray:3;}#my-svg .edge-pattern-dotted{stroke-dasharray:2;}#my-svg .marker{fill:#333333;stroke:#333333;}#my-svg .marker.cross{stroke:#333333;}#my-svg svg{font-family:"trebuchet ms",verdana,arial,sans-serif;font-size:16px;}#my-svg p{margin:0;}#my-svg g.classGroup text{fill:#9370DB;stroke:none;font-family:"trebuchet ms",verdana,arial,sans-serif;font-size:10px;}#my-svg g.classGroup text .title{font-weight:bolder;}#my-svg .cluster-label text{fill:#333;}#my-svg .cluster-label span{color:#333;}#my-svg .cluster-label span p{background-color:transparent;}#my-svg .cluster rect{fill:#ffffde;stroke:#aaaa33;stroke-width:1px;}#my-svg .cluster text{fill:#333;}#my-svg .cluster span{color:#333;}#my-svg .nodeLabel,#my-svg .edgeLabel{color:#131300;}#my-svg .noteLabel .nodeLabel,#my-svg .noteLabel .edgeLabel{color:black;}#my-svg .edgeLabel .label rect{fill:#ECECFF;}#my-svg .label text{fill:#131300;}#my-svg .labelBkg{background:#ECECFF;}#my-svg .edgeLabel .label span{background:#ECECFF;}#my-svg .classTitle{font-weight:bolder;}#my-svg .node rect,#my-svg .node circle,#my-svg .node ellipse,#my-svg .node polygon,#my-svg .node path{fill:#ECECFF;stroke:#9370DB;stroke-width:1;}#my-svg .divider{stroke:#9370DB;stroke-width:1;}#my-svg g.clickable{cursor:pointer;}#my-svg g.classGroup rect{fill:#ECECFF;stroke:#9370DB;}#my-svg g.classGroup line{stroke:#9370DB;stroke-width:1;}#my-svg .classLabel .box{stroke:none;stroke-width:0;fill:#ECECFF;opacity:0.5;}#my-svg .classLabel .label{fill:#9370DB;font-size:10px;}#my-svg .relation{stroke:#333333;stroke-width:1;fill:none;}#my-svg .dashed-line{stroke-dasharray:3;}#my-svg .dotted-line{stroke-dasharray:1 2;}#my-svg [id$="-compositionStart"],#my-svg .composition{fill:#333333!important;stroke:#333333!important;stroke-width:1;}#my-svg [id$="-compositionEnd"],#my-svg .composition{fill:#333333!important;stroke:#333333!important;stroke-width:1;}#my-svg [id$="-dependencyStart"],#my-svg .dependency{fill:#333333!important;stroke:#333333!important;stroke-width:1;}#my-svg [id$="-dependencyEnd"],#my-svg .dependency{fill:#333333!important;stroke:#333333!important;stroke-width:1;}#my-svg [id$="-extensionStart"],#my-svg .extension{fill:transparent!important;stroke:#333333!important;stroke-width:1;}#my-svg [id$="-extensionEnd"],#my-svg .extension{fill:transparent!important;stroke:#333333!important;stroke-width:1;}#my-svg [id$="-aggregationStart"],#my-svg .aggregation{fill:transparent!important;stroke:#333333!important;stroke-width:1;}#my-svg [id$="-aggregationEnd"],#my-svg .aggregation{fill:transparent!important;stroke:#333333!important;stroke-width:1;}#my-svg [id$="-lollipopStart"],#my-svg .lollipop{fill:#ECECFF!important;stroke:#333333!important;stroke-width:1;}#my-svg [id$="-lollipopEnd"],#my-svg .lollipop{fill:#ECECFF!important;stroke:#333333!important;stroke-width:1;}#my-svg .edgeTerminals{font-size:11px;line-height:initial;}#my-svg .classTitleText{text-anchor:middle;font-size:18px;fill:#333;}#my-svg .edgeLabel[data-look="neo"]{background-color:rgba(232,232,232, 0.8);text-align:center;}#my-svg .edgeLabel[data-look="neo"] p{background-color:rgba(232,232,232, 0.8);}#my-svg .edgeLabel[data-look="neo"] rect{opacity:0.5;background-color:rgba(232,232,232, 0.8);fill:rgba(232,232,232, 0.8);}#my-svg .label-icon{display:inline-block;height:1em;overflow:visible;vertical-align:-0.125em;}#my-svg .node .label-icon path{fill:currentColor;stroke:revert;stroke-width:revert;}#my-svg .node .neo-node{stroke:#9370DB;}#my-svg [data-look="neo"].node rect,#my-svg [data-look="neo"].cluster rect,#my-svg [data-look="neo"].node polygon{stroke:#9370DB;filter:drop-shadow(1px 2px 2px rgba(185, 185, 185, 1));}#my-svg [data-look="neo"].node path{stroke:#9370DB;stroke-width:1px;}#my-svg [data-look="neo"].node .outer-path{filter:drop-shadow(1px 2px 2px rgba(185, 185, 185, 1));}#my-svg [data-look="neo"].node .neo-line path{stroke:#9370DB;filter:none;}#my-svg [data-look="neo"].node circle{stroke:#9370DB;filter:drop-shadow(1px 2px 2px rgba(185, 185, 185, 1));}#my-svg [data-look="neo"].node circle .state-start{fill:#000000;}#my-svg [data-look="neo"].icon-shape .icon{fill:#9370DB;filter:drop-shadow(1px 2px 2px rgba(185, 185, 185, 1));}#my-svg [data-look="neo"].icon-shape .icon-neo path{stroke:#9370DB;filter:drop-shadow(1px 2px 2px rgba(185, 185, 185, 1));}#my-svg :root{--mermaid-font-family:"trebuchet ms",verdana,arial,sans-serif;}</style><g><defs><marker id="my-svg_class-aggregationStart" class="marker aggregation class" refX="18" refY="7" markerWidth="190" markerHeight="240" orient="auto"><path d="M 18,7 L9,13 L1,7 L9,1 Z"/></marker></defs><defs><marker id="my-svg_class-aggregationEnd" class="marker aggregation class" refX="1" refY="7" markerWidth="20" markerHeight="28" orient="auto"><path d="M 18,7 L9,13 L1,7 L9,1 Z"/></marker></defs><defs><marker id="my-svg_class-aggregationStart-margin" class="marker aggregation class" refX="15" refY="7" markerWidth="190" markerHeight="240" orient="auto" markerUnits="userSpaceOnUse"><path d="M 18,7 L9,13 L1,7 L9,1 Z" style="stroke-width: 2;"/></marker></defs><defs><marker id="my-svg_class-aggregationEnd-margin" class="marker aggregation class" refX="1" refY="7" markerWidth="20" markerHeight="28" orient="auto" markerUnits="userSpaceOnUse"><path d="M 18,7 L9,13 L1,7 L9,1 Z" style="stroke-width: 2;"/></marker></defs><defs><marker id="my-svg_class-extensionStart" class="marker extension class" refX="18" refY="7" markerWidth="20" markerHeight="28" orient="auto" markerUnits="userSpaceOnUse"><path d="M 1,7 L18,13 V 1 Z"/></marker></defs><defs><marker id="my-svg_class-extensionEnd" class="marker extension class" refX="1" refY="7" markerWidth="20" markerHeight="28" orient="auto"><path d="M 1,1 V 13 L18,7 Z"/></marker></defs><marker id="my-svg_class-extensionStart-margin" class="marker extension class" refX="18" refY="7" markerWidth="20" markerHeight="28" orient="auto" markerUnits="userSpaceOnUse" viewBox="0 0 20 14"><polygon points="10,7 18,13 18,1" style="stroke-width: 2; stroke-dasharray: 0;"/></marker><defs><marker id="my-svg_class-extensionEnd-margin" class="marker extension class" refX="9" refY="7" markerWidth="20" markerHeight="28" orient="auto" markerUnits="userSpaceOnUse" viewBox="0 0 20 14"><polygon points="10,1 10,13 18,7" style="stroke-width: 2; stroke-dasharray: 0;"/></marker></defs><defs><marker id="my-svg_class-compositionStart" class="marker composition class" refX="18" refY="7" markerWidth="190" markerHeight="240" orient="auto"><path d="M 18,7 L9,13 L1,7 L9,1 Z"/></marker></defs><defs><marker id="my-svg_class-compositionEnd" class="marker composition class" refX="1" refY="7" markerWidth="20" markerHeight="28" orient="auto"><path d="M 18,7 L9,13 L1,7 L9,1 Z"/></marker></defs><defs><marker id="my-svg_class-compositionStart-margin" class="marker composition class" refX="15" refY="7" markerWidth="190" markerHeight="240" orient="auto" markerUnits="userSpaceOnUse"><path viewBox="0 0 15 15" d="M 18,7 L9,13 L1,7 L9,1 Z" style="stroke-width: 0;"/></marker></defs><defs><marker id="my-svg_class-compositionEnd-margin" class="marker composition class" refX="3.5" refY="7" markerWidth="20" markerHeight="28" orient="auto" markerUnits="userSpaceOnUse"><path d="M 18,7 L9,13 L1,7 L9,1 Z" style="stroke-width: 0;"/></marker></defs><defs><marker id="my-svg_class-dependencyStart" class="marker dependency class" refX="6" refY="7" markerWidth="190" markerHeight="240" orient="auto"><path d="M 5,7 L9,13 L1,7 L9,1 Z"/></marker></defs><defs><marker id="my-svg_class-dependencyEnd" class="marker dependency class" refX="13" refY="7" markerWidth="20" markerHeight="28" orient="auto"><path d="M 18,7 L9,13 L14,7 L9,1 Z"/></marker></defs><defs><marker id="my-svg_class-dependencyStart-margin" class="marker dependency class" refX="4" refY="7" markerWidth="190" markerHeight="240" orient="auto" markerUnits="userSpaceOnUse"><path d="M 5,7 L9,13 L1,7 L9,1 Z" style="stroke-width: 0;"/></marker></defs><defs><marker id="my-svg_class-dependencyEnd-margin" class="marker dependency class" refX="16" refY="7" markerWidth="20" markerHeight="28" orient="auto" markerUnits="userSpaceOnUse"><path d="M 18,7 L9,13 L14,7 L9,1 Z" style="stroke-width: 0;"/></marker></defs><defs><marker id="my-svg_class-lollipopStart" class="marker lollipop class" refX="13" refY="7" markerWidth="190" markerHeight="240" orient="auto"><circle fill="transparent" cx="7" cy="7" r="6"/></marker></defs><defs><marker id="my-svg_class-lollipopEnd" class="marker lollipop class" refX="1" refY="7" markerWidth="190" markerHeight="240" orient="auto"><circle fill="transparent" cx="7" cy="7" r="6"/></marker></defs><defs><marker id="my-svg_class-lollipopStart-margin" class="marker lollipop class" refX="13" refY="7" markerWidth="190" markerHeight="240" orient="auto" markerUnits="userSpaceOnUse"><circle fill="transparent" cx="7" cy="7" r="6" stroke-width="2"/></marker></defs><defs><marker id="my-svg_class-lollipopEnd-margin" class="marker lollipop class" refX="1" refY="7" markerWidth="190" markerHeight="240" orient="auto" markerUnits="userSpaceOnUse"><circle fill="transparent" cx="7" cy="7" r="6" stroke-width="2"/></marker></defs><g class="root"><g class="clusters"/><g class="edgePaths"/><g class="edgeLabels"/><g class="nodes"><g class="node default" id="my-svg-classId-Duration-0" data-look="classic" transform="translate(120.9453125, 68)"><g class="basic label-container outer-path"><path d="M-112.9453125 -60 L112.9453125 -60 L112.9453125 60 L-112.9453125 60" stroke="none" stroke-width="0" fill="#ECECFF" style=""/><path d="M-112.9453125 -60 C-58.979825437173986 -60, -5.014338374347972 -60, 112.9453125 -60 M-112.9453125 -60 C-26.53558598641105 -60, 59.8741405271779 -60, 112.9453125 -60 M112.9453125 -60 C112.9453125 -27.04301638039398, 112.9453125 5.913967239212042, 112.9453125 60 M112.9453125 -60 C112.9453125 -26.883363124382036, 112.9453125 6.233273751235927, 112.9453125 60 M112.9453125 60 C34.55928812271989 60, -43.82673625456022 60, -112.9453125 60 M112.9453125 60 C42.710415705384975 60, -27.52448108923005 60, -112.9453125 60 M-112.9453125 60 C-112.9453125 35.87693175972568, -112.9453125 11.753863519451365, -112.9453125 -60 M-112.9453125 60 C-112.9453125 23.708815308720673, -112.9453125 -12.582369382558653, -112.9453125 -60" stroke="#9370DB" stroke-width="1.3" fill="none" stroke-dasharray="0 0" style=""/></g><g class="annotation-group text" transform="translate(0, -36)"/><g class="label-group text" transform="translate(-32.890625, -36)"><g class="label" style="font-weight: bolder" transform="translate(0,-12)"><foreignObject width="65.78125" height="24"><div xmlns="http://www.w3.org/1999/xhtml" style="display: table-cell; white-space: nowrap; line-height: 1.5; max-width: 107px; text-align: center;"><span class="nodeLabel markdown-node-label" style=""><p>Duration</p></span></div></foreignObject></g></g><g class="members-group text" transform="translate(-100.9453125, 12)"><g class="label" style="" transform="translate(0,-12)"><foreignObject width="169" height="24"><div xmlns="http://www.w3.org/1999/xhtml" style="display: table-cell; white-space: nowrap; line-height: 1.5; max-width: 243px; text-align: center;"><span class="nodeLabel markdown-node-label" style=""><p>&lt;&gt; +Real value; unit = s</p></span></div></foreignObject></g></g><g class="methods-group text" transform="translate(-100.9453125, 60)"/><g class="divider" style=""><path d="M-112.9453125 -12 C-57.46415724840778 -11.999754389296804, -1.9830019968155597 -11.999508778593608, 112.9453125 -11.999 M-112.9453125 -12 C-26.256239059140867 -11.999616234301708, 60.432834381718266 -11.999232468603415, 112.9453125 -11.999" stroke="#9370DB" stroke-width="1.3" fill="none" stroke-dasharray="0 0" style=""/></g><g class="divider" style=""><path d="M-112.9453125 36 C-24.460130724067113 36.000391716928384, 64.02505105186577 36.00078343385677, 112.9453125 36.001 M-112.9453125 36 C-67.66304124655358 36.00020046104726, -22.380769993107165 36.000400922094514, 112.9453125 36.001" stroke="#9370DB" stroke-width="1.3" fill="none" stroke-dasharray="0 0" style=""/></g></g><g class="node default" id="my-svg-classId-Loudness-1" data-look="classic" transform="translate(415.734375, 68)"><g class="basic label-container outer-path"><path d="M-131.84375 -60 L131.84375 -60 L131.84375 60 L-131.84375 60" stroke="none" stroke-width="0" fill="#ECECFF" style=""/><path d="M-131.84375 -60 C-76.62365263806487 -60, -21.403555276129723 -60, 131.84375 -60 M-131.84375 -60 C-50.884012334778134 -60, 30.07572533044373 -60, 131.84375 -60 M131.84375 -60 C131.84375 -14.899365294614014, 131.84375 30.20126941077197, 131.84375 60 M131.84375 -60 C131.84375 -23.641657767176355, 131.84375 12.71668446564729, 131.84375 60 M131.84375 60 C76.56819087085924 60, 21.29263174171848 60, -131.84375 60 M131.84375 60 C78.30187956978881 60, 24.760009139577633 60, -131.84375 60 M-131.84375 60 C-131.84375 31.178826423761762, -131.84375 2.357652847523525, -131.84375 -60 M-131.84375 60 C-131.84375 12.234782497650713, -131.84375 -35.530435004698575, -131.84375 -60" stroke="#9370DB" stroke-width="1.3" fill="none" stroke-dasharray="0 0" style=""/></g><g class="annotation-group text" transform="translate(0, -36)"/><g class="label-group text" transform="translate(-37.78125, -36)"><g class="label" style="font-weight: bolder" transform="translate(0,-12)"><foreignObject width="75.5625" height="24"><div xmlns="http://www.w3.org/1999/xhtml" style="display: table-cell; white-space: nowrap; line-height: 1.5; max-width: 111px; text-align: center;"><span class="nodeLabel markdown-node-label" style=""><p>Loudness</p></span></div></foreignObject></g></g><g class="members-group text" transform="translate(-119.84375, 12)"><g class="label" style="" transform="translate(0,-12)"><foreignObject width="201.90625" height="24"><div xmlns="http://www.w3.org/1999/xhtml" style="display: table-cell; white-space: nowrap; line-height: 1.5; max-width: 276px; text-align: center;"><span class="nodeLabel markdown-node-label" style=""><p>&lt;&gt; +Real value; unit = LUFS</p></span></div></foreignObject></g></g><g class="methods-group text" transform="translate(-119.84375, 60)"/><g class="divider" style=""><path d="M-131.84375 -12 C-43.08875754333519 -11.999663408419222, 45.66623491332962 -11.999326816838442, 131.84375 -11.999 M-131.84375 -12 C-63.87361634594552 -11.999742232249712, 4.096517308108957 -11.999484464499425, 131.84375 -11.999" stroke="#9370DB" stroke-width="1.3" fill="none" stroke-dasharray="0 0" style=""/></g><g class="divider" style=""><path d="M-131.84375 36 C-39.08801542153324 36.00035176386662, 53.667719156933515 36.00070352773323, 131.84375 36.001 M-131.84375 36 C-34.89672529064626 36.0003676587806, 62.05029941870748 36.000735317561194, 131.84375 36.001" stroke="#9370DB" stroke-width="1.3" fill="none" stroke-dasharray="0 0" style=""/></g></g><g class="node default" id="my-svg-classId-TruePeak-2" data-look="classic" transform="translate(727.875, 68)"><g class="basic label-container outer-path"><path d="M-130.296875 -60 L130.296875 -60 L130.296875 60 L-130.296875 60" stroke="none" stroke-width="0" fill="#ECECFF" style=""/><path d="M-130.296875 -60 C-33.79107885827749 -60, 62.714717283445026 -60, 130.296875 -60 M-130.296875 -60 C-72.94459774430678 -60, -15.592320488613566 -60, 130.296875 -60 M130.296875 -60 C130.296875 -17.168263607044608, 130.296875 25.663472785910784, 130.296875 60 M130.296875 -60 C130.296875 -25.21108782285758, 130.296875 9.577824354284843, 130.296875 60 M130.296875 60 C44.90599061028138 60, -40.48489377943724 60, -130.296875 60 M130.296875 60 C54.066499448186505 60, -22.16387610362699 60, -130.296875 60 M-130.296875 60 C-130.296875 31.446970572895616, -130.296875 2.8939411457912314, -130.296875 -60 M-130.296875 60 C-130.296875 35.59460188970915, -130.296875 11.189203779418307, -130.296875 -60" stroke="#9370DB" stroke-width="1.3" fill="none" stroke-dasharray="0 0" style=""/></g><g class="annotation-group text" transform="translate(0, -36)"/><g class="label-group text" transform="translate(-35.578125, -36)"><g class="label" style="font-weight: bolder" transform="translate(0,-12)"><foreignObject width="71.15625" height="24"><div xmlns="http://www.w3.org/1999/xhtml" style="display: table-cell; white-space: nowrap; line-height: 1.5; max-width: 111px; text-align: center;"><span class="nodeLabel markdown-node-label" style=""><p>TruePeak</p></span></div></foreignObject></g></g><g class="members-group text" transform="translate(-118.296875, 12)"><g class="label" style="" transform="translate(0,-12)"><foreignObject width="201.015625" height="24"><div xmlns="http://www.w3.org/1999/xhtml" style="display: table-cell; white-space: nowrap; line-height: 1.5; max-width: 274px; text-align: center;"><span class="nodeLabel markdown-node-label" style=""><p>&lt;&gt; +Real value; unit = dBTP</p></span></div></foreignObject></g></g><g class="methods-group text" transform="translate(-118.296875, 60)"/><g class="divider" style=""><path d="M-130.296875 -12 C-39.89349551830776 -11.999653086923683, 50.50988396338448 -11.999306173847366, 130.296875 -11.999 M-130.296875 -12 C-59.0594184369526 -11.99972663405564, 12.178038126094805 -11.99945326811128, 130.296875 -11.999" stroke="#9370DB" stroke-width="1.3" fill="none" stroke-dasharray="0 0" style=""/></g><g class="divider" style=""><path d="M-130.296875 36 C-51.91175430823219 36.000300794323316, 26.47336638353562 36.00060158864663, 130.296875 36.001 M-130.296875 36 C-71.89288565792387 36.00022411891821, -13.488896315847754 36.000448237836416, 130.296875 36.001" stroke="#9370DB" stroke-width="1.3" fill="none" stroke-dasharray="0 0" style=""/></g></g><g class="node default" id="my-svg-classId-SyncError-3" data-look="classic" transform="translate(1030.6796875, 68)"><g class="basic label-container outer-path"><path d="M-122.5078125 -60 L122.5078125 -60 L122.5078125 60 L-122.5078125 60" stroke="none" stroke-width="0" fill="#ECECFF" style=""/><path d="M-122.5078125 -60 C-73.14020269803564 -60, -23.77259289607126 -60, 122.5078125 -60 M-122.5078125 -60 C-50.40468908028137 -60, 21.698434339437256 -60, 122.5078125 -60 M122.5078125 -60 C122.5078125 -23.966336354970544, 122.5078125 12.067327290058913, 122.5078125 60 M122.5078125 -60 C122.5078125 -26.053115097431665, 122.5078125 7.893769805136671, 122.5078125 60 M122.5078125 60 C48.22531867268161 60, -26.05717515463678 60, -122.5078125 60 M122.5078125 60 C63.04006295400383 60, 3.572313408007659 60, -122.5078125 60 M-122.5078125 60 C-122.5078125 21.91635599119524, -122.5078125 -16.167288017609522, -122.5078125 -60 M-122.5078125 60 C-122.5078125 22.741944392968243, -122.5078125 -14.516111214063514, -122.5078125 -60" stroke="#9370DB" stroke-width="1.3" fill="none" stroke-dasharray="0 0" style=""/></g><g class="annotation-group text" transform="translate(0, -36)"/><g class="label-group text" transform="translate(-38.6875, -36)"><g class="label" style="font-weight: bolder" transform="translate(0,-12)"><foreignObject width="77.375" height="24"><div xmlns="http://www.w3.org/1999/xhtml" style="display: table-cell; white-space: nowrap; line-height: 1.5; max-width: 116px; text-align: center;"><span class="nodeLabel markdown-node-label" style=""><p>SyncError</p></span></div></foreignObject></g></g><g class="members-group text" transform="translate(-110.5078125, 12)"><g class="label" style="" transform="translate(0,-12)"><foreignObject width="182.328125" height="24"><div xmlns="http://www.w3.org/1999/xhtml" style="display: table-cell; white-space: nowrap; line-height: 1.5; max-width: 255px; text-align: center;"><span class="nodeLabel markdown-node-label" style=""><p>&lt;&gt; +Real value; unit = ms</p></span></div></foreignObject></g></g><g class="methods-group text" transform="translate(-110.5078125, 60)"/><g class="divider" style=""><path d="M-122.5078125 -12 C-45.35778429818484 -11.999685122007211, 31.79224390363032 -11.999370244014424, 122.5078125 -11.999 M-122.5078125 -12 C-70.4742119015942 -11.99978763150065, -18.440611303188405 -11.9995752630013, 122.5078125 -11.999" stroke="#9370DB" stroke-width="1.3" fill="none" stroke-dasharray="0 0" style=""/></g><g class="divider" style=""><path d="M-122.5078125 36 C-36.50209092937037 36.00035102137495, 49.503630641259264 36.000702042749886, 122.5078125 36.001 M-122.5078125 36 C-38.85611187710532 36.00034141373891, 44.79558874578936 36.00068282747782, 122.5078125 36.001" stroke="#9370DB" stroke-width="1.3" fill="none" stroke-dasharray="0 0" style=""/></g></g><g class="node default" id="my-svg-classId-DataSize-4" data-look="classic" transform="translate(1335.94140625, 68)"><g class="basic label-container outer-path"><path d="M-132.75390625 -60 L132.75390625 -60 L132.75390625 60 L-132.75390625 60" stroke="none" stroke-width="0" fill="#ECECFF" style=""/><path d="M-132.75390625 -60 C-78.51023389680256 -60, -24.266561543605107 -60, 132.75390625 -60 M-132.75390625 -60 C-65.81118616884666 -60, 1.1315339123066792 -60, 132.75390625 -60 M132.75390625 -60 C132.75390625 -29.579062221480367, 132.75390625 0.8418755570392662, 132.75390625 60 M132.75390625 -60 C132.75390625 -35.02030349398572, 132.75390625 -10.040606987971437, 132.75390625 60 M132.75390625 60 C59.25766556338654 60, -14.238575123226923 60, -132.75390625 60 M132.75390625 60 C38.038614651661206 60, -56.67667694667759 60, -132.75390625 60 M-132.75390625 60 C-132.75390625 25.20990290875791, -132.75390625 -9.580194182484178, -132.75390625 -60 M-132.75390625 60 C-132.75390625 20.429967097227028, -132.75390625 -19.140065805545944, -132.75390625 -60" stroke="#9370DB" stroke-width="1.3" fill="none" stroke-dasharray="0 0" style=""/></g><g class="annotation-group text" transform="translate(0, -36)"/><g class="label-group text" transform="translate(-33.3515625, -36)"><g class="label" style="font-weight: bolder" transform="translate(0,-12)"><foreignObject width="66.703125" height="24"><div xmlns="http://www.w3.org/1999/xhtml" style="display: table-cell; white-space: nowrap; line-height: 1.5; max-width: 108px; text-align: center;"><span class="nodeLabel markdown-node-label" style=""><p>DataSize</p></span></div></foreignObject></g></g><g class="members-group text" transform="translate(-120.75390625, 12)"><g class="label" style="" transform="translate(0,-12)"><foreignObject width="208.15625" height="24"><div xmlns="http://www.w3.org/1999/xhtml" style="display: table-cell; white-space: nowrap; line-height: 1.5; max-width: 280px; text-align: center;"><span class="nodeLabel markdown-node-label" style=""><p>&lt;&gt; +Integer value; unit = byte</p></span></div></foreignObject></g></g><g class="methods-group text" transform="translate(-120.75390625, 60)"/><g class="divider" style=""><path d="M-132.75390625 -12 C-54.55323290387116 -11.999705467524253, 23.647440442257675 -11.999410935048504, 132.75390625 -11.999 M-132.75390625 -12 C-41.20676076792698 -11.999655199805158, 50.34038471414604 -11.999310399610316, 132.75390625 -11.999" stroke="#9370DB" stroke-width="1.3" fill="none" stroke-dasharray="0 0" style=""/></g><g class="divider" style=""><path d="M-132.75390625 36 C-56.334716375180804 36.000287822754274, 20.084473499638392 36.00057564550855, 132.75390625 36.001 M-132.75390625 36 C-47.90268242493816 36.00031958089303, 36.94854140012367 36.000639161786054, 132.75390625 36.001" stroke="#9370DB" stroke-width="1.3" fill="none" stroke-dasharray="0 0" style=""/></g></g><g class="node default" id="my-svg-classId-TransitionKind-5" data-look="classic" transform="translate(1753.9140625, 68)"><g class="basic label-container outer-path"><path d="M-235.21875 -60 L235.21875 -60 L235.21875 60 L-235.21875 60" stroke="none" stroke-width="0" fill="#ECECFF" style=""/><path d="M-235.21875 -60 C-47.7457782388108 -60, 139.7271935223784 -60, 235.21875 -60 M-235.21875 -60 C-93.19856418223969 -60, 48.821621635520614 -60, 235.21875 -60 M235.21875 -60 C235.21875 -20.604058854026555, 235.21875 18.79188229194689, 235.21875 60 M235.21875 -60 C235.21875 -27.15304579493062, 235.21875 5.693908410138761, 235.21875 60 M235.21875 60 C47.50286333795222 60, -140.21302332409556 60, -235.21875 60 M235.21875 60 C129.15848699696352 60, 23.098223993927007 60, -235.21875 60 M-235.21875 60 C-235.21875 20.788730919503713, -235.21875 -18.422538160992573, -235.21875 -60 M-235.21875 60 C-235.21875 25.552716937702883, -235.21875 -8.894566124594235, -235.21875 -60" stroke="#9370DB" stroke-width="1.3" fill="none" stroke-dasharray="0 0" style=""/></g><g class="annotation-group text" transform="translate(0, -36)"/><g class="label-group text" transform="translate(-56, -36)"><g class="label" style="font-weight: bolder" transform="translate(0,-12)"><foreignObject width="112" height="24"><div xmlns="http://www.w3.org/1999/xhtml" style="display: table-cell; white-space: nowrap; line-height: 1.5; max-width: 147px; text-align: center;"><span class="nodeLabel markdown-node-label" style=""><p>TransitionKind</p></span></div></foreignObject></g></g><g class="members-group text" transform="translate(-223.21875, 12)"><g class="label" style="" transform="translate(0,-12)"><foreignObject width="390.4375" height="24"><div xmlns="http://www.w3.org/1999/xhtml" style="display: table-cell; white-space: nowrap; line-height: 1.5; max-width: 442px; text-align: center;"><span class="nodeLabel markdown-node-label" style=""><p>&lt;&gt; none crossfade dissolve fade wipe slide circle radial</p></span></div></foreignObject></g></g><g class="methods-group text" transform="translate(-223.21875, 60)"/><g class="divider" style=""><path d="M-235.21875 -12 C-120.81421273070329 -11.999756812462294, -6.409675461406579 -11.999513624924589, 235.21875 -11.999 M-235.21875 -12 C-75.45506305751911 -11.999660393385003, 84.30862388496178 -11.999320786770006, 235.21875 -11.999" stroke="#9370DB" stroke-width="1.3" fill="none" stroke-dasharray="0 0" style=""/></g><g class="divider" style=""><path d="M-235.21875 36 C-115.69384918452174 36.000254071796604, 3.831051630956523 36.00050814359321, 235.21875 36.001 M-235.21875 36 C-82.68975023921982 36.000324227978766, 69.83924952156036 36.00064845595753, 235.21875 36.001" stroke="#9370DB" stroke-width="1.3" fill="none" stroke-dasharray="0 0" style=""/></g></g><g class="node default" id="my-svg-classId-Status-6" data-look="classic" transform="translate(2122.0703125, 68)"><g class="basic label-container outer-path"><path d="M-82.9375 -60 L82.9375 -60 L82.9375 60 L-82.9375 60" stroke="none" stroke-width="0" fill="#ECECFF" style=""/><path d="M-82.9375 -60 C-49.144195831295825 -60, -15.35089166259165 -60, 82.9375 -60 M-82.9375 -60 C-22.059047941869608 -60, 38.819404116260785 -60, 82.9375 -60 M82.9375 -60 C82.9375 -32.793916163260036, 82.9375 -5.587832326520072, 82.9375 60 M82.9375 -60 C82.9375 -19.283851092956994, 82.9375 21.432297814086013, 82.9375 60 M82.9375 60 C44.0043912286802 60, 5.071282457360397 60, -82.9375 60 M82.9375 60 C47.042006987157706 60, 11.146513974315411 60, -82.9375 60 M-82.9375 60 C-82.9375 15.235110761824252, -82.9375 -29.529778476351495, -82.9375 -60 M-82.9375 60 C-82.9375 27.116929586234825, -82.9375 -5.76614082753035, -82.9375 -60" stroke="#9370DB" stroke-width="1.3" fill="none" stroke-dasharray="0 0" style=""/></g><g class="annotation-group text" transform="translate(0, -36)"/><g class="label-group text" transform="translate(-24.453125, -36)"><g class="label" style="font-weight: bolder" transform="translate(0,-12)"><foreignObject width="48.90625" height="24"><div xmlns="http://www.w3.org/1999/xhtml" style="display: table-cell; white-space: nowrap; line-height: 1.5; max-width: 89px; text-align: center;"><span class="nodeLabel markdown-node-label" style=""><p>Status</p></span></div></foreignObject></g></g><g class="members-group text" transform="translate(-70.9375, 12)"><g class="label" style="" transform="translate(0,-12)"><foreignObject width="117.421875" height="24"><div xmlns="http://www.w3.org/1999/xhtml" style="display: table-cell; white-space: nowrap; line-height: 1.5; max-width: 197px; text-align: center;"><span class="nodeLabel markdown-node-label" style=""><p>&lt;&gt; Built Planned</p></span></div></foreignObject></g></g><g class="methods-group text" transform="translate(-70.9375, 60)"/><g class="divider" style=""><path d="M-82.9375 -12 C-34.22393727515337 -11.99970632366104, 14.489625449693264 -11.999412647322082, 82.9375 -11.999 M-82.9375 -12 C-32.0233835479999 -11.999693057323576, 18.890732904000203 -11.99938611464715, 82.9375 -11.999" stroke="#9370DB" stroke-width="1.3" fill="none" stroke-dasharray="0 0" style=""/></g><g class="divider" style=""><path d="M-82.9375 36 C-20.049683638612755 36.000379127755004, 42.83813272277449 36.00075825551001, 82.9375 36.001 M-82.9375 36 C-31.885258869820795 36.00030777537984, 19.16698226035841 36.00061555075967, 82.9375 36.001" stroke="#9370DB" stroke-width="1.3" fill="none" stroke-dasharray="0 0" style=""/></g></g><g class="node default" id="my-svg-classId-VerificationMethodKind-7" data-look="classic" transform="translate(2462.27734375, 68)"><g class="basic label-container outer-path"><path d="M-207.26953125 -60 L207.26953125 -60 L207.26953125 60 L-207.26953125 60" stroke="none" stroke-width="0" fill="#ECECFF" style=""/><path d="M-207.26953125 -60 C-102.44797470192677 -60, 2.3735818461464646 -60, 207.26953125 -60 M-207.26953125 -60 C-46.60510094645852 -60, 114.05932935708296 -60, 207.26953125 -60 M207.26953125 -60 C207.26953125 -29.855122115389676, 207.26953125 0.2897557692206476, 207.26953125 60 M207.26953125 -60 C207.26953125 -18.898277035920188, 207.26953125 22.203445928159624, 207.26953125 60 M207.26953125 60 C75.83352163556862 60, -55.60248797886277 60, -207.26953125 60 M207.26953125 60 C67.92878122494471 60, -71.41196880011057 60, -207.26953125 60 M-207.26953125 60 C-207.26953125 24.707562021007057, -207.26953125 -10.584875957985886, -207.26953125 -60 M-207.26953125 60 C-207.26953125 13.53978528922135, -207.26953125 -32.9204294215573, -207.26953125 -60" stroke="#9370DB" stroke-width="1.3" fill="none" stroke-dasharray="0 0" style=""/></g><g class="annotation-group text" transform="translate(0, -36)"/><g class="label-group text" transform="translate(-89.3359375, -36)"><g class="label" style="font-weight: bolder" transform="translate(0,-12)"><foreignObject width="178.671875" height="24"><div xmlns="http://www.w3.org/1999/xhtml" style="display: table-cell; white-space: nowrap; line-height: 1.5; max-width: 207px; text-align: center;"><span class="nodeLabel markdown-node-label" style=""><p>VerificationMethodKind</p></span></div></foreignObject></g></g><g class="members-group text" transform="translate(-195.26953125, 12)"><g class="label" style="" transform="translate(0,-12)"><foreignObject width="301.203125" height="24"><div xmlns="http://www.w3.org/1999/xhtml" style="display: table-cell; white-space: nowrap; line-height: 1.5; max-width: 365px; text-align: center;"><span class="nodeLabel markdown-node-label" style=""><p>&lt;&gt; Inspection Analysis Demonstration Test</p></span></div></foreignObject></g></g><g class="methods-group text" transform="translate(-195.26953125, 60)"/><g class="divider" style=""><path d="M-207.26953125 -12 C-112.52843797582483 -11.999771454364993, -17.78734470164966 -11.999542908729987, 207.26953125 -11.999 M-207.26953125 -12 C-102.00475238469491 -11.999746067889886, 3.260026480610179 -11.999492135779771, 207.26953125 -11.999" stroke="#9370DB" stroke-width="1.3" fill="none" stroke-dasharray="0 0" style=""/></g><g class="divider" style=""><path d="M-207.26953125 36 C-81.58039448668976 36.00030320215423, 44.10874227662049 36.00060640430846, 207.26953125 36.001 M-207.26953125 36 C-49.47647275689792 36.00038064701923, 108.31658573620416 36.00076129403845, 207.26953125 36.001" stroke="#9370DB" stroke-width="1.3" fill="none" stroke-dasharray="0 0" style=""/></g></g></g></g></g><defs><filter id="my-svg-drop-shadow" height="130%" width="130%"><feDropShadow dx="4" dy="4" stdDeviation="0" flood-opacity="0.06" flood-color="#000000"/></filter></defs><defs><filter id="my-svg-drop-shadow-small" height="150%" width="150%"><feDropShadow dx="2" dy="2" stdDeviation="0" flood-opacity="0.06" flood-color="#000000"/></filter></defs></svg>