<svg id="my-svg" width="100%" xmlns="http://www.w3.org/2000/svg" xmlns:xlink="http://www.w3.org/1999/xlink" class="classDiagram" style="max-width: 1231.39px; background-color: white;" viewBox="0 0 1231.390625 722" role="graphics-document document" aria-roledescription="class"><style>#my-svg{font-family:"trebuchet ms",verdana,arial,sans-serif;font-size:16px;fill:#333;}@keyframes edge-animation-frame{from{stroke-dashoffset:0;}}@keyframes dash{to{stroke-dashoffset:0;}}#my-svg .edge-animation-slow{stroke-dasharray:9,5!important;stroke-dashoffset:900;animation:dash 50s linear infinite;stroke-linecap:round;}#my-svg .edge-animation-fast{stroke-dasharray:9,5!important;stroke-dashoffset:900;animation:dash 20s linear infinite;stroke-linecap:round;}#my-svg .error-icon{fill:#552222;}#my-svg .error-text{fill:#552222;stroke:#552222;}#my-svg .edge-thickness-normal{stroke-width:1px;}#my-svg .edge-thickness-thick{stroke-width:3.5px;}#my-svg .edge-pattern-solid{stroke-dasharray:0;}#my-svg .edge-thickness-invisible{stroke-width:0;fill:none;}#my-svg .edge-pattern-dashed{stroke-dasharray:3;}#my-svg .edge-pattern-dotted{stroke-dasharray:2;}#my-svg .marker{fill:#333333;stroke:#333333;}#my-svg .marker.cross{stroke:#333333;}#my-svg svg{font-family:"trebuchet ms",verdana,arial,sans-serif;font-size:16px;}#my-svg p{margin:0;}#my-svg g.classGroup text{fill:#9370DB;stroke:none;font-family:"trebuchet ms",verdana,arial,sans-serif;font-size:10px;}#my-svg g.classGroup text .title{font-weight:bolder;}#my-svg .cluster-label text{fill:#333;}#my-svg .cluster-label span{color:#333;}#my-svg .cluster-label span p{background-color:transparent;}#my-svg .cluster rect{fill:#ffffde;stroke:#aaaa33;stroke-width:1px;}#my-svg .cluster text{fill:#333;}#my-svg .cluster span{color:#333;}#my-svg .nodeLabel,#my-svg .edgeLabel{color:#131300;}#my-svg .noteLabel .nodeLabel,#my-svg .noteLabel .edgeLabel{color:black;}#my-svg .edgeLabel .label rect{fill:#ECECFF;}#my-svg .label text{fill:#131300;}#my-svg .labelBkg{background:#ECECFF;}#my-svg .edgeLabel .label span{background:#ECECFF;}#my-svg .classTitle{font-weight:bolder;}#my-svg .node rect,#my-svg .node circle,#my-svg .node ellipse,#my-svg .node polygon,#my-svg .node path{fill:#ECECFF;stroke:#9370DB;stroke-width:1;}#my-svg .divider{stroke:#9370DB;stroke-width:1;}#my-svg g.clickable{cursor:pointer;}#my-svg g.classGroup rect{fill:#ECECFF;stroke:#9370DB;}#my-svg g.classGroup line{stroke:#9370DB;stroke-width:1;}#my-svg .classLabel .box{stroke:none;stroke-width:0;fill:#ECECFF;opacity:0.5;}#my-svg .classLabel .label{fill:#9370DB;font-size:10px;}#my-svg .relation{stroke:#333333;stroke-width:1;fill:none;}#my-svg .dashed-line{stroke-dasharray:3;}#my-svg .dotted-line{stroke-dasharray:1 2;}#my-svg [id$="-compositionStart"],#my-svg .composition{fill:#333333!important;stroke:#333333!important;stroke-width:1;}#my-svg [id$="-compositionEnd"],#my-svg .composition{fill:#333333!important;stroke:#333333!important;stroke-width:1;}#my-svg [id$="-dependencyStart"],#my-svg .dependency{fill:#333333!important;stroke:#333333!important;stroke-width:1;}#my-svg [id$="-dependencyEnd"],#my-svg .dependency{fill:#333333!important;stroke:#333333!important;stroke-width:1;}#my-svg [id$="-extensionStart"],#my-svg .extension{fill:transparent!important;stroke:#333333!important;stroke-width:1;}#my-svg [id$="-extensionEnd"],#my-svg .extension{fill:transparent!important;stroke:#333333!important;stroke-width:1;}#my-svg [id$="-aggregationStart"],#my-svg .aggregation{fill:transparent!important;stroke:#333333!important;stroke-width:1;}#my-svg [id$="-aggregationEnd"],#my-svg .aggregation{fill:transparent!important;stroke:#333333!important;stroke-width:1;}#my-svg [id$="-lollipopStart"],#my-svg .lollipop{fill:#ECECFF!important;stroke:#333333!important;stroke-width:1;}#my-svg [id$="-lollipopEnd"],#my-svg .lollipop{fill:#ECECFF!important;stroke:#333333!important;stroke-width:1;}#my-svg .edgeTerminals{font-size:11px;line-height:initial;}#my-svg .classTitleText{text-anchor:middle;font-size:18px;fill:#333;}#my-svg .edgeLabel[data-look="neo"]{background-color:rgba(232,232,232, 0.8);text-align:center;}#my-svg .edgeLabel[data-look="neo"] p{background-color:rgba(232,232,232, 0.8);}#my-svg .edgeLabel[data-look="neo"] rect{opacity:0.5;background-color:rgba(232,232,232, 0.8);fill:rgba(232,232,232, 0.8);}#my-svg .label-icon{display:inline-block;height:1em;overflow:visible;vertical-align:-0.125em;}#my-svg .node .label-icon path{fill:currentColor;stroke:revert;stroke-width:revert;}#my-svg .node .neo-node{stroke:#9370DB;}#my-svg [data-look="neo"].node rect,#my-svg [data-look="neo"].cluster rect,#my-svg [data-look="neo"].node polygon{stroke:#9370DB;filter:drop-shadow(1px 2px 2px rgba(185, 185, 185, 1));}#my-svg [data-look="neo"].node path{stroke:#9370DB;stroke-width:1px;}#my-svg [data-look="neo"].node .outer-path{filter:drop-shadow(1px 2px 2px rgba(185, 185, 185, 1));}#my-svg [data-look="neo"].node .neo-line path{stroke:#9370DB;filter:none;}#my-svg [data-look="neo"].node circle{stroke:#9370DB;filter:drop-shadow(1px 2px 2px rgba(185, 185, 185, 1));}#my-svg [data-look="neo"].node circle .state-start{fill:#000000;}#my-svg [data-look="neo"].icon-shape .icon{fill:#9370DB;filter:drop-shadow(1px 2px 2px rgba(185, 185, 185, 1));}#my-svg [data-look="neo"].icon-shape .icon-neo path{stroke:#9370DB;filter:drop-shadow(1px 2px 2px rgba(185, 185, 185, 1));}#my-svg :root{--mermaid-font-family:"trebuchet ms",verdana,arial,sans-serif;}</style><g><defs><marker id="my-svg_class-aggregationStart" class="marker aggregation class" refX="18" refY="7" markerWidth="190" markerHeight="240" orient="auto"><path d="M 18,7 L9,13 L1,7 L9,1 Z"/></marker></defs><defs><marker id="my-svg_class-aggregationEnd" class="marker aggregation class" refX="1" refY="7" markerWidth="20" markerHeight="28" orient="auto"><path d="M 18,7 L9,13 L1,7 L9,1 Z"/></marker></defs><defs><marker id="my-svg_class-aggregationStart-margin" class="marker aggregation class" refX="15" refY="7" markerWidth="190" markerHeight="240" orient="auto" markerUnits="userSpaceOnUse"><path d="M 18,7 L9,13 L1,7 L9,1 Z" style="stroke-width: 2;"/></marker></defs><defs><marker id="my-svg_class-aggregationEnd-margin" class="marker aggregation class" refX="1" refY="7" markerWidth="20" markerHeight="28" orient="auto" markerUnits="userSpaceOnUse"><path d="M 18,7 L9,13 L1,7 L9,1 Z" style="stroke-width: 2;"/></marker></defs><defs><marker id="my-svg_class-extensionStart" class="marker extension class" refX="18" refY="7" markerWidth="20" markerHeight="28" orient="auto" markerUnits="userSpaceOnUse"><path d="M 1,7 L18,13 V 1 Z"/></marker></defs><defs><marker id="my-svg_class-extensionEnd" class="marker extension class" refX="1" refY="7" markerWidth="20" markerHeight="28" orient="auto"><path d="M 1,1 V 13 L18,7 Z"/></marker></defs><marker id="my-svg_class-extensionStart-margin" class="marker extension class" refX="18" refY="7" markerWidth="20" markerHeight="28" orient="auto" markerUnits="userSpaceOnUse" viewBox="0 0 20 14"><polygon points="10,7 18,13 18,1" style="stroke-width: 2; stroke-dasharray: 0;"/></marker><defs><marker id="my-svg_class-extensionEnd-margin" class="marker extension class" refX="9" refY="7" markerWidth="20" markerHeight="28" orient="auto" markerUnits="userSpaceOnUse" viewBox="0 0 20 14"><polygon points="10,1 10,13 18,7" style="stroke-width: 2; stroke-dasharray: 0;"/></marker></defs><defs><marker id="my-svg_class-compositionStart" class="marker composition class" refX="18" refY="7" markerWidth="190" markerHeight="240" orient="auto"><path d="M 18,7 L9,13 L1,7 L9,1 Z"/></marker></defs><defs><marker id="my-svg_class-compositionEnd" class="marker composition class" refX="1" refY="7" markerWidth="20" markerHeight="28" orient="auto"><path d="M 18,7 L9,13 L1,7 L9,1 Z"/></marker></defs><defs><marker id="my-svg_class-compositionStart-margin" class="marker composition class" refX="15" refY="7" markerWidth="190" markerHeight="240" orient="auto" markerUnits="userSpaceOnUse"><path viewBox="0 0 15 15" d="M 18,7 L9,13 L1,7 L9,1 Z" style="stroke-width: 0;"/></marker></defs><defs><marker id="my-svg_class-compositionEnd-margin" class="marker composition class" refX="3.5" refY="7" markerWidth="20" markerHeight="28" orient="auto" markerUnits="userSpaceOnUse"><path d="M 18,7 L9,13 L1,7 L9,1 Z" style="stroke-width: 0;"/></marker></defs><defs><marker id="my-svg_class-dependencyStart" class="marker dependency class" refX="6" refY="7" markerWidth="190" markerHeight="240" orient="auto"><path d="M 5,7 L9,13 L1,7 L9,1 Z"/></marker></defs><defs><marker id="my-svg_class-dependencyEnd" class="marker dependency class" refX="13" refY="7" markerWidth="20" markerHeight="28" orient="auto"><path d="M 18,7 L9,13 L14,7 L9,1 Z"/></marker></defs><defs><marker id="my-svg_class-dependencyStart-margin" class="marker dependency class" refX="4" refY="7" markerWidth="190" markerHeight="240" orient="auto" markerUnits="userSpaceOnUse"><path d="M 5,7 L9,13 L1,7 L9,1 Z" style="stroke-width: 0;"/></marker></defs><defs><marker id="my-svg_class-dependencyEnd-margin" class="marker dependency class" refX="16" refY="7" markerWidth="20" markerHeight="28" orient="auto" markerUnits="userSpaceOnUse"><path d="M 18,7 L9,13 L14,7 L9,1 Z" style="stroke-width: 0;"/></marker></defs><defs><marker id="my-svg_class-lollipopStart" class="marker lollipop class" refX="13" refY="7" markerWidth="190" markerHeight="240" orient="auto"><circle fill="transparent" cx="7" cy="7" r="6"/></marker></defs><defs><marker id="my-svg_class-lollipopEnd" class="marker lollipop class" refX="1" refY="7" markerWidth="190" markerHeight="240" orient="auto"><circle fill="transparent" cx="7" cy="7" r="6"/></marker></defs><defs><marker id="my-svg_class-lollipopStart-margin" class="marker lollipop class" refX="13" refY="7" markerWidth="190" markerHeight="240" orient="auto" markerUnits="userSpaceOnUse"><circle fill="transparent" cx="7" cy="7" r="6" stroke-width="2"/></marker></defs><defs><marker id="my-svg_class-lollipopEnd-margin" class="marker lollipop class" refX="1" refY="7" markerWidth="190" markerHeight="240" orient="auto" markerUnits="userSpaceOnUse"><circle fill="transparent" cx="7" cy="7" r="6" stroke-width="2"/></marker></defs><g class="root"><g class="clusters"/><g class="edgePaths"><path d="M252.791,281.921L246.372,286.435C239.953,290.948,227.115,299.974,220.696,310.654C214.277,321.333,214.277,333.667,214.277,339.833L214.277,346" id="my-svg-id_PodcastSystem_C4_FFmpeg_1" class="edge-thickness-normal edge-pattern-solid relation" style=";;;" data-edge="true" data-et="edge" data-id="id_PodcastSystem_C4_FFmpeg_1" data-points="W3sieCI6MjY2LjkwMjU0MDIxODE5NTI3LCJ5IjoyNzJ9LHsieCI6MjE0LjI3NzM0Mzc1LCJ5IjozMDl9LHsieCI6MjE0LjI3NzM0Mzc1LCJ5IjozNDZ9XQ==" data-look="classic" marker-start="url(#my-svg_class-compositionStart)"/><path d="M567.38,285.641L570.393,289.534C573.407,293.427,579.434,301.214,582.447,311.273C585.461,321.333,585.461,333.667,585.461,339.833L585.461,346" id="my-svg-id_PodcastSystem_C5_Whisper_2" class="edge-thickness-normal edge-pattern-solid relation" style=";;;" data-edge="true" data-et="edge" data-id="id_PodcastSystem_C5_Whisper_2" data-points="W3sieCI6NTU2LjgyMTA4NjgxNTgyODQsInkiOjI3Mn0seyJ4Ijo1ODUuNDYwOTM3NSwieSI6MzA5fSx7IngiOjU4NS40NjA5Mzc1LCJ5IjozNDZ9XQ==" data-look="classic" marker-start="url(#my-svg_class-compositionStart)"/><path d="M675.849,210.239L727.688,226.699C779.526,243.159,883.202,276.08,935.041,298.706C986.879,321.333,986.879,333.667,986.879,339.833L986.879,346" id="my-svg-id_PodcastSystem_C10_Studio_3" class="edge-thickness-normal edge-pattern-solid relation" style=";;;" data-edge="true" data-et="edge" data-id="id_PodcastSystem_C10_Studio_3" data-points="W3sieCI6NjU5LjQwODIwMzEyNSwieSI6MjA1LjAxODA4MDUzNDg5MzJ9LHsieCI6OTg2Ljg3ODkwNjI1LCJ5IjozMDl9LHsieCI6OTg2Ljg3ODkwNjI1LCJ5IjozNDZ9XQ==" data-look="classic" marker-start="url(#my-svg_class-compositionStart)"/><path d="M733.587,490.349L691.161,500.458C648.734,510.566,563.882,530.783,521.456,547.058C479.029,563.333,479.029,575.667,479.029,581.833L479.029,588" id="my-svg-id_C10_Studio_C4b_DSP_4" class="edge-thickness-normal edge-pattern-solid relation" style=";;;" data-edge="true" data-et="edge" data-id="id_C10_Studio_C4b_DSP_4" data-points="W3sieCI6NzUwLjM2NzE4NzUsInkiOjQ4Ni4zNTExNjY2NDU1MTQzNX0seyJ4Ijo0NzkuMDI5Mjk2ODc1LCJ5Ijo1NTF9LHsieCI6NDc5LjAyOTI5Njg3NSwieSI6NTg4fV0=" data-look="classic" marker-start="url(#my-svg_class-compositionStart)"/><path d="M883.402,525.713L878.846,529.928C874.29,534.142,865.177,542.571,860.621,552.952C856.064,563.333,856.064,575.667,856.064,581.833L856.064,588" id="my-svg-id_C10_Studio_C5b_Segmenter_5" class="edge-thickness-normal edge-pattern-solid relation" style=";;;" data-edge="true" data-et="edge" data-id="id_C10_Studio_C5b_Segmenter_5" data-points="W3sieCI6ODk2LjA2NTU2Njg5MDQ5NTksInkiOjUxNH0seyJ4Ijo4NTYuMDY0NDUzMTI1LCJ5Ijo1NTF9LHsieCI6ODU2LjA2NDQ1MzEyNSwieSI6NTg4fV0=" data-look="classic" marker-start="url(#my-svg_class-compositionStart)"/><path d="M1077.692,514L1084.359,520.167C1091.026,526.333,1104.36,538.667,1111.027,553.5C1117.693,568.333,1117.693,585.667,1117.693,594.333L1117.693,603" id="my-svg-id_C10_Studio_ReelCut_6" class="edge-thickness-normal edge-pattern-dashed relation" style=";;;" data-edge="true" data-et="edge" data-id="id_C10_Studio_ReelCut_6" data-points="W3sieCI6MTA3Ny42OTIyNDU2MDk1MDQyLCJ5Ijo1MTR9LHsieCI6MTExNy42OTMzNTkzNzUsInkiOjU1MX0seyJ4IjoxMTE3LjY5MzM1OTM3NSwieSI6NjA5fV0=" data-look="classic" marker-end="url(#my-svg_class-dependencyEnd)"/></g><g class="edgeLabels"><g class="edgeLabel" transform="translate(214.27734375, 309)"><g class="label" data-id="id_PodcastSystem_C4_FFmpeg_1" transform="translate(-24.3125, -12)"><foreignObject width="48.625" height="24"><div xmlns="http://www.w3.org/1999/xhtml" class="labelBkg" style="display: table-cell; white-space: nowrap; line-height: 1.5; max-width: 200px; text-align: center;"><span class="edgeLabel"><p>ffmpeg</p></span></div></foreignObject></g></g><g class="edgeLabel" transform="translate(585.4609375, 309)"><g class="label" data-id="id_PodcastSystem_C5_Whisper_2" transform="translate(-27.5703125, -12)"><foreignObject width="55.140625" height="24"><div xmlns="http://www.w3.org/1999/xhtml" class="labelBkg" style="display: table-cell; white-space: nowrap; line-height: 1.5; max-width: 200px; text-align: center;"><span class="edgeLabel"><p>whisper</p></span></div></foreignObject></g></g><g class="edgeLabel" transform="translate(986.87890625, 309)"><g class="label" data-id="id_PodcastSystem_C10_Studio_3" transform="translate(-21.3515625, -12)"><foreignObject width="42.703125" height="24"><div xmlns="http://www.w3.org/1999/xhtml" class="labelBkg" style="display: table-cell; white-space: nowrap; line-height: 1.5; max-width: 200px; text-align: center;"><span class="edgeLabel"><p>studio</p></span></div></foreignObject></g></g><g class="edgeLabel" transform="translate(479.029296875, 551)"><g class="label" data-id="id_C10_Studio_C4b_DSP_4" transform="translate(-12.8984375, -12)"><foreignObject width="25.796875" height="24"><div xmlns="http://www.w3.org/1999/xhtml" class="labelBkg" style="display: table-cell; white-space: nowrap; line-height: 1.5; max-width: 200px; text-align: center;"><span class="edgeLabel"><p>dsp</p></span></div></foreignObject></g></g><g class="edgeLabel" transform="translate(856.064453125, 551)"><g class="label" data-id="id_C10_Studio_C5b_Segmenter_5" transform="translate(-37.796875, -12)"><foreignObject width="75.59375" height="24"><div xmlns="http://www.w3.org/1999/xhtml" class="labelBkg" style="display: table-cell; white-space: nowrap; line-height: 1.5; max-width: 200px; text-align: center;"><span class="edgeLabel"><p>segmenter</p></span></div></foreignObject></g></g><g class="edgeLabel" transform="translate(1117.693359375, 551)"><g class="label" data-id="id_C10_Studio_ReelCut_6" transform="translate(-32.46875, -12)"><foreignObject width="64.9375" height="24"><div xmlns="http://www.w3.org/1999/xhtml" class="labelBkg" style="display: table-cell; white-space: nowrap; line-height: 1.5; max-width: 200px; text-align: center;"><span class="edgeLabel"><p>«realize»</p></span></div></foreignObject></g></g></g><g class="nodes"><g class="node default" id="my-svg-classId-PodcastSystem-0" data-look="classic" transform="translate(454.646484375, 140)"><g class="basic label-container outer-path"><path d="M-204.76171875 -132 L204.76171875 -132 L204.76171875 132 L-204.76171875 132" stroke="none" stroke-width="0" fill="#ECECFF" style=""/><path d="M-204.76171875 -132 C-62.95488631981678 -132, 78.85194611036644 -132, 204.76171875 -132 M-204.76171875 -132 C-86.48982251620372 -132, 31.782073717592567 -132, 204.76171875 -132 M204.76171875 -132 C204.76171875 -76.2960536594265, 204.76171875 -20.59210731885301, 204.76171875 132 M204.76171875 -132 C204.76171875 -66.3979810295602, 204.76171875 -0.7959620591203986, 204.76171875 132 M204.76171875 132 C70.35852015555636 132, -64.04467843888727 132, -204.76171875 132 M204.76171875 132 C108.16816924017581 132, 11.574619730351628 132, -204.76171875 132 M-204.76171875 132 C-204.76171875 71.32454157455868, -204.76171875 10.649083149117345, -204.76171875 -132 M-204.76171875 132 C-204.76171875 36.32534117116984, -204.76171875 -59.34931765766032, -204.76171875 -132" stroke="#9370DB" stroke-width="1.3" fill="none" stroke-dasharray="0 0" style=""/></g><g class="annotation-group text" transform="translate(0, -108)"/><g class="label-group text" transform="translate(-59.5859375, -108)"><g class="label" style="font-weight: bolder" transform="translate(0,-12)"><foreignObject width="119.171875" height="24"><div xmlns="http://www.w3.org/1999/xhtml" style="display: table-cell; white-space: nowrap; line-height: 1.5; max-width: 147px; text-align: center;"><span class="nodeLabel markdown-node-label" style=""><p>PodcastSystem</p></span></div></foreignObject></g></g><g class="members-group text" transform="translate(-192.76171875, -60)"><g class="label" style="" transform="translate(0,-12)"><foreignObject width="83.609375" height="24"><div xmlns="http://www.w3.org/1999/xhtml" style="display: table-cell; white-space: nowrap; line-height: 1.5; max-width: 128px; text-align: center;"><span class="nodeLabel markdown-node-label" style=""><p>«block» SoI</p></span></div></foreignObject></g><g class="label" style="" transform="translate(0,12)"><foreignObject width="164.546875" height="24"><div xmlns="http://www.w3.org/1999/xhtml" style="display: table-cell; white-space: nowrap; line-height: 1.5; max-width: 205px; text-align: center;"><span class="nodeLabel markdown-node-label" style=""><p>+loudness: LUFS = -16</p></span></div></foreignObject></g><g class="label" style="" transform="translate(0,36)"><foreignObject width="154.46875" height="24"><div xmlns="http://www.w3.org/1999/xhtml" style="display: table-cell; white-space: nowrap; line-height: 1.5; max-width: 195px; text-align: center;"><span class="nodeLabel markdown-node-label" style=""><p>+truePeak: dBTP = -1</p></span></div></foreignObject></g><g class="label" style="" transform="translate(0,60)"><foreignObject width="107.609375" height="24"><div xmlns="http://www.w3.org/1999/xhtml" style="display: table-cell; white-space: nowrap; line-height: 1.5; max-width: 152px; text-align: center;"><span class="nodeLabel markdown-node-label" style=""><p>+cost: Cost = 0</p></span></div></foreignObject></g><g class="label" style="" transform="translate(0,84)"><foreignObject width="77.78125" height="24"><div xmlns="http://www.w3.org/1999/xhtml" style="display: table-cell; white-space: nowrap; line-height: 1.5; max-width: 132px; text-align: center;"><span class="nodeLabel markdown-node-label" style=""><p>+mic: I-Mic</p></span></div></foreignObject></g><g class="label" style="" transform="translate(0,108)"><foreignObject width="91.578125" height="24"><div xmlns="http://www.w3.org/1999/xhtml" style="display: table-cell; white-space: nowrap; line-height: 1.5; max-width: 137px; text-align: center;"><span class="nodeLabel markdown-node-label" style=""><p>+rss: ~I-RSS</p></span></div></foreignObject></g></g><g class="methods-group text" transform="translate(-192.76171875, 108)"><g class="label" style="" transform="translate(0,-12)"><foreignObject width="325.9375" height="24"><div xmlns="http://www.w3.org/1999/xhtml" style="display: table-cell; white-space: nowrap; line-height: 1.5; max-width: 351px; text-align: center;"><span class="nodeLabel markdown-node-label" style=""><p>+plan() capture() produce() publish() engage()</p></span></div></foreignObject></g></g><g class="divider" style=""><path d="M-204.76171875 -84 C-94.2368328771402 -83.9997301134056, 16.288052995719596 -83.99946022681121, 204.76171875 -83.999 M-204.76171875 -84 C-107.56691463590343 -83.99976266363481, -10.37211052180686 -83.99952532726962, 204.76171875 -83.999" stroke="#9370DB" stroke-width="1.3" fill="none" stroke-dasharray="0 0" style=""/></g><g class="divider" style=""><path d="M-204.76171875 84 C-63.58275679608059 84.00034473963888, 77.59620515783882 84.00068947927775, 204.76171875 84.001 M-204.76171875 84 C-61.39510117843801 84.0003500815935, 81.97151639312398 84.00070016318698, 204.76171875 84.001" stroke="#9370DB" stroke-width="1.3" fill="none" stroke-dasharray="0 0" style=""/></g></g><g class="node default" id="my-svg-classId-C4_FFmpeg-1" data-look="classic" transform="translate(214.27734375, 430)"><g class="basic label-container outer-path"><path d="M-206.27734375 -84 L206.27734375 -84 L206.27734375 84 L-206.27734375 84" stroke="none" stroke-width="0" fill="#ECECFF" style=""/><path d="M-206.27734375 -84 C-63.18924290655326 -84, 79.89885793689348 -84, 206.27734375 -84 M-206.27734375 -84 C-45.35325583024732 -84, 115.57083208950536 -84, 206.27734375 -84 M206.27734375 -84 C206.27734375 -18.08853602955476, 206.27734375 47.82292794089048, 206.27734375 84 M206.27734375 -84 C206.27734375 -18.887434804504267, 206.27734375 46.22513039099147, 206.27734375 84 M206.27734375 84 C43.456526301157254 84, -119.36429114768549 84, -206.27734375 84 M206.27734375 84 C45.45066246620263 84, -115.37601881759474 84, -206.27734375 84 M-206.27734375 84 C-206.27734375 29.987588236402104, -206.27734375 -24.024823527195792, -206.27734375 -84 M-206.27734375 84 C-206.27734375 28.68177138807323, -206.27734375 -26.63645722385354, -206.27734375 -84" stroke="#9370DB" stroke-width="1.3" fill="none" stroke-dasharray="0 0" style=""/></g><g class="annotation-group text" transform="translate(0, -60)"/><g class="label-group text" transform="translate(-45.7890625, -60)"><g class="label" style="font-weight: bolder" transform="translate(0,-12)"><foreignObject width="91.578125" height="24"><div xmlns="http://www.w3.org/1999/xhtml" style="display: table-cell; white-space: nowrap; line-height: 1.5; max-width: 130px; text-align: center;"><span class="nodeLabel markdown-node-label" style=""><p>C4_FFmpeg</p></span></div></foreignObject></g></g><g class="members-group text" transform="translate(-194.27734375, -12)"><g class="label" style="" transform="translate(0,-12)"><foreignObject width="55.15625" height="24"><div xmlns="http://www.w3.org/1999/xhtml" style="display: table-cell; white-space: nowrap; line-height: 1.5; max-width: 102px; text-align: center;"><span class="nodeLabel markdown-node-label" style=""><p>«block»</p></span></div></foreignObject></g><g class="label" style="" transform="translate(0,12)"><foreignObject width="182.3125" height="24"><div xmlns="http://www.w3.org/1999/xhtml" style="display: table-cell; white-space: nowrap; line-height: 1.5; max-width: 225px; text-align: center;"><span class="nodeLabel markdown-node-label" style=""><p>+targetLUFS: LUFS = -16</p></span></div></foreignObject></g></g><g class="methods-group text" transform="translate(-194.27734375, 60)"><g class="label" style="" transform="translate(0,-12)"><foreignObject width="342.765625" height="24"><div xmlns="http://www.w3.org/1999/xhtml" style="display: table-cell; white-space: nowrap; line-height: 1.5; max-width: 369px; text-align: center;"><span class="nodeLabel markdown-node-label" style=""><p>+master() exportMp3() exportMp4() checkPass()</p></span></div></foreignObject></g></g><g class="divider" style=""><path d="M-206.27734375 -36 C-55.865348367139205 -35.99963541319505, 94.54664701572159 -35.9992708263901, 206.27734375 -35.999 M-206.27734375 -36 C-91.61029145892283 -35.99972205611579, 23.05676083215434 -35.999444112231586, 206.27734375 -35.999" stroke="#9370DB" stroke-width="1.3" fill="none" stroke-dasharray="0 0" style=""/></g><g class="divider" style=""><path d="M-206.27734375 36 C-91.01070907572033 36.00027939722458, 24.255925598559344 36.000558794449155, 206.27734375 36.001 M-206.27734375 36 C-112.19792415074453 36.00022804108752, -18.118504551489053 36.00045608217504, 206.27734375 36.001" stroke="#9370DB" stroke-width="1.3" fill="none" stroke-dasharray="0 0" style=""/></g></g><g class="node default" id="my-svg-classId-C5_Whisper-2" data-look="classic" transform="translate(585.4609375, 430)"><g class="basic label-container outer-path"><path d="M-114.90625 -84 L114.90625 -84 L114.90625 84 L-114.90625 84" stroke="none" stroke-width="0" fill="#ECECFF" style=""/><path d="M-114.90625 -84 C-23.54083624467161 -84, 67.82457751065678 -84, 114.90625 -84 M-114.90625 -84 C-48.35084994652945 -84, 18.2045501069411 -84, 114.90625 -84 M114.90625 -84 C114.90625 -20.872680297057613, 114.90625 42.254639405884774, 114.90625 84 M114.90625 -84 C114.90625 -18.67682948729309, 114.90625 46.64634102541382, 114.90625 84 M114.90625 84 C61.63423172064399 84, 8.362213441287977 84, -114.90625 84 M114.90625 84 C53.27899107767249 84, -8.348267844655027 84, -114.90625 84 M-114.90625 84 C-114.90625 48.249147978315065, -114.90625 12.49829595663013, -114.90625 -84 M-114.90625 84 C-114.90625 46.155566499235874, -114.90625 8.311132998471749, -114.90625 -84" stroke="#9370DB" stroke-width="1.3" fill="none" stroke-dasharray="0 0" style=""/></g><g class="annotation-group text" transform="translate(0, -60)"/><g class="label-group text" transform="translate(-46.234375, -60)"><g class="label" style="font-weight: bolder" transform="translate(0,-12)"><foreignObject width="92.46875" height="24"><div xmlns="http://www.w3.org/1999/xhtml" style="display: table-cell; white-space: nowrap; line-height: 1.5; max-width: 132px; text-align: center;"><span class="nodeLabel markdown-node-label" style=""><p>C5_Whisper</p></span></div></foreignObject></g></g><g class="members-group text" transform="translate(-102.90625, -12)"><g class="label" style="" transform="translate(0,-12)"><foreignObject width="55.15625" height="24"><div xmlns="http://www.w3.org/1999/xhtml" style="display: table-cell; white-space: nowrap; line-height: 1.5; max-width: 102px; text-align: center;"><span class="nodeLabel markdown-node-label" style=""><p>«block»</p></span></div></foreignObject></g><g class="label" style="" transform="translate(0,12)"><foreignObject width="147.171875" height="24"><div xmlns="http://www.w3.org/1999/xhtml" style="display: table-cell; white-space: nowrap; line-height: 1.5; max-width: 189px; text-align: center;"><span class="nodeLabel markdown-node-label" style=""><p>+accuracy: Accuracy</p></span></div></foreignObject></g></g><g class="methods-group text" transform="translate(-102.90625, 60)"><g class="label" style="" transform="translate(0,-12)"><foreignObject width="159.578125" height="24"><div xmlns="http://www.w3.org/1999/xhtml" style="display: table-cell; white-space: nowrap; line-height: 1.5; max-width: 203px; text-align: center;"><span class="nodeLabel markdown-node-label" style=""><p>+transcribe() writeSrt()</p></span></div></foreignObject></g></g><g class="divider" style=""><path d="M-114.90625 -36 C-61.35519128960757 -35.99976697934747, -7.8041325792151355 -35.99953395869493, 114.90625 -35.999 M-114.90625 -36 C-39.45829006801283 -35.999671697753904, 35.98966986397434 -35.9993433955078, 114.90625 -35.999" stroke="#9370DB" stroke-width="1.3" fill="none" stroke-dasharray="0 0" style=""/></g><g class="divider" style=""><path d="M-114.90625 36 C-36.5738806529702 36.00034085338851, 41.758488694059594 36.000681706777016, 114.90625 36.001 M-114.90625 36 C-56.99442701932229 36.000251995966195, 0.9173959613554246 36.00050399193238, 114.90625 36.001" stroke="#9370DB" stroke-width="1.3" fill="none" stroke-dasharray="0 0" style=""/></g></g><g class="node default" id="my-svg-classId-C10_Studio-3" data-look="classic" transform="translate(986.87890625, 430)"><g class="basic label-container outer-path"><path d="M-236.51171875 -84 L236.51171875 -84 L236.51171875 84 L-236.51171875 84" stroke="none" stroke-width="0" fill="#ECECFF" style=""/><path d="M-236.51171875 -84 C-122.7787240764889 -84, -9.045729402977798 -84, 236.51171875 -84 M-236.51171875 -84 C-76.88810125202627 -84, 82.73551624594745 -84, 236.51171875 -84 M236.51171875 -84 C236.51171875 -46.21106504300558, 236.51171875 -8.422130086011165, 236.51171875 84 M236.51171875 -84 C236.51171875 -36.13594852639126, 236.51171875 11.72810294721748, 236.51171875 84 M236.51171875 84 C56.06499419330106 84, -124.38173036339788 84, -236.51171875 84 M236.51171875 84 C72.68577565014823 84, -91.14016744970354 84, -236.51171875 84 M-236.51171875 84 C-236.51171875 34.14474398169381, -236.51171875 -15.710512036612386, -236.51171875 -84 M-236.51171875 84 C-236.51171875 21.283593404451175, -236.51171875 -41.43281319109765, -236.51171875 -84" stroke="#9370DB" stroke-width="1.3" fill="none" stroke-dasharray="0 0" style=""/></g><g class="annotation-group text" transform="translate(0, -60)"/><g class="label-group text" transform="translate(-44.0078125, -60)"><g class="label" style="font-weight: bolder" transform="translate(0,-12)"><foreignObject width="88.015625" height="24"><div xmlns="http://www.w3.org/1999/xhtml" style="display: table-cell; white-space: nowrap; line-height: 1.5; max-width: 134px; text-align: center;"><span class="nodeLabel markdown-node-label" style=""><p>C10_Studio</p></span></div></foreignObject></g></g><g class="members-group text" transform="translate(-224.51171875, -12)"><g class="label" style="" transform="translate(0,-12)"><foreignObject width="55.15625" height="24"><div xmlns="http://www.w3.org/1999/xhtml" style="display: table-cell; white-space: nowrap; line-height: 1.5; max-width: 102px; text-align: center;"><span class="nodeLabel markdown-node-label" style=""><p>«block»</p></span></div></foreignObject></g><g class="label" style="" transform="translate(0,12)"><foreignObject width="173.421875" height="24"><div xmlns="http://www.w3.org/1999/xhtml" style="display: table-cell; white-space: nowrap; line-height: 1.5; max-width: 210px; text-align: center;"><span class="nodeLabel markdown-node-label" style=""><p>+egressBytes: Bytes = 0</p></span></div></foreignObject></g></g><g class="methods-group text" transform="translate(-224.51171875, 60)"><g class="label" style="" transform="translate(0,-12)"><foreignObject width="405.015625" height="24"><div xmlns="http://www.w3.org/1999/xhtml" style="display: table-cell; white-space: nowrap; line-height: 1.5; max-width: 431px; text-align: center;"><span class="nodeLabel markdown-node-label" style=""><p>+driveClean() driveSegment() driveMaster() driveExport()</p></span></div></foreignObject></g></g><g class="divider" style=""><path d="M-236.51171875 -36 C-101.39904230151285 -35.99971436367474, 33.7136341469743 -35.99942872734948, 236.51171875 -35.999 M-236.51171875 -36 C-61.65433001775159 -35.99963034096226, 113.20305871449682 -35.99926068192453, 236.51171875 -35.999" stroke="#9370DB" stroke-width="1.3" fill="none" stroke-dasharray="0 0" style=""/></g><g class="divider" style=""><path d="M-236.51171875 36 C-100.62238705259821 36.00028727822117, 35.26694464480357 36.000574556442345, 236.51171875 36.001 M-236.51171875 36 C-47.49704687161807 36.00039958838589, 141.51762500676386 36.00079917677178, 236.51171875 36.001" stroke="#9370DB" stroke-width="1.3" fill="none" stroke-dasharray="0 0" style=""/></g></g><g class="node default" id="my-svg-classId-C4b_DSP-4" data-look="classic" transform="translate(479.029296875, 651)"><g class="basic label-container outer-path"><path d="M-157.6328125 -63 L157.6328125 -63 L157.6328125 63 L-157.6328125 63" stroke="none" stroke-width="0" fill="#ECECFF" style=""/><path d="M-157.6328125 -63 C-83.10559116839917 -63, -8.578369836798345 -63, 157.6328125 -63 M-157.6328125 -63 C-35.940618741869784 -63, 85.75157501626043 -63, 157.6328125 -63 M157.6328125 -63 C157.6328125 -20.14938309460387, 157.6328125 22.70123381079226, 157.6328125 63 M157.6328125 -63 C157.6328125 -25.80188306106306, 157.6328125 11.396233877873883, 157.6328125 63 M157.6328125 63 C67.7754562658394 63, -22.08189996832121 63, -157.6328125 63 M157.6328125 63 C83.95123992211174 63, 10.269667344223478 63, -157.6328125 63 M-157.6328125 63 C-157.6328125 23.71475501690687, -157.6328125 -15.570489966186258, -157.6328125 -63 M-157.6328125 63 C-157.6328125 36.67608820544034, -157.6328125 10.352176410880674, -157.6328125 -63" stroke="#9370DB" stroke-width="1.3" fill="none" stroke-dasharray="0 0" style=""/></g><g class="annotation-group text" transform="translate(0, -39)"/><g class="label-group text" transform="translate(-36.015625, -39)"><g class="label" style="font-weight: bolder" transform="translate(0,-12)"><foreignObject width="72.03125" height="24"><div xmlns="http://www.w3.org/1999/xhtml" style="display: table-cell; white-space: nowrap; line-height: 1.5; max-width: 121px; text-align: center;"><span class="nodeLabel markdown-node-label" style=""><p>C4b_DSP</p></span></div></foreignObject></g></g><g class="members-group text" transform="translate(-145.6328125, 9)"/><g class="methods-group text" transform="translate(-145.6328125, 39)"><g class="label" style="" transform="translate(0,-12)"><foreignObject width="255.25" height="24"><div xmlns="http://www.w3.org/1999/xhtml" style="display: table-cell; white-space: nowrap; line-height: 1.5; max-width: 285px; text-align: center;"><span class="nodeLabel markdown-node-label" style=""><p>«block» +noiseFloor: dBFS +clean()</p></span></div></foreignObject></g></g><g class="divider" style=""><path d="M-157.6328125 -15 C-40.22933886332632 -14.999627604583797, 77.17413477334736 -14.999255209167593, 157.6328125 -14.999 M-157.6328125 -15 C-59.91834879336203 -14.999690056714218, 37.79611491327594 -14.999380113428437, 157.6328125 -14.999" stroke="#9370DB" stroke-width="1.3" fill="none" stroke-dasharray="0 0" style=""/></g><g class="divider" style=""><path d="M-157.6328125 9 C-54.30652810655715 9.000327743579382, 49.019756286885695 9.000655487158763, 157.6328125 9.001 M-157.6328125 9 C-47.48690389836776 9.000349374939312, 62.659004703264486 9.000698749878625, 157.6328125 9.001" stroke="#9370DB" stroke-width="1.3" fill="none" stroke-dasharray="0 0" style=""/></g></g><g class="node default" id="my-svg-classId-C5b_Segmenter-5" data-look="classic" transform="translate(856.064453125, 651)"><g class="basic label-container outer-path"><path d="M-169.40234375 -63 L169.40234375 -63 L169.40234375 63 L-169.40234375 63" stroke="none" stroke-width="0" fill="#ECECFF" style=""/><path d="M-169.40234375 -63 C-77.24370665265637 -63, 14.914930444687258 -63, 169.40234375 -63 M-169.40234375 -63 C-55.11754786746474 -63, 59.16724801507053 -63, 169.40234375 -63 M169.40234375 -63 C169.40234375 -23.978095620447412, 169.40234375 15.043808759105175, 169.40234375 63 M169.40234375 -63 C169.40234375 -24.608923670842934, 169.40234375 13.782152658314132, 169.40234375 63 M169.40234375 63 C72.81917076487497 63, -23.764002220250063 63, -169.40234375 63 M169.40234375 63 C38.53613289694633 63, -92.33007795610735 63, -169.40234375 63 M-169.40234375 63 C-169.40234375 34.0980167106069, -169.40234375 5.196033421213798, -169.40234375 -63 M-169.40234375 63 C-169.40234375 24.420964670623086, -169.40234375 -14.158070658753829, -169.40234375 -63" stroke="#9370DB" stroke-width="1.3" fill="none" stroke-dasharray="0 0" style=""/></g><g class="annotation-group text" transform="translate(0, -39)"/><g class="label-group text" transform="translate(-60.9140625, -39)"><g class="label" style="font-weight: bolder" transform="translate(0,-12)"><foreignObject width="121.828125" height="24"><div xmlns="http://www.w3.org/1999/xhtml" style="display: table-cell; white-space: nowrap; line-height: 1.5; max-width: 154px; text-align: center;"><span class="nodeLabel markdown-node-label" style=""><p>C5b_Segmenter</p></span></div></foreignObject></g></g><g class="members-group text" transform="translate(-157.40234375, 9)"/><g class="methods-group text" transform="translate(-157.40234375, 39)"><g class="label" style="" transform="translate(0,-12)"><foreignObject width="253.890625" height="24"><div xmlns="http://www.w3.org/1999/xhtml" style="display: table-cell; white-space: nowrap; line-height: 1.5; max-width: 282px; text-align: center;"><span class="nodeLabel markdown-node-label" style=""><p>«block» +segment() group() select()</p></span></div></foreignObject></g></g><g class="divider" style=""><path d="M-169.40234375 -15 C-38.991426482636 -14.999615085262752, 91.419490784728 -14.999230170525506, 169.40234375 -14.999 M-169.40234375 -15 C-82.12162783754363 -14.999742386338996, 5.159088074912745 -14.99948477267799, 169.40234375 -14.999" stroke="#9370DB" stroke-width="1.3" fill="none" stroke-dasharray="0 0" style=""/></g><g class="divider" style=""><path d="M-169.40234375 9 C-90.99097511596344 9.000231435312223, -12.579606481926874 9.000462870624444, 169.40234375 9.001 M-169.40234375 9 C-65.4227783787572 9.000306901200625, 38.5567869924856 9.00061380240125, 169.40234375 9.001" stroke="#9370DB" stroke-width="1.3" fill="none" stroke-dasharray="0 0" style=""/></g></g><g class="node default" id="my-svg-classId-ReelCut-6" data-look="classic" transform="translate(1117.693359375, 651)"><g class="basic label-container outer-path"><path d="M-42.2265625 -42 L42.2265625 -42 L42.2265625 42 L-42.2265625 42" stroke="none" stroke-width="0" fill="#ECECFF" style=""/><path d="M-42.2265625 -42 C-8.681218596542898 -42, 24.864125306914204 -42, 42.2265625 -42 M-42.2265625 -42 C-24.575292679896698 -42, -6.924022859793396 -42, 42.2265625 -42 M42.2265625 -42 C42.2265625 -10.829418891733841, 42.2265625 20.341162216532318, 42.2265625 42 M42.2265625 -42 C42.2265625 -17.98720934607644, 42.2265625 6.025581307847119, 42.2265625 42 M42.2265625 42 C12.678652668018167 42, -16.869257163963667 42, -42.2265625 42 M42.2265625 42 C10.83004319354519 42, -20.56647611290962 42, -42.2265625 42 M-42.2265625 42 C-42.2265625 21.176351592606096, -42.2265625 0.35270318521219224, -42.2265625 -42 M-42.2265625 42 C-42.2265625 13.619317350147472, -42.2265625 -14.761365299705055, -42.2265625 -42" stroke="#9370DB" stroke-width="1.3" fill="none" stroke-dasharray="0 0" style=""/></g><g class="annotation-group text" transform="translate(0, -18)"/><g class="label-group text" transform="translate(-30.2265625, -18)"><g class="label" style="font-weight: bolder" transform="translate(0,-12)"><foreignObject width="60.453125" height="24"><div xmlns="http://www.w3.org/1999/xhtml" style="display: table-cell; white-space: nowrap; line-height: 1.5; max-width: 103px; text-align: center;"><span class="nodeLabel markdown-node-label" style=""><p>ReelCut</p></span></div></foreignObject></g></g><g class="members-group text" transform="translate(-30.2265625, 30)"/><g class="methods-group text" transform="translate(-30.2265625, 60)"/><g class="divider" style=""><path d="M-42.2265625 6 C-20.699800416095126 6.000254895980272, 0.8269616678097478 6.000509791960544, 42.2265625 6.001 M-42.2265625 6 C-20.82023728530873 6.000253469900785, 0.5860879293825434 6.00050693980157, 42.2265625 6.001" stroke="#9370DB" stroke-width="1.3" fill="none" stroke-dasharray="0 0" style=""/></g><g class="divider" style=""><path d="M-42.2265625 24 C-22.751113812384432 24.000230606607957, -3.2756651247688637 24.000461213215914, 42.2265625 24.001 M-42.2265625 24 C-11.357407155384408 24.000365518213147, 19.511748189231184 24.000731036426295, 42.2265625 24.001" stroke="#9370DB" stroke-width="1.3" fill="none" stroke-dasharray="0 0" style=""/></g></g></g></g></g><defs><filter id="my-svg-drop-shadow" height="130%" width="130%"><feDropShadow dx="4" dy="4" stdDeviation="0" flood-opacity="0.06" flood-color="#000000"/></filter></defs><defs><filter id="my-svg-drop-shadow-small" height="150%" width="150%"><feDropShadow dx="2" dy="2" stdDeviation="0" flood-opacity="0.06" flood-color="#000000"/></filter></defs></svg>