<svg id="my-svg" width="100%" xmlns="http://www.w3.org/2000/svg" xmlns:xlink="http://www.w3.org/1999/xlink" class="flowchart" style="max-width: 427.402px; background-color: white;" viewBox="0 0 427.40185546875 1850.125" role="graphics-document document" aria-roledescription="flowchart-v2"><style>#my-svg{font-family:"trebuchet ms",verdana,arial,sans-serif;font-size:16px;fill:#333;}@keyframes edge-animation-frame{from{stroke-dashoffset:0;}}@keyframes dash{to{stroke-dashoffset:0;}}#my-svg .edge-animation-slow{stroke-dasharray:9,5!important;stroke-dashoffset:900;animation:dash 50s linear infinite;stroke-linecap:round;}#my-svg .edge-animation-fast{stroke-dasharray:9,5!important;stroke-dashoffset:900;animation:dash 20s linear infinite;stroke-linecap:round;}#my-svg .error-icon{fill:#552222;}#my-svg .error-text{fill:#552222;stroke:#552222;}#my-svg .edge-thickness-normal{stroke-width:1px;}#my-svg .edge-thickness-thick{stroke-width:3.5px;}#my-svg .edge-pattern-solid{stroke-dasharray:0;}#my-svg .edge-thickness-invisible{stroke-width:0;fill:none;}#my-svg .edge-pattern-dashed{stroke-dasharray:3;}#my-svg .edge-pattern-dotted{stroke-dasharray:2;}#my-svg .marker{fill:#333333;stroke:#333333;}#my-svg .marker.cross{stroke:#333333;}#my-svg svg{font-family:"trebuchet ms",verdana,arial,sans-serif;font-size:16px;}#my-svg p{margin:0;}#my-svg .label{font-family:"trebuchet ms",verdana,arial,sans-serif;color:#333;}#my-svg .cluster-label text{fill:#333;}#my-svg .cluster-label span{color:#333;}#my-svg .cluster-label span p{background-color:transparent;}#my-svg .label text,#my-svg span{fill:#333;color:#333;}#my-svg .node rect,#my-svg .node circle,#my-svg .node ellipse,#my-svg .node polygon,#my-svg .node path{fill:#ECECFF;stroke:#9370DB;stroke-width:1px;}#my-svg .rough-node .label text,#my-svg .node .label text,#my-svg .image-shape .label,#my-svg .icon-shape .label{text-anchor:middle;}#my-svg .node .katex path{fill:#000;stroke:#000;stroke-width:1px;}#my-svg .rough-node .label,#my-svg .node .label,#my-svg .image-shape .label,#my-svg .icon-shape .label{text-align:center;}#my-svg .node.clickable{cursor:pointer;}#my-svg .root .anchor path{fill:#333333!important;stroke-width:0;stroke:#333333;}#my-svg .arrowheadPath{fill:#333333;}#my-svg .edgePath .path{stroke:#333333;stroke-width:1px;}#my-svg .flowchart-link{stroke:#333333;fill:none;}#my-svg .edgeLabel{background-color:rgba(232,232,232, 0.8);text-align:center;}#my-svg .edgeLabel p{background-color:rgba(232,232,232, 0.8);}#my-svg .edgeLabel rect{opacity:0.5;background-color:rgba(232,232,232, 0.8);fill:rgba(232,232,232, 0.8);}#my-svg .labelBkg{background-color:rgba(232, 232, 232, 0.5);}#my-svg .cluster rect{fill:#ffffde;stroke:#aaaa33;stroke-width:1px;}#my-svg .cluster text{fill:#333;}#my-svg .cluster span{color:#333;}#my-svg div.mermaidTooltip{position:absolute;text-align:center;max-width:200px;padding:2px;font-family:"trebuchet ms",verdana,arial,sans-serif;font-size:12px;background:hsl(80, 100%, 96.2745098039%);border:1px solid #aaaa33;border-radius:2px;pointer-events:none;z-index:100;}#my-svg .flowchartTitleText{text-anchor:middle;font-size:18px;fill:#333;}#my-svg rect.text{fill:none;stroke-width:0;}#my-svg .icon-shape,#my-svg .image-shape{background-color:rgba(232,232,232, 0.8);text-align:center;}#my-svg .icon-shape p,#my-svg .image-shape p{background-color:rgba(232,232,232, 0.8);padding:2px;}#my-svg .icon-shape .label rect,#my-svg .image-shape .label rect{opacity:0.5;background-color:rgba(232,232,232, 0.8);fill:rgba(232,232,232, 0.8);}#my-svg .label-icon{display:inline-block;height:1em;overflow:visible;vertical-align:-0.125em;}#my-svg .node .label-icon path{fill:currentColor;stroke:revert;stroke-width:revert;}#my-svg .node .neo-node{stroke:#9370DB;}#my-svg [data-look="neo"].node rect,#my-svg [data-look="neo"].cluster rect,#my-svg [data-look="neo"].node polygon{stroke:#9370DB;filter:drop-shadow(1px 2px 2px rgba(185, 185, 185, 1));}#my-svg [data-look="neo"].node path{stroke:#9370DB;stroke-width:1px;}#my-svg [data-look="neo"].node .outer-path{filter:drop-shadow(1px 2px 2px rgba(185, 185, 185, 1));}#my-svg [data-look="neo"].node .neo-line path{stroke:#9370DB;filter:none;}#my-svg [data-look="neo"].node circle{stroke:#9370DB;filter:drop-shadow(1px 2px 2px rgba(185, 185, 185, 1));}#my-svg [data-look="neo"].node circle .state-start{fill:#000000;}#my-svg [data-look="neo"].icon-shape .icon{fill:#9370DB;filter:drop-shadow(1px 2px 2px rgba(185, 185, 185, 1));}#my-svg [data-look="neo"].icon-shape .icon-neo path{stroke:#9370DB;filter:drop-shadow(1px 2px 2px rgba(185, 185, 185, 1));}#my-svg :root{--mermaid-font-family:"trebuchet ms",verdana,arial,sans-serif;}</style><g><marker id="my-svg_flowchart-v2-pointEnd" class="marker flowchart-v2" viewBox="0 0 10 10" refX="5" refY="5" markerUnits="userSpaceOnUse" markerWidth="8" markerHeight="8" orient="auto"><path d="M 0 0 L 10 5 L 0 10 z" class="arrowMarkerPath" style="stroke-width: 1; stroke-dasharray: 1, 0;"/></marker><marker id="my-svg_flowchart-v2-pointStart" class="marker flowchart-v2" viewBox="0 0 10 10" refX="4.5" refY="5" markerUnits="userSpaceOnUse" markerWidth="8" markerHeight="8" orient="auto"><path d="M 0 5 L 10 10 L 10 0 z" class="arrowMarkerPath" style="stroke-width: 1; stroke-dasharray: 1, 0;"/></marker><marker id="my-svg_flowchart-v2-pointEnd-margin" class="marker flowchart-v2" viewBox="0 0 11.5 14" refX="11.5" refY="7" markerUnits="userSpaceOnUse" markerWidth="10.5" markerHeight="14" orient="auto"><path d="M 0 0 L 11.5 7 L 0 14 z" class="arrowMarkerPath" style="stroke-width: 0; stroke-dasharray: 1, 0;"/></marker><marker id="my-svg_flowchart-v2-pointStart-margin" class="marker flowchart-v2" viewBox="0 0 11.5 14" refX="1" refY="7" markerUnits="userSpaceOnUse" markerWidth="11.5" markerHeight="14" orient="auto"><polygon points="0,7 11.5,14 11.5,0" class="arrowMarkerPath" style="stroke-width: 0; stroke-dasharray: 1, 0;"/></marker><marker id="my-svg_flowchart-v2-circleEnd" class="marker flowchart-v2" viewBox="0 0 10 10" refX="11" refY="5" markerUnits="userSpaceOnUse" markerWidth="11" markerHeight="11" orient="auto"><circle cx="5" cy="5" r="5" class="arrowMarkerPath" style="stroke-width: 1; stroke-dasharray: 1, 0;"/></marker><marker id="my-svg_flowchart-v2-circleStart" class="marker flowchart-v2" viewBox="0 0 10 10" refX="-1" refY="5" markerUnits="userSpaceOnUse" markerWidth="11" markerHeight="11" orient="auto"><circle cx="5" cy="5" r="5" class="arrowMarkerPath" style="stroke-width: 1; stroke-dasharray: 1, 0;"/></marker><marker id="my-svg_flowchart-v2-circleEnd-margin" class="marker flowchart-v2" viewBox="0 0 10 10" refY="5" refX="12.25" markerUnits="userSpaceOnUse" markerWidth="14" markerHeight="14" orient="auto"><circle cx="5" cy="5" r="5" class="arrowMarkerPath" style="stroke-width: 0; stroke-dasharray: 1, 0;"/></marker><marker id="my-svg_flowchart-v2-circleStart-margin" class="marker flowchart-v2" viewBox="0 0 10 10" refX="-2" refY="5" markerUnits="userSpaceOnUse" markerWidth="14" markerHeight="14" orient="auto"><circle cx="5" cy="5" r="5" class="arrowMarkerPath" style="stroke-width: 0; stroke-dasharray: 1, 0;"/></marker><marker id="my-svg_flowchart-v2-crossEnd" class="marker cross flowchart-v2" viewBox="0 0 11 11" refX="12" refY="5.2" markerUnits="userSpaceOnUse" markerWidth="11" markerHeight="11" orient="auto"><path d="M 1,1 l 9,9 M 10,1 l -9,9" class="arrowMarkerPath" style="stroke-width: 2; stroke-dasharray: 1, 0;"/></marker><marker id="my-svg_flowchart-v2-crossStart" class="marker cross flowchart-v2" viewBox="0 0 11 11" refX="-1" refY="5.2" markerUnits="userSpaceOnUse" markerWidth="11" markerHeight="11" orient="auto"><path d="M 1,1 l 9,9 M 10,1 l -9,9" class="arrowMarkerPath" style="stroke-width: 2; stroke-dasharray: 1, 0;"/></marker><marker id="my-svg_flowchart-v2-crossEnd-margin" class="marker cross flowchart-v2" viewBox="0 0 15 15" refX="17.7" refY="7.5" markerUnits="userSpaceOnUse" markerWidth="12" markerHeight="12" orient="auto"><path d="M 1,1 L 14,14 M 1,14 L 14,1" class="arrowMarkerPath" style="stroke-width: 2.5;"/></marker><marker id="my-svg_flowchart-v2-crossStart-margin" class="marker cross flowchart-v2" viewBox="0 0 15 15" refX="-3.5" refY="7.5" markerUnits="userSpaceOnUse" markerWidth="12" markerHeight="12" orient="auto"><path d="M 1,1 L 14,14 M 1,14 L 14,1" class="arrowMarkerPath" style="stroke-width: 2.5; stroke-dasharray: 1, 0;"/></marker><g class="root"><g class="clusters"><g class="cluster" id="my-svg-SoI" data-look="classic"><rect style="" x="210.32371520996094" y="8" width="209.078125" height="1834.125"/><g class="cluster-label" transform="translate(230.81590270996094, 8)"><foreignObject width="168.09375" height="24"><div xmlns="http://www.w3.org/1999/xhtml" style="display: table-cell; white-space: nowrap; line-height: 1.5;"><span class="nodeLabel"><p>«block» ReelCut In Use</p></span></div></foreignObject></g></g></g><g class="edgePaths"><path d="M87.094,888.922L103.465,756.892C119.837,624.862,152.58,360.802,173.119,228.772C193.657,96.742,201.99,96.742,214.623,96.742C227.256,96.742,244.188,96.742,252.654,96.742L261.121,96.742" id="my-svg-L_Creator_UC1_0" class="edge-thickness-normal edge-pattern-solid edge-thickness-normal edge-pattern-solid flowchart-link" style=";" data-edge="true" data-et="edge" data-id="L_Creator_UC1_0" data-points="W3sieCI6ODcuMDkzNjkzOTIxNTE0MzQsInkiOjg4OC45MjE4NzV9LHsieCI6MTg1LjMyMzcxNTIwOTk2MDk0LCJ5Ijo5Ni43NDIxODc1fSx7IngiOjIxMC4zMjM3MTUyMDk5NjA5NCwieSI6OTYuNzQyMTg3NX0seyJ4IjoyNjEuMTIwNTkwMjA5OTYwOTQsInkiOjk2Ljc0MjE4NzV9XQ==" data-look="classic"/><path d="M87.795,888.922L104.049,787.142C120.304,685.362,152.814,481.802,173.236,380.022C193.657,278.242,201.99,278.242,210.621,278.242C219.251,278.242,228.178,278.242,232.641,278.242L237.105,278.242" id="my-svg-L_Creator_UC2_0" class="edge-thickness-normal edge-pattern-solid edge-thickness-normal edge-pattern-solid flowchart-link" style=";" data-edge="true" data-et="edge" data-id="L_Creator_UC2_0" data-points="W3sieCI6ODcuNzk0NjUwNzczNDA3MjcsInkiOjg4OC45MjE4NzV9LHsieCI6MTg1LjMyMzcxNTIwOTk2MDk0LCJ5IjoyNzguMjQyMTg3NX0seyJ4IjoyMTAuMzIzNzE1MjA5OTYwOTQsInkiOjI3OC4yNDIxODc1fSx7IngiOjIzNy4xMDQ5NjUyMDk5NjA5NCwieSI6Mjc4LjI0MjE4NzV9XQ==" data-look="classic"/><path d="M89.18,888.922L105.204,819.32C121.228,749.719,153.276,610.516,173.466,540.914C193.657,471.313,201.99,471.313,212.695,471.313C223.399,471.313,236.475,471.313,243.013,471.313L249.55,471.313" id="my-svg-L_Creator_UC3_0" class="edge-thickness-normal edge-pattern-solid edge-thickness-normal edge-pattern-solid flowchart-link" style=";" data-edge="true" data-et="edge" data-id="L_Creator_UC3_0" data-points="W3sieCI6ODkuMTc5OTgzNzI5MjY5NzYsInkiOjg4OC45MjE4NzV9LHsieCI6MTg1LjMyMzcxNTIwOTk2MDk0LCJ5Ijo0NzEuMzEyNX0seyJ4IjoyMTAuMzIzNzE1MjA5OTYwOTQsInkiOjQ3MS4zMTI1fSx7IngiOjI0OS41NTAyNzc3MDk5NjA5NCwieSI6NDcxLjMxMjV9XQ==" data-look="classic"/><path d="M92.21,888.922L107.729,848.533C123.248,808.143,154.286,727.365,173.971,686.975C193.657,646.586,201.99,646.586,213.587,646.586C225.183,646.586,240.042,646.586,247.472,646.586L254.902,646.586" id="my-svg-L_Creator_UC4_0" class="edge-thickness-normal edge-pattern-solid edge-thickness-normal edge-pattern-solid flowchart-link" style=";" data-edge="true" data-et="edge" data-id="L_Creator_UC4_0" data-points="W3sieCI6OTIuMjEwMjExODEyMDkwMzEsInkiOjg4OC45MjE4NzV9LHsieCI6MTg1LjMyMzcxNTIwOTk2MDk0LCJ5Ijo2NDYuNTg1OTM3NX0seyJ4IjoyMTAuMzIzNzE1MjA5OTYwOTQsInkiOjY0Ni41ODU5Mzc1fSx7IngiOjI1NC45MDE4NDAyMDk5NjA5NCwieSI6NjQ2LjU4NTkzNzV9XQ==" data-look="classic"/><path d="M108.063,888.922L120.94,878.039C133.817,867.156,159.57,845.391,176.614,834.508C193.657,823.625,201.99,823.625,212.401,823.625C222.811,823.625,235.298,823.625,241.541,823.625L247.785,823.625" id="my-svg-L_Creator_UC5_0" class="edge-thickness-normal edge-pattern-solid edge-thickness-normal edge-pattern-solid flowchart-link" style=";" data-edge="true" data-et="edge" data-id="L_Creator_UC5_0" data-points="W3sieCI6MTA4LjA2MzE1NDc4NTg5MTYxLCJ5Ijo4ODguOTIxODc1fSx7IngiOjE4NS4zMjM3MTUyMDk5NjA5NCwieSI6ODIzLjYyNX0seyJ4IjoyMTAuMzIzNzE1MjA5OTYwOTQsInkiOjgyMy42MjV9LHsieCI6MjQ3Ljc4NDY1MjcwOTk2MDk0LCJ5Ijo4MjMuNjI1fV0=" data-look="classic"/><path d="M108.063,927.922L120.94,938.638C133.817,949.354,159.57,970.786,176.614,981.503C193.657,992.219,201.99,992.219,214.994,992.219C227.998,992.219,245.673,992.219,254.51,992.219L263.347,992.219" id="my-svg-L_Creator_UC6_0" class="edge-thickness-normal edge-pattern-solid edge-thickness-normal edge-pattern-solid flowchart-link" style=";" data-edge="true" data-et="edge" data-id="L_Creator_UC6_0" data-points="W3sieCI6MTA4LjA2MzE1NDc4NTg5MTYxLCJ5Ijo5MjcuOTIxODc1fSx7IngiOjE4NS4zMjM3MTUyMDk5NjA5NCwieSI6OTkyLjIxODc1fSx7IngiOjIxMC4zMjM3MTUyMDk5NjA5NCwieSI6OTkyLjIxODc1fSx7IngiOjI2My4zNDcxNTI3MDk5NjA5NCwieSI6OTkyLjIxODc1fV0=" data-look="classic"/><path d="M92.096,927.922L107.634,968.814C123.172,1009.706,154.248,1091.49,173.952,1132.382C193.657,1173.273,201.99,1173.273,210.324,1173.273C218.657,1173.273,226.99,1173.273,231.157,1173.273L235.324,1173.273" id="my-svg-L_Creator_UC7_0" class="edge-thickness-normal edge-pattern-solid edge-thickness-normal edge-pattern-solid flowchart-link" style=";" data-edge="true" data-et="edge" data-id="L_Creator_UC7_0" data-points="W3sieCI6OTIuMDk1OTgwODY2NjMzMDgsInkiOjkyNy45MjE4NzV9LHsieCI6MTg1LjMyMzcxNTIwOTk2MDk0LCJ5IjoxMTczLjI3MzQzNzV9LHsieCI6MjEwLjMyMzcxNTIwOTk2MDk0LCJ5IjoxMTczLjI3MzQzNzV9LHsieCI6MjM1LjMyMzcxNTIwOTk2MDk0LCJ5IjoxMTczLjI3MzQzNzV9XQ==" data-look="classic"/><path d="M88.961,927.922L105.021,1001.068C121.082,1074.214,153.203,1220.505,173.43,1293.651C193.657,1366.797,201.99,1366.797,212.916,1366.797C223.842,1366.797,237.36,1366.797,244.119,1366.797L250.878,1366.797" id="my-svg-L_Creator_UC8_0" class="edge-thickness-normal edge-pattern-solid edge-thickness-normal edge-pattern-solid flowchart-link" style=";" data-edge="true" data-et="edge" data-id="L_Creator_UC8_0" data-points="W3sieCI6ODguOTYwNzU0MzA1MTY0ODcsInkiOjkyNy45MjE4NzV9LHsieCI6MTg1LjMyMzcxNTIwOTk2MDk0LCJ5IjoxMzY2Ljc5Njg3NX0seyJ4IjoyMTAuMzIzNzE1MjA5OTYwOTQsInkiOjEzNjYuNzk2ODc1fSx7IngiOjI1MC44Nzg0MDI3MDk5NjA5NCwieSI6MTM2Ni43OTY4NzV9XQ==" data-look="classic"/><path d="M87.749,927.922L104.011,1031.098C120.274,1134.273,152.799,1340.625,173.228,1443.801C193.657,1546.977,201.99,1546.977,212.548,1546.977C223.105,1546.977,235.886,1546.977,242.277,1546.977L248.667,1546.977" id="my-svg-L_Creator_UC9_0" class="edge-thickness-normal edge-pattern-solid edge-thickness-normal edge-pattern-solid flowchart-link" style=";" data-edge="true" data-et="edge" data-id="L_Creator_UC9_0" data-points="W3sieCI6ODcuNzQ4NjkyMzY1NTc2OTQsInkiOjkyNy45MjE4NzV9LHsieCI6MTg1LjMyMzcxNTIwOTk2MDk0LCJ5IjoxNTQ2Ljk3NjU2MjV9LHsieCI6MjEwLjMyMzcxNTIwOTk2MDk0LCJ5IjoxNTQ2Ljk3NjU2MjV9LHsieCI6MjQ4LjY2NzQ2NTIwOTk2MDk0LCJ5IjoxNTQ2Ljk3NjU2MjV9XQ==" data-look="classic"/><path d="M87.047,927.922L103.426,1062.46C119.806,1196.997,152.565,1466.073,173.111,1600.611C193.657,1735.148,201.99,1735.148,211.584,1735.148C221.178,1735.148,232.032,1735.148,237.459,1735.148L242.886,1735.148" id="my-svg-L_Creator_UC10_0" class="edge-thickness-normal edge-pattern-solid edge-thickness-normal edge-pattern-solid flowchart-link" style=";" data-edge="true" data-et="edge" data-id="L_Creator_UC10_0" data-points="W3sieCI6ODcuMDQ2NTIwMTc4MzU3NTQsInkiOjkyNy45MjE4NzV9LHsieCI6MTg1LjMyMzcxNTIwOTk2MDk0LCJ5IjoxNzM1LjE0ODQzNzV9LHsieCI6MjEwLjMyMzcxNTIwOTk2MDk0LCJ5IjoxNzM1LjE0ODQzNzV9LHsieCI6MjQyLjg4NjIxNTIwOTk2MDk0LCJ5IjoxNzM1LjE0ODQzNzV9XQ==" data-look="classic"/></g><g class="edgeLabels"><g class="edgeLabel"><g class="label" data-id="L_Creator_UC1_0" transform="translate(0, 0)"><foreignObject width="0" height="0"><div xmlns="http://www.w3.org/1999/xhtml" class="labelBkg" style="display: table-cell; white-space: nowrap; line-height: 1.5; max-width: 200px; text-align: center;"><span class="edgeLabel"></span></div></foreignObject></g></g><g class="edgeLabel"><g class="label" data-id="L_Creator_UC2_0" transform="translate(0, 0)"><foreignObject width="0" height="0"><div xmlns="http://www.w3.org/1999/xhtml" class="labelBkg" style="display: table-cell; white-space: nowrap; line-height: 1.5; max-width: 200px; text-align: center;"><span class="edgeLabel"></span></div></foreignObject></g></g><g class="edgeLabel"><g class="label" data-id="L_Creator_UC3_0" transform="translate(0, 0)"><foreignObject width="0" height="0"><div xmlns="http://www.w3.org/1999/xhtml" class="labelBkg" style="display: table-cell; white-space: nowrap; line-height: 1.5; max-width: 200px; text-align: center;"><span class="edgeLabel"></span></div></foreignObject></g></g><g class="edgeLabel"><g class="label" data-id="L_Creator_UC4_0" transform="translate(0, 0)"><foreignObject width="0" height="0"><div xmlns="http://www.w3.org/1999/xhtml" class="labelBkg" style="display: table-cell; white-space: nowrap; line-height: 1.5; max-width: 200px; text-align: center;"><span class="edgeLabel"></span></div></foreignObject></g></g><g class="edgeLabel"><g class="label" data-id="L_Creator_UC5_0" transform="translate(0, 0)"><foreignObject width="0" height="0"><div xmlns="http://www.w3.org/1999/xhtml" class="labelBkg" style="display: table-cell; white-space: nowrap; line-height: 1.5; max-width: 200px; text-align: center;"><span class="edgeLabel"></span></div></foreignObject></g></g><g class="edgeLabel"><g class="label" data-id="L_Creator_UC6_0" transform="translate(0, 0)"><foreignObject width="0" height="0"><div xmlns="http://www.w3.org/1999/xhtml" class="labelBkg" style="display: table-cell; white-space: nowrap; line-height: 1.5; max-width: 200px; text-align: center;"><span class="edgeLabel"></span></div></foreignObject></g></g><g class="edgeLabel"><g class="label" data-id="L_Creator_UC7_0" transform="translate(0, 0)"><foreignObject width="0" height="0"><div xmlns="http://www.w3.org/1999/xhtml" class="labelBkg" style="display: table-cell; white-space: nowrap; line-height: 1.5; max-width: 200px; text-align: center;"><span class="edgeLabel"></span></div></foreignObject></g></g><g class="edgeLabel"><g class="label" data-id="L_Creator_UC8_0" transform="translate(0, 0)"><foreignObject width="0" height="0"><div xmlns="http://www.w3.org/1999/xhtml" class="labelBkg" style="display: table-cell; white-space: nowrap; line-height: 1.5; max-width: 200px; text-align: center;"><span class="edgeLabel"></span></div></foreignObject></g></g><g class="edgeLabel"><g class="label" data-id="L_Creator_UC9_0" transform="translate(0, 0)"><foreignObject width="0" height="0"><div xmlns="http://www.w3.org/1999/xhtml" class="labelBkg" style="display: table-cell; white-space: nowrap; line-height: 1.5; max-width: 200px; text-align: center;"><span class="edgeLabel"></span></div></foreignObject></g></g><g class="edgeLabel"><g class="label" data-id="L_Creator_UC10_0" transform="translate(0, 0)"><foreignObject width="0" height="0"><div xmlns="http://www.w3.org/1999/xhtml" class="labelBkg" style="display: table-cell; white-space: nowrap; line-height: 1.5; max-width: 200px; text-align: center;"><span class="edgeLabel"></span></div></foreignObject></g></g></g><g class="nodes"><g class="node default" id="my-svg-flowchart-Creator-0" data-look="classic" transform="translate(84.16185760498047, 907.921875)"><g class="basic label-container outer-path"><path d="M-56.671875 -19.5 C-15.98603995911239 -19.5, 24.69979508177522 -19.5, 56.671875 -19.5 C56.671875 -19.5, 56.671875 -19.5, 56.671875 -19.5 C57.12422909810191 -19.48549388452771, 57.576583196203806 -19.47098776905542, 57.9212442896239 -19.45993515863156 C58.29948089201915 -19.42344712849456, 58.677717494414395 -19.386959098357554, 59.165479652847864 -19.3399052695533 C59.59023623989967 -19.271233918595293, 60.01499282695146 -19.20256256763729, 60.39946825967676 -19.140403561325776 C60.73341490562582 -19.064182418593425, 61.067361551574876 -18.987961275861075, 61.61813938623539 -18.862249829261074 C61.886061549003685 -18.782731937703574, 62.153983711771986 -18.703214046146076, 62.816485251460605 -18.50658706670804 C63.07313178183348 -18.4121387711163, 63.32977831220636 -18.317690475524564, 63.9895815951478 -18.074876768247425 C64.25559707168418 -17.957119607853507, 64.52161254822056 -17.839362447459592, 65.13260791279238 -17.568892924097174 C65.41665587887965 -17.420705282130854, 65.70070384496692 -17.27251764016453, 66.24086726407678 -16.990714730406097 C66.5137191907448 -16.825310289004047, 66.7865711174128 -16.659905847601994, 67.3098055736057 -16.342718045390892 C67.59214473084347 -16.145770471566948, 67.87448388808126 -15.948822897743005, 68.33503034457871 -15.627565626425154 C68.66017029582976 -15.368275167639917, 68.98531024708082 -15.108984708854678, 69.31232870850187 -14.848196188198123 C69.66584368096623 -14.527143243699609, 70.01935865343059 -14.206090299201094, 70.23768473676799 -14.007812326905688 C70.53496533414685 -13.700845702921058, 70.8322459315257 -13.393879078936425, 71.10729594296865 -13.10986736009568 C71.37267045180988 -12.79814336177344, 71.63804496065111 -12.4864193634512, 71.91758890812658 -12.158051136245305 C72.13738247574014 -11.863547779249066, 72.3571760433537 -11.569044422252826, 72.66523396464063 -11.156274872382312 C72.88278304980295 -10.822061057464044, 73.10033213496527 -10.487847242545778, 73.34715887860425 -10.108655082055241 C73.4778043042304 -9.87668089957212, 73.60844972985656 -9.644706717088997, 73.9605614742735 -9.019496659696287 C74.11793819362332 -8.692700534644041, 74.27531491297313 -8.365904409591797, 74.50292114880834 -7.893275190886684 C74.65005583587467 -7.529849669177214, 74.79719052294098 -7.166424147467743, 74.97200922997033 -6.734618561215508 C75.12164994435045 -6.283924571512583, 75.27129065873059 -5.833230581809658, 75.36589813421489 -5.548287939305138 C75.46146468476249 -5.183851263262141, 75.55703123531008 -4.819414587219143, 75.68296928754556 -4.339158212148133 C75.74903175952309 -3.9999413808518764, 75.81509423150064 -3.66072454955562, 75.92191977658177 -3.1121979531509023 C75.97704597093843 -2.684650075619033, 76.0321721652951 -2.2571021980871633, 76.08176770250937 -1.872449005199798 C76.10180501655218 -1.560351665154296, 76.12184233059499 -1.2482543251087936, 76.16185621591342 -0.6250057626472757 C76.16185621591342 -0.12665571579129503, 76.16185621591342 0.37169433106468563, 76.16185621591342 0.625005762647271 C76.13769291641242 1.00136865663962, 76.11352961691142 1.377731550631969, 76.08176770250937 1.8724490051997846 C76.04125743288003 2.186638656787384, 76.00074716325068 2.5008283083749836, 75.92191977658177 3.1121979531508885 C75.84843235524043 3.489540330166697, 75.77494493389909 3.866882707182505, 75.68296928754556 4.339158212148129 C75.57087624559828 4.766617562524812, 75.458783203651 5.194076912901496, 75.36589813421489 5.548287939305125 C75.2854366716175 5.790625044855342, 75.20497520902012 6.032962150405559, 74.97200922997033 6.734618561215495 C74.87383689278046 6.977106132107468, 74.77566455559061 7.2195937029994415, 74.50292114880834 7.893275190886679 C74.3041043983337 8.306122427244237, 74.10528764785907 8.718969663601795, 73.9605614742735 9.019496659696284 C73.72918251379964 9.430333433677994, 73.49780355332578 9.841170207659703, 73.34715887860425 10.108655082055236 C73.18603787601258 10.356180209083208, 73.02491687342089 10.603705336111181, 72.66523396464065 11.156274872382301 C72.51120155611761 11.362664267162076, 72.35716914759458 11.569053661941853, 71.91758890812659 12.158051136245302 C71.73673260368946 12.370495242452401, 71.55587629925233 12.582939348659503, 71.10729594296866 13.10986736009567 C70.82577712054324 13.400558657375086, 70.54425829811781 13.691249954654504, 70.23768473676799 14.007812326905684 C69.9714485464477 14.249600990730984, 69.70521235612742 14.491389654556285, 69.3123287085019 14.848196188198111 C69.07835928572192 15.034780576677319, 68.84438986294194 15.221364965156527, 68.33503034457871 15.627565626425152 C68.02458187947863 15.844121036581518, 67.71413341437854 16.060676446737883, 67.3098055736057 16.34271804539089 C66.94160237401722 16.565924988783603, 66.57339917442876 16.789131932176314, 66.24086726407678 16.990714730406093 C65.91277300377374 17.161881295851792, 65.58467874347068 17.33304786129749, 65.13260791279238 17.56889292409717 C64.78598344968289 17.722333291666374, 64.4393589865734 17.875773659235577, 63.989581595147804 18.07487676824742 C63.67795109349408 18.18955967353677, 63.36632059184035 18.30424257882612, 62.81648525146062 18.506587066708033 C62.4273582203096 18.622077926984186, 62.03823118915859 18.737568787260344, 61.61813938623541 18.86224982926107 C61.15704025221592 18.967492697647966, 60.69594111819644 19.072735566034865, 60.399468259676766 19.140403561325773 C60.055165896857716 19.196067697241656, 59.71086353403867 19.251731833157535, 59.16547965284788 19.3399052695533 C58.866199321798874 19.368776483152338, 58.56691899074986 19.397647696751378, 57.9212442896239 19.45993515863156 C57.597776193337324 19.470308150887014, 57.27430809705075 19.480681143142473, 56.67187500000001 19.5 C56.67187500000001 19.5, 56.671875 19.5, 56.671875 19.5 C14.809913352511657 19.5, -27.052048294976686 19.5, -56.67187499999999 19.5 C-57.07495272016279 19.487074082057568, -57.47803044032559 19.47414816411513, -57.92124428962389 19.45993515863156 C-58.37349173537064 19.4163073914475, -58.825739181117385 19.37267962426344, -59.16547965284787 19.3399052695533 C-59.6584446672296 19.260206509028844, -60.151409681611334 19.180507748504386, -60.39946825967676 19.140403561325773 C-60.84484056640836 19.038750238640198, -61.29021287313995 18.937096915954623, -61.618139386235384 18.862249829261074 C-61.959066848300836 18.761064348084815, -62.299994310366294 18.659878866908556, -62.81648525146059 18.506587066708043 C-63.09057749336402 18.40571858800667, -63.364669735267455 18.3048501093053, -63.9895815951478 18.074876768247425 C-64.36476450708365 17.908794422539078, -64.73994741901949 17.742712076830735, -65.13260791279238 17.568892924097174 C-65.50970926460188 17.3721593904031, -65.88681061641138 17.175425856709033, -66.24086726407678 16.990714730406097 C-66.62630507286133 16.75706006563692, -67.01174288164587 16.523405400867745, -67.30980557360569 16.3427180453909 C-67.71883855687285 16.057394343016192, -68.12787154014 15.772070640641486, -68.33503034457871 15.627565626425156 C-68.66297308342885 15.366040019114951, -68.990915822279 15.104514411804745, -69.31232870850187 14.848196188198125 C-69.54023698746151 14.641215919369593, -69.76814526642117 14.43423565054106, -70.23768473676797 14.007812326905697 C-70.49780862441656 13.73921305634017, -70.75793251206515 13.470613785774644, -71.10729594296865 13.109867360095677 C-71.31073120697909 12.870900723194575, -71.51416647098951 12.631934086293473, -71.91758890812658 12.158051136245307 C-72.20796999298568 11.76896693679515, -72.49835107784479 11.379882737344992, -72.66523396464063 11.156274872382316 C-72.8486389786964 10.874515519650574, -73.03204399275216 10.592756166918834, -73.34715887860425 10.108655082055249 C-73.58861142001125 9.67993164506606, -73.83006396141825 9.251208208076873, -73.9605614742735 9.019496659696289 C-74.09329231599989 8.743878226866396, -74.22602315772627 8.468259794036504, -74.50292114880834 7.893275190886686 C-74.66837243412152 7.48460731738013, -74.8338237194347 7.0759394438735725, -74.97200922997033 6.73461856121551 C-75.05338585074557 6.489525145044227, -75.13476247152082 6.244431728872944, -75.36589813421489 5.5482879393051325 C-75.46213330262735 5.181301533562578, -75.55836847103981 4.814315127820023, -75.68296928754556 4.339158212148136 C-75.75456053185053 3.971552303456963, -75.8261517761555 3.6039463947657904, -75.92191977658177 3.112197953150904 C-75.98175142036682 2.6481555390485134, -76.04158306415188 2.1841131249461228, -76.08176770250937 1.872449005199809 C-76.10946923477177 1.440975279938549, -76.13717076703416 1.0095015546772887, -76.16185621591342 0.6250057626472781 C-76.16185621591342 0.23295090704415156, -76.16185621591342 -0.15910394855897503, -76.16185621591342 -0.6250057626472687 C-76.1309847548328 -1.105853687972713, -76.10011329375219 -1.5867016132981573, -76.08176770250937 -1.8724490051997822 C-76.02609581708472 -2.3042291548960803, -75.97042393166008 -2.736009304592378, -75.92191977658177 -3.112197953150895 C-75.83829883306399 -3.541573824822091, -75.75467788954619 -3.9709496964932876, -75.68296928754556 -4.339158212148126 C-75.59141964640122 -4.688276671696952, -75.49987000525688 -5.037395131245779, -75.36589813421489 -5.548287939305123 C-75.25448650904735 -5.8838420032778975, -75.14307488387982 -6.219396067250672, -74.97200922997033 -6.734618561215485 C-74.8678419248607 -6.9919138187741146, -74.76367461975106 -7.249209076332744, -74.50292114880834 -7.893275190886676 C-74.29391278785313 -8.327285524472684, -74.08490442689792 -8.76129585805869, -73.9605614742735 -9.019496659696282 C-73.75029905084838 -9.39283888386671, -73.54003662742326 -9.766181108037138, -73.34715887860425 -10.108655082055243 C-73.08503959243819 -10.511340694490007, -72.82292030627214 -10.91402630692477, -72.66523396464063 -11.156274872382308 C-72.45876732989218 -11.432921353447869, -72.25230069514373 -11.709567834513427, -71.91758890812659 -12.158051136245302 C-71.65564733128132 -12.465742617305727, -71.39370575443603 -12.773434098366153, -71.10729594296866 -13.10986736009567 C-70.84364847798774 -13.382105013547902, -70.58000101300682 -13.654342667000135, -70.23768473676799 -14.007812326905677 C-69.90943811376262 -14.30591722498944, -69.58119149075723 -14.604022123073202, -69.3123287085019 -14.848196188198107 C-68.98044725491303 -15.11286281569883, -68.64856580132418 -15.377529443199553, -68.33503034457871 -15.627565626425149 C-68.12908628510245 -15.77122328714115, -67.92314222562617 -15.914880947857153, -67.30980557360571 -16.342718045390885 C-66.90589452470826 -16.587571296877314, -66.5019834758108 -16.832424548363743, -66.24086726407678 -16.99071473040609 C-65.81500619112857 -17.212886179386135, -65.38914511818037 -17.435057628366184, -65.1326079127924 -17.56889292409717 C-64.81187410519209 -17.710872266491464, -64.49114029759178 -17.852851608885757, -63.989581595147804 -18.07487676824742 C-63.59164059193057 -18.221322735957674, -63.193699588713336 -18.367768703667924, -62.81648525146062 -18.506587066708033 C-62.448052818690556 -18.615935878812884, -62.0796203859205 -18.725284690917732, -61.61813938623541 -18.862249829261067 C-61.24880020324214 -18.94654908761587, -60.87946102024886 -19.03084834597068, -60.399468259676766 -19.140403561325773 C-59.937271738385896 -19.215127910500527, -59.47507521709502 -19.28985225967528, -59.16547965284788 -19.3399052695533 C-58.74831336188346 -19.38014879992677, -58.33114707091904 -19.42039233030024, -57.9212442896239 -19.45993515863156 C-57.45290562539227 -19.47495386802756, -56.98456696116064 -19.489972577423558, -56.67187500000001 -19.5 C-56.67187500000001 -19.5, -56.67187500000001 -19.5, -56.671875 -19.5" stroke="none" stroke-width="0" fill="#ECECFF" style=""/><path d="M-56.671875 -19.5 C-25.93025145148304 -19.5, 4.811372097033917 -19.5, 56.671875 -19.5 M-56.671875 -19.5 C-28.223088408676105 -19.5, 0.22569818264778974 -19.5, 56.671875 -19.5 M56.671875 -19.5 C56.671875 -19.5, 56.671875 -19.5, 56.671875 -19.5 M56.671875 -19.5 C56.671875 -19.5, 56.671875 -19.5, 56.671875 -19.5 M56.671875 -19.5 C57.08317403644473 -19.486810440446227, 57.49447307288946 -19.47362088089245, 57.9212442896239 -19.45993515863156 M56.671875 -19.5 C57.02187747338411 -19.488776101917058, 57.37187994676822 -19.477552203834115, 57.9212442896239 -19.45993515863156 M57.9212442896239 -19.45993515863156 C58.30313952567978 -19.423094184505466, 58.68503476173566 -19.386253210379376, 59.165479652847864 -19.3399052695533 M57.9212442896239 -19.45993515863156 C58.38797528901938 -19.41491018044603, 58.85470628841486 -19.369885202260498, 59.165479652847864 -19.3399052695533 M59.165479652847864 -19.3399052695533 C59.46464491672733 -19.291538549750538, 59.7638101806068 -19.24317182994778, 60.39946825967676 -19.140403561325776 M59.165479652847864 -19.3399052695533 C59.53036918768394 -19.28091275932161, 59.895258722520005 -19.22192024908992, 60.39946825967676 -19.140403561325776 M60.39946825967676 -19.140403561325776 C60.683032291608704 -19.07568192146555, 60.96659632354065 -19.01096028160532, 61.61813938623539 -18.862249829261074 M60.39946825967676 -19.140403561325776 C60.76282564971462 -19.057469608178195, 61.12618303975249 -18.974535655030618, 61.61813938623539 -18.862249829261074 M61.61813938623539 -18.862249829261074 C62.02316703356252 -18.742039749567887, 62.428194680889646 -18.621829669874703, 62.816485251460605 -18.50658706670804 M61.61813938623539 -18.862249829261074 C61.953497634997746 -18.76271726135978, 62.28885588376009 -18.663184693458483, 62.816485251460605 -18.50658706670804 M62.816485251460605 -18.50658706670804 C63.0556515734645 -18.41857164938136, 63.2948178954684 -18.330556232054683, 63.9895815951478 -18.074876768247425 M62.816485251460605 -18.50658706670804 C63.15388225155742 -18.382421851808733, 63.491279251654234 -18.258256636909426, 63.9895815951478 -18.074876768247425 M63.9895815951478 -18.074876768247425 C64.42996177273118 -17.879933527045086, 64.87034195031455 -17.68499028584275, 65.13260791279238 -17.568892924097174 M63.9895815951478 -18.074876768247425 C64.33282055771913 -17.92293506133916, 64.67605952029045 -17.7709933544309, 65.13260791279238 -17.568892924097174 M65.13260791279238 -17.568892924097174 C65.45929535647986 -17.398460293978715, 65.78598280016733 -17.228027663860253, 66.24086726407678 -16.990714730406097 M65.13260791279238 -17.568892924097174 C65.39447247922705 -17.43227834752047, 65.65633704566172 -17.295663770943765, 66.24086726407678 -16.990714730406097 M66.24086726407678 -16.990714730406097 C66.66348949426465 -16.73451865086231, 67.08611172445252 -16.478322571318518, 67.3098055736057 -16.342718045390892 M66.24086726407678 -16.990714730406097 C66.54830555698118 -16.804343830539505, 66.85574384988556 -16.617972930672913, 67.3098055736057 -16.342718045390892 M67.3098055736057 -16.342718045390892 C67.70876019572326 -16.06442457146893, 68.1077148178408 -15.786131097546965, 68.33503034457871 -15.627565626425154 M67.3098055736057 -16.342718045390892 C67.5915221541811 -16.14620475409571, 67.87323873475651 -15.949691462800528, 68.33503034457871 -15.627565626425154 M68.33503034457871 -15.627565626425154 C68.5652629929369 -15.44396121610758, 68.79549564129508 -15.260356805790007, 69.31232870850187 -14.848196188198123 M68.33503034457871 -15.627565626425154 C68.57555837891796 -15.435750919759414, 68.8160864132572 -15.243936213093674, 69.31232870850187 -14.848196188198123 M69.31232870850187 -14.848196188198123 C69.6247689653125 -14.564446213678902, 69.93720922212313 -14.28069623915968, 70.23768473676799 -14.007812326905688 M69.31232870850187 -14.848196188198123 C69.61105612969637 -14.576899848163723, 69.90978355089086 -14.305603508129323, 70.23768473676799 -14.007812326905688 M70.23768473676799 -14.007812326905688 C70.57201235716971 -13.6625916100328, 70.90633997757142 -13.317370893159913, 71.10729594296865 -13.10986736009568 M70.23768473676799 -14.007812326905688 C70.5638403120752 -13.671029917530255, 70.88999588738241 -13.33424750815482, 71.10729594296865 -13.10986736009568 M71.10729594296865 -13.10986736009568 C71.28397003395801 -12.902335919778999, 71.4606441249474 -12.694804479462316, 71.91758890812658 -12.158051136245305 M71.10729594296865 -13.10986736009568 C71.30286651695491 -12.880139035610515, 71.49843709094115 -12.65041071112535, 71.91758890812658 -12.158051136245305 M71.91758890812658 -12.158051136245305 C72.11949813722742 -11.887511163559338, 72.32140736632829 -11.61697119087337, 72.66523396464063 -11.156274872382312 M71.91758890812658 -12.158051136245305 C72.07325203860961 -11.949476722600956, 72.22891516909266 -11.740902308956608, 72.66523396464063 -11.156274872382312 M72.66523396464063 -11.156274872382312 C72.85098660332025 -10.870908937802856, 73.03673924199987 -10.585543003223398, 73.34715887860425 -10.108655082055241 M72.66523396464063 -11.156274872382312 C72.85749646220144 -10.86090804641948, 73.04975895976224 -10.56554122045665, 73.34715887860425 -10.108655082055241 M73.34715887860425 -10.108655082055241 C73.55403954588584 -9.741317508357595, 73.76092021316742 -9.37397993465995, 73.9605614742735 -9.019496659696287 M73.34715887860425 -10.108655082055241 C73.47443253307193 -9.882667820692854, 73.6017061875396 -9.656680559330464, 73.9605614742735 -9.019496659696287 M73.9605614742735 -9.019496659696287 C74.11417806534614 -8.700508521465455, 74.26779465641877 -8.381520383234623, 74.50292114880834 -7.893275190886684 M73.9605614742735 -9.019496659696287 C74.15556997015487 -8.614557345485224, 74.35057846603625 -8.209618031274163, 74.50292114880834 -7.893275190886684 M74.50292114880834 -7.893275190886684 C74.62634186768571 -7.58842362908231, 74.74976258656308 -7.283572067277936, 74.97200922997033 -6.734618561215508 M74.50292114880834 -7.893275190886684 C74.67558059514899 -7.466803020282004, 74.84824004148962 -7.040330849677325, 74.97200922997033 -6.734618561215508 M74.97200922997033 -6.734618561215508 C75.08026432425886 -6.408571465325367, 75.1885194185474 -6.082524369435226, 75.36589813421489 -5.548287939305138 M74.97200922997033 -6.734618561215508 C75.07977551459568 -6.410043682149655, 75.18754179922102 -6.085468803083802, 75.36589813421489 -5.548287939305138 M75.36589813421489 -5.548287939305138 C75.46503420853705 -5.170239122068308, 75.56417028285922 -4.792190304831478, 75.68296928754556 -4.339158212148133 M75.36589813421489 -5.548287939305138 C75.49081559147062 -5.071923535220554, 75.61573304872637 -4.595559131135971, 75.68296928754556 -4.339158212148133 M75.68296928754556 -4.339158212148133 C75.7769606381769 -3.8565324917351997, 75.87095198880823 -3.3739067713222664, 75.92191977658177 -3.1121979531509023 M75.68296928754556 -4.339158212148133 C75.73787945857788 -4.05720608916593, 75.7927896296102 -3.775253966183725, 75.92191977658177 -3.1121979531509023 M75.92191977658177 -3.1121979531509023 C75.98017298909369 -2.6603975403064433, 76.0384262016056 -2.208597127461984, 76.08176770250937 -1.872449005199798 M75.92191977658177 -3.1121979531509023 C75.97410477069047 -2.7074614439364906, 76.02628976479917 -2.302724934722079, 76.08176770250937 -1.872449005199798 M76.08176770250937 -1.872449005199798 C76.1005570258878 -1.57979012711199, 76.11934634926621 -1.2871312490241822, 76.16185621591342 -0.6250057626472757 M76.08176770250937 -1.872449005199798 C76.11057261714969 -1.4237892087682762, 76.13937753179 -0.9751294123367545, 76.16185621591342 -0.6250057626472757 M76.16185621591342 -0.6250057626472757 C76.16185621591342 -0.322551130698861, 76.16185621591342 -0.02009649875044628, 76.16185621591342 0.625005762647271 M76.16185621591342 -0.6250057626472757 C76.16185621591342 -0.26108557867358106, 76.16185621591342 0.10283460530011357, 76.16185621591342 0.625005762647271 M76.16185621591342 0.625005762647271 C76.14485133375526 0.8898705283545323, 76.12784645159708 1.1547352940617936, 76.08176770250937 1.8724490051997846 M76.16185621591342 0.625005762647271 C76.13549085296015 1.0356675723824236, 76.10912549000687 1.4463293821175762, 76.08176770250937 1.8724490051997846 M76.08176770250937 1.8724490051997846 C76.03358849451973 2.2461174283066434, 75.9854092865301 2.6197858514135026, 75.92191977658177 3.1121979531508885 M76.08176770250937 1.8724490051997846 C76.0241203667498 2.3195503575969485, 75.96647303099023 2.766651709994112, 75.92191977658177 3.1121979531508885 M75.92191977658177 3.1121979531508885 C75.82995599734572 3.5844125229763857, 75.73799221810968 4.056627092801882, 75.68296928754556 4.339158212148129 M75.92191977658177 3.1121979531508885 C75.87291726954402 3.363815470106245, 75.82391476250626 3.615432987061601, 75.68296928754556 4.339158212148129 M75.68296928754556 4.339158212148129 C75.57423241043267 4.753819051440245, 75.46549553331977 5.168479890732362, 75.36589813421489 5.548287939305125 M75.68296928754556 4.339158212148129 C75.6028729598299 4.644600223695983, 75.52277663211423 4.950042235243837, 75.36589813421489 5.548287939305125 M75.36589813421489 5.548287939305125 C75.28445332978515 5.79358671378016, 75.2030085253554 6.038885488255195, 74.97200922997033 6.734618561215495 M75.36589813421489 5.548287939305125 C75.27091512479583 5.834361630187922, 75.17593211537678 6.120435321070718, 74.97200922997033 6.734618561215495 M74.97200922997033 6.734618561215495 C74.85455897479831 7.024722962236591, 74.73710871962629 7.314827363257688, 74.50292114880834 7.893275190886679 M74.97200922997033 6.734618561215495 C74.83175806780997 7.081041643323309, 74.69150690564963 7.427464725431124, 74.50292114880834 7.893275190886679 M74.50292114880834 7.893275190886679 C74.29811497825733 8.318559586185895, 74.09330880770632 8.743843981485112, 73.9605614742735 9.019496659696284 M74.50292114880834 7.893275190886679 C74.3561824532612 8.197981231895445, 74.20944375771404 8.502687272904211, 73.9605614742735 9.019496659696284 M73.9605614742735 9.019496659696284 C73.79366859188744 9.315831872109616, 73.62677570950139 9.61216708452295, 73.34715887860425 10.108655082055236 M73.9605614742735 9.019496659696284 C73.83181210386508 9.248104204143905, 73.70306273345666 9.476711748591526, 73.34715887860425 10.108655082055236 M73.34715887860425 10.108655082055236 C73.19839565939596 10.33719533527686, 73.04963244018765 10.565735588498486, 72.66523396464065 11.156274872382301 M73.34715887860425 10.108655082055236 C73.13961654624762 10.427495837474602, 72.932074213891 10.746336592893968, 72.66523396464065 11.156274872382301 M72.66523396464065 11.156274872382301 C72.39301925658997 11.521017781900138, 72.1208045485393 11.885760691417975, 71.91758890812659 12.158051136245302 M72.66523396464065 11.156274872382301 C72.47904230523527 11.405754733576382, 72.2928506458299 11.655234594770462, 71.91758890812659 12.158051136245302 M71.91758890812659 12.158051136245302 C71.68510137159468 12.431144225571266, 71.45261383506278 12.704237314897231, 71.10729594296866 13.10986736009567 M71.91758890812659 12.158051136245302 C71.73964946240835 12.36706893422724, 71.5617100166901 12.576086732209177, 71.10729594296866 13.10986736009567 M71.10729594296866 13.10986736009567 C70.779473473745 13.448370974294374, 70.45165100452132 13.786874588493076, 70.23768473676799 14.007812326905684 M71.10729594296866 13.10986736009567 C70.78433237206967 13.443353762851174, 70.46136880117068 13.776840165606679, 70.23768473676799 14.007812326905684 M70.23768473676799 14.007812326905684 C69.91312617180033 14.302567828260266, 69.58856760683265 14.597323329614847, 69.3123287085019 14.848196188198111 M70.23768473676799 14.007812326905684 C69.91950358174262 14.296776033287696, 69.60132242671725 14.585739739669705, 69.3123287085019 14.848196188198111 M69.3123287085019 14.848196188198111 C68.97961279590511 15.113528274551767, 68.64689688330833 15.378860360905422, 68.33503034457871 15.627565626425152 M69.3123287085019 14.848196188198111 C69.01382332099305 15.086246291174442, 68.7153179334842 15.324296394150771, 68.33503034457871 15.627565626425152 M68.33503034457871 15.627565626425152 C67.93245925808485 15.908381789341812, 67.52988817159098 16.18919795225847, 67.3098055736057 16.34271804539089 M68.33503034457871 15.627565626425152 C67.95449014913193 15.893013993449275, 67.57394995368513 16.158462360473397, 67.3098055736057 16.34271804539089 M67.3098055736057 16.34271804539089 C66.89896493372643 16.591772055653298, 66.48812429384715 16.840826065915703, 66.24086726407678 16.990714730406093 M67.3098055736057 16.34271804539089 C67.07961040970298 16.482263706525657, 66.84941524580026 16.621809367660425, 66.24086726407678 16.990714730406093 M66.24086726407678 16.990714730406093 C65.9214773854017 17.157340225531904, 65.60208750672662 17.32396572065771, 65.13260791279238 17.56889292409717 M66.24086726407678 16.990714730406093 C65.80274311566477 17.219283818000733, 65.36461896725274 17.447852905595372, 65.13260791279238 17.56889292409717 M65.13260791279238 17.56889292409717 C64.69650257721388 17.76194381955263, 64.26039724163539 17.95499471500809, 63.989581595147804 18.07487676824742 M65.13260791279238 17.56889292409717 C64.73614496572976 17.74439531010632, 64.33968201866716 17.919897696115473, 63.989581595147804 18.07487676824742 M63.989581595147804 18.07487676824742 C63.63921897568011 18.203813450928084, 63.28885635621241 18.332750133608748, 62.81648525146062 18.506587066708033 M63.989581595147804 18.07487676824742 C63.576067204332944 18.227053886552415, 63.162552813518076 18.379231004857413, 62.81648525146062 18.506587066708033 M62.81648525146062 18.506587066708033 C62.54150398923896 18.58820006192932, 62.2665227270173 18.669813057150613, 61.61813938623541 18.86224982926107 M62.81648525146062 18.506587066708033 C62.358244343312265 18.642590562890856, 61.90000343516391 18.778594059073676, 61.61813938623541 18.86224982926107 M61.61813938623541 18.86224982926107 C61.282323556914044 18.93889760090059, 60.946507727592675 19.015545372540107, 60.399468259676766 19.140403561325773 M61.61813938623541 18.86224982926107 C61.13578130501949 18.972344913617956, 60.65342322380358 19.082439997974845, 60.399468259676766 19.140403561325773 M60.399468259676766 19.140403561325773 C60.07025419300945 19.19362833853133, 59.74104012634213 19.246853115736883, 59.16547965284788 19.3399052695533 M60.399468259676766 19.140403561325773 C60.04260450949797 19.198098524934966, 59.68574075931917 19.25579348854416, 59.16547965284788 19.3399052695533 M59.16547965284788 19.3399052695533 C58.770297186699594 19.378028046786174, 58.37511472055131 19.41615082401905, 57.9212442896239 19.45993515863156 M59.16547965284788 19.3399052695533 C58.71372648292386 19.383485354543193, 58.261973312999835 19.427065439533088, 57.9212442896239 19.45993515863156 M57.9212442896239 19.45993515863156 C57.629000591646246 19.469306845207853, 57.33675689366859 19.478678531784144, 56.67187500000001 19.5 M57.9212442896239 19.45993515863156 C57.65131264553416 19.468591341067444, 57.38138100144443 19.47724752350333, 56.67187500000001 19.5 M56.67187500000001 19.5 C56.67187500000001 19.5, 56.67187500000001 19.5, 56.671875 19.5 M56.67187500000001 19.5 C56.67187500000001 19.5, 56.671875 19.5, 56.671875 19.5 M56.671875 19.5 C31.000135061006805 19.5, 5.32839512201361 19.5, -56.67187499999999 19.5 M56.671875 19.5 C32.48988637649586 19.5, 8.307897752991714 19.5, -56.67187499999999 19.5 M-56.67187499999999 19.5 C-57.09843368731396 19.486321093143957, -57.52499237462792 19.472642186287917, -57.92124428962389 19.45993515863156 M-56.67187499999999 19.5 C-57.025643562450995 19.488655330770932, -57.379412124902004 19.47731066154186, -57.92124428962389 19.45993515863156 M-57.92124428962389 19.45993515863156 C-58.3406794433491 19.419472753796263, -58.76011459707431 19.379010348960968, -59.16547965284787 19.3399052695533 M-57.92124428962389 19.45993515863156 C-58.25298731026179 19.427932308409975, -58.58473033089968 19.395929458188395, -59.16547965284787 19.3399052695533 M-59.16547965284787 19.3399052695533 C-59.55566643726998 19.27682289619164, -59.94585322169208 19.213740522829976, -60.39946825967676 19.140403561325773 M-59.16547965284787 19.3399052695533 C-59.512390061193855 19.283819485062317, -59.85930046953983 19.227733700571335, -60.39946825967676 19.140403561325773 M-60.39946825967676 19.140403561325773 C-60.83271792703597 19.04151715196933, -61.265967594395185 18.942630742612884, -61.618139386235384 18.862249829261074 M-60.39946825967676 19.140403561325773 C-60.77021658608248 19.055782675182595, -61.140964912488215 18.97116178903942, -61.618139386235384 18.862249829261074 M-61.618139386235384 18.862249829261074 C-61.92233432286398 18.771966368821513, -62.22652925949258 18.681682908381955, -62.81648525146059 18.506587066708043 M-61.618139386235384 18.862249829261074 C-62.02772930049426 18.740685692690374, -62.43731921475313 18.619121556119676, -62.81648525146059 18.506587066708043 M-62.81648525146059 18.506587066708043 C-63.21192234333528 18.36106256151775, -63.60735943520998 18.215538056327457, -63.9895815951478 18.074876768247425 M-62.81648525146059 18.506587066708043 C-63.19910387559452 18.36577987613897, -63.58172249972844 18.224972685569895, -63.9895815951478 18.074876768247425 M-63.9895815951478 18.074876768247425 C-64.30557498167579 17.93499586964225, -64.62156836820377 17.79511497103708, -65.13260791279238 17.568892924097174 M-63.9895815951478 18.074876768247425 C-64.29252077151567 17.94077458124075, -64.59545994788354 17.806672394234074, -65.13260791279238 17.568892924097174 M-65.13260791279238 17.568892924097174 C-65.56144898592817 17.34516681092805, -65.99029005906397 17.121440697758924, -66.24086726407678 16.990714730406097 M-65.13260791279238 17.568892924097174 C-65.37373261961282 17.443098318996697, -65.61485732643327 17.31730371389622, -66.24086726407678 16.990714730406097 M-66.24086726407678 16.990714730406097 C-66.5162142662113 16.823797759593553, -66.79156126834583 16.65688078878101, -67.30980557360569 16.3427180453909 M-66.24086726407678 16.990714730406097 C-66.47261943042423 16.85022520523937, -66.7043715967717 16.70973568007264, -67.30980557360569 16.3427180453909 M-67.30980557360569 16.3427180453909 C-67.62268494255248 16.1244669419432, -67.93556431149929 15.906215838495498, -68.33503034457871 15.627565626425156 M-67.30980557360569 16.3427180453909 C-67.66014946046661 16.098333316059147, -68.01049334732754 15.853948586727391, -68.33503034457871 15.627565626425156 M-68.33503034457871 15.627565626425156 C-68.57563630001884 15.43568877975503, -68.81624225545896 15.243811933084904, -69.31232870850187 14.848196188198125 M-68.33503034457871 15.627565626425156 C-68.7002819594932 15.33628718328453, -69.06553357440768 15.045008740143903, -69.31232870850187 14.848196188198125 M-69.31232870850187 14.848196188198125 C-69.5790157035276 14.605998115466974, -69.84570269855334 14.363800042735823, -70.23768473676797 14.007812326905697 M-69.31232870850187 14.848196188198125 C-69.60434183706357 14.58299759108238, -69.89635496562528 14.317798993966637, -70.23768473676797 14.007812326905697 M-70.23768473676797 14.007812326905697 C-70.49890353552978 13.738082470721904, -70.76012233429158 13.468352614538114, -71.10729594296865 13.109867360095677 M-70.23768473676797 14.007812326905697 C-70.51144206556523 13.725135409027839, -70.7851993943625 13.44245849114998, -71.10729594296865 13.109867360095677 M-71.10729594296865 13.109867360095677 C-71.42228628152394 12.739861784970621, -71.73727662007923 12.369856209845564, -71.91758890812658 12.158051136245307 M-71.10729594296865 13.109867360095677 C-71.41679154074549 12.74631622014859, -71.72628713852234 12.382765080201501, -71.91758890812658 12.158051136245307 M-71.91758890812658 12.158051136245307 C-72.19460968767179 11.786868528766927, -72.47163046721698 11.41568592128855, -72.66523396464063 11.156274872382316 M-71.91758890812658 12.158051136245307 C-72.17578189852603 11.812096050975358, -72.43397488892548 11.466140965705408, -72.66523396464063 11.156274872382316 M-72.66523396464063 11.156274872382316 C-72.92696864472344 10.75418011817261, -73.18870332480626 10.352085363962903, -73.34715887860425 10.108655082055249 M-72.66523396464063 11.156274872382316 C-72.89787582726515 10.798874498303888, -73.13051768988967 10.441474124225461, -73.34715887860425 10.108655082055249 M-73.34715887860425 10.108655082055249 C-73.52577221090196 9.791509023999525, -73.70438554319968 9.474362965943802, -73.9605614742735 9.019496659696289 M-73.34715887860425 10.108655082055249 C-73.54314148180327 9.76066812468485, -73.73912408500229 9.412681167314451, -73.9605614742735 9.019496659696289 M-73.9605614742735 9.019496659696289 C-74.13999000906806 8.646909468039764, -74.31941854386262 8.27432227638324, -74.50292114880834 7.893275190886686 M-73.9605614742735 9.019496659696289 C-74.12708781764012 8.673701144602557, -74.29361416100673 8.327905629508825, -74.50292114880834 7.893275190886686 M-74.50292114880834 7.893275190886686 C-74.62559603891845 7.590265840557085, -74.74827092902855 7.287256490227484, -74.97200922997033 6.73461856121551 M-74.50292114880834 7.893275190886686 C-74.62669748186288 7.587545255189363, -74.75047381491743 7.281815319492041, -74.97200922997033 6.73461856121551 M-74.97200922997033 6.73461856121551 C-75.10117987764626 6.345577150963403, -75.2303505253222 5.956535740711296, -75.36589813421489 5.5482879393051325 M-74.97200922997033 6.73461856121551 C-75.11647465940524 6.299511705197912, -75.26094008884014 5.864404849180314, -75.36589813421489 5.5482879393051325 M-75.36589813421489 5.5482879393051325 C-75.48411719582722 5.0974674209119, -75.60233625743955 4.646646902518667, -75.68296928754556 4.339158212148136 M-75.36589813421489 5.5482879393051325 C-75.43743371946282 5.275491749036018, -75.50896930471075 5.002695558766904, -75.68296928754556 4.339158212148136 M-75.68296928754556 4.339158212148136 C-75.77693189385893 3.856680087732862, -75.8708945001723 3.3742019633175886, -75.92191977658177 3.112197953150904 M-75.68296928754556 4.339158212148136 C-75.73541918483444 4.069839074859466, -75.78786908212331 3.8005199375707974, -75.92191977658177 3.112197953150904 M-75.92191977658177 3.112197953150904 C-75.95727313983191 2.8380042490941078, -75.99262650308204 2.563810545037312, -76.08176770250937 1.872449005199809 M-75.92191977658177 3.112197953150904 C-75.98504130699358 2.6226398280330194, -76.04816283740539 2.133081702915135, -76.08176770250937 1.872449005199809 M-76.08176770250937 1.872449005199809 C-76.1003525076658 1.5829756635036791, -76.11893731282223 1.2935023218075492, -76.16185621591342 0.6250057626472781 M-76.08176770250937 1.872449005199809 C-76.10636167513525 1.4893780296543475, -76.13095564776113 1.106307054108886, -76.16185621591342 0.6250057626472781 M-76.16185621591342 0.6250057626472781 C-76.16185621591342 0.2967654416073251, -76.16185621591342 -0.031474879432627945, -76.16185621591342 -0.6250057626472687 M-76.16185621591342 0.6250057626472781 C-76.16185621591342 0.339223676681471, -76.16185621591342 0.0534415907156639, -76.16185621591342 -0.6250057626472687 M-76.16185621591342 -0.6250057626472687 C-76.1330718529423 -1.0733454502420585, -76.10428748997117 -1.5216851378368481, -76.08176770250937 -1.8724490051997822 M-76.16185621591342 -0.6250057626472687 C-76.13065427213704 -1.1110012227201431, -76.09945232836066 -1.5969966827930175, -76.08176770250937 -1.8724490051997822 M-76.08176770250937 -1.8724490051997822 C-76.0231035553651 -2.3274365459045825, -75.96443940822083 -2.7824240866093835, -75.92191977658177 -3.112197953150895 M-76.08176770250937 -1.8724490051997822 C-76.03918411291986 -2.2027189169751122, -75.99660052333034 -2.5329888287504425, -75.92191977658177 -3.112197953150895 M-75.92191977658177 -3.112197953150895 C-75.87271499851737 -3.364854089078085, -75.82351022045296 -3.617510225005275, -75.68296928754556 -4.339158212148126 M-75.92191977658177 -3.112197953150895 C-75.84587877759893 -3.502652411657019, -75.76983777861606 -3.8931068701631424, -75.68296928754556 -4.339158212148126 M-75.68296928754556 -4.339158212148126 C-75.60935482794882 -4.6198820512991094, -75.53574036835208 -4.900605890450094, -75.36589813421489 -5.548287939305123 M-75.68296928754556 -4.339158212148126 C-75.56030179970848 -4.806942507696428, -75.4376343118714 -5.2747268032447305, -75.36589813421489 -5.548287939305123 M-75.36589813421489 -5.548287939305123 C-75.27252554798001 -5.829511292143294, -75.17915296174512 -6.110734644981465, -74.97200922997033 -6.734618561215485 M-75.36589813421489 -5.548287939305123 C-75.20843625859249 -6.022538020536952, -75.05097438297008 -6.4967881017687805, -74.97200922997033 -6.734618561215485 M-74.97200922997033 -6.734618561215485 C-74.80734043499298 -7.1413536684641095, -74.64267164001562 -7.548088775712733, -74.50292114880834 -7.893275190886676 M-74.97200922997033 -6.734618561215485 C-74.86805876385975 -6.991378222254154, -74.76410829774917 -7.248137883292823, -74.50292114880834 -7.893275190886676 M-74.50292114880834 -7.893275190886676 C-74.31295037809646 -8.287753560993231, -74.12297960738458 -8.682231931099786, -73.9605614742735 -9.019496659696282 M-74.50292114880834 -7.893275190886676 C-74.31723404438638 -8.278858436286432, -74.13154693996442 -8.66444168168619, -73.9605614742735 -9.019496659696282 M-73.9605614742735 -9.019496659696282 C-73.78009638677227 -9.339930696626412, -73.59963129927102 -9.660364733556543, -73.34715887860425 -10.108655082055243 M-73.9605614742735 -9.019496659696282 C-73.79414453617281 -9.314986784836377, -73.6277275980721 -9.610476909976473, -73.34715887860425 -10.108655082055243 M-73.34715887860425 -10.108655082055243 C-73.13031960365593 -10.441778437874062, -72.91348032870764 -10.77490179369288, -72.66523396464063 -11.156274872382308 M-73.34715887860425 -10.108655082055243 C-73.13951617809848 -10.427650029904301, -72.93187347759272 -10.746644977753359, -72.66523396464063 -11.156274872382308 M-72.66523396464063 -11.156274872382308 C-72.41756690444623 -11.488126170109458, -72.16989984425184 -11.819977467836607, -71.91758890812659 -12.158051136245302 M-72.66523396464063 -11.156274872382308 C-72.512945093715 -11.360328085621108, -72.36065622278937 -11.564381298859907, -71.91758890812659 -12.158051136245302 M-71.91758890812659 -12.158051136245302 C-71.6095123310836 -12.519935413693833, -71.30143575404061 -12.881819691142367, -71.10729594296866 -13.10986736009567 M-71.91758890812659 -12.158051136245302 C-71.6080139712256 -12.521695472442135, -71.2984390343246 -12.885339808638967, -71.10729594296866 -13.10986736009567 M-71.10729594296866 -13.10986736009567 C-70.85333711999736 -13.372100695220665, -70.59937829702606 -13.634334030345661, -70.23768473676799 -14.007812326905677 M-71.10729594296866 -13.10986736009567 C-70.90276607824036 -13.32106123764183, -70.69823621351205 -13.53225511518799, -70.23768473676799 -14.007812326905677 M-70.23768473676799 -14.007812326905677 C-70.03789414058333 -14.189256860191076, -69.83810354439869 -14.370701393476477, -69.3123287085019 -14.848196188198107 M-70.23768473676799 -14.007812326905677 C-70.0393659110711 -14.18792023717501, -69.8410470853742 -14.368028147444344, -69.3123287085019 -14.848196188198107 M-69.3123287085019 -14.848196188198107 C-68.96007813292215 -15.12910664844146, -68.6078275573424 -15.410017108684814, -68.33503034457871 -15.627565626425149 M-69.3123287085019 -14.848196188198107 C-69.0669155885407 -15.043906620649764, -68.82150246857951 -15.239617053101421, -68.33503034457871 -15.627565626425149 M-68.33503034457871 -15.627565626425149 C-68.00557957178573 -15.857376223831443, -67.67612879899274 -16.087186821237736, -67.30980557360571 -16.342718045390885 M-68.33503034457871 -15.627565626425149 C-68.0797232390323 -15.805656811187859, -67.82441613348588 -15.983747995950567, -67.30980557360571 -16.342718045390885 M-67.30980557360571 -16.342718045390885 C-67.04113207849689 -16.505589497026566, -66.77245858338806 -16.668460948662247, -66.24086726407678 -16.99071473040609 M-67.30980557360571 -16.342718045390885 C-67.0342031321784 -16.509789865003835, -66.75860069075111 -16.676861684616785, -66.24086726407678 -16.99071473040609 M-66.24086726407678 -16.99071473040609 C-65.92938591324699 -17.153214351620665, -65.61790456241721 -17.315713972835244, -65.1326079127924 -17.56889292409717 M-66.24086726407678 -16.99071473040609 C-65.81930611985568 -17.210642909323443, -65.39774497563458 -17.430571088240793, -65.1326079127924 -17.56889292409717 M-65.1326079127924 -17.56889292409717 C-64.85626220557694 -17.691222971177304, -64.5799164983615 -17.813553018257437, -63.989581595147804 -18.07487676824742 M-65.1326079127924 -17.56889292409717 C-64.89929946557739 -17.672171652830066, -64.66599101836238 -17.77545038156296, -63.989581595147804 -18.07487676824742 M-63.989581595147804 -18.07487676824742 C-63.653881591242886 -18.198417472861248, -63.31818158733797 -18.32195817747508, -62.81648525146062 -18.506587066708033 M-63.989581595147804 -18.07487676824742 C-63.55211836766157 -18.2358672798281, -63.11465514017534 -18.39685779140878, -62.81648525146062 -18.506587066708033 M-62.81648525146062 -18.506587066708033 C-62.39368875307444 -18.632070848124943, -61.970892254688266 -18.75755462954185, -61.61813938623541 -18.862249829261067 M-62.81648525146062 -18.506587066708033 C-62.51945046587183 -18.59474543190338, -62.22241568028303 -18.682903797098728, -61.61813938623541 -18.862249829261067 M-61.61813938623541 -18.862249829261067 C-61.34930366568825 -18.92360982815893, -61.08046794514108 -18.984969827056798, -60.399468259676766 -19.140403561325773 M-61.61813938623541 -18.862249829261067 C-61.326621475187366 -18.928786890125632, -61.03510356413932 -18.995323950990198, -60.399468259676766 -19.140403561325773 M-60.399468259676766 -19.140403561325773 C-60.126154647374584 -19.18459078658407, -59.85284103507241 -19.22877801184237, -59.16547965284788 -19.3399052695533 M-60.399468259676766 -19.140403561325773 C-59.970772391338585 -19.20971178473258, -59.54207652300041 -19.279020008139383, -59.16547965284788 -19.3399052695533 M-59.16547965284788 -19.3399052695533 C-58.88442716044581 -19.367018065480252, -58.60337466804374 -19.394130861407202, -57.9212442896239 -19.45993515863156 M-59.16547965284788 -19.3399052695533 C-58.78355549654232 -19.376749033581095, -58.40163134023676 -19.413592797608892, -57.9212442896239 -19.45993515863156 M-57.9212442896239 -19.45993515863156 C-57.45786554949759 -19.47479481291541, -56.99448680937129 -19.489654467199255, -56.67187500000001 -19.5 M-57.9212442896239 -19.45993515863156 C-57.53715718349544 -19.4722520845449, -57.15307007736697 -19.48456901045824, -56.67187500000001 -19.5 M-56.67187500000001 -19.5 C-56.67187500000001 -19.5, -56.671875 -19.5, -56.671875 -19.5 M-56.67187500000001 -19.5 C-56.67187500000001 -19.5, -56.671875 -19.5, -56.671875 -19.5" stroke="#9370DB" stroke-width="1.3" fill="none" stroke-dasharray="0 0" style=""/></g><g class="label" style="" transform="translate(-63.796875, -12)"><rect/><foreignObject width="127.59375" height="24"><div xmlns="http://www.w3.org/1999/xhtml" style="display: table-cell; white-space: nowrap; line-height: 1.5; max-width: 200px; text-align: center;"><span class="nodeLabel"><p>👤 STK-1 Creator</p></span></div></foreignObject></g></g><g class="node default" id="my-svg-flowchart-UC1-1" data-look="classic" transform="translate(314.86277770996094, 96.7421875)"><circle class="basic label-container" style="" r="53.7421875" cx="0" cy="0"/><g class="label" style="" transform="translate(-46.2421875, -12)"><rect/><foreignObject width="92.484375" height="24"><div xmlns="http://www.w3.org/1999/xhtml" style="display: table-cell; white-space: nowrap; line-height: 1.5; max-width: 200px; text-align: center;"><span class="nodeLabel"><p>UC-1 Upload</p></span></div></foreignObject></g></g><g class="node default" id="my-svg-flowchart-UC2-2" data-look="classic" transform="translate(314.86277770996094, 278.2421875)"><circle class="basic label-container" style="" r="77.7578125" cx="0" cy="0"/><g class="label" style="" transform="translate(-70.2578125, -12)"><rect/><foreignObject width="140.515625" height="24"><div xmlns="http://www.w3.org/1999/xhtml" style="display: table-cell; white-space: nowrap; line-height: 1.5; max-width: 200px; text-align: center;"><span class="nodeLabel"><p>UC-2 Auto-segment</p></span></div></foreignObject></g></g><g class="node default" id="my-svg-flowchart-UC3-3" data-look="classic" transform="translate(314.86277770996094, 471.3125)"><circle class="basic label-container" style="" r="65.3125" cx="0" cy="0"/><g class="label" style="" transform="translate(-57.8125, -12)"><rect/><foreignObject width="115.625" height="24"><div xmlns="http://www.w3.org/1999/xhtml" style="display: table-cell; white-space: nowrap; line-height: 1.5; max-width: 200px; text-align: center;"><span class="nodeLabel"><p>UC-3 Keep/drop</p></span></div></foreignObject></g></g><g class="node default" id="my-svg-flowchart-UC4-4" data-look="classic" transform="translate(314.86277770996094, 646.5859375)"><circle class="basic label-container" style="" r="59.9609375" cx="0" cy="0"/><g class="label" style="" transform="translate(-52.4609375, -12)"><rect/><foreignObject width="104.921875" height="24"><div xmlns="http://www.w3.org/1999/xhtml" style="display: table-cell; white-space: nowrap; line-height: 1.5; max-width: 200px; text-align: center;"><span class="nodeLabel"><p>UC-4 Re-order</p></span></div></foreignObject></g></g><g class="node default" id="my-svg-flowchart-UC5-5" data-look="classic" transform="translate(314.86277770996094, 823.625)"><circle class="basic label-container" style="" r="67.078125" cx="0" cy="0"/><g class="label" style="" transform="translate(-59.578125, -12)"><rect/><foreignObject width="119.15625" height="24"><div xmlns="http://www.w3.org/1999/xhtml" style="display: table-cell; white-space: nowrap; line-height: 1.5; max-width: 200px; text-align: center;"><span class="nodeLabel"><p>UC-5 Transitions</p></span></div></foreignObject></g></g><g class="node default" id="my-svg-flowchart-UC6-6" data-look="classic" transform="translate(314.86277770996094, 992.21875)"><circle class="basic label-container" style="" r="51.515625" cx="0" cy="0"/><g class="label" style="" transform="translate(-44.015625, -12)"><rect/><foreignObject width="88.03125" height="24"><div xmlns="http://www.w3.org/1999/xhtml" style="display: table-cell; white-space: nowrap; line-height: 1.5; max-width: 200px; text-align: center;"><span class="nodeLabel"><p>UC-6 Export</p></span></div></foreignObject></g></g><g class="node default" id="my-svg-flowchart-UC7-7" data-look="classic" transform="translate(314.86277770996094, 1173.2734375)"><circle class="basic label-container" style="" r="79.5390625" cx="0" cy="0"/><g class="label" style="" transform="translate(-72.0390625, -12)"><rect/><foreignObject width="144.078125" height="24"><div xmlns="http://www.w3.org/1999/xhtml" style="display: table-cell; white-space: nowrap; line-height: 1.5; max-width: 200px; text-align: center;"><span class="nodeLabel"><p>UC-7 Replace audio</p></span></div></foreignObject></g></g><g class="node default" id="my-svg-flowchart-UC8-8" data-look="classic" transform="translate(314.86277770996094, 1366.796875)"><circle class="basic label-container" style="" r="63.984375" cx="0" cy="0"/><g class="label" style="" transform="translate(-56.484375, -12)"><rect/><foreignObject width="112.96875" height="24"><div xmlns="http://www.w3.org/1999/xhtml" style="display: table-cell; white-space: nowrap; line-height: 1.5; max-width: 200px; text-align: center;"><span class="nodeLabel"><p>UC-8 Add audio</p></span></div></foreignObject></g></g><g class="node default" id="my-svg-flowchart-UC9-9" data-look="classic" transform="translate(314.86277770996094, 1546.9765625)"><circle class="basic label-container" style="" r="66.1953125" cx="0" cy="0"/><g class="label" style="" transform="translate(-58.6953125, -12)"><rect/><foreignObject width="117.390625" height="24"><div xmlns="http://www.w3.org/1999/xhtml" style="display: table-cell; white-space: nowrap; line-height: 1.5; max-width: 200px; text-align: center;"><span class="nodeLabel"><p>UC-9 Add image</p></span></div></foreignObject></g></g><g class="node default" id="my-svg-flowchart-UC10-10" data-look="classic" transform="translate(314.86277770996094, 1735.1484375)"><circle class="basic label-container" style="" r="71.9765625" cx="0" cy="0"/><g class="label" style="" transform="translate(-64.4765625, -12)"><rect/><foreignObject width="128.953125" height="24"><div xmlns="http://www.w3.org/1999/xhtml" style="display: table-cell; white-space: nowrap; line-height: 1.5; max-width: 200px; text-align: center;"><span class="nodeLabel"><p>UC-10 Level/mute</p></span></div></foreignObject></g></g></g></g></g><defs><filter id="my-svg-drop-shadow" height="130%" width="130%"><feDropShadow dx="4" dy="4" stdDeviation="0" flood-opacity="0.06" flood-color="#000000"/></filter></defs><defs><filter id="my-svg-drop-shadow-small" height="150%" width="150%"><feDropShadow dx="2" dy="2" stdDeviation="0" flood-opacity="0.06" flood-color="#000000"/></filter></defs></svg>