<svg id="my-svg" width="100%" xmlns="http://www.w3.org/2000/svg" xmlns:xlink="http://www.w3.org/1999/xlink" class="flowchart" style="max-width: 1993.77px; background-color: white;" viewBox="0 21 1993.765625 434" role="graphics-document document" aria-roledescription="flowchart-v2"><style>#my-svg{font-family:"trebuchet ms",verdana,arial,sans-serif;font-size:16px;fill:#333;}@keyframes edge-animation-frame{from{stroke-dashoffset:0;}}@keyframes dash{to{stroke-dashoffset:0;}}#my-svg .edge-animation-slow{stroke-dasharray:9,5!important;stroke-dashoffset:900;animation:dash 50s linear infinite;stroke-linecap:round;}#my-svg .edge-animation-fast{stroke-dasharray:9,5!important;stroke-dashoffset:900;animation:dash 20s linear infinite;stroke-linecap:round;}#my-svg .error-icon{fill:#552222;}#my-svg .error-text{fill:#552222;stroke:#552222;}#my-svg .edge-thickness-normal{stroke-width:1px;}#my-svg .edge-thickness-thick{stroke-width:3.5px;}#my-svg .edge-pattern-solid{stroke-dasharray:0;}#my-svg .edge-thickness-invisible{stroke-width:0;fill:none;}#my-svg .edge-pattern-dashed{stroke-dasharray:3;}#my-svg .edge-pattern-dotted{stroke-dasharray:2;}#my-svg .marker{fill:#333333;stroke:#333333;}#my-svg .marker.cross{stroke:#333333;}#my-svg svg{font-family:"trebuchet ms",verdana,arial,sans-serif;font-size:16px;}#my-svg p{margin:0;}#my-svg .label{font-family:"trebuchet ms",verdana,arial,sans-serif;color:#333;}#my-svg .cluster-label text{fill:#333;}#my-svg .cluster-label span{color:#333;}#my-svg .cluster-label span p{background-color:transparent;}#my-svg .label text,#my-svg span{fill:#333;color:#333;}#my-svg .node rect,#my-svg .node circle,#my-svg .node ellipse,#my-svg .node polygon,#my-svg .node path{fill:#ECECFF;stroke:#9370DB;stroke-width:1px;}#my-svg .rough-node .label text,#my-svg .node .label text,#my-svg .image-shape .label,#my-svg .icon-shape .label{text-anchor:middle;}#my-svg .node .katex path{fill:#000;stroke:#000;stroke-width:1px;}#my-svg .rough-node .label,#my-svg .node .label,#my-svg .image-shape .label,#my-svg .icon-shape .label{text-align:center;}#my-svg .node.clickable{cursor:pointer;}#my-svg .root .anchor path{fill:#333333!important;stroke-width:0;stroke:#333333;}#my-svg .arrowheadPath{fill:#333333;}#my-svg .edgePath .path{stroke:#333333;stroke-width:1px;}#my-svg .flowchart-link{stroke:#333333;fill:none;}#my-svg .edgeLabel{background-color:rgba(232,232,232, 0.8);text-align:center;}#my-svg .edgeLabel p{background-color:rgba(232,232,232, 0.8);}#my-svg .edgeLabel rect{opacity:0.5;background-color:rgba(232,232,232, 0.8);fill:rgba(232,232,232, 0.8);}#my-svg .labelBkg{background-color:rgba(232, 232, 232, 0.5);}#my-svg .cluster rect{fill:#ffffde;stroke:#aaaa33;stroke-width:1px;}#my-svg .cluster text{fill:#333;}#my-svg .cluster span{color:#333;}#my-svg div.mermaidTooltip{position:absolute;text-align:center;max-width:200px;padding:2px;font-family:"trebuchet ms",verdana,arial,sans-serif;font-size:12px;background:hsl(80, 100%, 96.2745098039%);border:1px solid #aaaa33;border-radius:2px;pointer-events:none;z-index:100;}#my-svg .flowchartTitleText{text-anchor:middle;font-size:18px;fill:#333;}#my-svg rect.text{fill:none;stroke-width:0;}#my-svg .icon-shape,#my-svg .image-shape{background-color:rgba(232,232,232, 0.8);text-align:center;}#my-svg .icon-shape p,#my-svg .image-shape p{background-color:rgba(232,232,232, 0.8);padding:2px;}#my-svg .icon-shape .label rect,#my-svg .image-shape .label rect{opacity:0.5;background-color:rgba(232,232,232, 0.8);fill:rgba(232,232,232, 0.8);}#my-svg .label-icon{display:inline-block;height:1em;overflow:visible;vertical-align:-0.125em;}#my-svg .node .label-icon path{fill:currentColor;stroke:revert;stroke-width:revert;}#my-svg .node .neo-node{stroke:#9370DB;}#my-svg [data-look="neo"].node rect,#my-svg [data-look="neo"].cluster rect,#my-svg [data-look="neo"].node polygon{stroke:#9370DB;filter:drop-shadow(1px 2px 2px rgba(185, 185, 185, 1));}#my-svg [data-look="neo"].node path{stroke:#9370DB;stroke-width:1px;}#my-svg [data-look="neo"].node .outer-path{filter:drop-shadow(1px 2px 2px rgba(185, 185, 185, 1));}#my-svg [data-look="neo"].node .neo-line path{stroke:#9370DB;filter:none;}#my-svg [data-look="neo"].node circle{stroke:#9370DB;filter:drop-shadow(1px 2px 2px rgba(185, 185, 185, 1));}#my-svg [data-look="neo"].node circle .state-start{fill:#000000;}#my-svg [data-look="neo"].icon-shape .icon{fill:#9370DB;filter:drop-shadow(1px 2px 2px rgba(185, 185, 185, 1));}#my-svg [data-look="neo"].icon-shape .icon-neo path{stroke:#9370DB;filter:drop-shadow(1px 2px 2px rgba(185, 185, 185, 1));}#my-svg :root{--mermaid-font-family:"trebuchet ms",verdana,arial,sans-serif;}</style><g><marker id="my-svg_flowchart-v2-pointEnd" class="marker flowchart-v2" viewBox="0 0 10 10" refX="5" refY="5" markerUnits="userSpaceOnUse" markerWidth="8" markerHeight="8" orient="auto"><path d="M 0 0 L 10 5 L 0 10 z" class="arrowMarkerPath" style="stroke-width: 1; stroke-dasharray: 1, 0;"/></marker><marker id="my-svg_flowchart-v2-pointStart" class="marker flowchart-v2" viewBox="0 0 10 10" refX="4.5" refY="5" markerUnits="userSpaceOnUse" markerWidth="8" markerHeight="8" orient="auto"><path d="M 0 5 L 10 10 L 10 0 z" class="arrowMarkerPath" style="stroke-width: 1; stroke-dasharray: 1, 0;"/></marker><marker id="my-svg_flowchart-v2-pointEnd-margin" class="marker flowchart-v2" viewBox="0 0 11.5 14" refX="11.5" refY="7" markerUnits="userSpaceOnUse" markerWidth="10.5" markerHeight="14" orient="auto"><path d="M 0 0 L 11.5 7 L 0 14 z" class="arrowMarkerPath" style="stroke-width: 0; stroke-dasharray: 1, 0;"/></marker><marker id="my-svg_flowchart-v2-pointStart-margin" class="marker flowchart-v2" viewBox="0 0 11.5 14" refX="1" refY="7" markerUnits="userSpaceOnUse" markerWidth="11.5" markerHeight="14" orient="auto"><polygon points="0,7 11.5,14 11.5,0" class="arrowMarkerPath" style="stroke-width: 0; stroke-dasharray: 1, 0;"/></marker><marker id="my-svg_flowchart-v2-circleEnd" class="marker flowchart-v2" viewBox="0 0 10 10" refX="11" refY="5" markerUnits="userSpaceOnUse" markerWidth="11" markerHeight="11" orient="auto"><circle cx="5" cy="5" r="5" class="arrowMarkerPath" style="stroke-width: 1; stroke-dasharray: 1, 0;"/></marker><marker id="my-svg_flowchart-v2-circleStart" class="marker flowchart-v2" viewBox="0 0 10 10" refX="-1" refY="5" markerUnits="userSpaceOnUse" markerWidth="11" markerHeight="11" orient="auto"><circle cx="5" cy="5" r="5" class="arrowMarkerPath" style="stroke-width: 1; stroke-dasharray: 1, 0;"/></marker><marker id="my-svg_flowchart-v2-circleEnd-margin" class="marker flowchart-v2" viewBox="0 0 10 10" refY="5" refX="12.25" markerUnits="userSpaceOnUse" markerWidth="14" markerHeight="14" orient="auto"><circle cx="5" cy="5" r="5" class="arrowMarkerPath" style="stroke-width: 0; stroke-dasharray: 1, 0;"/></marker><marker id="my-svg_flowchart-v2-circleStart-margin" class="marker flowchart-v2" viewBox="0 0 10 10" refX="-2" refY="5" markerUnits="userSpaceOnUse" markerWidth="14" markerHeight="14" orient="auto"><circle cx="5" cy="5" r="5" class="arrowMarkerPath" style="stroke-width: 0; stroke-dasharray: 1, 0;"/></marker><marker id="my-svg_flowchart-v2-crossEnd" class="marker cross flowchart-v2" viewBox="0 0 11 11" refX="12" refY="5.2" markerUnits="userSpaceOnUse" markerWidth="11" markerHeight="11" orient="auto"><path d="M 1,1 l 9,9 M 10,1 l -9,9" class="arrowMarkerPath" style="stroke-width: 2; stroke-dasharray: 1, 0;"/></marker><marker id="my-svg_flowchart-v2-crossStart" class="marker cross flowchart-v2" viewBox="0 0 11 11" refX="-1" refY="5.2" markerUnits="userSpaceOnUse" markerWidth="11" markerHeight="11" orient="auto"><path d="M 1,1 l 9,9 M 10,1 l -9,9" class="arrowMarkerPath" style="stroke-width: 2; stroke-dasharray: 1, 0;"/></marker><marker id="my-svg_flowchart-v2-crossEnd-margin" class="marker cross flowchart-v2" viewBox="0 0 15 15" refX="17.7" refY="7.5" markerUnits="userSpaceOnUse" markerWidth="12" markerHeight="12" orient="auto"><path d="M 1,1 L 14,14 M 1,14 L 14,1" class="arrowMarkerPath" style="stroke-width: 2.5;"/></marker><marker id="my-svg_flowchart-v2-crossStart-margin" class="marker cross flowchart-v2" viewBox="0 0 15 15" refX="-3.5" refY="7.5" markerUnits="userSpaceOnUse" markerWidth="12" markerHeight="12" orient="auto"><path d="M 1,1 L 14,14 M 1,14 L 14,1" class="arrowMarkerPath" style="stroke-width: 2.5; stroke-dasharray: 1, 0;"/></marker><g class="root"><g class="clusters"/><g class="edgePaths"><path d="M212.969,240L228.77,240C244.57,240,276.172,240,309.089,244.014C342.006,248.029,376.238,256.058,393.355,260.072L410.471,264.087" id="my-svg-L_CAP_FS_0" class="edge-thickness-normal edge-pattern-solid edge-thickness-normal edge-pattern-solid flowchart-link" style=";" data-edge="true" data-et="edge" data-id="L_CAP_FS_0" data-points="W3sieCI6MjEyLjk2ODc1LCJ5IjoyNDB9LHsieCI6MzA3Ljc3MzQzNzUsInkiOjI0MH0seyJ4Ijo0MTQuMzY1MjM0Mzc1LCJ5IjoyNjV9XQ==" data-look="classic" marker-end="url(#my-svg_flowchart-v2-pointEnd)"/><path d="M201.398,344L219.128,344C236.857,344,272.315,344,307.161,339.986C342.006,335.971,376.238,327.942,393.355,323.928L410.471,319.913" id="my-svg-L_LIB_FS_0" class="edge-thickness-normal edge-pattern-solid edge-thickness-normal edge-pattern-solid flowchart-link" style=";" data-edge="true" data-et="edge" data-id="L_LIB_FS_0" data-points="W3sieCI6MjAxLjM5ODQzNzUsInkiOjM0NH0seyJ4IjozMDcuNzczNDM3NSwieSI6MzQ0fSx7IngiOjQxNC4zNjUyMzQzNzUsInkiOjMxOX1d" data-look="classic" marker-end="url(#my-svg_flowchart-v2-pointEnd)"/><path d="M578.08,265L611.452,246.458C644.824,227.917,711.568,190.833,774.71,177.878C837.851,164.922,897.389,176.094,927.159,181.68L956.928,187.267" id="my-svg-L_FS_SOI_0" class="edge-thickness-normal edge-pattern-solid edge-thickness-normal edge-pattern-solid flowchart-link" style=";" data-edge="true" data-et="edge" data-id="L_FS_SOI_0" data-points="W3sieCI6NTc4LjA4MDEwMjg0ODEwMTMsInkiOjI2NX0seyJ4Ijo3NzguMzEyNSwieSI6MTUzLjc1fSx7IngiOjk2MC44NTkyMjcwNjYzNzMsInkiOjE4OC4wMDQzMTAwMTkzNTE4Nn1d" data-look="classic" marker-end="url(#my-svg_flowchart-v2-pointEnd)"/><path d="M957.955,198.25L928.015,198.167C898.074,198.083,838.193,197.917,779.285,208.806C720.377,219.694,662.442,241.639,633.475,252.611L604.507,263.583" id="my-svg-L_SOI_FS_0" class="edge-thickness-normal edge-pattern-solid edge-thickness-normal edge-pattern-solid flowchart-link" style=";" data-edge="true" data-et="edge" data-id="L_SOI_FS_0" data-points="W3sieCI6OTU3Ljk1NTMyOTg5NTAxMTMsInkiOjE5OC4yNX0seyJ4Ijo3NzguMzEyNSwieSI6MTk3Ljc1fSx7IngiOjYwMC43NjY3MDI1ODYyMDY5LCJ5IjoyNjV9XQ==" data-look="classic" marker-end="url(#my-svg_flowchart-v2-pointEnd)"/><path d="M1809.281,72.381L1795.258,74.984C1781.234,77.587,1753.188,82.794,1722.594,82.921C1692.001,83.048,1658.861,78.096,1642.292,75.619L1625.722,73.143" id="my-svg-L_CR_BR_0" class="edge-thickness-normal edge-pattern-solid edge-thickness-normal edge-pattern-solid flowchart-link" style=";" data-edge="true" data-et="edge" data-id="L_CR_BR_0" data-points="W3sieCI6MTgwOS4yODEyNSwieSI6NzIuMzgwNjkzNDA1ODQ2MzZ9LHsieCI6MTcyNS4xNDA2MjUsInkiOjg4fSx7IngiOjE2MjEuNzY1NjI1LCJ5Ijo3Mi41NTIyMDcyMjM2NDF9XQ==" data-look="classic" marker-end="url(#my-svg_flowchart-v2-pointEnd)"/><path d="M1400.234,75.113L1376.195,79.26C1352.156,83.408,1304.078,91.704,1248.206,108.912C1192.333,126.12,1128.666,152.24,1096.832,165.299L1064.999,178.359" id="my-svg-L_BR_SOI_0" class="edge-thickness-normal edge-pattern-solid edge-thickness-normal edge-pattern-solid flowchart-link" style=";" data-edge="true" data-et="edge" data-id="L_BR_SOI_0" data-points="W3sieCI6MTQwMC4yMzQzNzUsInkiOjc1LjExMjV9LHsieCI6MTI1NiwieSI6MTAwfSx7IngiOjEwNjEuMjk4MDYxMTUyMzExNCwieSI6MTc5Ljg3NzUxMTc0NDM2MjE1fV0=" data-look="classic" marker-end="url(#my-svg_flowchart-v2-pointEnd)"/><path d="M1044.398,178.75L1079.665,154.292C1114.932,129.833,1185.466,80.917,1244.108,58.658C1302.751,36.4,1349.501,40.8,1372.877,43L1396.252,45.2" id="my-svg-L_SOI_BR_0" class="edge-thickness-normal edge-pattern-solid edge-thickness-normal edge-pattern-solid flowchart-link" style=";" data-edge="true" data-et="edge" data-id="L_SOI_BR_0" data-points="W3sieCI6MTA0NC4zOTc1MTgzODIzNTI1LCJ5IjoxNzguNzUwMDAwMDAwMDAwMjZ9LHsieCI6MTI1NiwieSI6MzJ9LHsieCI6MTQwMC4yMzQzNzUsInkiOjQ1LjU3NX1d" data-look="classic" marker-end="url(#my-svg_flowchart-v2-pointEnd)"/><path d="M1621.766,49.793L1638.995,48.827C1656.224,47.862,1690.682,45.931,1721.27,45.895C1751.857,45.86,1778.574,47.72,1791.933,48.65L1805.291,49.579" id="my-svg-L_BR_CR_0" class="edge-thickness-normal edge-pattern-solid edge-thickness-normal edge-pattern-solid flowchart-link" style=";" data-edge="true" data-et="edge" data-id="L_BR_CR_0" data-points="W3sieCI6MTYyMS43NjU2MjUsInkiOjQ5Ljc5MjkyMjI5MTEzNDYyfSx7IngiOjE3MjUuMTQwNjI1LCJ5Ijo0NH0seyJ4IjoxODA5LjI4MTI1LCJ5Ijo0OS44NTcyMzk5NzI4MDc2MX1d" data-look="classic" marker-end="url(#my-svg_flowchart-v2-pointEnd)"/><path d="M1071.719,188.593L1102.432,183.161C1133.146,177.729,1194.573,166.864,1251.995,163.946C1309.417,161.028,1362.835,166.055,1389.543,168.569L1416.252,171.083" id="my-svg-L_SOI_FF_0" class="edge-thickness-normal edge-pattern-solid edge-thickness-normal edge-pattern-solid flowchart-link" style=";" data-edge="true" data-et="edge" data-id="L_SOI_FF_0" data-points="W3sieCI6MTA3MS43MTg3NDA0Njk1ODMsInkiOjE4OC41OTMwNDk4NTMxMTY2N30seyJ4IjoxMjU2LCJ5IjoxNTZ9LHsieCI6MTQyMC4yMzQzNzUsInkiOjE3MS40NTczNTI5NDExNzY0OH1d" data-look="classic" marker-end="url(#my-svg_flowchart-v2-pointEnd)"/><path d="M1420.234,191.39L1392.862,194.825C1365.49,198.26,1310.745,205.13,1253.701,206.883C1196.657,208.635,1137.314,205.271,1107.642,203.589L1077.971,201.906" id="my-svg-L_FF_SOI_0" class="edge-thickness-normal edge-pattern-solid edge-thickness-normal edge-pattern-solid flowchart-link" style=";" data-edge="true" data-et="edge" data-id="L_FF_SOI_0" data-points="W3sieCI6MTQyMC4yMzQzNzUsInkiOjE5MS4zOTAxOTYwNzg0MzEzNn0seyJ4IjoxMjU2LCJ5IjoyMTJ9LHsieCI6MTA3My45NzcyMjAwODc1MjkzLCJ5IjoyMDEuNjc5OTY4NDU2NTUyMTZ9XQ==" data-look="classic" marker-end="url(#my-svg_flowchart-v2-pointEnd)"/><path d="M1067.294,213.206L1098.745,222.338C1130.196,231.471,1193.098,249.735,1247.454,261.023C1301.811,272.312,1347.621,276.623,1370.526,278.779L1393.432,280.935" id="my-svg-L_SOI_WH_0" class="edge-thickness-normal edge-pattern-solid edge-thickness-normal edge-pattern-solid flowchart-link" style=";" data-edge="true" data-et="edge" data-id="L_SOI_WH_0" data-points="W3sieCI6MTA2Ny4yOTQyMjE4ODg0NjEsInkiOjIxMy4yMDYwODg3MDAzNDkwM30seyJ4IjoxMjU2LCJ5IjoyNjh9LHsieCI6MTM5Ny40MTQwNjI1LCJ5IjoyODEuMzA5NTU4ODIzNTI5NH1d" data-look="classic" marker-end="url(#my-svg_flowchart-v2-pointEnd)"/><path d="M1397.414,308.036L1373.845,311.363C1350.276,314.69,1303.138,321.345,1246.173,306.615C1189.208,291.884,1122.416,255.768,1089.02,237.71L1055.624,219.653" id="my-svg-L_WH_SOI_0" class="edge-thickness-normal edge-pattern-solid edge-thickness-normal edge-pattern-solid flowchart-link" style=";" data-edge="true" data-et="edge" data-id="L_WH_SOI_0" data-points="W3sieCI6MTM5Ny40MTQwNjI1LCJ5IjozMDguMDM1NjYxNzY0NzA1OX0seyJ4IjoxMjU2LCJ5IjozMjh9LHsieCI6MTA1Mi4xMDU0MDEyNzE1OTI5LCJ5IjoyMTcuNzQ5OTk5OTk5OTk5OTR9XQ==" data-look="classic" marker-end="url(#my-svg_flowchart-v2-pointEnd)"/><path d="M656.391,298.12L676.711,299.1C697.031,300.08,737.672,302.04,777.646,303.02C817.62,304,856.927,304,876.581,304L896.234,304" id="my-svg-L_FS_PUB_0" class="edge-thickness-normal edge-pattern-solid edge-thickness-normal edge-pattern-solid flowchart-link" style=";" data-edge="true" data-et="edge" data-id="L_FS_PUB_0" data-points="W3sieCI6NjU2LjM5MDYyNSwieSI6Mjk4LjEyMDE4ODM4MzA0NTV9LHsieCI6Nzc4LjMxMjUsInkiOjMwNH0seyJ4Ijo5MDAuMjM0Mzc1LCJ5IjozMDR9XQ==" data-look="classic" marker-end="url(#my-svg_flowchart-v2-pointEnd)"/><path d="M587.401,319L619.22,333.833C651.038,348.667,714.675,378.333,771.362,393.167C828.049,408,877.786,408,902.655,408L927.523,408" id="my-svg-L_FS_VW_0" class="edge-thickness-normal edge-pattern-solid edge-thickness-normal edge-pattern-solid flowchart-link" style=";" data-edge="true" data-et="edge" data-id="L_FS_VW_0" data-points="W3sieCI6NTg3LjQwMTI2NjE2Mzc5MzEsInkiOjMxOX0seyJ4Ijo3NzguMzEyNSwieSI6NDA4fSx7IngiOjkzMS41MjM0Mzc1LCJ5Ijo0MDh9XQ==" data-look="classic" marker-end="url(#my-svg_flowchart-v2-pointEnd)"/><path d="M1041.423,220.383L1077.186,251.652C1112.949,282.922,1184.474,345.461,1240.404,376.73C1296.333,408,1336.667,408,1356.833,408L1377,408" id="my-svg-L_SOI_MOB_0" class="edge-thickness-normal edge-pattern-dotted edge-thickness-normal edge-pattern-solid flowchart-link" style=";" data-edge="true" data-et="edge" data-id="L_SOI_MOB_0" data-points="W3sieCI6MTAzOC40MTE5MDczMjc1ODYsInkiOjIxNy43NDk5OTk5OTk5OTk5NH0seyJ4IjoxMjU2LCJ5Ijo0MDh9LHsieCI6MTM4MSwieSI6NDA4fV0=" data-look="classic" marker-start="url(#my-svg_flowchart-v2-pointStart)" marker-end="url(#my-svg_flowchart-v2-pointEnd)"/></g><g class="edgeLabels"><g class="edgeLabel" transform="translate(307.7734375, 240)"><g class="label" data-id="L_CAP_FS_0" transform="translate(-69.8046875, -12)"><foreignObject width="139.609375" height="24"><div xmlns="http://www.w3.org/1999/xhtml" class="labelBkg" style="display: table-cell; white-space: nowrap; line-height: 1.5; max-width: 200px; text-align: center;"><span class="edgeLabel"><p>rawRecording (A/V)</p></span></div></foreignObject></g></g><g class="edgeLabel" transform="translate(307.7734375, 344)"><g class="label" data-id="L_LIB_FS_0" transform="translate(-62.7109375, -12)"><foreignObject width="125.421875" height="24"><div xmlns="http://www.w3.org/1999/xhtml" class="labelBkg" style="display: table-cell; white-space: nowrap; line-height: 1.5; max-width: 200px; text-align: center;"><span class="edgeLabel"><p>photo, extraAudio</p></span></div></foreignObject></g></g><g class="edgeLabel" transform="translate(759.37445, 164.27206)"><g class="label" data-id="L_FS_SOI_0" transform="translate(-34.6796875, -12)"><foreignObject width="69.359375" height="24"><div xmlns="http://www.w3.org/1999/xhtml" class="labelBkg" style="display: table-cell; white-space: nowrap; line-height: 1.5; max-width: 200px; text-align: center;"><span class="edgeLabel"><p>mediaFile</p></span></div></foreignObject></g></g><g class="edgeLabel" transform="translate(778.3125, 197.75)"><g class="label" data-id="L_SOI_FS_0" transform="translate(-96.921875, -12)"><foreignObject width="193.84375" height="24"><div xmlns="http://www.w3.org/1999/xhtml" class="labelBkg" style="display: table-cell; white-space: nowrap; line-height: 1.5; max-width: 200px; text-align: center;"><span class="edgeLabel"><p>renderedFile (mp4/mp3/srt)</p></span></div></foreignObject></g></g><g class="edgeLabel" transform="translate(1715.77227, 86.60004)"><g class="label" data-id="L_CR_BR_0" transform="translate(-43.578125, -12)"><foreignObject width="87.15625" height="24"><div xmlns="http://www.w3.org/1999/xhtml" class="labelBkg" style="display: table-cell; white-space: nowrap; line-height: 1.5; max-width: 200px; text-align: center;"><span class="edgeLabel"><p>editDecision</p></span></div></foreignObject></g></g><g class="edgeLabel" transform="translate(1226.35557, 112.16179)"><g class="label" data-id="L_BR_SOI_0" transform="translate(-100, -24)"><foreignObject width="200" height="48"><div xmlns="http://www.w3.org/1999/xhtml" class="labelBkg" style="display: table; white-space: break-spaces; line-height: 1.5; max-width: 200px; text-align: center; width: 200px;"><span class="edgeLabel"><p>httpRequest (json @127.0.0.1)</p></span></div></foreignObject></g></g><g class="edgeLabel" transform="translate(1209.72127, 64.0951)"><g class="label" data-id="L_SOI_BR_0" transform="translate(-100, -24)"><foreignObject width="200" height="48"><div xmlns="http://www.w3.org/1999/xhtml" class="labelBkg" style="display: table; white-space: break-spaces; line-height: 1.5; max-width: 200px; text-align: center; width: 200px;"><span class="edgeLabel"><p>httpResponse: segments, preview, exports</p></span></div></foreignObject></g></g><g class="edgeLabel" transform="translate(1715.55919, 44.53692)"><g class="label" data-id="L_BR_CR_0" transform="translate(-59.140625, -12)"><foreignObject width="118.28125" height="24"><div xmlns="http://www.w3.org/1999/xhtml" class="labelBkg" style="display: table-cell; white-space: nowrap; line-height: 1.5; max-width: 200px; text-align: center;"><span class="edgeLabel"><p>preview, delivery</p></span></div></foreignObject></g></g><g class="edgeLabel" transform="translate(1245.07891, 157.93157)"><g class="label" data-id="L_SOI_FF_0" transform="translate(-54.6875, -12)"><foreignObject width="109.375" height="24"><div xmlns="http://www.w3.org/1999/xhtml" class="labelBkg" style="display: table-cell; white-space: nowrap; line-height: 1.5; max-width: 200px; text-align: center;"><span class="edgeLabel"><p>filterGraph cmd</p></span></div></foreignObject></g></g><g class="edgeLabel" transform="translate(1247.61716, 211.52472)"><g class="label" data-id="L_FF_SOI_0" transform="translate(-100, -24)"><foreignObject width="200" height="48"><div xmlns="http://www.w3.org/1999/xhtml" class="labelBkg" style="display: table; white-space: break-spaces; line-height: 1.5; max-width: 200px; text-align: center; width: 200px;"><span class="edgeLabel"><p>renderedMedia, loudnessMeasurement</p></span></div></foreignObject></g></g><g class="edgeLabel" transform="translate(1229.84962, 260.40679)"><g class="label" data-id="L_SOI_WH_0" transform="translate(-45.359375, -12)"><foreignObject width="90.71875" height="24"><div xmlns="http://www.w3.org/1999/xhtml" class="labelBkg" style="display: table-cell; white-space: nowrap; line-height: 1.5; max-width: 200px; text-align: center;"><span class="edgeLabel"><p>audioStream</p></span></div></foreignObject></g></g><g class="edgeLabel" transform="translate(1216.86621, 306.83956)"><g class="label" data-id="L_WH_SOI_0" transform="translate(-34.234375, -12)"><foreignObject width="68.46875" height="24"><div xmlns="http://www.w3.org/1999/xhtml" class="labelBkg" style="display: table-cell; white-space: nowrap; line-height: 1.5; max-width: 200px; text-align: center;"><span class="edgeLabel"><p>timedText</p></span></div></foreignObject></g></g><g class="edgeLabel" transform="translate(778.3125, 304)"><g class="label" data-id="L_FS_PUB_0" transform="translate(-47.890625, -12)"><foreignObject width="95.78125" height="24"><div xmlns="http://www.w3.org/1999/xhtml" class="labelBkg" style="display: table-cell; white-space: nowrap; line-height: 1.5; max-width: 200px; text-align: center;"><span class="edgeLabel"><p>finishedVideo</p></span></div></foreignObject></g></g><g class="edgeLabel" transform="translate(778.3125, 408)"><g class="label" data-id="L_FS_VW_0" transform="translate(-47.890625, -12)"><foreignObject width="95.78125" height="24"><div xmlns="http://www.w3.org/1999/xhtml" class="labelBkg" style="display: table-cell; white-space: nowrap; line-height: 1.5; max-width: 200px; text-align: center;"><span class="edgeLabel"><p>finishedVideo</p></span></div></foreignObject></g></g><g class="edgeLabel" transform="translate(1256, 408)"><g class="label" data-id="L_SOI_MOB_0" transform="translate(-68.0390625, -12)"><foreignObject width="136.078125" height="24"><div xmlns="http://www.w3.org/1999/xhtml" class="labelBkg" style="display: table-cell; white-space: nowrap; line-height: 1.5; max-width: 200px; text-align: center;"><span class="edgeLabel"><p>portableProjectDoc</p></span></div></foreignObject></g></g></g><g class="nodes"><g class="node default" id="my-svg-flowchart-CAP-0" data-look="classic" transform="translate(110.484375, 240)"><rect class="basic label-container" style="" x="-102.484375" y="-27" width="204.96875" height="54"/><g class="label" style="" transform="translate(-72.484375, -12)"><rect/><foreignObject width="144.96875" height="24"><div xmlns="http://www.w3.org/1999/xhtml" style="display: table-cell; white-space: nowrap; line-height: 1.5; max-width: 200px; text-align: center;"><span class="nodeLabel"><p>cap : CaptureDevice</p></span></div></foreignObject></g></g><g class="node default" id="my-svg-flowchart-FS-1" data-look="classic" transform="translate(529.484375, 292)"><rect class="basic label-container" style="" x="-126.90625" y="-27" width="253.8125" height="54"/><g class="label" style="" transform="translate(-96.90625, -12)"><rect/><foreignObject width="193.8125" height="24"><div xmlns="http://www.w3.org/1999/xhtml" style="display: table-cell; white-space: nowrap; line-height: 1.5; max-width: 200px; text-align: center;"><span class="nodeLabel"><p>filesystem : HostFilesystem</p></span></div></foreignObject></g></g><g class="node default" id="my-svg-flowchart-LIB-2" data-look="classic" transform="translate(110.484375, 344)"><rect class="basic label-container" style="" x="-90.9140625" y="-27" width="181.828125" height="54"/><g class="label" style="" transform="translate(-60.9140625, -12)"><rect/><foreignObject width="121.828125" height="24"><div xmlns="http://www.w3.org/1999/xhtml" style="display: table-cell; white-space: nowrap; line-height: 1.5; max-width: 200px; text-align: center;"><span class="nodeLabel"><p>lib : MediaLibrary</p></span></div></foreignObject></g></g><g class="node default" id="my-svg-flowchart-SOI-5" data-look="classic" transform="translate(1015.6171875, 197.75)"><g class="basic label-container outer-path"><path d="M-38.671875 -19.5 C-15.972005582913951 -19.5, 6.727863834172098 -19.5, 38.671875 -19.5 C38.671875 -19.5, 38.671875 -19.5, 38.671875 -19.5 C39.16749388912862 -19.48410646688929, 39.663112778257236 -19.46821293377858, 39.9212442896239 -19.45993515863156 C40.24253209039971 -19.42894091089583, 40.56381989117553 -19.3979466631601, 41.165479652847864 -19.3399052695533 C41.538281750724245 -19.279633517492094, 41.91108384860063 -19.21936176543089, 42.39946825967676 -19.140403561325776 C42.66691109767684 -19.079361478779877, 42.93435393567691 -19.018319396233977, 43.61813938623539 -18.862249829261074 C43.94724756309191 -18.764572249894133, 44.27635573994843 -18.666894670527192, 44.816485251460605 -18.50658706670804 C45.14283797900818 -18.386486246198988, 45.46919070655575 -18.26638542568994, 45.9895815951478 -18.074876768247425 C46.37174072361229 -17.905706258423958, 46.75389985207678 -17.73653574860049, 47.13260791279238 -17.568892924097174 C47.55794893282875 -17.346992786388128, 47.983289952865114 -17.125092648679082, 48.24086726407678 -16.990714730406097 C48.66225607629165 -16.735266356085912, 49.08364488850651 -16.47981798176573, 49.3098055736057 -16.342718045390892 C49.55302543591452 -16.173058398262402, 49.79624529822334 -16.003398751133915, 50.33503034457871 -15.627565626425154 C50.572087226024806 -15.438519071820444, 50.80914410747089 -15.249472517215734, 51.312328708501866 -14.848196188198123 C51.585359510827956 -14.600236837524736, 51.85839031315405 -14.352277486851348, 52.23768473676799 -14.007812326905688 C52.49216928793127 -13.745036134259383, 52.74665383909454 -13.48225994161308, 53.10729594296865 -13.10986736009568 C53.29279600214331 -12.891968435336741, 53.47829606131797 -12.6740695105778, 53.91758890812658 -12.158051136245305 C54.1506420194179 -11.845781198690144, 54.38369513070923 -11.533511261134985, 54.665233964640635 -11.156274872382312 C54.80513335610859 -10.941351838840873, 54.94503274757655 -10.726428805299435, 55.34715887860425 -10.108655082055241 C55.55025764078892 -9.74803266381659, 55.753356402973594 -9.387410245577938, 55.960561474273504 -9.019496659696287 C56.127410883996305 -8.673030290401426, 56.294260293719105 -8.326563921106567, 56.50292114880834 -7.893275190886684 C56.61985584218529 -7.604444237467133, 56.73679053556223 -7.315613284047581, 56.972009229970325 -6.734618561215508 C57.075756534113076 -6.422148211025655, 57.179503838255826 -6.109677860835801, 57.36589813421488 -5.548287939305138 C57.44409775354322 -5.250078898876775, 57.522297372871556 -4.951869858448413, 57.68296928754556 -4.339158212148133 C57.75291982276143 -3.97997699786551, 57.822870357977294 -3.620795783582887, 57.921919776581774 -3.1121979531509023 C57.97677462251956 -2.6867546003720224, 58.03162946845734 -2.261311247593142, 58.08176770250937 -1.872449005199798 C58.113166934562486 -1.3833806209685517, 58.144566166615604 -0.8943122367373056, 58.16185621591342 -0.6250057626472757 C58.16185621591342 -0.3678216900939522, 58.16185621591342 -0.11063761754062873, 58.16185621591342 0.625005762647271 C58.13904020307607 0.9803835793430112, 58.116224190238725 1.3357613960387513, 58.08176770250937 1.8724490051997846 C58.02424492932754 2.3185842748416983, 57.9667221561457 2.764719544483612, 57.921919776581774 3.1121979531508885 C57.838337309844654 3.5413762546854155, 57.754754843107534 3.970554556219942, 57.68296928754556 4.339158212148129 C57.56960320477659 4.771472218917287, 57.45623712200762 5.203786225686445, 57.36589813421489 5.548287939305125 C57.24714472888699 5.905954275367117, 57.12839132355908 6.263620611429109, 56.972009229970325 6.734618561215495 C56.81208767202256 7.129627901219472, 56.65216611407479 7.524637241223448, 56.50292114880834 7.893275190886679 C56.29453570046317 8.325992033109738, 56.08615025211801 8.758708875332797, 55.960561474273504 9.019496659696284 C55.82665830228766 9.25725530072361, 55.692755130301826 9.495013941750937, 55.34715887860425 10.108655082055236 C55.16456121752967 10.389174123803231, 54.981963556455106 10.669693165551227, 54.66523396464064 11.156274872382301 C54.42330739077431 11.4804344413989, 54.18138081690798 11.804594010415501, 53.91758890812658 12.158051136245302 C53.63687506126539 12.487793593838841, 53.3561612144042 12.81753605143238, 53.10729594296866 13.10986736009567 C52.826617015927276 13.39969139643437, 52.5459380888859 13.68951543277307, 52.23768473676799 14.007812326905684 C51.925475721982366 14.29135229353612, 51.61326670719675 14.574892260166557, 51.31232870850189 14.848196188198111 C51.0250851312168 15.077265297210356, 50.7378415539317 15.306334406222604, 50.33503034457871 15.627565626425152 C50.02301067230509 15.845217042689315, 49.71099100003147 16.062868458953478, 49.30980557360571 16.34271804539089 C48.92230306875864 16.57762434104667, 48.53480056391157 16.812530636702444, 48.24086726407678 16.990714730406093 C47.86571465298219 17.186431607317427, 47.49056204188759 17.38214848422876, 47.13260791279239 17.56889292409717 C46.812124513342894 17.710761418231193, 46.49164111389341 17.852629912365213, 45.989581595147804 18.07487676824742 C45.62596805607003 18.208689911834753, 45.26235451699225 18.342503055422082, 44.81648525146062 18.506587066708033 C44.38092975369247 18.63585765216816, 43.94537425592432 18.765128237628286, 43.61813938623541 18.86224982926107 C43.24631227119648 18.94711694187002, 42.874485156157554 19.031984054478972, 42.399468259676766 19.140403561325773 C42.10569822578125 19.18789802218536, 41.81192819188574 19.23539248304495, 41.16547965284788 19.3399052695533 C40.91057987415997 19.364495144641484, 40.655680095472064 19.389085019729674, 39.9212442896239 19.45993515863156 C39.45628673428586 19.47484544244627, 38.99132917894782 19.48975572626098, 38.67187500000001 19.5 C38.67187500000001 19.5, 38.671875 19.5, 38.671875 19.5 C8.400539746872006 19.5, -21.870795506255988 19.5, -38.67187499999999 19.5 C-38.940990398538815 19.491369992970206, -39.21010579707763 19.482739985940412, -39.92124428962389 19.45993515863156 C-40.234806221078514 19.42968621621753, -40.548368152533136 19.399437273803496, -41.16547965284787 19.3399052695533 C-41.61912168326665 19.26656394412168, -42.07276371368542 19.193222618690058, -42.39946825967676 19.140403561325773 C-42.809356573111074 19.046849228555605, -43.2192448865454 18.953294895785437, -43.618139386235384 18.862249829261074 C-44.015543917212234 18.744302250486097, -44.412948448189084 18.62635467171112, -44.81648525146059 18.506587066708043 C-45.22223403308731 18.35726776436879, -45.62798281471403 18.207948462029535, -45.9895815951478 18.074876768247425 C-46.43400028353492 17.878145798110435, -46.878418971922045 17.681414827973448, -47.13260791279238 17.568892924097174 C-47.55285466338363 17.349650463494612, -47.973101413974874 17.13040800289205, -48.24086726407678 16.990714730406097 C-48.54113520968611 16.80869053720741, -48.84140315529543 16.626666344008722, -49.309805573605686 16.3427180453909 C-49.56035430788269 16.167946094439163, -49.81090304215969 15.993174143487426, -50.33503034457871 15.627565626425156 C-50.591263209883046 15.42322673498786, -50.84749607518738 15.218887843550565, -51.312328708501866 14.848196188198125 C-51.64800931851237 14.543339939808826, -51.983689928522885 14.238483691419527, -52.237684736767974 14.007812326905697 C-52.543299593340286 13.692239896048426, -52.8489144499126 13.376667465191153, -53.107295942968655 13.109867360095677 C-53.43125604571698 12.729325389555436, -53.75521614846531 12.348783419015197, -53.917588908126575 12.158051136245307 C-54.09171206793093 11.924741965053663, -54.26583522773529 11.691432793862019, -54.665233964640635 11.156274872382316 C-54.909518024909346 10.780988956354605, -55.15380208517806 10.405703040326895, -55.34715887860425 10.108655082055249 C-55.586896628940295 9.682976430253966, -55.82663437927634 9.257297778452681, -55.960561474273504 9.019496659696289 C-56.09381570888872 8.742791390333917, -56.22706994350394 8.466086120971546, -56.50292114880834 7.893275190886686 C-56.688393802265765 7.435154150977048, -56.87386645572318 6.97703311106741, -56.972009229970325 6.73461856121551 C-57.12069211359663 6.286809405133495, -57.26937499722294 5.839000249051479, -57.36589813421488 5.5482879393051325 C-57.43094682674092 5.3002290824216525, -57.49599551926697 5.052170225538172, -57.68296928754556 4.339158212148136 C-57.742151036810775 4.035272437738396, -57.80133278607599 3.7313866633286548, -57.921919776581774 3.112197953150904 C-57.96262883505241 2.796466534565496, -58.00333789352305 2.4807351159800874, -58.08176770250937 1.872449005199809 C-58.10482675094309 1.5132857129156658, -58.12788579937682 1.1541224206315226, -58.16185621591342 0.6250057626472781 C-58.16185621591342 0.2609291358975797, -58.16185621591342 -0.10314749085211872, -58.16185621591342 -0.6250057626472687 C-58.140845348608316 -0.9522669805910091, -58.11983448130322 -1.2795281985347495, -58.08176770250937 -1.8724490051997822 C-58.031784007944516 -2.2601126698478753, -57.98180031337966 -2.647776334495969, -57.921919776581774 -3.112197953150895 C-57.85751426921109 -3.4429066213905806, -57.7931087618404 -3.773615289630266, -57.68296928754556 -4.339158212148126 C-57.55977318326838 -4.808958351286355, -57.436577078991206 -5.278758490424585, -57.36589813421489 -5.548287939305123 C-57.24006207384642 -5.927286103881469, -57.11422601347795 -6.306284268457816, -56.97200922997033 -6.734618561215485 C-56.86030610839658 -7.0105274311356, -56.74860298682282 -7.286436301055716, -56.50292114880834 -7.893275190886676 C-56.379162947666764 -8.150261743558472, -56.25540474652518 -8.407248296230266, -55.960561474273504 -9.019496659696282 C-55.72213345952898 -9.442849743329697, -55.48370544478446 -9.866202826963114, -55.34715887860425 -10.108655082055243 C-55.139055654253106 -10.428357518198771, -54.930952429901964 -10.7480599543423, -54.66523396464064 -11.156274872382308 C-54.491560052684164 -11.388982092385122, -54.31788614072769 -11.621689312387936, -53.91758890812659 -12.158051136245302 C-53.72588169274778 -12.383241339878834, -53.53417447736896 -12.608431543512367, -53.10729594296866 -13.10986736009567 C-52.920761327880875 -13.302479664950523, -52.73422671279309 -13.495091969805376, -52.237684736767996 -14.007812326905677 C-51.977814787271186 -14.243819339256598, -51.717944837774375 -14.479826351607517, -51.31232870850189 -14.848196188198107 C-50.9514311436511 -15.136002392279075, -50.59053357880031 -15.423808596360042, -50.33503034457872 -15.627565626425149 C-49.974622277878204 -15.87897069194168, -49.61421421117768 -16.13037575745821, -49.309805573605715 -16.342718045390885 C-49.000691819252324 -16.530104619833967, -48.69157806489893 -16.71749119427705, -48.24086726407679 -16.99071473040609 C-47.842270925631595 -17.19866218485981, -47.4436745871864 -17.40660963931353, -47.13260791279239 -17.56889292409717 C-46.89834621574252 -17.672593628254806, -46.664084518692654 -17.77629433241244, -45.989581595147804 -18.07487676824742 C-45.673426211710165 -18.1912248718608, -45.35727082827252 -18.30757297547418, -44.81648525146062 -18.506587066708033 C-44.390664949541744 -18.63296829714118, -43.964844647622876 -18.759349527574322, -43.61813938623541 -18.862249829261067 C-43.3233179184683 -18.929540905389036, -43.028496450701184 -18.99683198151701, -42.399468259676766 -19.140403561325773 C-41.96166489168227 -19.211184214647297, -41.52386152368777 -19.28196486796882, -41.16547965284788 -19.3399052695533 C-40.88972801420378 -19.366506698493428, -40.61397637555968 -19.39310812743356, -39.9212442896239 -19.45993515863156 C-39.65253535924917 -19.468552131018473, -39.38382642887444 -19.477169103405387, -38.67187500000001 -19.5 C-38.67187500000001 -19.5, -38.671875 -19.5, -38.671875 -19.5" stroke="none" stroke-width="0" fill="#ECECFF" style=""/><path d="M-38.671875 -19.5 C-16.384438781004867 -19.5, 5.902997437990265 -19.5, 38.671875 -19.5 M-38.671875 -19.5 C-13.972632607743641 -19.5, 10.726609784512718 -19.5, 38.671875 -19.5 M38.671875 -19.5 C38.671875 -19.5, 38.671875 -19.5, 38.671875 -19.5 M38.671875 -19.5 C38.671875 -19.5, 38.671875 -19.5, 38.671875 -19.5 M38.671875 -19.5 C39.00022561023851 -19.489470435025343, 39.32857622047701 -19.478940870050685, 39.9212442896239 -19.45993515863156 M38.671875 -19.5 C39.04408103470684 -19.488064076922047, 39.416287069413684 -19.476128153844098, 39.9212442896239 -19.45993515863156 M39.9212442896239 -19.45993515863156 C40.3903996838935 -19.414676301988283, 40.85955507816309 -19.369417445345007, 41.165479652847864 -19.3399052695533 M39.9212442896239 -19.45993515863156 C40.20158140685022 -19.432891374087447, 40.481918524076534 -19.405847589543335, 41.165479652847864 -19.3399052695533 M41.165479652847864 -19.3399052695533 C41.41424247068389 -19.299687226350038, 41.663005288519905 -19.259469183146773, 42.39946825967676 -19.140403561325776 M41.165479652847864 -19.3399052695533 C41.44901882142112 -19.294064855657467, 41.73255798999437 -19.24822444176164, 42.39946825967676 -19.140403561325776 M42.39946825967676 -19.140403561325776 C42.77225365250735 -19.055317728064225, 43.145039045337946 -18.970231894802673, 43.61813938623539 -18.862249829261074 M42.39946825967676 -19.140403561325776 C42.809962223583014 -19.046710992787627, 43.22045618748926 -18.95301842424948, 43.61813938623539 -18.862249829261074 M43.61813938623539 -18.862249829261074 C44.027283924143575 -18.74081787805343, 44.43642846205176 -18.619385926845787, 44.816485251460605 -18.50658706670804 M43.61813938623539 -18.862249829261074 C43.931219757474395 -18.769329218469743, 44.24430012871339 -18.67640860767841, 44.816485251460605 -18.50658706670804 M44.816485251460605 -18.50658706670804 C45.089698683467894 -18.406041998172075, 45.36291211547519 -18.305496929636114, 45.9895815951478 -18.074876768247425 M44.816485251460605 -18.50658706670804 C45.159431654075995 -18.38037962038378, 45.502378056691384 -18.254172174059523, 45.9895815951478 -18.074876768247425 M45.9895815951478 -18.074876768247425 C46.251028635989314 -17.959141918817796, 46.512475676830825 -17.84340706938817, 47.13260791279238 -17.568892924097174 M45.9895815951478 -18.074876768247425 C46.30429129526148 -17.93556411953866, 46.61900099537515 -17.796251470829898, 47.13260791279238 -17.568892924097174 M47.13260791279238 -17.568892924097174 C47.561843992867594 -17.344960736060766, 47.9910800729428 -17.121028548024363, 48.24086726407678 -16.990714730406097 M47.13260791279238 -17.568892924097174 C47.4948214924048 -17.379926331622244, 47.85703507201723 -17.19095973914731, 48.24086726407678 -16.990714730406097 M48.24086726407678 -16.990714730406097 C48.58659753430827 -16.781131008855183, 48.93232780453975 -16.57154728730427, 49.3098055736057 -16.342718045390892 M48.24086726407678 -16.990714730406097 C48.65756874950605 -16.738107841129136, 49.07427023493531 -16.48550095185217, 49.3098055736057 -16.342718045390892 M49.3098055736057 -16.342718045390892 C49.65721034158762 -16.100383518156725, 50.00461510956954 -15.858048990922558, 50.33503034457871 -15.627565626425154 M49.3098055736057 -16.342718045390892 C49.56631323881969 -16.163789402175475, 49.82282090403368 -15.984860758960057, 50.33503034457871 -15.627565626425154 M50.33503034457871 -15.627565626425154 C50.60800417810531 -15.409876258326474, 50.88097801163191 -15.192186890227793, 51.312328708501866 -14.848196188198123 M50.33503034457871 -15.627565626425154 C50.600080679008435 -15.416195038003067, 50.86513101343816 -15.20482444958098, 51.312328708501866 -14.848196188198123 M51.312328708501866 -14.848196188198123 C51.543124813029124 -14.638593272596768, 51.77392091755638 -14.428990356995413, 52.23768473676799 -14.007812326905688 M51.312328708501866 -14.848196188198123 C51.56779529984488 -14.616188189216011, 51.82326189118789 -14.384180190233899, 52.23768473676799 -14.007812326905688 M52.23768473676799 -14.007812326905688 C52.52341686523254 -13.712770445222013, 52.809148993697086 -13.41772856353834, 53.10729594296865 -13.10986736009568 M52.23768473676799 -14.007812326905688 C52.47879408008947 -13.75884713448102, 52.71990342341096 -13.509881942056353, 53.10729594296865 -13.10986736009568 M53.10729594296865 -13.10986736009568 C53.34888227157309 -12.826086311865385, 53.59046860017752 -12.54230526363509, 53.91758890812658 -12.158051136245305 M53.10729594296865 -13.10986736009568 C53.4229548201908 -12.7390764814116, 53.73861369741296 -12.368285602727518, 53.91758890812658 -12.158051136245305 M53.91758890812658 -12.158051136245305 C54.140161879445834 -11.85982363149233, 54.36273485076508 -11.561596126739355, 54.665233964640635 -11.156274872382312 M53.91758890812658 -12.158051136245305 C54.127807517604005 -11.876377350854863, 54.33802612708142 -11.594703565464421, 54.665233964640635 -11.156274872382312 M54.665233964640635 -11.156274872382312 C54.839026783093466 -10.889282433332607, 55.0128196015463 -10.622289994282902, 55.34715887860425 -10.108655082055241 M54.665233964640635 -11.156274872382312 C54.832146218322876 -10.899852828510578, 54.99905847200511 -10.643430784638847, 55.34715887860425 -10.108655082055241 M55.34715887860425 -10.108655082055241 C55.52336642514299 -9.795780740226792, 55.69957397168174 -9.482906398398345, 55.960561474273504 -9.019496659696287 M55.34715887860425 -10.108655082055241 C55.49612874942183 -9.844143991583465, 55.64509862023941 -9.579632901111687, 55.960561474273504 -9.019496659696287 M55.960561474273504 -9.019496659696287 C56.11684291270603 -8.694974908904042, 56.273124351138556 -8.370453158111795, 56.50292114880834 -7.893275190886684 M55.960561474273504 -9.019496659696287 C56.17061055041969 -8.583325258748486, 56.380659626565865 -8.147153857800685, 56.50292114880834 -7.893275190886684 M56.50292114880834 -7.893275190886684 C56.62173089598568 -7.599812818328464, 56.740540643163015 -7.306350445770242, 56.972009229970325 -6.734618561215508 M56.50292114880834 -7.893275190886684 C56.60812090808813 -7.633429751566617, 56.713320667367924 -7.373584312246551, 56.972009229970325 -6.734618561215508 M56.972009229970325 -6.734618561215508 C57.11781036940716 -6.295488759488609, 57.26361150884399 -5.856358957761709, 57.36589813421488 -5.548287939305138 M56.972009229970325 -6.734618561215508 C57.07728888957622 -6.41753300051836, 57.18256854918211 -6.100447439821211, 57.36589813421488 -5.548287939305138 M57.36589813421488 -5.548287939305138 C57.44082758815034 -5.262549456818472, 57.5157570420858 -4.976810974331805, 57.68296928754556 -4.339158212148133 M57.36589813421488 -5.548287939305138 C57.45715375477992 -5.200290707654523, 57.54840937534495 -4.852293476003908, 57.68296928754556 -4.339158212148133 M57.68296928754556 -4.339158212148133 C57.75220037374069 -3.983671216531393, 57.821431459935816 -3.628184220914653, 57.921919776581774 -3.1121979531509023 M57.68296928754556 -4.339158212148133 C57.76534082070552 -3.916197798601449, 57.847712353865475 -3.4932373850547647, 57.921919776581774 -3.1121979531509023 M57.921919776581774 -3.1121979531509023 C57.95762544062202 -2.8352718737356652, 57.99333110466226 -2.558345794320428, 58.08176770250937 -1.872449005199798 M57.921919776581774 -3.1121979531509023 C57.97568365193196 -2.695215952812929, 58.02944752728214 -2.2782339524749564, 58.08176770250937 -1.872449005199798 M58.08176770250937 -1.872449005199798 C58.104024963635034 -1.5257741974297228, 58.1262822247607 -1.1790993896596476, 58.16185621591342 -0.6250057626472757 M58.08176770250937 -1.872449005199798 C58.10359138850656 -1.5325274800312934, 58.12541507450375 -1.1926059548627888, 58.16185621591342 -0.6250057626472757 M58.16185621591342 -0.6250057626472757 C58.16185621591342 -0.22111415908337867, 58.16185621591342 0.18277744448051836, 58.16185621591342 0.625005762647271 M58.16185621591342 -0.6250057626472757 C58.16185621591342 -0.138628057484753, 58.16185621591342 0.3477496476777697, 58.16185621591342 0.625005762647271 M58.16185621591342 0.625005762647271 C58.13003616384999 1.1206287582189105, 58.098216111786556 1.61625175379055, 58.08176770250937 1.8724490051997846 M58.16185621591342 0.625005762647271 C58.13684216685265 1.0146197677456787, 58.11182811779189 1.4042337728440866, 58.08176770250937 1.8724490051997846 M58.08176770250937 1.8724490051997846 C58.02756883277722 2.292804736064902, 57.97336996304507 2.7131604669300193, 57.921919776581774 3.1121979531508885 M58.08176770250937 1.8724490051997846 C58.02897701242376 2.281883172802902, 57.976186322338144 2.691317340406019, 57.921919776581774 3.1121979531508885 M57.921919776581774 3.1121979531508885 C57.87012656329859 3.3781451568605245, 57.818333350015415 3.6440923605701605, 57.68296928754556 4.339158212148129 M57.921919776581774 3.1121979531508885 C57.86121942321181 3.4238814386814527, 57.80051906984184 3.735564924212017, 57.68296928754556 4.339158212148129 M57.68296928754556 4.339158212148129 C57.58952269209706 4.695510580603925, 57.49607609664856 5.05186294905972, 57.36589813421489 5.548287939305125 M57.68296928754556 4.339158212148129 C57.61884502369849 4.5836918218287614, 57.55472075985142 4.828225431509395, 57.36589813421489 5.548287939305125 M57.36589813421489 5.548287939305125 C57.2584616028867 5.8718696539789965, 57.1510250715585 6.1954513686528685, 56.972009229970325 6.734618561215495 M57.36589813421489 5.548287939305125 C57.26480306533836 5.8527701794494105, 57.16370799646183 6.1572524195936955, 56.972009229970325 6.734618561215495 M56.972009229970325 6.734618561215495 C56.79410572130312 7.174043667153842, 56.61620221263592 7.6134687730921895, 56.50292114880834 7.893275190886679 M56.972009229970325 6.734618561215495 C56.81975461504121 7.110690403733139, 56.66750000011209 7.486762246250785, 56.50292114880834 7.893275190886679 M56.50292114880834 7.893275190886679 C56.37568348124844 8.157486930024774, 56.248445813688534 8.42169866916287, 55.960561474273504 9.019496659696284 M56.50292114880834 7.893275190886679 C56.29535329245166 8.32429428585199, 56.087785436094975 8.7553133808173, 55.960561474273504 9.019496659696284 M55.960561474273504 9.019496659696284 C55.72758027669896 9.433178367894353, 55.49459907912442 9.846860076092424, 55.34715887860425 10.108655082055236 M55.960561474273504 9.019496659696284 C55.751094697759186 9.3914261322086, 55.54162792124486 9.76335560472092, 55.34715887860425 10.108655082055236 M55.34715887860425 10.108655082055236 C55.09667627849356 10.49346361982123, 54.846193678382875 10.878272157587224, 54.66523396464064 11.156274872382301 M55.34715887860425 10.108655082055236 C55.16005104320042 10.396102962724362, 54.97294320779658 10.683550843393487, 54.66523396464064 11.156274872382301 M54.66523396464064 11.156274872382301 C54.41729881860659 11.488485380711463, 54.16936367257254 11.820695889040627, 53.91758890812658 12.158051136245302 M54.66523396464064 11.156274872382301 C54.382148876903834 11.535583100367594, 54.09906378916702 11.914891328352887, 53.91758890812658 12.158051136245302 M53.91758890812658 12.158051136245302 C53.738772818351144 12.368098690219282, 53.559956728575706 12.578146244193263, 53.10729594296866 13.10986736009567 M53.91758890812658 12.158051136245302 C53.69802730761327 12.415960685617229, 53.478465707099964 12.673870234989158, 53.10729594296866 13.10986736009567 M53.10729594296866 13.10986736009567 C52.85553099201961 13.369835342237453, 52.60376604107056 13.629803324379235, 52.23768473676799 14.007812326905684 M53.10729594296866 13.10986736009567 C52.875406912486454 13.34931182251202, 52.64351788200425 13.588756284928369, 52.23768473676799 14.007812326905684 M52.23768473676799 14.007812326905684 C51.92401921650623 14.292675053272527, 51.610353696244474 14.57753777963937, 51.31232870850189 14.848196188198111 M52.23768473676799 14.007812326905684 C51.93017742525003 14.28708233102868, 51.62267011373208 14.566352335151677, 51.31232870850189 14.848196188198111 M51.31232870850189 14.848196188198111 C50.96582250973802 15.124525660795094, 50.61931631097415 15.400855133392076, 50.33503034457871 15.627565626425152 M51.31232870850189 14.848196188198111 C50.933605684574296 15.150217721537436, 50.55488266064671 15.45223925487676, 50.33503034457871 15.627565626425152 M50.33503034457871 15.627565626425152 C49.9617738782153 15.887933179348263, 49.58851741185189 16.148300732271373, 49.30980557360571 16.34271804539089 M50.33503034457871 15.627565626425152 C50.10068485660747 15.791034894181218, 49.86633936863624 15.954504161937281, 49.30980557360571 16.34271804539089 M49.30980557360571 16.34271804539089 C48.93885580764956 16.5675899734563, 48.56790604169341 16.79246190152171, 48.24086726407678 16.990714730406093 M49.30980557360571 16.34271804539089 C49.01764516371479 16.519827402791908, 48.725484753823864 16.69693676019293, 48.24086726407678 16.990714730406093 M48.24086726407678 16.990714730406093 C47.80371831858019 17.218775055264405, 47.366569373083586 17.446835380122717, 47.13260791279239 17.56889292409717 M48.24086726407678 16.990714730406093 C47.98942032483351 17.12189443754986, 47.73797338559024 17.25307414469362, 47.13260791279239 17.56889292409717 M47.13260791279239 17.56889292409717 C46.85732037510191 17.690754550918083, 46.582032837411425 17.812616177738995, 45.989581595147804 18.07487676824742 M47.13260791279239 17.56889292409717 C46.8475249624612 17.695090689523532, 46.562442012130006 17.821288454949894, 45.989581595147804 18.07487676824742 M45.989581595147804 18.07487676824742 C45.62696447805202 18.208323219334556, 45.26434736095622 18.341769670421694, 44.81648525146062 18.506587066708033 M45.989581595147804 18.07487676824742 C45.57835820257939 18.22621077801997, 45.16713481001097 18.377544787792516, 44.81648525146062 18.506587066708033 M44.81648525146062 18.506587066708033 C44.543516319905216 18.587602812750514, 44.27054738834982 18.668618558793, 43.61813938623541 18.86224982926107 M44.81648525146062 18.506587066708033 C44.51717360133461 18.59542119334652, 44.21786195120861 18.684255319985006, 43.61813938623541 18.86224982926107 M43.61813938623541 18.86224982926107 C43.32979921987802 18.928061590636716, 43.04145905352063 18.993873352012358, 42.399468259676766 19.140403561325773 M43.61813938623541 18.86224982926107 C43.253790492680395 18.945410086616274, 42.88944159912537 19.02857034397148, 42.399468259676766 19.140403561325773 M42.399468259676766 19.140403561325773 C42.10314464039715 19.188310866066914, 41.80682102111753 19.236218170808055, 41.16547965284788 19.3399052695533 M42.399468259676766 19.140403561325773 C41.92429376945733 19.217226087871243, 41.4491192792379 19.294048614416713, 41.16547965284788 19.3399052695533 M41.16547965284788 19.3399052695533 C40.903758064928546 19.365153236373615, 40.642036477009206 19.39040120319393, 39.9212442896239 19.45993515863156 M41.16547965284788 19.3399052695533 C40.80874856288654 19.374318688769964, 40.452017472925206 19.40873210798663, 39.9212442896239 19.45993515863156 M39.9212442896239 19.45993515863156 C39.528740316782475 19.472521997077948, 39.13623634394105 19.485108835524336, 38.67187500000001 19.5 M39.9212442896239 19.45993515863156 C39.50812822628497 19.4731829867012, 39.095012162946034 19.486430814770845, 38.67187500000001 19.5 M38.67187500000001 19.5 C38.67187500000001 19.5, 38.671875 19.5, 38.671875 19.5 M38.67187500000001 19.5 C38.67187500000001 19.5, 38.671875 19.5, 38.671875 19.5 M38.671875 19.5 C17.113351371261555 19.5, -4.445172257476891 19.5, -38.67187499999999 19.5 M38.671875 19.5 C10.411706254421535 19.5, -17.84846249115693 19.5, -38.67187499999999 19.5 M-38.67187499999999 19.5 C-39.0842979216016 19.486774399636754, -39.496720843203214 19.47354879927351, -39.92124428962389 19.45993515863156 M-38.67187499999999 19.5 C-38.97098831397939 19.49040801820943, -39.27010162795879 19.480816036418855, -39.92124428962389 19.45993515863156 M-39.92124428962389 19.45993515863156 C-40.184350699209126 19.434553599730624, -40.44745710879437 19.40917204082969, -41.16547965284787 19.3399052695533 M-39.92124428962389 19.45993515863156 C-40.292054777874206 19.42416351679491, -40.66286526612451 19.388391874958263, -41.16547965284787 19.3399052695533 M-41.16547965284787 19.3399052695533 C-41.63966537273175 19.263242599727654, -42.11385109261562 19.186579929902006, -42.39946825967676 19.140403561325773 M-41.16547965284787 19.3399052695533 C-41.41438546297324 19.299664108465613, -41.663291273098615 19.25942294737793, -42.39946825967676 19.140403561325773 M-42.39946825967676 19.140403561325773 C-42.87374154611122 19.032153778619538, -43.34801483254569 18.9239039959133, -43.618139386235384 18.862249829261074 M-42.39946825967676 19.140403561325773 C-42.69772421059148 19.072328586831457, -42.99598016150621 19.00425361233714, -43.618139386235384 18.862249829261074 M-43.618139386235384 18.862249829261074 C-43.96039620801354 18.760669801100036, -44.302653029791706 18.659089772938998, -44.81648525146059 18.506587066708043 M-43.618139386235384 18.862249829261074 C-44.05058728745676 18.733901562143927, -44.48303518867813 18.60555329502678, -44.81648525146059 18.506587066708043 M-44.81648525146059 18.506587066708043 C-45.11580687882775 18.396433940938138, -45.415128506194904 18.286280815168233, -45.9895815951478 18.074876768247425 M-44.81648525146059 18.506587066708043 C-45.1931136859431 18.367984321303393, -45.56974212042562 18.229381575898746, -45.9895815951478 18.074876768247425 M-45.9895815951478 18.074876768247425 C-46.3443181402428 17.9178454226196, -46.69905468533779 17.760814076991775, -47.13260791279238 17.568892924097174 M-45.9895815951478 18.074876768247425 C-46.22480602931725 17.97074988892553, -46.4600304634867 17.866623009603636, -47.13260791279238 17.568892924097174 M-47.13260791279238 17.568892924097174 C-47.47981386894048 17.38775579917074, -47.827019825088584 17.206618674244304, -48.24086726407678 16.990714730406097 M-47.13260791279238 17.568892924097174 C-47.55868591524311 17.346608303134616, -47.98476391769383 17.124323682172058, -48.24086726407678 16.990714730406097 M-48.24086726407678 16.990714730406097 C-48.507644265973866 16.828992944100403, -48.77442126787095 16.66727115779471, -49.309805573605686 16.3427180453909 M-48.24086726407678 16.990714730406097 C-48.58305401692988 16.78327910991398, -48.925240769782974 16.575843489421864, -49.309805573605686 16.3427180453909 M-49.309805573605686 16.3427180453909 C-49.575080803474926 16.15767352861374, -49.84035603334416 15.97262901183658, -50.33503034457871 15.627565626425156 M-49.309805573605686 16.3427180453909 C-49.68830091538277 16.078696079766477, -50.06679625715986 15.814674114142052, -50.33503034457871 15.627565626425156 M-50.33503034457871 15.627565626425156 C-50.72225526079278 15.318764060232215, -51.10948017700685 15.009962494039275, -51.312328708501866 14.848196188198125 M-50.33503034457871 15.627565626425156 C-50.564007542981734 15.444962404037899, -50.79298474138476 15.26235918165064, -51.312328708501866 14.848196188198125 M-51.312328708501866 14.848196188198125 C-51.636007310654946 14.554239845789215, -51.95968591280803 14.260283503380307, -52.237684736767974 14.007812326905697 M-51.312328708501866 14.848196188198125 C-51.64488079962946 14.546181177882213, -51.97743289075706 14.244166167566298, -52.237684736767974 14.007812326905697 M-52.237684736767974 14.007812326905697 C-52.47426389317823 13.763524924402141, -52.71084304958848 13.519237521898585, -53.107295942968655 13.109867360095677 M-52.237684736767974 14.007812326905697 C-52.43828298188403 13.80067816940116, -52.63888122700008 13.593544011896624, -53.107295942968655 13.109867360095677 M-53.107295942968655 13.109867360095677 C-53.35483700036023 12.819091548598346, -53.6023780577518 12.528315737101014, -53.917588908126575 12.158051136245307 M-53.107295942968655 13.109867360095677 C-53.41972477584033 12.742870675300393, -53.73215360871201 12.37587399050511, -53.917588908126575 12.158051136245307 M-53.917588908126575 12.158051136245307 C-54.08984011300176 11.927250214120148, -54.262091317876944 11.69644929199499, -54.665233964640635 11.156274872382316 M-53.917588908126575 12.158051136245307 C-54.16699647834825 11.823867713645337, -54.41640404856993 11.489684291045364, -54.665233964640635 11.156274872382316 M-54.665233964640635 11.156274872382316 C-54.918365137281604 10.767397415968507, -55.17149630992257 10.378519959554698, -55.34715887860425 10.108655082055249 M-54.665233964640635 11.156274872382316 C-54.88245934917981 10.822558348546975, -55.09968473371899 10.488841824711635, -55.34715887860425 10.108655082055249 M-55.34715887860425 10.108655082055249 C-55.55501628191902 9.739583214625428, -55.7628736852338 9.370511347195608, -55.960561474273504 9.019496659696289 M-55.34715887860425 10.108655082055249 C-55.4923363368975 9.850877804043826, -55.637513795190756 9.593100526032401, -55.960561474273504 9.019496659696289 M-55.960561474273504 9.019496659696289 C-56.070321820814556 8.791576951608596, -56.180082167355614 8.563657243520902, -56.50292114880834 7.893275190886686 M-55.960561474273504 9.019496659696289 C-56.10797255635268 8.713394393667002, -56.25538363843185 8.407292127637717, -56.50292114880834 7.893275190886686 M-56.50292114880834 7.893275190886686 C-56.62167924373721 7.599940400380803, -56.740437338666084 7.30660560987492, -56.972009229970325 6.73461856121551 M-56.50292114880834 7.893275190886686 C-56.62937941457026 7.580920829550503, -56.75583768033218 7.26856646821432, -56.972009229970325 6.73461856121551 M-56.972009229970325 6.73461856121551 C-57.07306919469325 6.430242049188786, -57.17412915941617 6.1258655371620625, -57.36589813421488 5.5482879393051325 M-56.972009229970325 6.73461856121551 C-57.07288560570375 6.430794989974204, -57.17376198143719 6.126971418732897, -57.36589813421488 5.5482879393051325 M-57.36589813421488 5.5482879393051325 C-57.44068771882005 5.263082839194602, -57.51547730342523 4.97787773908407, -57.68296928754556 4.339158212148136 M-57.36589813421488 5.5482879393051325 C-57.47608602371655 5.128093760901895, -57.58627391321821 4.707899582498658, -57.68296928754556 4.339158212148136 M-57.68296928754556 4.339158212148136 C-57.767076925868224 3.9072832655169027, -57.85118456419089 3.4754083188856697, -57.921919776581774 3.112197953150904 M-57.68296928754556 4.339158212148136 C-57.77839332912365 3.8491759265229435, -57.87381737070175 3.3591936408977516, -57.921919776581774 3.112197953150904 M-57.921919776581774 3.112197953150904 C-57.95664627250011 2.8428661083305844, -57.99137276841844 2.5735342635102647, -58.08176770250937 1.872449005199809 M-57.921919776581774 3.112197953150904 C-57.984594384479855 2.626106070794626, -58.04726899237793 2.1400141884383483, -58.08176770250937 1.872449005199809 M-58.08176770250937 1.872449005199809 C-58.111086245484906 1.4157890328538323, -58.14040478846045 0.9591290605078557, -58.16185621591342 0.6250057626472781 M-58.08176770250937 1.872449005199809 C-58.113734897677475 1.3745341370010804, -58.145702092845575 0.8766192688023515, -58.16185621591342 0.6250057626472781 M-58.16185621591342 0.6250057626472781 C-58.16185621591342 0.2873116548529561, -58.16185621591342 -0.050382452941365896, -58.16185621591342 -0.6250057626472687 M-58.16185621591342 0.6250057626472781 C-58.16185621591342 0.3530834456573814, -58.16185621591342 0.0811611286674847, -58.16185621591342 -0.6250057626472687 M-58.16185621591342 -0.6250057626472687 C-58.137302686632545 -1.0074468004489403, -58.11274915735167 -1.389887838250612, -58.08176770250937 -1.8724490051997822 M-58.16185621591342 -0.6250057626472687 C-58.14379829721717 -0.9062724224309507, -58.12574037852092 -1.1875390822146328, -58.08176770250937 -1.8724490051997822 M-58.08176770250937 -1.8724490051997822 C-58.03287340699947 -2.25166350590377, -57.98397911148958 -2.630878006607759, -57.921919776581774 -3.112197953150895 M-58.08176770250937 -1.8724490051997822 C-58.04262518439556 -2.176030646125999, -58.00348266628175 -2.479612287052216, -57.921919776581774 -3.112197953150895 M-57.921919776581774 -3.112197953150895 C-57.872055589413655 -3.3682400154595045, -57.82219140224554 -3.6242820777681133, -57.68296928754556 -4.339158212148126 M-57.921919776581774 -3.112197953150895 C-57.838009180374726 -3.543061130163291, -57.754098584167686 -3.973924307175687, -57.68296928754556 -4.339158212148126 M-57.68296928754556 -4.339158212148126 C-57.595122645935625 -4.674155529582117, -57.507276004325696 -5.009152847016107, -57.36589813421489 -5.548287939305123 M-57.68296928754556 -4.339158212148126 C-57.59585193016627 -4.67137445273689, -57.50873457278698 -5.003590693325654, -57.36589813421489 -5.548287939305123 M-57.36589813421489 -5.548287939305123 C-57.273499656095005 -5.826577433703961, -57.18110117797512 -6.104866928102799, -56.97200922997033 -6.734618561215485 M-57.36589813421489 -5.548287939305123 C-57.225361662723714 -5.971561399990621, -57.08482519123254 -6.39483486067612, -56.97200922997033 -6.734618561215485 M-56.97200922997033 -6.734618561215485 C-56.83755492503902 -7.066723293892965, -56.70310062010771 -7.398828026570445, -56.50292114880834 -7.893275190886676 M-56.97200922997033 -6.734618561215485 C-56.829952420547656 -7.085501626971066, -56.68789561112498 -7.436384692726646, -56.50292114880834 -7.893275190886676 M-56.50292114880834 -7.893275190886676 C-56.35322784326616 -8.20411654276865, -56.20353453772399 -8.514957894650625, -55.960561474273504 -9.019496659696282 M-56.50292114880834 -7.893275190886676 C-56.32398788721341 -8.26483393714702, -56.145054625618485 -8.636392683407365, -55.960561474273504 -9.019496659696282 M-55.960561474273504 -9.019496659696282 C-55.82289044777915 -9.263945507940118, -55.68521942128479 -9.508394356183956, -55.34715887860425 -10.108655082055243 M-55.960561474273504 -9.019496659696282 C-55.79938782851597 -9.30567678834017, -55.638214182758425 -9.591856916984058, -55.34715887860425 -10.108655082055243 M-55.34715887860425 -10.108655082055243 C-55.148381266206435 -10.414030873961018, -54.949603653808616 -10.71940666586679, -54.66523396464064 -11.156274872382308 M-55.34715887860425 -10.108655082055243 C-55.13522561358682 -10.43424148917211, -54.92329234856939 -10.759827896288975, -54.66523396464064 -11.156274872382308 M-54.66523396464064 -11.156274872382308 C-54.43103755984929 -11.470076719071328, -54.19684115505794 -11.783878565760347, -53.91758890812659 -12.158051136245302 M-54.66523396464064 -11.156274872382308 C-54.42583112096858 -11.477052872855142, -54.186428277296514 -11.797830873327975, -53.91758890812659 -12.158051136245302 M-53.91758890812659 -12.158051136245302 C-53.6279405861913 -12.498288536646907, -53.33829226425601 -12.838525937048514, -53.10729594296866 -13.10986736009567 M-53.91758890812659 -12.158051136245302 C-53.60810865872241 -12.521584247120513, -53.29862840931822 -12.885117357995725, -53.10729594296866 -13.10986736009567 M-53.10729594296866 -13.10986736009567 C-52.812344091315495 -13.41442936292494, -52.51739223966233 -13.718991365754208, -52.237684736767996 -14.007812326905677 M-53.10729594296866 -13.10986736009567 C-52.866622686664236 -13.358382256871808, -52.62594943035982 -13.606897153647948, -52.237684736767996 -14.007812326905677 M-52.237684736767996 -14.007812326905677 C-51.94787822057279 -14.271006937053928, -51.65807170437759 -14.534201547202178, -51.31232870850189 -14.848196188198107 M-52.237684736767996 -14.007812326905677 C-51.92708380919687 -14.289891871275566, -51.61648288162574 -14.571971415645454, -51.31232870850189 -14.848196188198107 M-51.31232870850189 -14.848196188198107 C-50.97034614114126 -15.120918185129888, -50.628363573780646 -15.393640182061668, -50.33503034457872 -15.627565626425149 M-51.31232870850189 -14.848196188198107 C-51.00603884358223 -15.092454204755922, -50.69974897866257 -15.336712221313737, -50.33503034457872 -15.627565626425149 M-50.33503034457872 -15.627565626425149 C-50.1290646446331 -15.771238382595767, -49.923098944687474 -15.914911138766385, -49.309805573605715 -16.342718045390885 M-50.33503034457872 -15.627565626425149 C-50.06884196460942 -15.813247117182486, -49.80265358464011 -15.998928607939824, -49.309805573605715 -16.342718045390885 M-49.309805573605715 -16.342718045390885 C-49.013372488560485 -16.522417523579474, -48.71693940351525 -16.702117001768066, -48.24086726407679 -16.99071473040609 M-49.309805573605715 -16.342718045390885 C-49.042798066368334 -16.504579565388468, -48.77579055913095 -16.66644108538605, -48.24086726407679 -16.99071473040609 M-48.24086726407679 -16.99071473040609 C-47.96439506174553 -17.13495010127341, -47.68792285941427 -17.279185472140735, -47.13260791279239 -17.56889292409717 M-48.24086726407679 -16.99071473040609 C-47.835967941480675 -17.20195044765409, -47.43106861888455 -17.413186164902093, -47.13260791279239 -17.56889292409717 M-47.13260791279239 -17.56889292409717 C-46.86010082374483 -17.68952372878294, -46.587593734697265 -17.81015453346871, -45.989581595147804 -18.07487676824742 M-47.13260791279239 -17.56889292409717 C-46.756553728645514 -17.735360956167966, -46.38049954449865 -17.90182898823876, -45.989581595147804 -18.07487676824742 M-45.989581595147804 -18.07487676824742 C-45.64017523801988 -18.203461537547454, -45.29076888089196 -18.332046306847488, -44.81648525146062 -18.506587066708033 M-45.989581595147804 -18.07487676824742 C-45.55933994512898 -18.233209672564563, -45.12909829511016 -18.391542576881704, -44.81648525146062 -18.506587066708033 M-44.81648525146062 -18.506587066708033 C-44.49973176373987 -18.600597839190566, -44.182978276019114 -18.6946086116731, -43.61813938623541 -18.862249829261067 M-44.81648525146062 -18.506587066708033 C-44.44235161770001 -18.617627965340663, -44.068217983939405 -18.728668863973294, -43.61813938623541 -18.862249829261067 M-43.61813938623541 -18.862249829261067 C-43.30551343462796 -18.93360466264048, -42.99288748302051 -19.00495949601989, -42.399468259676766 -19.140403561325773 M-43.61813938623541 -18.862249829261067 C-43.28016616286716 -18.939390012013476, -42.9421929394989 -19.016530194765885, -42.399468259676766 -19.140403561325773 M-42.399468259676766 -19.140403561325773 C-42.079454488229864 -19.192140906149447, -41.759440716782954 -19.24387825097312, -41.16547965284788 -19.3399052695533 M-42.399468259676766 -19.140403561325773 C-42.12445523156614 -19.184865534952813, -41.8494422034555 -19.229327508579853, -41.16547965284788 -19.3399052695533 M-41.16547965284788 -19.3399052695533 C-40.717544670716265 -19.383117018558902, -40.26960968858465 -19.426328767564506, -39.9212442896239 -19.45993515863156 M-41.16547965284788 -19.3399052695533 C-40.70601075560233 -19.38422968147838, -40.24654185835677 -19.428554093403463, -39.9212442896239 -19.45993515863156 M-39.9212442896239 -19.45993515863156 C-39.51500600723069 -19.472962429653062, -39.10876772483747 -19.485989700674562, -38.67187500000001 -19.5 M-39.9212442896239 -19.45993515863156 C-39.52541799478744 -19.47262853747782, -39.129591699950986 -19.485321916324082, -38.67187500000001 -19.5 M-38.67187500000001 -19.5 C-38.67187500000001 -19.5, -38.671875 -19.5, -38.671875 -19.5 M-38.67187500000001 -19.5 C-38.67187500000001 -19.5, -38.67187500000001 -19.5, -38.671875 -19.5" stroke="#9370DB" stroke-width="1.3" fill="none" stroke-dasharray="0 0" style=""/></g><g class="label" style="" transform="translate(-45.796875, -12)"><rect/><foreignObject width="91.59375" height="24"><div xmlns="http://www.w3.org/1999/xhtml" style="display: table-cell; white-space: nowrap; line-height: 1.5; max-width: 200px; text-align: center;"><span class="nodeLabel"><p>soi : ReelCut</p></span></div></foreignObject></g></g><g class="node default" id="my-svg-flowchart-CR-8" data-look="classic" transform="translate(1897.5234375, 56)"><rect class="basic label-container" style="" x="-88.2421875" y="-27" width="176.484375" height="54"/><g class="label" style="" transform="translate(-58.2421875, -12)"><rect/><foreignObject width="116.484375" height="24"><div xmlns="http://www.w3.org/1999/xhtml" style="display: table-cell; white-space: nowrap; line-height: 1.5; max-width: 200px; text-align: center;"><span class="nodeLabel"><p>creator : Creator</p></span></div></foreignObject></g></g><g class="node default" id="my-svg-flowchart-BR-9" data-look="classic" transform="translate(1511, 56)"><rect class="basic label-container" style="" x="-110.765625" y="-27" width="221.53125" height="54"/><g class="label" style="" transform="translate(-80.765625, -12)"><rect/><foreignObject width="161.53125" height="24"><div xmlns="http://www.w3.org/1999/xhtml" style="display: table-cell; white-space: nowrap; line-height: 1.5; max-width: 200px; text-align: center;"><span class="nodeLabel"><p>browser : WebBrowser</p></span></div></foreignObject></g></g><g class="node default" id="my-svg-flowchart-FF-17" data-look="classic" transform="translate(1511, 180)"><rect class="basic label-container" style="" x="-90.765625" y="-27" width="181.53125" height="54"/><g class="label" style="" transform="translate(-60.765625, -12)"><rect/><foreignObject width="121.53125" height="24"><div xmlns="http://www.w3.org/1999/xhtml" style="display: table-cell; white-space: nowrap; line-height: 1.5; max-width: 200px; text-align: center;"><span class="nodeLabel"><p>ffmpeg : FFmpeg</p></span></div></foreignObject></g></g><g class="node default" id="my-svg-flowchart-WH-21" data-look="classic" transform="translate(1511, 292)"><rect class="basic label-container" style="" x="-113.5859375" y="-27" width="227.171875" height="54"/><g class="label" style="" transform="translate(-83.5859375, -12)"><rect/><foreignObject width="167.171875" height="24"><div xmlns="http://www.w3.org/1999/xhtml" style="display: table-cell; white-space: nowrap; line-height: 1.5; max-width: 200px; text-align: center;"><span class="nodeLabel"><p>asr : WhisperASR [0..1]</p></span></div></foreignObject></g></g><g class="node default" id="my-svg-flowchart-PUB-25" data-look="classic" transform="translate(1015.6171875, 304)"><rect class="basic label-container" style="" x="-115.3828125" y="-27" width="230.765625" height="54"/><g class="label" style="" transform="translate(-85.3828125, -12)"><rect/><foreignObject width="170.765625" height="24"><div xmlns="http://www.w3.org/1999/xhtml" style="display: table-cell; white-space: nowrap; line-height: 1.5; max-width: 200px; text-align: center;"><span class="nodeLabel"><p>publish : PublishingDest</p></span></div></foreignObject></g></g><g class="node default" id="my-svg-flowchart-VW-27" data-look="classic" transform="translate(1015.6171875, 408)"><rect class="basic label-container" style="" x="-84.09375" y="-27" width="168.1875" height="54"/><g class="label" style="" transform="translate(-54.09375, -12)"><rect/><foreignObject width="108.1875" height="24"><div xmlns="http://www.w3.org/1999/xhtml" style="display: table-cell; white-space: nowrap; line-height: 1.5; max-width: 200px; text-align: center;"><span class="nodeLabel"><p>viewer : Viewer</p></span></div></foreignObject></g></g><g class="node default" id="my-svg-flowchart-MOB-29" data-look="classic" transform="translate(1511, 408)"><rect class="basic label-container" style="" x="-130" y="-39" width="260" height="78"/><g class="label" style="" transform="translate(-100, -24)"><rect/><foreignObject width="200" height="48"><div xmlns="http://www.w3.org/1999/xhtml" style="display: table; white-space: break-spaces; line-height: 1.5; max-width: 200px; text-align: center; width: 200px;"><span class="nodeLabel"><p>android / iphone : MobileClient (future)</p></span></div></foreignObject></g></g></g></g></g><defs><filter id="my-svg-drop-shadow" height="130%" width="130%"><feDropShadow dx="4" dy="4" stdDeviation="0" flood-opacity="0.06" flood-color="#000000"/></filter></defs><defs><filter id="my-svg-drop-shadow-small" height="150%" width="150%"><feDropShadow dx="2" dy="2" stdDeviation="0" flood-opacity="0.06" flood-color="#000000"/></filter></defs></svg>