<svg id="my-svg" width="100%" xmlns="http://www.w3.org/2000/svg" xmlns:xlink="http://www.w3.org/1999/xlink" class="flowchart" style="max-width: 1993.77px; background-color: white;" viewBox="0 21 1993.765625 434" role="graphics-document document" aria-roledescription="flowchart-v2"><style>#my-svg{font-family:"trebuchet ms",verdana,arial,sans-serif;font-size:16px;fill:#333;}@keyframes edge-animation-frame{from{stroke-dashoffset:0;}}@keyframes dash{to{stroke-dashoffset:0;}}#my-svg .edge-animation-slow{stroke-dasharray:9,5!important;stroke-dashoffset:900;animation:dash 50s linear infinite;stroke-linecap:round;}#my-svg .edge-animation-fast{stroke-dasharray:9,5!important;stroke-dashoffset:900;animation:dash 20s linear infinite;stroke-linecap:round;}#my-svg .error-icon{fill:#552222;}#my-svg .error-text{fill:#552222;stroke:#552222;}#my-svg .edge-thickness-normal{stroke-width:1px;}#my-svg .edge-thickness-thick{stroke-width:3.5px;}#my-svg .edge-pattern-solid{stroke-dasharray:0;}#my-svg .edge-thickness-invisible{stroke-width:0;fill:none;}#my-svg .edge-pattern-dashed{stroke-dasharray:3;}#my-svg .edge-pattern-dotted{stroke-dasharray:2;}#my-svg .marker{fill:#333333;stroke:#333333;}#my-svg .marker.cross{stroke:#333333;}#my-svg svg{font-family:"trebuchet ms",verdana,arial,sans-serif;font-size:16px;}#my-svg p{margin:0;}#my-svg .label{font-family:"trebuchet ms",verdana,arial,sans-serif;color:#333;}#my-svg .cluster-label text{fill:#333;}#my-svg .cluster-label span{color:#333;}#my-svg .cluster-label span p{background-color:transparent;}#my-svg .label text,#my-svg span{fill:#333;color:#333;}#my-svg .node rect,#my-svg .node circle,#my-svg .node ellipse,#my-svg .node polygon,#my-svg .node path{fill:#ECECFF;stroke:#9370DB;stroke-width:1px;}#my-svg .rough-node .label text,#my-svg .node .label text,#my-svg .image-shape .label,#my-svg .icon-shape .label{text-anchor:middle;}#my-svg .node .katex path{fill:#000;stroke:#000;stroke-width:1px;}#my-svg .rough-node .label,#my-svg .node .label,#my-svg .image-shape .label,#my-svg .icon-shape .label{text-align:center;}#my-svg .node.clickable{cursor:pointer;}#my-svg .root .anchor path{fill:#333333!important;stroke-width:0;stroke:#333333;}#my-svg .arrowheadPath{fill:#333333;}#my-svg .edgePath .path{stroke:#333333;stroke-width:1px;}#my-svg .flowchart-link{stroke:#333333;fill:none;}#my-svg .edgeLabel{background-color:rgba(232,232,232, 0.8);text-align:center;}#my-svg .edgeLabel p{background-color:rgba(232,232,232, 0.8);}#my-svg .edgeLabel rect{opacity:0.5;background-color:rgba(232,232,232, 0.8);fill:rgba(232,232,232, 0.8);}#my-svg .labelBkg{background-color:rgba(232, 232, 232, 0.5);}#my-svg .cluster rect{fill:#ffffde;stroke:#aaaa33;stroke-width:1px;}#my-svg .cluster text{fill:#333;}#my-svg .cluster span{color:#333;}#my-svg div.mermaidTooltip{position:absolute;text-align:center;max-width:200px;padding:2px;font-family:"trebuchet ms",verdana,arial,sans-serif;font-size:12px;background:hsl(80, 100%, 96.2745098039%);border:1px solid #aaaa33;border-radius:2px;pointer-events:none;z-index:100;}#my-svg .flowchartTitleText{text-anchor:middle;font-size:18px;fill:#333;}#my-svg rect.text{fill:none;stroke-width:0;}#my-svg .icon-shape,#my-svg .image-shape{background-color:rgba(232,232,232, 0.8);text-align:center;}#my-svg .icon-shape p,#my-svg .image-shape p{background-color:rgba(232,232,232, 0.8);padding:2px;}#my-svg .icon-shape .label rect,#my-svg .image-shape .label rect{opacity:0.5;background-color:rgba(232,232,232, 0.8);fill:rgba(232,232,232, 0.8);}#my-svg .label-icon{display:inline-block;height:1em;overflow:visible;vertical-align:-0.125em;}#my-svg .node .label-icon path{fill:currentColor;stroke:revert;stroke-width:revert;}#my-svg .node .neo-node{stroke:#9370DB;}#my-svg [data-look="neo"].node rect,#my-svg [data-look="neo"].cluster rect,#my-svg [data-look="neo"].node polygon{stroke:#9370DB;filter:drop-shadow(1px 2px 2px rgba(185, 185, 185, 1));}#my-svg [data-look="neo"].node path{stroke:#9370DB;stroke-width:1px;}#my-svg [data-look="neo"].node .outer-path{filter:drop-shadow(1px 2px 2px rgba(185, 185, 185, 1));}#my-svg [data-look="neo"].node .neo-line path{stroke:#9370DB;filter:none;}#my-svg [data-look="neo"].node circle{stroke:#9370DB;filter:drop-shadow(1px 2px 2px rgba(185, 185, 185, 1));}#my-svg [data-look="neo"].node circle .state-start{fill:#000000;}#my-svg [data-look="neo"].icon-shape .icon{fill:#9370DB;filter:drop-shadow(1px 2px 2px rgba(185, 185, 185, 1));}#my-svg [data-look="neo"].icon-shape .icon-neo path{stroke:#9370DB;filter:drop-shadow(1px 2px 2px rgba(185, 185, 185, 1));}#my-svg :root{--mermaid-font-family:"trebuchet ms",verdana,arial,sans-serif;}</style><g><marker id="my-svg_flowchart-v2-pointEnd" class="marker flowchart-v2" viewBox="0 0 10 10" refX="5" refY="5" markerUnits="userSpaceOnUse" markerWidth="8" markerHeight="8" orient="auto"><path d="M 0 0 L 10 5 L 0 10 z" class="arrowMarkerPath" style="stroke-width: 1; stroke-dasharray: 1, 0;"/></marker><marker id="my-svg_flowchart-v2-pointStart" class="marker flowchart-v2" viewBox="0 0 10 10" refX="4.5" refY="5" markerUnits="userSpaceOnUse" markerWidth="8" markerHeight="8" orient="auto"><path d="M 0 5 L 10 10 L 10 0 z" class="arrowMarkerPath" style="stroke-width: 1; stroke-dasharray: 1, 0;"/></marker><marker id="my-svg_flowchart-v2-pointEnd-margin" class="marker flowchart-v2" viewBox="0 0 11.5 14" refX="11.5" refY="7" markerUnits="userSpaceOnUse" markerWidth="10.5" markerHeight="14" orient="auto"><path d="M 0 0 L 11.5 7 L 0 14 z" class="arrowMarkerPath" style="stroke-width: 0; stroke-dasharray: 1, 0;"/></marker><marker id="my-svg_flowchart-v2-pointStart-margin" class="marker flowchart-v2" viewBox="0 0 11.5 14" refX="1" refY="7" markerUnits="userSpaceOnUse" markerWidth="11.5" markerHeight="14" orient="auto"><polygon points="0,7 11.5,14 11.5,0" class="arrowMarkerPath" style="stroke-width: 0; stroke-dasharray: 1, 0;"/></marker><marker id="my-svg_flowchart-v2-circleEnd" class="marker flowchart-v2" viewBox="0 0 10 10" refX="11" refY="5" markerUnits="userSpaceOnUse" markerWidth="11" markerHeight="11" orient="auto"><circle cx="5" cy="5" r="5" class="arrowMarkerPath" style="stroke-width: 1; stroke-dasharray: 1, 0;"/></marker><marker id="my-svg_flowchart-v2-circleStart" class="marker flowchart-v2" viewBox="0 0 10 10" refX="-1" refY="5" markerUnits="userSpaceOnUse" markerWidth="11" markerHeight="11" orient="auto"><circle cx="5" cy="5" r="5" class="arrowMarkerPath" style="stroke-width: 1; stroke-dasharray: 1, 0;"/></marker><marker id="my-svg_flowchart-v2-circleEnd-margin" class="marker flowchart-v2" viewBox="0 0 10 10" refY="5" refX="12.25" markerUnits="userSpaceOnUse" markerWidth="14" markerHeight="14" orient="auto"><circle cx="5" cy="5" r="5" class="arrowMarkerPath" style="stroke-width: 0; stroke-dasharray: 1, 0;"/></marker><marker id="my-svg_flowchart-v2-circleStart-margin" class="marker flowchart-v2" viewBox="0 0 10 10" refX="-2" refY="5" markerUnits="userSpaceOnUse" markerWidth="14" markerHeight="14" orient="auto"><circle cx="5" cy="5" r="5" class="arrowMarkerPath" style="stroke-width: 0; stroke-dasharray: 1, 0;"/></marker><marker id="my-svg_flowchart-v2-crossEnd" class="marker cross flowchart-v2" viewBox="0 0 11 11" refX="12" refY="5.2" markerUnits="userSpaceOnUse" markerWidth="11" markerHeight="11" orient="auto"><path d="M 1,1 l 9,9 M 10,1 l -9,9" class="arrowMarkerPath" style="stroke-width: 2; stroke-dasharray: 1, 0;"/></marker><marker id="my-svg_flowchart-v2-crossStart" class="marker cross flowchart-v2" viewBox="0 0 11 11" refX="-1" refY="5.2" markerUnits="userSpaceOnUse" markerWidth="11" markerHeight="11" orient="auto"><path d="M 1,1 l 9,9 M 10,1 l -9,9" class="arrowMarkerPath" style="stroke-width: 2; stroke-dasharray: 1, 0;"/></marker><marker id="my-svg_flowchart-v2-crossEnd-margin" class="marker cross flowchart-v2" viewBox="0 0 15 15" refX="17.7" refY="7.5" markerUnits="userSpaceOnUse" markerWidth="12" markerHeight="12" orient="auto"><path d="M 1,1 L 14,14 M 1,14 L 14,1" class="arrowMarkerPath" style="stroke-width: 2.5;"/></marker><marker id="my-svg_flowchart-v2-crossStart-margin" class="marker cross flowchart-v2" viewBox="0 0 15 15" refX="-3.5" refY="7.5" markerUnits="userSpaceOnUse" markerWidth="12" markerHeight="12" orient="auto"><path d="M 1,1 L 14,14 M 1,14 L 14,1" class="arrowMarkerPath" style="stroke-width: 2.5; stroke-dasharray: 1, 0;"/></marker><g class="root"><g class="clusters"/><g class="edgePaths"><path d="M212.969,240L228.77,240C244.57,240,276.172,240,309.089,244.014C342.006,248.029,376.238,256.058,393.355,260.072L410.471,264.087" id="my-svg-L_CAP_FS_0" class="edge-thickness-normal edge-pattern-solid edge-thickness-normal edge-pattern-solid flowchart-link" style=";" data-edge="true" data-et="edge" data-id="L_CAP_FS_0" data-points="W3sieCI6MjEyLjk2ODc1LCJ5IjoyNDB9LHsieCI6MzA3Ljc3MzQzNzUsInkiOjI0MH0seyJ4Ijo0MTQuMzY1MjM0Mzc1LCJ5IjoyNjV9XQ==" data-look="classic" marker-end="url(#my-svg_flowchart-v2-pointEnd)"/><path d="M201.398,344L219.128,344C236.857,344,272.315,344,307.161,339.986C342.006,335.971,376.238,327.942,393.355,323.928L410.471,319.913" id="my-svg-L_LIB_FS_0" class="edge-thickness-normal edge-pattern-solid edge-thickness-normal edge-pattern-solid flowchart-link" style=";" data-edge="true" data-et="edge" data-id="L_LIB_FS_0" data-points="W3sieCI6MjAxLjM5ODQzNzUsInkiOjM0NH0seyJ4IjozMDcuNzczNDM3NSwieSI6MzQ0fSx7IngiOjQxNC4zNjUyMzQzNzUsInkiOjMxOX1d" data-look="classic" marker-end="url(#my-svg_flowchart-v2-pointEnd)"/><path d="M578.08,265L611.452,246.458C644.824,227.917,711.568,190.833,774.71,177.878C837.851,164.922,897.389,176.094,927.159,181.68L956.928,187.267" id="my-svg-L_FS_SOI_0" class="edge-thickness-normal edge-pattern-solid edge-thickness-normal edge-pattern-solid flowchart-link" style=";" data-edge="true" data-et="edge" data-id="L_FS_SOI_0" data-points="W3sieCI6NTc4LjA4MDEwMjg0ODEwMTMsInkiOjI2NX0seyJ4Ijo3NzguMzEyNSwieSI6MTUzLjc1fSx7IngiOjk2MC44NTkyMjcwNjYzNzMsInkiOjE4OC4wMDQzMTAwMTkzNTE4Nn1d" data-look="classic" marker-end="url(#my-svg_flowchart-v2-pointEnd)"/><path d="M957.955,198.25L928.015,198.167C898.074,198.083,838.193,197.917,779.285,208.806C720.377,219.694,662.442,241.639,633.475,252.611L604.507,263.583" id="my-svg-L_SOI_FS_0" class="edge-thickness-normal edge-pattern-solid edge-thickness-normal edge-pattern-solid flowchart-link" style=";" data-edge="true" data-et="edge" data-id="L_SOI_FS_0" data-points="W3sieCI6OTU3Ljk1NTMyOTg5NTAxMTMsInkiOjE5OC4yNX0seyJ4Ijo3NzguMzEyNSwieSI6MTk3Ljc1fSx7IngiOjYwMC43NjY3MDI1ODYyMDY5LCJ5IjoyNjV9XQ==" data-look="classic" marker-end="url(#my-svg_flowchart-v2-pointEnd)"/><path d="M1809.281,72.381L1795.258,74.984C1781.234,77.587,1753.188,82.794,1722.594,82.921C1692.001,83.048,1658.861,78.096,1642.292,75.619L1625.722,73.143" id="my-svg-L_CR_BR_0" class="edge-thickness-normal edge-pattern-solid edge-thickness-normal edge-pattern-solid flowchart-link" style=";" data-edge="true" data-et="edge" data-id="L_CR_BR_0" data-points="W3sieCI6MTgwOS4yODEyNSwieSI6NzIuMzgwNjkzNDA1ODQ2MzZ9LHsieCI6MTcyNS4xNDA2MjUsInkiOjg4fSx7IngiOjE2MjEuNzY1NjI1LCJ5Ijo3Mi41NTIyMDcyMjM2NDF9XQ==" data-look="classic" marker-end="url(#my-svg_flowchart-v2-pointEnd)"/><path d="M1400.234,75.113L1376.195,79.26C1352.156,83.408,1304.078,91.704,1248.206,108.912C1192.333,126.12,1128.666,152.24,1096.832,165.299L1064.999,178.359" id="my-svg-L_BR_SOI_0" class="edge-thickness-normal edge-pattern-solid edge-thickness-normal edge-pattern-solid flowchart-link" style=";" data-edge="true" data-et="edge" data-id="L_BR_SOI_0" data-points="W3sieCI6MTQwMC4yMzQzNzUsInkiOjc1LjExMjV9LHsieCI6MTI1NiwieSI6MTAwfSx7IngiOjEwNjEuMjk4MDYxMTUyMzExNCwieSI6MTc5Ljg3NzUxMTc0NDM2MjE1fV0=" data-look="classic" marker-end="url(#my-svg_flowchart-v2-pointEnd)"/><path d="M1044.398,178.75L1079.665,154.292C1114.932,129.833,1185.466,80.917,1244.108,58.658C1302.751,36.4,1349.501,40.8,1372.877,43L1396.252,45.2" id="my-svg-L_SOI_BR_0" class="edge-thickness-normal edge-pattern-solid edge-thickness-normal edge-pattern-solid flowchart-link" style=";" data-edge="true" data-et="edge" data-id="L_SOI_BR_0" data-points="W3sieCI6MTA0NC4zOTc1MTgzODIzNTI1LCJ5IjoxNzguNzUwMDAwMDAwMDAwMjZ9LHsieCI6MTI1NiwieSI6MzJ9LHsieCI6MTQwMC4yMzQzNzUsInkiOjQ1LjU3NX1d" data-look="classic" marker-end="url(#my-svg_flowchart-v2-pointEnd)"/><path d="M1621.766,49.793L1638.995,48.827C1656.224,47.862,1690.682,45.931,1721.27,45.895C1751.857,45.86,1778.574,47.72,1791.933,48.65L1805.291,49.579" id="my-svg-L_BR_CR_0" class="edge-thickness-normal edge-pattern-solid edge-thickness-normal edge-pattern-solid flowchart-link" style=";" data-edge="true" data-et="edge" data-id="L_BR_CR_0" data-points="W3sieCI6MTYyMS43NjU2MjUsInkiOjQ5Ljc5MjkyMjI5MTEzNDYyfSx7IngiOjE3MjUuMTQwNjI1LCJ5Ijo0NH0seyJ4IjoxODA5LjI4MTI1LCJ5Ijo0OS44NTcyMzk5NzI4MDc2MX1d" data-look="classic" marker-end="url(#my-svg_flowchart-v2-pointEnd)"/><path d="M1071.719,188.593L1102.432,183.161C1133.146,177.729,1194.573,166.864,1251.995,163.946C1309.417,161.028,1362.835,166.055,1389.543,168.569L1416.252,171.083" id="my-svg-L_SOI_FF_0" class="edge-thickness-normal edge-pattern-solid edge-thickness-normal edge-pattern-solid flowchart-link" style=";" data-edge="true" data-et="edge" data-id="L_SOI_FF_0" data-points="W3sieCI6MTA3MS43MTg3NDA0Njk1ODMsInkiOjE4OC41OTMwNDk4NTMxMTY2N30seyJ4IjoxMjU2LCJ5IjoxNTZ9LHsieCI6MTQyMC4yMzQzNzUsInkiOjE3MS40NTczNTI5NDExNzY0OH1d" data-look="classic" marker-end="url(#my-svg_flowchart-v2-pointEnd)"/><path d="M1420.234,191.39L1392.862,194.825C1365.49,198.26,1310.745,205.13,1253.701,206.883C1196.657,208.635,1137.314,205.271,1107.642,203.589L1077.971,201.906" id="my-svg-L_FF_SOI_0" class="edge-thickness-normal edge-pattern-solid edge-thickness-normal edge-pattern-solid flowchart-link" style=";" data-edge="true" data-et="edge" data-id="L_FF_SOI_0" data-points="W3sieCI6MTQyMC4yMzQzNzUsInkiOjE5MS4zOTAxOTYwNzg0MzEzNn0seyJ4IjoxMjU2LCJ5IjoyMTJ9LHsieCI6MTA3My45NzcyMjAwODc1MjkzLCJ5IjoyMDEuNjc5OTY4NDU2NTUyMTZ9XQ==" data-look="classic" marker-end="url(#my-svg_flowchart-v2-pointEnd)"/><path d="M1067.294,213.206L1098.745,222.338C1130.196,231.471,1193.098,249.735,1247.454,261.023C1301.811,272.312,1347.621,276.623,1370.526,278.779L1393.432,280.935" id="my-svg-L_SOI_WH_0" class="edge-thickness-normal edge-pattern-solid edge-thickness-normal edge-pattern-solid flowchart-link" style=";" data-edge="true" data-et="edge" data-id="L_SOI_WH_0" data-points="W3sieCI6MTA2Ny4yOTQyMjE4ODg0NjEsInkiOjIxMy4yMDYwODg3MDAzNDkwM30seyJ4IjoxMjU2LCJ5IjoyNjh9LHsieCI6MTM5Ny40MTQwNjI1LCJ5IjoyODEuMzA5NTU4ODIzNTI5NH1d" data-look="classic" marker-end="url(#my-svg_flowchart-v2-pointEnd)"/><path d="M1397.414,308.036L1373.845,311.363C1350.276,314.69,1303.138,321.345,1246.173,306.615C1189.208,291.884,1122.416,255.768,1089.02,237.71L1055.624,219.653" id="my-svg-L_WH_SOI_0" class="edge-thickness-normal edge-pattern-solid edge-thickness-normal edge-pattern-solid flowchart-link" style=";" data-edge="true" data-et="edge" data-id="L_WH_SOI_0" data-points="W3sieCI6MTM5Ny40MTQwNjI1LCJ5IjozMDguMDM1NjYxNzY0NzA1OX0seyJ4IjoxMjU2LCJ5IjozMjh9LHsieCI6MTA1Mi4xMDU0MDEyNzE1OTI5LCJ5IjoyMTcuNzQ5OTk5OTk5OTk5OTR9XQ==" data-look="classic" marker-end="url(#my-svg_flowchart-v2-pointEnd)"/><path d="M656.391,298.12L676.711,299.1C697.031,300.08,737.672,302.04,777.646,303.02C817.62,304,856.927,304,876.581,304L896.234,304" id="my-svg-L_FS_PUB_0" class="edge-thickness-normal edge-pattern-solid edge-thickness-normal edge-pattern-solid flowchart-link" style=";" data-edge="true" data-et="edge" data-id="L_FS_PUB_0" data-points="W3sieCI6NjU2LjM5MDYyNSwieSI6Mjk4LjEyMDE4ODM4MzA0NTV9LHsieCI6Nzc4LjMxMjUsInkiOjMwNH0seyJ4Ijo5MDAuMjM0Mzc1LCJ5IjozMDR9XQ==" data-look="classic" marker-end="url(#my-svg_flowchart-v2-pointEnd)"/><path d="M587.401,319L619.22,333.833C651.038,348.667,714.675,378.333,771.362,393.167C828.049,408,877.786,408,902.655,408L927.523,408" id="my-svg-L_FS_VW_0" class="edge-thickness-normal edge-pattern-solid edge-thickness-normal edge-pattern-solid flowchart-link" style=";" data-edge="true" data-et="edge" data-id="L_FS_VW_0" data-points="W3sieCI6NTg3LjQwMTI2NjE2Mzc5MzEsInkiOjMxOX0seyJ4Ijo3NzguMzEyNSwieSI6NDA4fSx7IngiOjkzMS41MjM0Mzc1LCJ5Ijo0MDh9XQ==" data-look="classic" marker-end="url(#my-svg_flowchart-v2-pointEnd)"/><path d="M1041.423,220.383L1077.186,251.652C1112.949,282.922,1184.474,345.461,1240.404,376.73C1296.333,408,1336.667,408,1356.833,408L1377,408" id="my-svg-L_SOI_MOB_0" class="edge-thickness-normal edge-pattern-dotted edge-thickness-normal edge-pattern-solid flowchart-link" style=";" data-edge="true" data-et="edge" data-id="L_SOI_MOB_0" data-points="W3sieCI6MTAzOC40MTE5MDczMjc1ODYsInkiOjIxNy43NDk5OTk5OTk5OTk5NH0seyJ4IjoxMjU2LCJ5Ijo0MDh9LHsieCI6MTM4MSwieSI6NDA4fV0=" data-look="classic" marker-start="url(#my-svg_flowchart-v2-pointStart)" marker-end="url(#my-svg_flowchart-v2-pointEnd)"/></g><g class="edgeLabels"><g class="edgeLabel" transform="translate(307.7734375, 240)"><g class="label" data-id="L_CAP_FS_0" transform="translate(-69.8046875, -12)"><foreignObject width="139.609375" height="24"><div xmlns="http://www.w3.org/1999/xhtml" class="labelBkg" style="display: table-cell; white-space: nowrap; line-height: 1.5; max-width: 200px; text-align: center;"><span class="edgeLabel"><p>rawRecording (A/V)</p></span></div></foreignObject></g></g><g class="edgeLabel" transform="translate(307.7734375, 344)"><g class="label" data-id="L_LIB_FS_0" transform="translate(-62.7109375, -12)"><foreignObject width="125.421875" height="24"><div xmlns="http://www.w3.org/1999/xhtml" class="labelBkg" style="display: table-cell; white-space: nowrap; line-height: 1.5; max-width: 200px; text-align: center;"><span class="edgeLabel"><p>photo, extraAudio</p></span></div></foreignObject></g></g><g class="edgeLabel" transform="translate(759.37445, 164.27206)"><g class="label" data-id="L_FS_SOI_0" transform="translate(-34.6796875, -12)"><foreignObject width="69.359375" height="24"><div xmlns="http://www.w3.org/1999/xhtml" class="labelBkg" style="display: table-cell; white-space: nowrap; line-height: 1.5; max-width: 200px; text-align: center;"><span class="edgeLabel"><p>mediaFile</p></span></div></foreignObject></g></g><g class="edgeLabel" transform="translate(778.3125, 197.75)"><g class="label" data-id="L_SOI_FS_0" transform="translate(-96.921875, -12)"><foreignObject width="193.84375" height="24"><div xmlns="http://www.w3.org/1999/xhtml" class="labelBkg" style="display: table-cell; white-space: nowrap; line-height: 1.5; max-width: 200px; text-align: center;"><span class="edgeLabel"><p>renderedFile (mp4/mp3/srt)</p></span></div></foreignObject></g></g><g class="edgeLabel" transform="translate(1715.77227, 86.60004)"><g class="label" data-id="L_CR_BR_0" transform="translate(-43.578125, -12)"><foreignObject width="87.15625" height="24"><div xmlns="http://www.w3.org/1999/xhtml" class="labelBkg" style="display: table-cell; white-space: nowrap; line-height: 1.5; max-width: 200px; text-align: center;"><span class="edgeLabel"><p>editDecision</p></span></div></foreignObject></g></g><g class="edgeLabel" transform="translate(1226.35557, 112.16179)"><g class="label" data-id="L_BR_SOI_0" transform="translate(-100, -24)"><foreignObject width="200" height="48"><div xmlns="http://www.w3.org/1999/xhtml" class="labelBkg" style="display: table; white-space: break-spaces; line-height: 1.5; max-width: 200px; text-align: center; width: 200px;"><span class="edgeLabel"><p>httpRequest (json @127.0.0.1)</p></span></div></foreignObject></g></g><g class="edgeLabel" transform="translate(1209.72127, 64.0951)"><g class="label" data-id="L_SOI_BR_0" transform="translate(-100, -24)"><foreignObject width="200" height="48"><div xmlns="http://www.w3.org/1999/xhtml" class="labelBkg" style="display: table; white-space: break-spaces; line-height: 1.5; max-width: 200px; text-align: center; width: 200px;"><span class="edgeLabel"><p>httpResponse: segments, preview, exports</p></span></div></foreignObject></g></g><g class="edgeLabel" transform="translate(1715.55919, 44.53692)"><g class="label" data-id="L_BR_CR_0" transform="translate(-59.140625, -12)"><foreignObject width="118.28125" height="24"><div xmlns="http://www.w3.org/1999/xhtml" class="labelBkg" style="display: table-cell; white-space: nowrap; line-height: 1.5; max-width: 200px; text-align: center;"><span class="edgeLabel"><p>preview, delivery</p></span></div></foreignObject></g></g><g class="edgeLabel" transform="translate(1245.07891, 157.93157)"><g class="label" data-id="L_SOI_FF_0" transform="translate(-54.6875, -12)"><foreignObject width="109.375" height="24"><div xmlns="http://www.w3.org/1999/xhtml" class="labelBkg" style="display: table-cell; white-space: nowrap; line-height: 1.5; max-width: 200px; text-align: center;"><span class="edgeLabel"><p>filterGraph cmd</p></span></div></foreignObject></g></g><g class="edgeLabel" transform="translate(1247.61716, 211.52472)"><g class="label" data-id="L_FF_SOI_0" transform="translate(-100, -24)"><foreignObject width="200" height="48"><div xmlns="http://www.w3.org/1999/xhtml" class="labelBkg" style="display: table; white-space: break-spaces; line-height: 1.5; max-width: 200px; text-align: center; width: 200px;"><span class="edgeLabel"><p>renderedMedia, loudnessMeasurement</p></span></div></foreignObject></g></g><g class="edgeLabel" transform="translate(1229.84962, 260.40679)"><g class="label" data-id="L_SOI_WH_0" transform="translate(-45.359375, -12)"><foreignObject width="90.71875" height="24"><div xmlns="http://www.w3.org/1999/xhtml" class="labelBkg" style="display: table-cell; white-space: nowrap; line-height: 1.5; max-width: 200px; text-align: center;"><span class="edgeLabel"><p>audioStream</p></span></div></foreignObject></g></g><g class="edgeLabel" transform="translate(1216.86621, 306.83956)"><g class="label" data-id="L_WH_SOI_0" transform="translate(-34.234375, -12)"><foreignObject width="68.46875" height="24"><div xmlns="http://www.w3.org/1999/xhtml" class="labelBkg" style="display: table-cell; white-space: nowrap; line-height: 1.5; max-width: 200px; text-align: center;"><span class="edgeLabel"><p>timedText</p></span></div></foreignObject></g></g><g class="edgeLabel" transform="translate(778.3125, 304)"><g class="label" data-id="L_FS_PUB_0" transform="translate(-47.890625, -12)"><foreignObject width="95.78125" height="24"><div xmlns="http://www.w3.org/1999/xhtml" class="labelBkg" style="display: table-cell; white-space: nowrap; line-height: 1.5; max-width: 200px; text-align: center;"><span class="edgeLabel"><p>finishedVideo</p></span></div></foreignObject></g></g><g class="edgeLabel" transform="translate(778.3125, 408)"><g class="label" data-id="L_FS_VW_0" transform="translate(-47.890625, -12)"><foreignObject width="95.78125" height="24"><div xmlns="http://www.w3.org/1999/xhtml" class="labelBkg" style="display: table-cell; white-space: nowrap; line-height: 1.5; max-width: 200px; text-align: center;"><span class="edgeLabel"><p>finishedVideo</p></span></div></foreignObject></g></g><g class="edgeLabel" transform="translate(1256, 408)"><g class="label" data-id="L_SOI_MOB_0" transform="translate(-68.0390625, -12)"><foreignObject width="136.078125" height="24"><div xmlns="http://www.w3.org/1999/xhtml" class="labelBkg" style="display: table-cell; white-space: nowrap; line-height: 1.5; max-width: 200px; text-align: center;"><span class="edgeLabel"><p>portableProjectDoc</p></span></div></foreignObject></g></g></g><g class="nodes"><g class="node default" id="my-svg-flowchart-CAP-0" data-look="classic" transform="translate(110.484375, 240)"><rect class="basic label-container" style="" x="-102.484375" y="-27" width="204.96875" height="54"/><g class="label" style="" transform="translate(-72.484375, -12)"><rect/><foreignObject width="144.96875" height="24"><div xmlns="http://www.w3.org/1999/xhtml" style="display: table-cell; white-space: nowrap; line-height: 1.5; max-width: 200px; text-align: center;"><span class="nodeLabel"><p>cap : CaptureDevice</p></span></div></foreignObject></g></g><g class="node default" id="my-svg-flowchart-FS-1" data-look="classic" transform="translate(529.484375, 292)"><rect class="basic label-container" style="" x="-126.90625" y="-27" width="253.8125" height="54"/><g class="label" style="" transform="translate(-96.90625, -12)"><rect/><foreignObject width="193.8125" height="24"><div xmlns="http://www.w3.org/1999/xhtml" style="display: table-cell; white-space: nowrap; line-height: 1.5; max-width: 200px; text-align: center;"><span class="nodeLabel"><p>filesystem : HostFilesystem</p></span></div></foreignObject></g></g><g class="node default" id="my-svg-flowchart-LIB-2" data-look="classic" transform="translate(110.484375, 344)"><rect class="basic label-container" style="" x="-90.9140625" y="-27" width="181.828125" height="54"/><g class="label" style="" transform="translate(-60.9140625, -12)"><rect/><foreignObject width="121.828125" height="24"><div xmlns="http://www.w3.org/1999/xhtml" style="display: table-cell; white-space: nowrap; line-height: 1.5; max-width: 200px; text-align: center;"><span class="nodeLabel"><p>lib : MediaLibrary</p></span></div></foreignObject></g></g><g class="node default" id="my-svg-flowchart-SOI-5" data-look="classic" transform="translate(1015.6171875, 197.75)"><g class="basic label-container outer-path"><path d="M-38.671875 -19.5 C-15.908419538553833 -19.5, 6.855035922892334 -19.5, 38.671875 -19.5 C38.671875 -19.5, 38.671875 -19.5, 38.671875 -19.5 C39.131900272719875 -19.485247884888746, 39.59192554543974 -19.470495769777497, 39.9212442896239 -19.45993515863156 C40.2203590491274 -19.431079917520385, 40.519473808630906 -19.40222467640921, 41.165479652847864 -19.3399052695533 C41.42454929030618 -19.298020899684083, 41.6836189277645 -19.256136529814867, 42.39946825967676 -19.140403561325776 C42.76388268685611 -19.057228346348467, 43.12829711403545 -18.974053131371154, 43.61813938623539 -18.862249829261074 C43.934058453264775 -18.768486708459776, 44.249977520294166 -18.674723587658477, 44.816485251460605 -18.50658706670804 C45.2398493143018 -18.350785178047982, 45.663213377142995 -18.194983289387928, 45.9895815951478 -18.074876768247425 C46.26269178846198 -17.95397898719327, 46.53580198177617 -17.83308120613912, 47.13260791279238 -17.568892924097174 C47.36601450561571 -17.447124854125303, 47.59942109843904 -17.325356784153428, 48.24086726407678 -16.990714730406097 C48.624858699249195 -16.757936865820433, 49.0088501344216 -16.525159001234766, 49.3098055736057 -16.342718045390892 C49.66133054428775 -16.097509443113818, 50.01285551496979 -15.852300840836744, 50.33503034457871 -15.627565626425154 C50.7235407491108 -15.31773891750687, 51.112051153642895 -15.007912208588587, 51.312328708501866 -14.848196188198123 C51.661738762926035 -14.530871221653529, 52.01114881735021 -14.213546255108936, 52.23768473676799 -14.007812326905688 C52.575518787713186 -13.658970932613352, 52.91335283865839 -13.310129538321016, 53.10729594296865 -13.10986736009568 C53.30697956954696 -12.875307609996566, 53.50666319612527 -12.640747859897452, 53.91758890812658 -12.158051136245305 C54.21554515374308 -11.758816911491587, 54.513501399359576 -11.35958268673787, 54.665233964640635 -11.156274872382312 C54.91499189941458 -10.772579615173449, 55.16474983418852 -10.388884357964587, 55.34715887860425 -10.108655082055241 C55.537325421827774 -9.770995128111267, 55.72749196505131 -9.433335174167294, 55.960561474273504 -9.019496659696287 C56.09432529766412 -8.741733218338354, 56.22808912105473 -8.46396977698042, 56.50292114880834 -7.893275190886684 C56.646439176217676 -7.538782888453331, 56.78995720362701 -7.184290586019977, 56.972009229970325 -6.734618561215508 C57.06560260377899 -6.452730231382817, 57.15919597758766 -6.1708419015501255, 57.36589813421488 -5.548287939305138 C57.48920263987585 -5.078074418709072, 57.61250714553682 -4.607860898113005, 57.68296928754556 -4.339158212148133 C57.77620131467526 -3.860431457433029, 57.869433341804964 -3.381704702717925, 57.921919776581774 -3.1121979531509023 C57.979190343595604 -2.6680187447442703, 58.036460910609435 -2.223839536337638, 58.08176770250937 -1.872449005199798 C58.108746188490635 -1.4522373093996475, 58.1357246744719 -1.0320256135994972, 58.16185621591342 -0.6250057626472757 C58.16185621591342 -0.30859763592142014, 58.16185621591342 0.0078104908044354104, 58.16185621591342 0.625005762647271 C58.133249388483094 1.0705801908900596, 58.10464256105277 1.5161546191328483, 58.08176770250937 1.8724490051997846 C58.02299135481637 2.3283067512039852, 57.96421500712338 2.7841644972081854, 57.921919776581774 3.1121979531508885 C57.86942679576064 3.381738315271993, 57.8169338149395 3.6512786773930967, 57.68296928754556 4.339158212148129 C57.562573783262835 4.798278449719792, 57.44217827898011 5.257398687291455, 57.36589813421489 5.548287939305125 C57.24640187221487 5.908191641305389, 57.126905610214855 6.268095343305652, 56.972009229970325 6.734618561215495 C56.80405592174926 7.149466479677841, 56.636102613528195 7.564314398140186, 56.50292114880834 7.893275190886679 C56.393839477563 8.119785615201497, 56.284757806317664 8.346296039516316, 55.960561474273504 9.019496659696284 C55.78607610231051 9.329313106176407, 55.61159073034751 9.639129552656533, 55.34715887860425 10.108655082055236 C55.120040420908936 10.457570022920512, 54.892921963213624 10.806484963785788, 54.66523396464064 11.156274872382301 C54.428134624820885 11.473966387546557, 54.191035285001135 11.791657902710813, 53.91758890812658 12.158051136245302 C53.66678401451159 12.452660835488203, 53.4159791208966 12.747270534731104, 53.10729594296866 13.10986736009567 C52.804108169468066 13.42293362841417, 52.500920395967476 13.735999896732666, 52.23768473676799 14.007812326905684 C51.97796146196861 14.243686133177196, 51.718238187169234 14.479559939448706, 51.31232870850189 14.848196188198111 C51.063595165097595 15.046554569985458, 50.81486162169331 15.244912951772806, 50.33503034457871 15.627565626425152 C50.06749773631923 15.814184792647014, 49.799965128059746 16.000803958868875, 49.30980557360571 16.34271804539089 C49.00843423707934 16.52541112064773, 48.70706290055298 16.708104195904564, 48.24086726407678 16.990714730406093 C48.014603622265824 17.10875632741009, 47.788339980454865 17.22679792441409, 47.13260791279239 17.56889292409717 C46.87289139064479 17.683861724235015, 46.61317486849719 17.79883052437286, 45.989581595147804 18.07487676824742 C45.56822024832331 18.229941638900428, 45.1468589014988 18.38500650955344, 44.81648525146062 18.506587066708033 C44.38496189047932 18.634660935134942, 43.95343852949801 18.762734803561848, 43.61813938623541 18.86224982926107 C43.23846672849186 18.9489076357954, 42.8587940707483 19.03556544232973, 42.399468259676766 19.140403561325773 C42.085271127721214 19.191200516985198, 41.77107399576566 19.241997472644623, 41.16547965284788 19.3399052695533 C40.80481862177146 19.37469780546289, 40.44415759069505 19.409490341372482, 39.9212442896239 19.45993515863156 C39.63108592043578 19.469239972772417, 39.34092755124767 19.47854478691328, 38.67187500000001 19.5 C38.67187500000001 19.5, 38.671875 19.5, 38.671875 19.5 C22.849752691964937 19.5, 7.027630383929871 19.5, -38.67187499999999 19.5 C-39.03134293950618 19.488472562841935, -39.39081087901238 19.47694512568387, -39.92124428962389 19.45993515863156 C-40.254202619811416 19.427815068959347, -40.58716094999894 19.395694979287136, -41.16547965284787 19.3399052695533 C-41.458501006666516 19.292531849482437, -41.75152236048516 19.245158429411575, -42.39946825967676 19.140403561325773 C-42.799971667861534 19.048991271936583, -43.2004750760463 18.957578982547396, -43.618139386235384 18.862249829261074 C-43.950378357779066 18.76364304646486, -44.28261732932275 18.665036263668647, -44.81648525146059 18.506587066708043 C-45.251240536588234 18.34659310294727, -45.685995821715885 18.186599139186495, -45.9895815951478 18.074876768247425 C-46.223578250873416 17.97129339002186, -46.45757490659904 17.867710011796298, -47.13260791279238 17.568892924097174 C-47.522934398655075 17.365259846438654, -47.91326088451777 17.16162676878013, -48.24086726407678 16.990714730406097 C-48.66726041893296 16.732232694167966, -49.09365357378914 16.473750657929838, -49.309805573605686 16.3427180453909 C-49.656172890693746 16.101107198989766, -50.002540207781806 15.859496352588632, -50.33503034457871 15.627565626425156 C-50.69958852852777 15.336840176026485, -51.06414671247683 15.046114725627813, -51.312328708501866 14.848196188198125 C-51.58414485691911 14.601339954066768, -51.855961005336354 14.354483719935413, -52.237684736767974 14.007812326905697 C-52.573489742091226 13.661066088805772, -52.90929474741448 13.314319850705846, -53.107295942968655 13.109867360095677 C-53.421086594735264 12.741271005336715, -53.734877246501874 12.372674650577753, -53.917588908126575 12.158051136245307 C-54.19750920775439 11.782983436007937, -54.47742950738221 11.407915735770567, -54.665233964640635 11.156274872382316 C-54.818762667037284 10.920413557271978, -54.972291369433925 10.68455224216164, -55.34715887860425 10.108655082055249 C-55.484917097102844 9.86405141557873, -55.62267531560144 9.619447749102214, -55.960561474273504 9.019496659696289 C-56.17615149945225 8.57181935952504, -56.39174152463101 8.124142059353794, -56.50292114880834 7.893275190886686 C-56.682088754750545 7.450727740239437, -56.86125636069275 7.008180289592188, -56.972009229970325 6.73461856121551 C-57.0698129740605 6.44004926692634, -57.16761671815066 6.145479972637169, -57.36589813421488 5.5482879393051325 C-57.43089452100711 5.30042854685412, -57.49589090779935 5.052569154403108, -57.68296928754556 4.339158212148136 C-57.76098279749497 3.938575326719101, -57.83899630744437 3.537992441290066, -57.921919776581774 3.112197953150904 C-57.964757807064764 2.7799546480508037, -58.00759583754775 2.447711342950704, -58.08176770250937 1.872449005199809 C-58.09930247017995 1.5993308449207262, -58.11683723785054 1.3262126846416433, -58.16185621591342 0.6250057626472781 C-58.16185621591342 0.2565312718211228, -58.16185621591342 -0.11194321900503257, -58.16185621591342 -0.6250057626472687 C-58.141602499660294 -0.9404737417951583, -58.12134878340717 -1.255941720943048, -58.08176770250937 -1.8724490051997822 C-58.03972055509756 -2.1985583773773394, -57.99767340768575 -2.524667749554897, -57.921919776581774 -3.112197953150895 C-57.847122161260216 -3.4962678993454843, -57.772324545938666 -3.8803378455400734, -57.68296928754556 -4.339158212148126 C-57.59052224645586 -4.691698846624222, -57.498075205366156 -5.044239481100317, -57.36589813421489 -5.548287939305123 C-57.210540899341126 -6.016199177931001, -57.05518366446737 -6.484110416556879, -56.97200922997033 -6.734618561215485 C-56.79679411069946 -7.1674032933684195, -56.621578991428585 -7.600188025521354, -56.50292114880834 -7.893275190886676 C-56.320351979037916 -8.272383978269412, -56.13778280926749 -8.651492765652149, -55.960561474273504 -9.019496659696282 C-55.75224120820978 -9.389390386806795, -55.54392094214606 -9.759284113917307, -55.34715887860425 -10.108655082055243 C-55.08039875435906 -10.518470268019074, -54.81363863011387 -10.928285453982904, -54.66523396464064 -11.156274872382308 C-54.39874157978639 -11.513350390131306, -54.132249194932136 -11.870425907880302, -53.91758890812659 -12.158051136245302 C-53.6872658670958 -12.428601685992364, -53.45694282606502 -12.699152235739428, -53.10729594296866 -13.10986736009567 C-52.775563683175235 -13.452408154057425, -52.443831423381816 -13.794948948019178, -52.237684736767996 -14.007812326905677 C-51.961703215099725 -14.25845144281388, -51.685721693431454 -14.509090558722082, -51.31232870850189 -14.848196188198107 C-50.992405625849216 -15.103326333102839, -50.672482543196544 -15.35845647800757, -50.33503034457872 -15.627565626425149 C-49.96221344671785 -15.887626555389502, -49.58939654885697 -16.147687484353856, -49.309805573605715 -16.342718045390885 C-48.9137101205957 -16.582833436720808, -48.51761466758569 -16.822948828050734, -48.24086726407679 -16.99071473040609 C-47.85698658719638 -17.19098503364729, -47.47310591031597 -17.39125533688849, -47.13260791279239 -17.56889292409717 C-46.69841095995263 -17.76109903512435, -46.26421400711288 -17.953305146151532, -45.989581595147804 -18.07487676824742 C-45.65322595056006 -18.198658754693206, -45.31687030597232 -18.322440741138987, -44.81648525146062 -18.506587066708033 C-44.40395930416285 -18.629022602473125, -43.991433356865095 -18.751458138238213, -43.61813938623541 -18.862249829261067 C-43.262697688100566 -18.9433770773865, -42.90725598996572 -19.024504325511934, -42.399468259676766 -19.140403561325773 C-42.008812895051435 -19.2035616911008, -41.6181575304261 -19.26671982087582, -41.16547965284788 -19.3399052695533 C-40.769734406485156 -19.378082337516616, -40.37398916012244 -19.416259405479934, -39.9212442896239 -19.45993515863156 C-39.44012565378878 -19.475363696842177, -38.95900701795367 -19.490792235052794, -38.67187500000001 -19.5 C-38.67187500000001 -19.5, -38.671875 -19.5, -38.671875 -19.5" stroke="none" stroke-width="0" fill="#ECECFF" style=""/><path d="M-38.671875 -19.5 C-9.312869037550819 -19.5, 20.046136924898363 -19.5, 38.671875 -19.5 M-38.671875 -19.5 C-21.769803571537064 -19.5, -4.867732143074129 -19.5, 38.671875 -19.5 M38.671875 -19.5 C38.671875 -19.5, 38.671875 -19.5, 38.671875 -19.5 M38.671875 -19.5 C38.671875 -19.5, 38.671875 -19.5, 38.671875 -19.5 M38.671875 -19.5 C39.011072013091315 -19.489122611997097, 39.35026902618264 -19.47824522399419, 39.9212442896239 -19.45993515863156 M38.671875 -19.5 C39.102055563007895 -19.486204946640008, 39.53223612601579 -19.472409893280016, 39.9212442896239 -19.45993515863156 M39.9212442896239 -19.45993515863156 C40.32888559302188 -19.420610492353152, 40.73652689641986 -19.38128582607474, 41.165479652847864 -19.3399052695533 M39.9212442896239 -19.45993515863156 C40.400215327265045 -19.41372939867727, 40.87918636490619 -19.36752363872298, 41.165479652847864 -19.3399052695533 M41.165479652847864 -19.3399052695533 C41.43975623517176 -19.295562358769835, 41.71403281749566 -19.251219447986372, 42.39946825967676 -19.140403561325776 M41.165479652847864 -19.3399052695533 C41.415250876614024 -19.299524195099558, 41.66502210038018 -19.259143120645813, 42.39946825967676 -19.140403561325776 M42.39946825967676 -19.140403561325776 C42.8318933954073 -19.041705345933003, 43.26431853113784 -18.943007130540234, 43.61813938623539 -18.862249829261074 M42.39946825967676 -19.140403561325776 C42.75102720592137 -19.060162525981966, 43.102586152165976 -18.979921490638155, 43.61813938623539 -18.862249829261074 M43.61813938623539 -18.862249829261074 C44.08284339683187 -18.72432811819717, 44.54754740742834 -18.586406407133264, 44.816485251460605 -18.50658706670804 M43.61813938623539 -18.862249829261074 C44.01847367555818 -18.743432713587637, 44.41880796488097 -18.6246155979142, 44.816485251460605 -18.50658706670804 M44.816485251460605 -18.50658706670804 C45.25531387753035 -18.34509407582702, 45.6941425036001 -18.183601084946, 45.9895815951478 -18.074876768247425 M44.816485251460605 -18.50658706670804 C45.08542078355828 -18.40761630488329, 45.35435631565594 -18.308645543058542, 45.9895815951478 -18.074876768247425 M45.9895815951478 -18.074876768247425 C46.37249340779508 -17.905373067463817, 46.75540522044238 -17.73586936668021, 47.13260791279238 -17.568892924097174 M45.9895815951478 -18.074876768247425 C46.36152746356511 -17.91022736568125, 46.733473331982424 -17.745577963115075, 47.13260791279238 -17.568892924097174 M47.13260791279238 -17.568892924097174 C47.42122773653619 -17.41832014691985, 47.709847560280004 -17.267747369742523, 48.24086726407678 -16.990714730406097 M47.13260791279238 -17.568892924097174 C47.35542508442253 -17.452649348378934, 47.57824225605268 -17.336405772660697, 48.24086726407678 -16.990714730406097 M48.24086726407678 -16.990714730406097 C48.55315188625519 -16.8014059572534, 48.8654365084336 -16.612097184100705, 49.3098055736057 -16.342718045390892 M48.24086726407678 -16.990714730406097 C48.50521734599897 -16.83046415725135, 48.76956742792116 -16.6702135840966, 49.3098055736057 -16.342718045390892 M49.3098055736057 -16.342718045390892 C49.57316990513009 -16.159006488577646, 49.836534236654465 -15.975294931764397, 50.33503034457871 -15.627565626425154 M49.3098055736057 -16.342718045390892 C49.61729071826759 -16.128229719292136, 49.924775862929486 -15.91374139319338, 50.33503034457871 -15.627565626425154 M50.33503034457871 -15.627565626425154 C50.66230990199136 -15.366568888663359, 50.989589459404 -15.105572150901564, 51.312328708501866 -14.848196188198123 M50.33503034457871 -15.627565626425154 C50.686741847243425 -15.347085062486205, 51.03845334990813 -15.066604498547253, 51.312328708501866 -14.848196188198123 M51.312328708501866 -14.848196188198123 C51.65990122793345 -14.532540022315285, 52.00747374736503 -14.216883856432448, 52.23768473676799 -14.007812326905688 M51.312328708501866 -14.848196188198123 C51.647595416896365 -14.543715834305251, 51.98286212529086 -14.239235480412379, 52.23768473676799 -14.007812326905688 M52.23768473676799 -14.007812326905688 C52.480177131425606 -13.75741902042584, 52.72266952608322 -13.50702571394599, 53.10729594296865 -13.10986736009568 M52.23768473676799 -14.007812326905688 C52.4750499796518 -13.762713225579278, 52.71241522253562 -13.51761412425287, 53.10729594296865 -13.10986736009568 M53.10729594296865 -13.10986736009568 C53.38786779331915 -12.780291699683422, 53.668439643669664 -12.450716039271164, 53.91758890812658 -12.158051136245305 M53.10729594296865 -13.10986736009568 C53.27196141865297 -12.916441922625875, 53.436626894337294 -12.723016485156068, 53.91758890812658 -12.158051136245305 M53.91758890812658 -12.158051136245305 C54.1811261666302 -11.80493521858861, 54.44466342513382 -11.451819300931918, 54.665233964640635 -11.156274872382312 M53.91758890812658 -12.158051136245305 C54.11464929005567 -11.89400817703044, 54.31170967198476 -11.629965217815574, 54.665233964640635 -11.156274872382312 M54.665233964640635 -11.156274872382312 C54.92732803671599 -10.753627995561791, 55.18942210879134 -10.35098111874127, 55.34715887860425 -10.108655082055241 M54.665233964640635 -11.156274872382312 C54.895623802163904 -10.802334213612818, 55.126013639687166 -10.448393554843324, 55.34715887860425 -10.108655082055241 M55.34715887860425 -10.108655082055241 C55.481633942794254 -9.869880988509058, 55.61610900698425 -9.631106894962873, 55.960561474273504 -9.019496659696287 M55.34715887860425 -10.108655082055241 C55.497553770349924 -9.841613722626612, 55.6479486620956 -9.574572363197982, 55.960561474273504 -9.019496659696287 M55.960561474273504 -9.019496659696287 C56.16410725411481 -8.596829492673814, 56.36765303395611 -8.174162325651341, 56.50292114880834 -7.893275190886684 M55.960561474273504 -9.019496659696287 C56.112626081530664 -8.703731249065418, 56.26469068878783 -8.38796583843455, 56.50292114880834 -7.893275190886684 M56.50292114880834 -7.893275190886684 C56.67396980813455 -7.47078169535009, 56.84501846746076 -7.048288199813495, 56.972009229970325 -6.734618561215508 M56.50292114880834 -7.893275190886684 C56.65579168920678 -7.515682000551702, 56.808662229605225 -7.138088810216719, 56.972009229970325 -6.734618561215508 M56.972009229970325 -6.734618561215508 C57.06429496228903 -6.4566686392061925, 57.15658069460775 -6.178718717196878, 57.36589813421488 -5.548287939305138 M56.972009229970325 -6.734618561215508 C57.07043019080755 -6.438190308424344, 57.16885115164477 -6.141762055633182, 57.36589813421488 -5.548287939305138 M57.36589813421488 -5.548287939305138 C57.464247853853124 -5.1732378332863895, 57.56259757349137 -4.79818772726764, 57.68296928754556 -4.339158212148133 M57.36589813421488 -5.548287939305138 C57.46163931147158 -5.183185335936649, 57.55738048872828 -4.818082732568161, 57.68296928754556 -4.339158212148133 M57.68296928754556 -4.339158212148133 C57.772889987517374 -3.8774344225395287, 57.86281068748919 -3.415710632930924, 57.921919776581774 -3.1121979531509023 M57.68296928754556 -4.339158212148133 C57.73811407266572 -4.056001395410589, 57.79325885778587 -3.772844578673044, 57.921919776581774 -3.1121979531509023 M57.921919776581774 -3.1121979531509023 C57.98310914011108 -2.6376253328241086, 58.0442985036404 -2.163052712497315, 58.08176770250937 -1.872449005199798 M57.921919776581774 -3.1121979531509023 C57.97299392348035 -2.7160769555365922, 58.02406807037894 -2.319955957922282, 58.08176770250937 -1.872449005199798 M58.08176770250937 -1.872449005199798 C58.11170864125479 -1.4060947163490565, 58.14164958000022 -0.939740427498315, 58.16185621591342 -0.6250057626472757 M58.08176770250937 -1.872449005199798 C58.10119670543259 -1.5698266018617055, 58.12062570835582 -1.267204198523613, 58.16185621591342 -0.6250057626472757 M58.16185621591342 -0.6250057626472757 C58.16185621591342 -0.20165476555397993, 58.16185621591342 0.22169623153931584, 58.16185621591342 0.625005762647271 M58.16185621591342 -0.6250057626472757 C58.16185621591342 -0.2785340269859707, 58.16185621591342 0.06793770867533433, 58.16185621591342 0.625005762647271 M58.16185621591342 0.625005762647271 C58.13924655572128 0.9771694703290585, 58.11663689552914 1.3293331780108462, 58.08176770250937 1.8724490051997846 M58.16185621591342 0.625005762647271 C58.14042780305847 0.9587705895665168, 58.118999390203534 1.2925354164857628, 58.08176770250937 1.8724490051997846 M58.08176770250937 1.8724490051997846 C58.032574019766415 2.2539854941626642, 57.98338033702347 2.6355219831255443, 57.921919776581774 3.1121979531508885 M58.08176770250937 1.8724490051997846 C58.033331371354315 2.248111624802907, 57.98489504019926 2.6237742444060297, 57.921919776581774 3.1121979531508885 M57.921919776581774 3.1121979531508885 C57.86865251611473 3.385714077609687, 57.81538525564768 3.6592302020684846, 57.68296928754556 4.339158212148129 M57.921919776581774 3.1121979531508885 C57.85632636438212 3.449006261623551, 57.79073295218246 3.785814570096214, 57.68296928754556 4.339158212148129 M57.68296928754556 4.339158212148129 C57.60351668304896 4.642145428070294, 57.52406407855236 4.945132643992459, 57.36589813421489 5.548287939305125 M57.68296928754556 4.339158212148129 C57.56655976753071 4.783078164169868, 57.450150247515865 5.226998116191607, 57.36589813421489 5.548287939305125 M57.36589813421489 5.548287939305125 C57.211293619713125 6.013932104100254, 57.05668910521136 6.479576268895382, 56.972009229970325 6.734618561215495 M57.36589813421489 5.548287939305125 C57.26249996522146 5.859706750052347, 57.15910179622803 6.1711255607995685, 56.972009229970325 6.734618561215495 M56.972009229970325 6.734618561215495 C56.859172677320345 7.013327027807283, 56.746336124670364 7.292035494399071, 56.50292114880834 7.893275190886679 M56.972009229970325 6.734618561215495 C56.80651443673652 7.14339390012716, 56.64101964350271 7.552169239038826, 56.50292114880834 7.893275190886679 M56.50292114880834 7.893275190886679 C56.364391357759764 8.180935266061745, 56.22586156671119 8.46859534123681, 55.960561474273504 9.019496659696284 M56.50292114880834 7.893275190886679 C56.33469117310942 8.242608334970342, 56.16646119741049 8.591941479054004, 55.960561474273504 9.019496659696284 M55.960561474273504 9.019496659696284 C55.774902395057474 9.349153154864716, 55.58924331584144 9.67880965003315, 55.34715887860425 10.108655082055236 M55.960561474273504 9.019496659696284 C55.827084046500396 9.256499348762622, 55.693606618727294 9.49350203782896, 55.34715887860425 10.108655082055236 M55.34715887860425 10.108655082055236 C55.080093147055656 10.518939762904148, 54.813027415507065 10.92922444375306, 54.66523396464064 11.156274872382301 M55.34715887860425 10.108655082055236 C55.19333397691106 10.344971438825707, 55.03950907521788 10.581287795596177, 54.66523396464064 11.156274872382301 M54.66523396464064 11.156274872382301 C54.46202581341728 11.428555282378195, 54.258817662193906 11.70083569237409, 53.91758890812658 12.158051136245302 M54.66523396464064 11.156274872382301 C54.509958124898326 11.364330351716998, 54.35468228515601 11.572385831051696, 53.91758890812658 12.158051136245302 M53.91758890812658 12.158051136245302 C53.708186412746414 12.404027222658385, 53.49878391736624 12.65000330907147, 53.10729594296866 13.10986736009567 M53.91758890812658 12.158051136245302 C53.6319321697419 12.493599795480824, 53.34627543135723 12.829148454716348, 53.10729594296866 13.10986736009567 M53.10729594296866 13.10986736009567 C52.770397300738196 13.457742868091556, 52.43349865850773 13.80561837608744, 52.23768473676799 14.007812326905684 M53.10729594296866 13.10986736009567 C52.78463585134125 13.443040395587154, 52.461975759713845 13.77621343107864, 52.23768473676799 14.007812326905684 M52.23768473676799 14.007812326905684 C51.87060005839527 14.34118891927543, 51.50351538002255 14.674565511645175, 51.31232870850189 14.848196188198111 M52.23768473676799 14.007812326905684 C51.89823945941852 14.31608754656459, 51.55879418206905 14.624362766223497, 51.31232870850189 14.848196188198111 M51.31232870850189 14.848196188198111 C50.981580357557434 15.11195919649305, 50.65083200661298 15.375722204787987, 50.33503034457871 15.627565626425152 M51.31232870850189 14.848196188198111 C51.0121909191348 15.087548088216353, 50.71205312976772 15.326899988234594, 50.33503034457871 15.627565626425152 M50.33503034457871 15.627565626425152 C50.03680296294966 15.835596137794303, 49.73857558132061 16.043626649163453, 49.30980557360571 16.34271804539089 M50.33503034457871 15.627565626425152 C50.105925654487585 15.787379140450534, 49.876820964396465 15.947192654475916, 49.30980557360571 16.34271804539089 M49.30980557360571 16.34271804539089 C48.88750084513089 16.598721653530376, 48.46519611665607 16.854725261669866, 48.24086726407678 16.990714730406093 M49.30980557360571 16.34271804539089 C48.90883379773584 16.58578949229491, 48.50786202186597 16.828860939198933, 48.24086726407678 16.990714730406093 M48.24086726407678 16.990714730406093 C47.91577757292516 17.160313814050014, 47.590687881773526 17.32991289769393, 47.13260791279239 17.56889292409717 M48.24086726407678 16.990714730406093 C48.01571126518647 17.10817847080787, 47.79055526629616 17.225642211209646, 47.13260791279239 17.56889292409717 M47.13260791279239 17.56889292409717 C46.7143164060049 17.754058165975305, 46.29602489921741 17.939223407853444, 45.989581595147804 18.07487676824742 M47.13260791279239 17.56889292409717 C46.677224350865615 17.770477718488745, 46.22184078893885 17.972062512880317, 45.989581595147804 18.07487676824742 M45.989581595147804 18.07487676824742 C45.642775524682584 18.202504608018792, 45.29596945421737 18.330132447790167, 44.81648525146062 18.506587066708033 M45.989581595147804 18.07487676824742 C45.59211263540169 18.22114901959678, 45.19464367565557 18.36742127094614, 44.81648525146062 18.506587066708033 M44.81648525146062 18.506587066708033 C44.417318719375416 18.62505759816304, 44.01815218729021 18.743528129618046, 43.61813938623541 18.86224982926107 M44.81648525146062 18.506587066708033 C44.4934875101867 18.602451100868393, 44.17048976891277 18.69831513502875, 43.61813938623541 18.86224982926107 M43.61813938623541 18.86224982926107 C43.26818072659619 18.942125609630047, 42.918222066956965 19.022001389999023, 42.399468259676766 19.140403561325773 M43.61813938623541 18.86224982926107 C43.26621615352573 18.942574010613342, 42.914292920816045 19.022898191965613, 42.399468259676766 19.140403561325773 M42.399468259676766 19.140403561325773 C42.03590342462114 19.19918190437016, 41.67233858956551 19.25796024741455, 41.16547965284788 19.3399052695533 M42.399468259676766 19.140403561325773 C42.12827153127829 19.1842485452112, 41.85707480287981 19.228093529096626, 41.16547965284788 19.3399052695533 M41.16547965284788 19.3399052695533 C40.8438486576114 19.370932624845896, 40.522217662374935 19.401959980138493, 39.9212442896239 19.45993515863156 M41.16547965284788 19.3399052695533 C40.81903277418775 19.37332658327431, 40.472585895527615 19.40674789699532, 39.9212442896239 19.45993515863156 M39.9212442896239 19.45993515863156 C39.46982705509642 19.474411230712512, 39.01840982056894 19.488887302793465, 38.67187500000001 19.5 M39.9212442896239 19.45993515863156 C39.580621611648844 19.470858264932396, 39.23999893367378 19.481781371233236, 38.67187500000001 19.5 M38.67187500000001 19.5 C38.67187500000001 19.5, 38.671875 19.5, 38.671875 19.5 M38.67187500000001 19.5 C38.67187500000001 19.5, 38.671875 19.5, 38.671875 19.5 M38.671875 19.5 C17.379296405507986 19.5, -3.9132821889840272 19.5, -38.67187499999999 19.5 M38.671875 19.5 C21.219411701027354 19.5, 3.766948402054709 19.5, -38.67187499999999 19.5 M-38.67187499999999 19.5 C-38.9834173047469 19.490009444667077, -39.29495960949381 19.48001888933415, -39.92124428962389 19.45993515863156 M-38.67187499999999 19.5 C-38.9526496680599 19.490996102890055, -39.23342433611981 19.481992205780113, -39.92124428962389 19.45993515863156 M-39.92124428962389 19.45993515863156 C-40.34498022844551 19.419057862230463, -40.76871616726713 19.378180565829368, -41.16547965284787 19.3399052695533 M-39.92124428962389 19.45993515863156 C-40.18379307018242 19.434607393532183, -40.44634185074094 19.40927962843281, -41.16547965284787 19.3399052695533 M-41.16547965284787 19.3399052695533 C-41.45134324451467 19.293689060957874, -41.73720683618146 19.24747285236245, -42.39946825967676 19.140403561325773 M-41.16547965284787 19.3399052695533 C-41.42456049626383 19.298019087991754, -41.68364133967979 19.25613290643021, -42.39946825967676 19.140403561325773 M-42.39946825967676 19.140403561325773 C-42.728765350071754 19.06524364930745, -43.05806244046674 18.990083737289133, -43.618139386235384 18.862249829261074 M-42.39946825967676 19.140403561325773 C-42.87891870377827 19.030972126166144, -43.358369147879785 18.921540691006513, -43.618139386235384 18.862249829261074 M-43.618139386235384 18.862249829261074 C-44.06854634432294 18.728571408335057, -44.51895330241049 18.594892987409043, -44.81648525146059 18.506587066708043 M-43.618139386235384 18.862249829261074 C-44.0603463459444 18.731005124811137, -44.50255330565343 18.5997604203612, -44.81648525146059 18.506587066708043 M-44.81648525146059 18.506587066708043 C-45.20482948487764 18.363672798995825, -45.59317371829469 18.22075853128361, -45.9895815951478 18.074876768247425 M-44.81648525146059 18.506587066708043 C-45.074424497184374 18.411663039917443, -45.33236374290815 18.316739013126842, -45.9895815951478 18.074876768247425 M-45.9895815951478 18.074876768247425 C-46.37054947470869 17.90623358897644, -46.75151735426958 17.737590409705454, -47.13260791279238 17.568892924097174 M-45.9895815951478 18.074876768247425 C-46.31204474959172 17.932131895304714, -46.63450790403564 17.789387022362003, -47.13260791279238 17.568892924097174 M-47.13260791279238 17.568892924097174 C-47.53761912027493 17.357598836575587, -47.942630327757485 17.146304749054, -48.24086726407678 16.990714730406097 M-47.13260791279238 17.568892924097174 C-47.41157190706926 17.423357586967892, -47.69053590134614 17.277822249838614, -48.24086726407678 16.990714730406097 M-48.24086726407678 16.990714730406097 C-48.65572782730694 16.739223818984694, -49.07058839053709 16.48773290756329, -49.309805573605686 16.3427180453909 M-48.24086726407678 16.990714730406097 C-48.643061070443146 16.74690248143365, -49.0452548768095 16.503090232461208, -49.309805573605686 16.3427180453909 M-49.309805573605686 16.3427180453909 C-49.7174657698614 16.05835193980839, -50.12512596611711 15.773985834225876, -50.33503034457871 15.627565626425156 M-49.309805573605686 16.3427180453909 C-49.52273942498094 16.194184608429385, -49.735673276356195 16.04565117146787, -50.33503034457871 15.627565626425156 M-50.33503034457871 15.627565626425156 C-50.69683652666936 15.339034824274721, -51.05864270876001 15.050504022124287, -51.312328708501866 14.848196188198125 M-50.33503034457871 15.627565626425156 C-50.59749501668978 15.418257034894836, -50.859959688800835 15.208948443364518, -51.312328708501866 14.848196188198125 M-51.312328708501866 14.848196188198125 C-51.596966610727804 14.589695576502729, -51.88160451295374 14.331194964807333, -52.237684736767974 14.007812326905697 M-51.312328708501866 14.848196188198125 C-51.56967876418456 14.614477676736453, -51.827028819867245 14.380759165274778, -52.237684736767974 14.007812326905697 M-52.237684736767974 14.007812326905697 C-52.44452295749446 13.794234882271862, -52.651361178220945 13.580657437638028, -53.107295942968655 13.109867360095677 M-52.237684736767974 14.007812326905697 C-52.41200163312093 13.827815819737918, -52.586318529473886 13.647819312570139, -53.107295942968655 13.109867360095677 M-53.107295942968655 13.109867360095677 C-53.42036637900786 12.742117011711562, -53.733436815047064 12.374366663327447, -53.917588908126575 12.158051136245307 M-53.107295942968655 13.109867360095677 C-53.37581559498132 12.79444889764056, -53.64433524699398 12.479030435185443, -53.917588908126575 12.158051136245307 M-53.917588908126575 12.158051136245307 C-54.09167469612565 11.924792039868098, -54.265760484124726 11.691532943490888, -54.665233964640635 11.156274872382316 M-53.917588908126575 12.158051136245307 C-54.21632538721236 11.75777146972348, -54.51506186629814 11.357491803201652, -54.665233964640635 11.156274872382316 M-54.665233964640635 11.156274872382316 C-54.84706623084228 10.876931682696435, -55.02889849704393 10.597588493010553, -55.34715887860425 10.108655082055249 M-54.665233964640635 11.156274872382316 C-54.88295356831557 10.821799095238028, -55.10067317199051 10.487323318093742, -55.34715887860425 10.108655082055249 M-55.34715887860425 10.108655082055249 C-55.55994252127633 9.730836177810716, -55.7727261639484 9.353017273566183, -55.960561474273504 9.019496659696289 M-55.34715887860425 10.108655082055249 C-55.543696118725485 9.759683310666377, -55.74023335884672 9.410711539277505, -55.960561474273504 9.019496659696289 M-55.960561474273504 9.019496659696289 C-56.095135581498 8.740050646620004, -56.229709688722494 8.46060463354372, -56.50292114880834 7.893275190886686 M-55.960561474273504 9.019496659696289 C-56.17565207246006 8.572856430360355, -56.390742670646624 8.126216201024421, -56.50292114880834 7.893275190886686 M-56.50292114880834 7.893275190886686 C-56.67709484752874 7.463062787627904, -56.85126854624915 7.032850384369122, -56.972009229970325 6.73461856121551 M-56.50292114880834 7.893275190886686 C-56.6779099381657 7.461049497995928, -56.852898727523055 7.028823805105169, -56.972009229970325 6.73461856121551 M-56.972009229970325 6.73461856121551 C-57.08523967323118 6.393586506934961, -57.19847011649203 6.0525544526544115, -57.36589813421488 5.5482879393051325 M-56.972009229970325 6.73461856121551 C-57.06084690159699 6.467053648636778, -57.149684573223645 6.199488736058046, -57.36589813421488 5.5482879393051325 M-57.36589813421488 5.5482879393051325 C-57.481613534457196 5.107014966809477, -57.59732893469951 4.665741994313822, -57.68296928754556 4.339158212148136 M-57.36589813421488 5.5482879393051325 C-57.45411223088233 5.211889356480815, -57.54232632754978 4.875490773656497, -57.68296928754556 4.339158212148136 M-57.68296928754556 4.339158212148136 C-57.75577389925494 3.965321918280583, -57.82857851096433 3.5914856244130307, -57.921919776581774 3.112197953150904 M-57.68296928754556 4.339158212148136 C-57.74679882700512 4.011407017401227, -57.810628366464684 3.683655822654319, -57.921919776581774 3.112197953150904 M-57.921919776581774 3.112197953150904 C-57.95741429292056 2.836909493612341, -57.99290880925934 2.561621034073778, -58.08176770250937 1.872449005199809 M-57.921919776581774 3.112197953150904 C-57.97754196893333 2.680803213116509, -58.03316416128488 2.249408473082114, -58.08176770250937 1.872449005199809 M-58.08176770250937 1.872449005199809 C-58.10409705922882 1.5246512503620264, -58.126426415948266 1.1768534955242438, -58.16185621591342 0.6250057626472781 M-58.08176770250937 1.872449005199809 C-58.101415057476785 1.5664255925227517, -58.12106241244421 1.2604021798456944, -58.16185621591342 0.6250057626472781 M-58.16185621591342 0.6250057626472781 C-58.16185621591342 0.3393723897043843, -58.16185621591342 0.05373901676149051, -58.16185621591342 -0.6250057626472687 M-58.16185621591342 0.6250057626472781 C-58.16185621591342 0.36592417796079196, -58.16185621591342 0.10684259327430579, -58.16185621591342 -0.6250057626472687 M-58.16185621591342 -0.6250057626472687 C-58.13516351880355 -1.040766066090674, -58.10847082169369 -1.4565263695340793, -58.08176770250937 -1.8724490051997822 M-58.16185621591342 -0.6250057626472687 C-58.13295754222588 -1.0751259319201418, -58.10405886853835 -1.5252461011930147, -58.08176770250937 -1.8724490051997822 M-58.08176770250937 -1.8724490051997822 C-58.03575042916936 -2.2293498900864077, -57.989733155829356 -2.586250774973033, -57.921919776581774 -3.112197953150895 M-58.08176770250937 -1.8724490051997822 C-58.04232763668229 -2.178338367432717, -58.0028875708552 -2.484227729665651, -57.921919776581774 -3.112197953150895 M-57.921919776581774 -3.112197953150895 C-57.849489509279934 -3.4841120676034407, -57.777059241978094 -3.856026182055986, -57.68296928754556 -4.339158212148126 M-57.921919776581774 -3.112197953150895 C-57.8730219748192 -3.363277830647652, -57.824124173056624 -3.6143577081444094, -57.68296928754556 -4.339158212148126 M-57.68296928754556 -4.339158212148126 C-57.58964062342439 -4.695060857341055, -57.49631195930322 -5.050963502533983, -57.36589813421489 -5.548287939305123 M-57.68296928754556 -4.339158212148126 C-57.58035619942637 -4.730466389940332, -57.47774311130717 -5.121774567732538, -57.36589813421489 -5.548287939305123 M-57.36589813421489 -5.548287939305123 C-57.235358436587106 -5.941452709883705, -57.10481873895932 -6.3346174804622875, -56.97200922997033 -6.734618561215485 M-57.36589813421489 -5.548287939305123 C-57.23987274033656 -5.927856346246969, -57.11384734645823 -6.3074247531888155, -56.97200922997033 -6.734618561215485 M-56.97200922997033 -6.734618561215485 C-56.82677229279121 -7.09335660401307, -56.68153535561209 -7.452094646810655, -56.50292114880834 -7.893275190886676 M-56.97200922997033 -6.734618561215485 C-56.86071352352126 -7.009521107900783, -56.7494178170722 -7.28442365458608, -56.50292114880834 -7.893275190886676 M-56.50292114880834 -7.893275190886676 C-56.31818654165995 -8.276880555317696, -56.13345193451156 -8.660485919748716, -55.960561474273504 -9.019496659696282 M-56.50292114880834 -7.893275190886676 C-56.337534027494165 -8.236705087013075, -56.17214690617998 -8.580134983139473, -55.960561474273504 -9.019496659696282 M-55.960561474273504 -9.019496659696282 C-55.75370525660087 -9.386790820637447, -55.54684903892823 -9.754084981578611, -55.34715887860425 -10.108655082055243 M-55.960561474273504 -9.019496659696282 C-55.81354910202367 -9.280532013242805, -55.66653672977383 -9.54156736678933, -55.34715887860425 -10.108655082055243 M-55.34715887860425 -10.108655082055243 C-55.08688163917104 -10.508510816049553, -54.82660439973783 -10.908366550043862, -54.66523396464064 -11.156274872382308 M-55.34715887860425 -10.108655082055243 C-55.19610404309743 -10.340715873296531, -55.04504920759061 -10.57277666453782, -54.66523396464064 -11.156274872382308 M-54.66523396464064 -11.156274872382308 C-54.474639994512756 -11.411653428885796, -54.28404602438487 -11.667031985389283, -53.91758890812659 -12.158051136245302 M-54.66523396464064 -11.156274872382308 C-54.48857859485156 -11.392976974264412, -54.31192322506248 -11.629679076146518, -53.91758890812659 -12.158051136245302 M-53.91758890812659 -12.158051136245302 C-53.732158638248215 -12.3758680825257, -53.54672836836984 -12.5936850288061, -53.10729594296866 -13.10986736009567 M-53.91758890812659 -12.158051136245302 C-53.732150774207916 -12.375877320074908, -53.54671264028925 -12.593703503904514, -53.10729594296866 -13.10986736009567 M-53.10729594296866 -13.10986736009567 C-52.76091995332436 -13.467529007401033, -52.41454396368006 -13.825190654706399, -52.237684736767996 -14.007812326905677 M-53.10729594296866 -13.10986736009567 C-52.879862858834564 -13.344710692067595, -52.652429774700465 -13.579554024039522, -52.237684736767996 -14.007812326905677 M-52.237684736767996 -14.007812326905677 C-51.95222542137923 -14.267058924302146, -51.666766105990476 -14.526305521698617, -51.31232870850189 -14.848196188198107 M-52.237684736767996 -14.007812326905677 C-52.00436850142854 -14.219703958631667, -51.77105226608908 -14.43159559035766, -51.31232870850189 -14.848196188198107 M-51.31232870850189 -14.848196188198107 C-51.09385937760352 -15.022419665876496, -50.875390046705164 -15.196643143554887, -50.33503034457872 -15.627565626425149 M-51.31232870850189 -14.848196188198107 C-50.97970293490996 -15.113456391094097, -50.64707716131802 -15.378716593990088, -50.33503034457872 -15.627565626425149 M-50.33503034457872 -15.627565626425149 C-50.05754407940743 -15.821128032821823, -49.780057814236145 -16.014690439218498, -49.309805573605715 -16.342718045390885 M-50.33503034457872 -15.627565626425149 C-49.946614803986535 -15.898507493304505, -49.55819926339434 -16.16944936018386, -49.309805573605715 -16.342718045390885 M-49.309805573605715 -16.342718045390885 C-48.90807405008144 -16.586250055787783, -48.506342526557155 -16.82978206618468, -48.24086726407679 -16.99071473040609 M-49.309805573605715 -16.342718045390885 C-49.07444024082196 -16.48539789328462, -48.83907490803821 -16.628077741178355, -48.24086726407679 -16.99071473040609 M-48.24086726407679 -16.99071473040609 C-48.008413902477976 -17.111985500258708, -47.77596054087916 -17.233256270111323, -47.13260791279239 -17.56889292409717 M-48.24086726407679 -16.99071473040609 C-48.00309576186154 -17.11475997081187, -47.765324259646285 -17.238805211217656, -47.13260791279239 -17.56889292409717 M-47.13260791279239 -17.56889292409717 C-46.784272600670064 -17.723090633773822, -46.435937288547734 -17.877288343450473, -45.989581595147804 -18.07487676824742 M-47.13260791279239 -17.56889292409717 C-46.854688633434044 -17.691919544886602, -46.57676935407571 -17.814946165676034, -45.989581595147804 -18.07487676824742 M-45.989581595147804 -18.07487676824742 C-45.73084276648771 -18.170095048949847, -45.47210393782762 -18.265313329652276, -44.81648525146062 -18.506587066708033 M-45.989581595147804 -18.07487676824742 C-45.62175266034534 -18.21024121642813, -45.25392372554287 -18.345605664608836, -44.81648525146062 -18.506587066708033 M-44.81648525146062 -18.506587066708033 C-44.413616925296914 -18.626156271214423, -44.010748599133215 -18.745725475720814, -43.61813938623541 -18.862249829261067 M-44.81648525146062 -18.506587066708033 C-44.56029892834234 -18.582621822660087, -44.30411260522406 -18.65865657861214, -43.61813938623541 -18.862249829261067 M-43.61813938623541 -18.862249829261067 C-43.37083060306322 -18.91869644517949, -43.123521819891025 -18.97514306109791, -42.399468259676766 -19.140403561325773 M-43.61813938623541 -18.862249829261067 C-43.25030445364787 -18.946205752276914, -42.88246952106034 -19.03016167529276, -42.399468259676766 -19.140403561325773 M-42.399468259676766 -19.140403561325773 C-42.09494145334014 -19.189637093733623, -41.79041464700352 -19.238870626141473, -41.16547965284788 -19.3399052695533 M-42.399468259676766 -19.140403561325773 C-41.932577854430214 -19.215886781256867, -41.46568744918366 -19.29137000118796, -41.16547965284788 -19.3399052695533 M-41.16547965284788 -19.3399052695533 C-40.765578053399814 -19.378483295900015, -40.36567645395174 -19.41706132224673, -39.9212442896239 -19.45993515863156 M-41.16547965284788 -19.3399052695533 C-40.83242775332152 -19.372034385747096, -40.49937585379516 -19.40416350194089, -39.9212442896239 -19.45993515863156 M-39.9212442896239 -19.45993515863156 C-39.53965853603495 -19.472171871037546, -39.158072782446006 -19.484408583443532, -38.67187500000001 -19.5 M-39.9212442896239 -19.45993515863156 C-39.43931776576755 -19.475389604238558, -38.957391241911196 -19.49084404984556, -38.67187500000001 -19.5 M-38.67187500000001 -19.5 C-38.67187500000001 -19.5, -38.671875 -19.5, -38.671875 -19.5 M-38.67187500000001 -19.5 C-38.67187500000001 -19.5, -38.671875 -19.5, -38.671875 -19.5" stroke="#9370DB" stroke-width="1.3" fill="none" stroke-dasharray="0 0" style=""/></g><g class="label" style="" transform="translate(-45.796875, -12)"><rect/><foreignObject width="91.59375" height="24"><div xmlns="http://www.w3.org/1999/xhtml" style="display: table-cell; white-space: nowrap; line-height: 1.5; max-width: 200px; text-align: center;"><span class="nodeLabel"><p>soi : ReelCut</p></span></div></foreignObject></g></g><g class="node default" id="my-svg-flowchart-CR-8" data-look="classic" transform="translate(1897.5234375, 56)"><rect class="basic label-container" style="" x="-88.2421875" y="-27" width="176.484375" height="54"/><g class="label" style="" transform="translate(-58.2421875, -12)"><rect/><foreignObject width="116.484375" height="24"><div xmlns="http://www.w3.org/1999/xhtml" style="display: table-cell; white-space: nowrap; line-height: 1.5; max-width: 200px; text-align: center;"><span class="nodeLabel"><p>creator : Creator</p></span></div></foreignObject></g></g><g class="node default" id="my-svg-flowchart-BR-9" data-look="classic" transform="translate(1511, 56)"><rect class="basic label-container" style="" x="-110.765625" y="-27" width="221.53125" height="54"/><g class="label" style="" transform="translate(-80.765625, -12)"><rect/><foreignObject width="161.53125" height="24"><div xmlns="http://www.w3.org/1999/xhtml" style="display: table-cell; white-space: nowrap; line-height: 1.5; max-width: 200px; text-align: center;"><span class="nodeLabel"><p>browser : WebBrowser</p></span></div></foreignObject></g></g><g class="node default" id="my-svg-flowchart-FF-17" data-look="classic" transform="translate(1511, 180)"><rect class="basic label-container" style="" x="-90.765625" y="-27" width="181.53125" height="54"/><g class="label" style="" transform="translate(-60.765625, -12)"><rect/><foreignObject width="121.53125" height="24"><div xmlns="http://www.w3.org/1999/xhtml" style="display: table-cell; white-space: nowrap; line-height: 1.5; max-width: 200px; text-align: center;"><span class="nodeLabel"><p>ffmpeg : FFmpeg</p></span></div></foreignObject></g></g><g class="node default" id="my-svg-flowchart-WH-21" data-look="classic" transform="translate(1511, 292)"><rect class="basic label-container" style="" x="-113.5859375" y="-27" width="227.171875" height="54"/><g class="label" style="" transform="translate(-83.5859375, -12)"><rect/><foreignObject width="167.171875" height="24"><div xmlns="http://www.w3.org/1999/xhtml" style="display: table-cell; white-space: nowrap; line-height: 1.5; max-width: 200px; text-align: center;"><span class="nodeLabel"><p>asr : WhisperASR [0..1]</p></span></div></foreignObject></g></g><g class="node default" id="my-svg-flowchart-PUB-25" data-look="classic" transform="translate(1015.6171875, 304)"><rect class="basic label-container" style="" x="-115.3828125" y="-27" width="230.765625" height="54"/><g class="label" style="" transform="translate(-85.3828125, -12)"><rect/><foreignObject width="170.765625" height="24"><div xmlns="http://www.w3.org/1999/xhtml" style="display: table-cell; white-space: nowrap; line-height: 1.5; max-width: 200px; text-align: center;"><span class="nodeLabel"><p>publish : PublishingDest</p></span></div></foreignObject></g></g><g class="node default" id="my-svg-flowchart-VW-27" data-look="classic" transform="translate(1015.6171875, 408)"><rect class="basic label-container" style="" x="-84.09375" y="-27" width="168.1875" height="54"/><g class="label" style="" transform="translate(-54.09375, -12)"><rect/><foreignObject width="108.1875" height="24"><div xmlns="http://www.w3.org/1999/xhtml" style="display: table-cell; white-space: nowrap; line-height: 1.5; max-width: 200px; text-align: center;"><span class="nodeLabel"><p>viewer : Viewer</p></span></div></foreignObject></g></g><g class="node default" id="my-svg-flowchart-MOB-29" data-look="classic" transform="translate(1511, 408)"><rect class="basic label-container" style="" x="-130" y="-39" width="260" height="78"/><g class="label" style="" transform="translate(-100, -24)"><rect/><foreignObject width="200" height="48"><div xmlns="http://www.w3.org/1999/xhtml" style="display: table; white-space: break-spaces; line-height: 1.5; max-width: 200px; text-align: center; width: 200px;"><span class="nodeLabel"><p>android / iphone : MobileClient (future)</p></span></div></foreignObject></g></g></g></g></g><defs><filter id="my-svg-drop-shadow" height="130%" width="130%"><feDropShadow dx="4" dy="4" stdDeviation="0" flood-opacity="0.06" flood-color="#000000"/></filter></defs><defs><filter id="my-svg-drop-shadow-small" height="150%" width="150%"><feDropShadow dx="2" dy="2" stdDeviation="0" flood-opacity="0.06" flood-color="#000000"/></filter></defs></svg>